%TF.GenerationSoftware,KiCad,Pcbnew,(5.1.6)-1*%
%TF.CreationDate,2020-06-17T01:07:27+01:00*%
%TF.ProjectId,I_sense_pcb,495f7365-6e73-4655-9f70-63622e6b6963,rev?*%
%TF.SameCoordinates,Original*%
%TF.FileFunction,Copper,L2,Bot*%
%TF.FilePolarity,Positive*%
%FSLAX46Y46*%
G04 Gerber Fmt 4.6, Leading zero omitted, Abs format (unit mm)*
G04 Created by KiCad (PCBNEW (5.1.6)-1) date 2020-06-17 01:07:27*
%MOMM*%
%LPD*%
G01*
G04 APERTURE LIST*
%TA.AperFunction,ComponentPad*%
%ADD10C,3.500000*%
%TD*%
%TA.AperFunction,ComponentPad*%
%ADD11C,2.010000*%
%TD*%
%TA.AperFunction,ComponentPad*%
%ADD12R,1.700000X1.700000*%
%TD*%
%TA.AperFunction,ComponentPad*%
%ADD13O,1.700000X1.700000*%
%TD*%
%TA.AperFunction,ViaPad*%
%ADD14C,0.800000*%
%TD*%
%TA.AperFunction,Conductor*%
%ADD15C,0.250000*%
%TD*%
%TA.AperFunction,Conductor*%
%ADD16C,0.254000*%
%TD*%
G04 APERTURE END LIST*
D10*
%TO.P,J9,1*%
%TO.N,Net-(F3-Pad2)*%
X153760000Y-55982000D03*
%TD*%
%TO.P,J10,1*%
%TO.N,Net-(F3-Pad1)*%
X142330000Y-55982000D03*
%TD*%
%TO.P,J14,1*%
%TO.N,Net-(J14-Pad1)*%
X154156000Y-77690000D03*
%TD*%
%TO.P,J15,1*%
%TO.N,Net-(J15-Pad1)*%
X154156000Y-61434000D03*
%TD*%
D11*
%TO.P,F4,1*%
%TO.N,Net-(F4-Pad1)*%
X146013000Y-82652000D03*
%TO.P,F4,2*%
%TO.N,Net-(F4-Pad2)*%
X151113000Y-83852000D03*
%TD*%
D10*
%TO.P,J13,1*%
%TO.N,Net-(J13-Pad1)*%
X142472000Y-61434000D03*
%TD*%
%TO.P,J16,1*%
%TO.N,Net-(J16-Pad1)*%
X142472000Y-77690000D03*
%TD*%
%TO.P,J12,1*%
%TO.N,Net-(F4-Pad1)*%
X142965000Y-83287000D03*
%TD*%
%TO.P,J11,1*%
%TO.N,Net-(F4-Pad2)*%
X154395000Y-83287000D03*
%TD*%
D11*
%TO.P,F3,2*%
%TO.N,Net-(F3-Pad2)*%
X150732000Y-56674000D03*
%TO.P,F3,1*%
%TO.N,Net-(F3-Pad1)*%
X145632000Y-55474000D03*
%TD*%
%TO.P,F2,1*%
%TO.N,Net-(F2-Pad1)*%
X125910000Y-55482000D03*
%TO.P,F2,2*%
%TO.N,Net-(F2-Pad2)*%
X131010000Y-56682000D03*
%TD*%
D10*
%TO.P,J1,1*%
%TO.N,Net-(F1-Pad2)*%
X134673000Y-83295000D03*
%TD*%
%TO.P,J2,1*%
%TO.N,Net-(F1-Pad1)*%
X123243000Y-83295000D03*
%TD*%
%TO.P,J7,1*%
%TO.N,Net-(J7-Pad1)*%
X122914000Y-77690000D03*
%TD*%
%TO.P,J6,1*%
%TO.N,Net-(J6-Pad1)*%
X122914000Y-61434000D03*
%TD*%
D11*
%TO.P,F1,2*%
%TO.N,Net-(F1-Pad2)*%
X131391000Y-83860000D03*
%TO.P,F1,1*%
%TO.N,Net-(F1-Pad1)*%
X126291000Y-82660000D03*
%TD*%
D10*
%TO.P,J8,1*%
%TO.N,Net-(J8-Pad1)*%
X134344000Y-61434000D03*
%TD*%
%TO.P,J5,1*%
%TO.N,Net-(J5-Pad1)*%
X134344000Y-77690000D03*
%TD*%
%TO.P,J4,1*%
%TO.N,Net-(F2-Pad1)*%
X122608000Y-55990000D03*
%TD*%
%TO.P,J3,1*%
%TO.N,Net-(F2-Pad2)*%
X134038000Y-55990000D03*
%TD*%
D12*
%TO.P,J17,1*%
%TO.N,A0*%
X109960000Y-58640000D03*
D13*
%TO.P,J17,2*%
%TO.N,I_sense_2*%
X112500000Y-58640000D03*
%TO.P,J17,3*%
%TO.N,A1*%
X109960000Y-61180000D03*
%TO.P,J17,4*%
%TO.N,T_sense2*%
X112500000Y-61180000D03*
%TO.P,J17,5*%
%TO.N,A2*%
X109960000Y-63720000D03*
%TO.P,J17,6*%
%TO.N,+3V3*%
X112500000Y-63720000D03*
%TO.P,J17,7*%
%TO.N,A3*%
X109960000Y-66260000D03*
%TO.P,J17,8*%
%TO.N,SDA*%
X112500000Y-66260000D03*
%TO.P,J17,9*%
%TO.N,A4*%
X109960000Y-68800000D03*
%TO.P,J17,10*%
%TO.N,SCL*%
X112500000Y-68800000D03*
%TO.P,J17,11*%
%TO.N,D0*%
X109960000Y-71340000D03*
%TO.P,J17,12*%
%TO.N,I_sense_1*%
X112500000Y-71340000D03*
%TO.P,J17,13*%
%TO.N,D1*%
X109960000Y-73880000D03*
%TO.P,J17,14*%
%TO.N,T_sense1*%
X112500000Y-73880000D03*
%TO.P,J17,15*%
%TO.N,D2*%
X109960000Y-76420000D03*
%TO.P,J17,16*%
%TO.N,D3*%
X112500000Y-76420000D03*
%TO.P,J17,17*%
%TO.N,PWM0*%
X109960000Y-78960000D03*
%TO.P,J17,18*%
%TO.N,+5V*%
X112500000Y-78960000D03*
%TO.P,J17,19*%
%TO.N,PWM1*%
X109960000Y-81500000D03*
%TO.P,J17,20*%
%TO.N,GND*%
X112500000Y-81500000D03*
%TD*%
%TO.P,J18,20*%
%TO.N,Net-(J18-Pad20)*%
X163300000Y-81500000D03*
%TO.P,J18,19*%
%TO.N,Net-(J18-Pad19)*%
X160760000Y-81500000D03*
%TO.P,J18,18*%
%TO.N,Net-(J18-Pad18)*%
X163300000Y-78960000D03*
%TO.P,J18,17*%
%TO.N,Net-(J18-Pad17)*%
X160760000Y-78960000D03*
%TO.P,J18,16*%
%TO.N,Net-(J18-Pad16)*%
X163300000Y-76420000D03*
%TO.P,J18,15*%
%TO.N,Net-(J18-Pad15)*%
X160760000Y-76420000D03*
%TO.P,J18,14*%
%TO.N,Net-(J18-Pad14)*%
X163300000Y-73880000D03*
%TO.P,J18,13*%
%TO.N,Net-(J18-Pad13)*%
X160760000Y-73880000D03*
%TO.P,J18,12*%
%TO.N,Net-(J18-Pad12)*%
X163300000Y-71340000D03*
%TO.P,J18,11*%
%TO.N,Net-(J18-Pad11)*%
X160760000Y-71340000D03*
%TO.P,J18,10*%
%TO.N,Net-(J18-Pad10)*%
X163300000Y-68800000D03*
%TO.P,J18,9*%
%TO.N,Net-(J18-Pad9)*%
X160760000Y-68800000D03*
%TO.P,J18,8*%
%TO.N,Net-(J18-Pad8)*%
X163300000Y-66260000D03*
%TO.P,J18,7*%
%TO.N,Net-(J18-Pad7)*%
X160760000Y-66260000D03*
%TO.P,J18,6*%
%TO.N,Net-(J18-Pad6)*%
X163300000Y-63720000D03*
%TO.P,J18,5*%
%TO.N,Net-(J18-Pad5)*%
X160760000Y-63720000D03*
%TO.P,J18,4*%
%TO.N,Net-(J18-Pad4)*%
X163300000Y-61180000D03*
%TO.P,J18,3*%
%TO.N,Net-(J18-Pad3)*%
X160760000Y-61180000D03*
%TO.P,J18,2*%
%TO.N,Net-(J18-Pad2)*%
X163300000Y-58640000D03*
D12*
%TO.P,J18,1*%
%TO.N,Net-(J18-Pad1)*%
X160760000Y-58640000D03*
%TD*%
D14*
%TO.N,GND*%
X128756000Y-73118000D03*
X128756000Y-66006000D03*
X148568000Y-73118000D03*
X148568000Y-66006000D03*
%TO.N,A0*%
X129593000Y-68563000D03*
X121390000Y-64990000D03*
X116564000Y-64990000D03*
%TO.N,A1*%
X149315000Y-68555000D03*
X121390000Y-66260000D03*
X116564000Y-66260000D03*
%TO.N,A2*%
X144616795Y-69562000D03*
X121390000Y-67530000D03*
X116564000Y-67530000D03*
%TO.N,A3*%
X124780000Y-69562000D03*
X121390000Y-68800000D03*
X116564000Y-68800000D03*
%TD*%
D15*
%TO.N,A0*%
X111230000Y-59910000D02*
X109960000Y-58640000D01*
X113172200Y-59910000D02*
X111230000Y-59910000D01*
X129593000Y-68563000D02*
X126020000Y-64990000D01*
X126020000Y-64990000D02*
X121390000Y-64990000D01*
X121390000Y-64990000D02*
X121390000Y-64990000D01*
X116564000Y-64990000D02*
X116564000Y-64990000D01*
X116564000Y-63301800D02*
X113172200Y-59910000D01*
X116564000Y-64990000D02*
X116564000Y-63301800D01*
%TO.N,A1*%
X133915000Y-68555000D02*
X132146000Y-70324000D01*
X129098000Y-70324000D02*
X125034000Y-66260000D01*
X125034000Y-66260000D02*
X121390000Y-66260000D01*
X132146000Y-70324000D02*
X129098000Y-70324000D01*
X116564000Y-66260000D02*
X116564000Y-66260000D01*
X111230000Y-62450000D02*
X109960000Y-61180000D01*
X113770000Y-62450000D02*
X111230000Y-62450000D01*
X115294000Y-63974000D02*
X113770000Y-62450000D01*
X116564000Y-66260000D02*
X115294000Y-64990000D01*
X115294000Y-64990000D02*
X115294000Y-63974000D01*
X133915000Y-68555000D02*
X149315000Y-68555000D01*
%TO.N,A2*%
X128844000Y-71594000D02*
X132654000Y-71594000D01*
X111230000Y-64990000D02*
X113858000Y-64990000D01*
X132654000Y-71594000D02*
X134686000Y-69562000D01*
X116398000Y-67530000D02*
X116564000Y-67530000D01*
X109960000Y-63720000D02*
X111230000Y-64990000D01*
X124780000Y-67530000D02*
X128844000Y-71594000D01*
X121390000Y-67530000D02*
X124780000Y-67530000D01*
X113858000Y-64990000D02*
X116398000Y-67530000D01*
X144616795Y-69562000D02*
X134686000Y-69562000D01*
%TO.N,A3*%
X124780000Y-69562000D02*
X124018000Y-68800000D01*
X124018000Y-68800000D02*
X121390000Y-68800000D01*
X114303400Y-67555400D02*
X111255400Y-67555400D01*
X116564000Y-68800000D02*
X115548000Y-68800000D01*
X111255400Y-67555400D02*
X109960000Y-66260000D01*
X115548000Y-68800000D02*
X114303400Y-67555400D01*
%TD*%
D16*
%TO.N,GND*%
G36*
X120058435Y-54627229D02*
G01*
X119841561Y-55150810D01*
X119731000Y-55706640D01*
X119731000Y-56273360D01*
X119841561Y-56829190D01*
X120058435Y-57352771D01*
X120373288Y-57823981D01*
X120774019Y-58224712D01*
X121245229Y-58539565D01*
X121768810Y-58756439D01*
X121830577Y-58768725D01*
X121551229Y-58884435D01*
X121080019Y-59199288D01*
X120679288Y-59600019D01*
X120364435Y-60071229D01*
X120147561Y-60594810D01*
X120037000Y-61150640D01*
X120037000Y-61717360D01*
X120147561Y-62273190D01*
X120364435Y-62796771D01*
X120679288Y-63267981D01*
X121080019Y-63668712D01*
X121515489Y-63959684D01*
X121491939Y-63955000D01*
X121288061Y-63955000D01*
X121088102Y-63994774D01*
X120899744Y-64072795D01*
X120730226Y-64186063D01*
X120586063Y-64330226D01*
X120472795Y-64499744D01*
X120394774Y-64688102D01*
X120355000Y-64888061D01*
X120355000Y-65091939D01*
X120394774Y-65291898D01*
X120472795Y-65480256D01*
X120569510Y-65625000D01*
X120472795Y-65769744D01*
X120394774Y-65958102D01*
X120355000Y-66158061D01*
X120355000Y-66361939D01*
X120394774Y-66561898D01*
X120472795Y-66750256D01*
X120569510Y-66895000D01*
X120472795Y-67039744D01*
X120394774Y-67228102D01*
X120355000Y-67428061D01*
X120355000Y-67631939D01*
X120394774Y-67831898D01*
X120472795Y-68020256D01*
X120569510Y-68165000D01*
X120472795Y-68309744D01*
X120394774Y-68498102D01*
X120355000Y-68698061D01*
X120355000Y-68901939D01*
X120394774Y-69101898D01*
X120472795Y-69290256D01*
X120586063Y-69459774D01*
X120730226Y-69603937D01*
X120899744Y-69717205D01*
X121088102Y-69795226D01*
X121288061Y-69835000D01*
X121491939Y-69835000D01*
X121691898Y-69795226D01*
X121880256Y-69717205D01*
X122049774Y-69603937D01*
X122093711Y-69560000D01*
X123703199Y-69560000D01*
X123745000Y-69601801D01*
X123745000Y-69663939D01*
X123784774Y-69863898D01*
X123862795Y-70052256D01*
X123976063Y-70221774D01*
X124120226Y-70365937D01*
X124289744Y-70479205D01*
X124478102Y-70557226D01*
X124678061Y-70597000D01*
X124881939Y-70597000D01*
X125081898Y-70557226D01*
X125270256Y-70479205D01*
X125439774Y-70365937D01*
X125583937Y-70221774D01*
X125697205Y-70052256D01*
X125775226Y-69863898D01*
X125815000Y-69663939D01*
X125815000Y-69639801D01*
X128280201Y-72105003D01*
X128303999Y-72134001D01*
X128332997Y-72157799D01*
X128419723Y-72228974D01*
X128527593Y-72286632D01*
X128551753Y-72299546D01*
X128695014Y-72343003D01*
X128806667Y-72354000D01*
X128806677Y-72354000D01*
X128844000Y-72357676D01*
X128881323Y-72354000D01*
X132616678Y-72354000D01*
X132654000Y-72357676D01*
X132691322Y-72354000D01*
X132691333Y-72354000D01*
X132802986Y-72343003D01*
X132946247Y-72299546D01*
X133078276Y-72228974D01*
X133194001Y-72134001D01*
X133217804Y-72104997D01*
X135000802Y-70322000D01*
X143913084Y-70322000D01*
X143957021Y-70365937D01*
X144126539Y-70479205D01*
X144314897Y-70557226D01*
X144514856Y-70597000D01*
X144718734Y-70597000D01*
X144918693Y-70557226D01*
X145107051Y-70479205D01*
X145276569Y-70365937D01*
X145420732Y-70221774D01*
X145534000Y-70052256D01*
X145612021Y-69863898D01*
X145651795Y-69663939D01*
X145651795Y-69460061D01*
X145622941Y-69315000D01*
X148611289Y-69315000D01*
X148655226Y-69358937D01*
X148824744Y-69472205D01*
X149013102Y-69550226D01*
X149213061Y-69590000D01*
X149416939Y-69590000D01*
X149616898Y-69550226D01*
X149805256Y-69472205D01*
X149974774Y-69358937D01*
X150118937Y-69214774D01*
X150232205Y-69045256D01*
X150310226Y-68856898D01*
X150350000Y-68656939D01*
X150350000Y-68453061D01*
X150310226Y-68253102D01*
X150232205Y-68064744D01*
X150118937Y-67895226D01*
X149974774Y-67751063D01*
X149805256Y-67637795D01*
X149616898Y-67559774D01*
X149416939Y-67520000D01*
X149213061Y-67520000D01*
X149013102Y-67559774D01*
X148824744Y-67637795D01*
X148655226Y-67751063D01*
X148611289Y-67795000D01*
X133952325Y-67795000D01*
X133915000Y-67791324D01*
X133877675Y-67795000D01*
X133877667Y-67795000D01*
X133766014Y-67805997D01*
X133622753Y-67849454D01*
X133490724Y-67920026D01*
X133374999Y-68014999D01*
X133351201Y-68043997D01*
X131831199Y-69564000D01*
X129865870Y-69564000D01*
X129894898Y-69558226D01*
X130083256Y-69480205D01*
X130252774Y-69366937D01*
X130396937Y-69222774D01*
X130510205Y-69053256D01*
X130588226Y-68864898D01*
X130628000Y-68664939D01*
X130628000Y-68461061D01*
X130588226Y-68261102D01*
X130510205Y-68072744D01*
X130396937Y-67903226D01*
X130252774Y-67759063D01*
X130083256Y-67645795D01*
X129894898Y-67567774D01*
X129694939Y-67528000D01*
X129632802Y-67528000D01*
X126583804Y-64479003D01*
X126560001Y-64449999D01*
X126444276Y-64355026D01*
X126312247Y-64284454D01*
X126168986Y-64240997D01*
X126057333Y-64230000D01*
X126057322Y-64230000D01*
X126020000Y-64226324D01*
X125982678Y-64230000D01*
X123604576Y-64230000D01*
X123753190Y-64200439D01*
X124276771Y-63983565D01*
X124747981Y-63668712D01*
X125148712Y-63267981D01*
X125463565Y-62796771D01*
X125680439Y-62273190D01*
X125791000Y-61717360D01*
X125791000Y-61150640D01*
X125680439Y-60594810D01*
X125463565Y-60071229D01*
X125148712Y-59600019D01*
X124747981Y-59199288D01*
X124276771Y-58884435D01*
X123753190Y-58667561D01*
X123691423Y-58655275D01*
X123970771Y-58539565D01*
X124441981Y-58224712D01*
X124842712Y-57823981D01*
X125157565Y-57352771D01*
X125301573Y-57005104D01*
X125431630Y-57058975D01*
X125748474Y-57122000D01*
X126071526Y-57122000D01*
X126388370Y-57058975D01*
X126686831Y-56935349D01*
X126955439Y-56755871D01*
X127183871Y-56527439D01*
X127363349Y-56258831D01*
X127486975Y-55960370D01*
X127550000Y-55643526D01*
X127550000Y-55320474D01*
X127486975Y-55003630D01*
X127363349Y-54705169D01*
X127183871Y-54436561D01*
X127047310Y-54300000D01*
X131707083Y-54300000D01*
X131488435Y-54627229D01*
X131305586Y-55068667D01*
X131171526Y-55042000D01*
X130848474Y-55042000D01*
X130531630Y-55105025D01*
X130233169Y-55228651D01*
X129964561Y-55408129D01*
X129736129Y-55636561D01*
X129556651Y-55905169D01*
X129433025Y-56203630D01*
X129370000Y-56520474D01*
X129370000Y-56843526D01*
X129433025Y-57160370D01*
X129556651Y-57458831D01*
X129736129Y-57727439D01*
X129964561Y-57955871D01*
X130233169Y-58135349D01*
X130531630Y-58258975D01*
X130848474Y-58322000D01*
X131171526Y-58322000D01*
X131488370Y-58258975D01*
X131786831Y-58135349D01*
X131983348Y-58004041D01*
X132204019Y-58224712D01*
X132675229Y-58539565D01*
X133198810Y-58756439D01*
X133260577Y-58768725D01*
X132981229Y-58884435D01*
X132510019Y-59199288D01*
X132109288Y-59600019D01*
X131794435Y-60071229D01*
X131577561Y-60594810D01*
X131467000Y-61150640D01*
X131467000Y-61717360D01*
X131577561Y-62273190D01*
X131794435Y-62796771D01*
X132109288Y-63267981D01*
X132510019Y-63668712D01*
X132981229Y-63983565D01*
X133504810Y-64200439D01*
X134060640Y-64311000D01*
X134627360Y-64311000D01*
X135183190Y-64200439D01*
X135706771Y-63983565D01*
X136177981Y-63668712D01*
X136578712Y-63267981D01*
X136893565Y-62796771D01*
X137110439Y-62273190D01*
X137221000Y-61717360D01*
X137221000Y-61150640D01*
X137110439Y-60594810D01*
X136893565Y-60071229D01*
X136578712Y-59600019D01*
X136177981Y-59199288D01*
X135706771Y-58884435D01*
X135183190Y-58667561D01*
X135121423Y-58655275D01*
X135400771Y-58539565D01*
X135871981Y-58224712D01*
X136272712Y-57823981D01*
X136587565Y-57352771D01*
X136804439Y-56829190D01*
X136915000Y-56273360D01*
X136915000Y-55706640D01*
X136804439Y-55150810D01*
X136587565Y-54627229D01*
X136368917Y-54300000D01*
X139993737Y-54300000D01*
X139780435Y-54619229D01*
X139563561Y-55142810D01*
X139453000Y-55698640D01*
X139453000Y-56265360D01*
X139563561Y-56821190D01*
X139780435Y-57344771D01*
X140095288Y-57815981D01*
X140496019Y-58216712D01*
X140967229Y-58531565D01*
X141464181Y-58737409D01*
X141109229Y-58884435D01*
X140638019Y-59199288D01*
X140237288Y-59600019D01*
X139922435Y-60071229D01*
X139705561Y-60594810D01*
X139595000Y-61150640D01*
X139595000Y-61717360D01*
X139705561Y-62273190D01*
X139922435Y-62796771D01*
X140237288Y-63267981D01*
X140638019Y-63668712D01*
X141109229Y-63983565D01*
X141632810Y-64200439D01*
X142188640Y-64311000D01*
X142755360Y-64311000D01*
X143311190Y-64200439D01*
X143834771Y-63983565D01*
X144305981Y-63668712D01*
X144706712Y-63267981D01*
X145021565Y-62796771D01*
X145238439Y-62273190D01*
X145349000Y-61717360D01*
X145349000Y-61150640D01*
X145238439Y-60594810D01*
X145021565Y-60071229D01*
X144706712Y-59600019D01*
X144305981Y-59199288D01*
X143834771Y-58884435D01*
X143337819Y-58678591D01*
X143692771Y-58531565D01*
X144163981Y-58216712D01*
X144564712Y-57815981D01*
X144879565Y-57344771D01*
X145023573Y-56997104D01*
X145153630Y-57050975D01*
X145470474Y-57114000D01*
X145793526Y-57114000D01*
X146110370Y-57050975D01*
X146408831Y-56927349D01*
X146677439Y-56747871D01*
X146905871Y-56519439D01*
X147085349Y-56250831D01*
X147208975Y-55952370D01*
X147272000Y-55635526D01*
X147272000Y-55312474D01*
X147208975Y-54995630D01*
X147085349Y-54697169D01*
X146905871Y-54428561D01*
X146777310Y-54300000D01*
X151423737Y-54300000D01*
X151210435Y-54619229D01*
X151027586Y-55060667D01*
X150893526Y-55034000D01*
X150570474Y-55034000D01*
X150253630Y-55097025D01*
X149955169Y-55220651D01*
X149686561Y-55400129D01*
X149458129Y-55628561D01*
X149278651Y-55897169D01*
X149155025Y-56195630D01*
X149092000Y-56512474D01*
X149092000Y-56835526D01*
X149155025Y-57152370D01*
X149278651Y-57450831D01*
X149458129Y-57719439D01*
X149686561Y-57947871D01*
X149955169Y-58127349D01*
X150253630Y-58250975D01*
X150570474Y-58314000D01*
X150893526Y-58314000D01*
X151210370Y-58250975D01*
X151508831Y-58127349D01*
X151705348Y-57996041D01*
X151926019Y-58216712D01*
X152397229Y-58531565D01*
X152920810Y-58748439D01*
X153056427Y-58775415D01*
X152793229Y-58884435D01*
X152322019Y-59199288D01*
X151921288Y-59600019D01*
X151606435Y-60071229D01*
X151389561Y-60594810D01*
X151279000Y-61150640D01*
X151279000Y-61717360D01*
X151389561Y-62273190D01*
X151606435Y-62796771D01*
X151921288Y-63267981D01*
X152322019Y-63668712D01*
X152793229Y-63983565D01*
X153316810Y-64200439D01*
X153872640Y-64311000D01*
X154439360Y-64311000D01*
X154995190Y-64200439D01*
X155518771Y-63983565D01*
X155989981Y-63668712D01*
X156390712Y-63267981D01*
X156705565Y-62796771D01*
X156922439Y-62273190D01*
X157033000Y-61717360D01*
X157033000Y-61150640D01*
X156922439Y-60594810D01*
X156705565Y-60071229D01*
X156390712Y-59600019D01*
X155989981Y-59199288D01*
X155518771Y-58884435D01*
X154995190Y-58667561D01*
X154859573Y-58640585D01*
X155122771Y-58531565D01*
X155593981Y-58216712D01*
X155994712Y-57815981D01*
X156012071Y-57790000D01*
X159271928Y-57790000D01*
X159271928Y-59490000D01*
X159284188Y-59614482D01*
X159320498Y-59734180D01*
X159379463Y-59844494D01*
X159458815Y-59941185D01*
X159555506Y-60020537D01*
X159665820Y-60079502D01*
X159738380Y-60101513D01*
X159606525Y-60233368D01*
X159444010Y-60476589D01*
X159332068Y-60746842D01*
X159275000Y-61033740D01*
X159275000Y-61326260D01*
X159332068Y-61613158D01*
X159444010Y-61883411D01*
X159606525Y-62126632D01*
X159813368Y-62333475D01*
X159987760Y-62450000D01*
X159813368Y-62566525D01*
X159606525Y-62773368D01*
X159444010Y-63016589D01*
X159332068Y-63286842D01*
X159275000Y-63573740D01*
X159275000Y-63866260D01*
X159332068Y-64153158D01*
X159444010Y-64423411D01*
X159606525Y-64666632D01*
X159813368Y-64873475D01*
X159987760Y-64990000D01*
X159813368Y-65106525D01*
X159606525Y-65313368D01*
X159444010Y-65556589D01*
X159332068Y-65826842D01*
X159275000Y-66113740D01*
X159275000Y-66406260D01*
X159332068Y-66693158D01*
X159444010Y-66963411D01*
X159606525Y-67206632D01*
X159813368Y-67413475D01*
X159987760Y-67530000D01*
X159813368Y-67646525D01*
X159606525Y-67853368D01*
X159444010Y-68096589D01*
X159332068Y-68366842D01*
X159275000Y-68653740D01*
X159275000Y-68946260D01*
X159332068Y-69233158D01*
X159444010Y-69503411D01*
X159606525Y-69746632D01*
X159813368Y-69953475D01*
X159987760Y-70070000D01*
X159813368Y-70186525D01*
X159606525Y-70393368D01*
X159444010Y-70636589D01*
X159332068Y-70906842D01*
X159275000Y-71193740D01*
X159275000Y-71486260D01*
X159332068Y-71773158D01*
X159444010Y-72043411D01*
X159606525Y-72286632D01*
X159813368Y-72493475D01*
X159987760Y-72610000D01*
X159813368Y-72726525D01*
X159606525Y-72933368D01*
X159444010Y-73176589D01*
X159332068Y-73446842D01*
X159275000Y-73733740D01*
X159275000Y-74026260D01*
X159332068Y-74313158D01*
X159444010Y-74583411D01*
X159606525Y-74826632D01*
X159813368Y-75033475D01*
X159987760Y-75150000D01*
X159813368Y-75266525D01*
X159606525Y-75473368D01*
X159444010Y-75716589D01*
X159332068Y-75986842D01*
X159275000Y-76273740D01*
X159275000Y-76566260D01*
X159332068Y-76853158D01*
X159444010Y-77123411D01*
X159606525Y-77366632D01*
X159813368Y-77573475D01*
X159987760Y-77690000D01*
X159813368Y-77806525D01*
X159606525Y-78013368D01*
X159444010Y-78256589D01*
X159332068Y-78526842D01*
X159275000Y-78813740D01*
X159275000Y-79106260D01*
X159332068Y-79393158D01*
X159444010Y-79663411D01*
X159606525Y-79906632D01*
X159813368Y-80113475D01*
X159987760Y-80230000D01*
X159813368Y-80346525D01*
X159606525Y-80553368D01*
X159444010Y-80796589D01*
X159332068Y-81066842D01*
X159275000Y-81353740D01*
X159275000Y-81646260D01*
X159332068Y-81933158D01*
X159444010Y-82203411D01*
X159606525Y-82446632D01*
X159813368Y-82653475D01*
X160056589Y-82815990D01*
X160326842Y-82927932D01*
X160613740Y-82985000D01*
X160906260Y-82985000D01*
X161193158Y-82927932D01*
X161463411Y-82815990D01*
X161706632Y-82653475D01*
X161913475Y-82446632D01*
X162030000Y-82272240D01*
X162146525Y-82446632D01*
X162353368Y-82653475D01*
X162596589Y-82815990D01*
X162866842Y-82927932D01*
X163153740Y-82985000D01*
X163446260Y-82985000D01*
X163733158Y-82927932D01*
X164003411Y-82815990D01*
X164246632Y-82653475D01*
X164453475Y-82446632D01*
X164615990Y-82203411D01*
X164727932Y-81933158D01*
X164785000Y-81646260D01*
X164785000Y-81353740D01*
X164727932Y-81066842D01*
X164615990Y-80796589D01*
X164453475Y-80553368D01*
X164246632Y-80346525D01*
X164072240Y-80230000D01*
X164246632Y-80113475D01*
X164453475Y-79906632D01*
X164615990Y-79663411D01*
X164727932Y-79393158D01*
X164785000Y-79106260D01*
X164785000Y-78813740D01*
X164727932Y-78526842D01*
X164615990Y-78256589D01*
X164453475Y-78013368D01*
X164246632Y-77806525D01*
X164072240Y-77690000D01*
X164246632Y-77573475D01*
X164453475Y-77366632D01*
X164615990Y-77123411D01*
X164727932Y-76853158D01*
X164785000Y-76566260D01*
X164785000Y-76273740D01*
X164727932Y-75986842D01*
X164615990Y-75716589D01*
X164453475Y-75473368D01*
X164246632Y-75266525D01*
X164072240Y-75150000D01*
X164246632Y-75033475D01*
X164453475Y-74826632D01*
X164615990Y-74583411D01*
X164727932Y-74313158D01*
X164785000Y-74026260D01*
X164785000Y-73733740D01*
X164727932Y-73446842D01*
X164615990Y-73176589D01*
X164453475Y-72933368D01*
X164246632Y-72726525D01*
X164072240Y-72610000D01*
X164246632Y-72493475D01*
X164453475Y-72286632D01*
X164615990Y-72043411D01*
X164727932Y-71773158D01*
X164785000Y-71486260D01*
X164785000Y-71193740D01*
X164727932Y-70906842D01*
X164615990Y-70636589D01*
X164453475Y-70393368D01*
X164246632Y-70186525D01*
X164072240Y-70070000D01*
X164246632Y-69953475D01*
X164453475Y-69746632D01*
X164615990Y-69503411D01*
X164727932Y-69233158D01*
X164785000Y-68946260D01*
X164785000Y-68653740D01*
X164727932Y-68366842D01*
X164615990Y-68096589D01*
X164453475Y-67853368D01*
X164246632Y-67646525D01*
X164072240Y-67530000D01*
X164246632Y-67413475D01*
X164453475Y-67206632D01*
X164615990Y-66963411D01*
X164727932Y-66693158D01*
X164785000Y-66406260D01*
X164785000Y-66113740D01*
X164727932Y-65826842D01*
X164615990Y-65556589D01*
X164453475Y-65313368D01*
X164246632Y-65106525D01*
X164072240Y-64990000D01*
X164246632Y-64873475D01*
X164453475Y-64666632D01*
X164615990Y-64423411D01*
X164727932Y-64153158D01*
X164785000Y-63866260D01*
X164785000Y-63573740D01*
X164727932Y-63286842D01*
X164615990Y-63016589D01*
X164453475Y-62773368D01*
X164246632Y-62566525D01*
X164072240Y-62450000D01*
X164246632Y-62333475D01*
X164453475Y-62126632D01*
X164615990Y-61883411D01*
X164727932Y-61613158D01*
X164785000Y-61326260D01*
X164785000Y-61033740D01*
X164727932Y-60746842D01*
X164615990Y-60476589D01*
X164453475Y-60233368D01*
X164246632Y-60026525D01*
X164072240Y-59910000D01*
X164246632Y-59793475D01*
X164453475Y-59586632D01*
X164615990Y-59343411D01*
X164727932Y-59073158D01*
X164785000Y-58786260D01*
X164785000Y-58493740D01*
X164727932Y-58206842D01*
X164615990Y-57936589D01*
X164453475Y-57693368D01*
X164246632Y-57486525D01*
X164003411Y-57324010D01*
X163733158Y-57212068D01*
X163446260Y-57155000D01*
X163153740Y-57155000D01*
X162866842Y-57212068D01*
X162596589Y-57324010D01*
X162353368Y-57486525D01*
X162221513Y-57618380D01*
X162199502Y-57545820D01*
X162140537Y-57435506D01*
X162061185Y-57338815D01*
X161964494Y-57259463D01*
X161854180Y-57200498D01*
X161734482Y-57164188D01*
X161610000Y-57151928D01*
X159910000Y-57151928D01*
X159785518Y-57164188D01*
X159665820Y-57200498D01*
X159555506Y-57259463D01*
X159458815Y-57338815D01*
X159379463Y-57435506D01*
X159320498Y-57545820D01*
X159284188Y-57665518D01*
X159271928Y-57790000D01*
X156012071Y-57790000D01*
X156309565Y-57344771D01*
X156526439Y-56821190D01*
X156637000Y-56265360D01*
X156637000Y-55698640D01*
X156526439Y-55142810D01*
X156309565Y-54619229D01*
X156096263Y-54300000D01*
X163267722Y-54300000D01*
X163948126Y-54366714D01*
X164571572Y-54554943D01*
X165146579Y-54860681D01*
X165651247Y-55272279D01*
X166066362Y-55774067D01*
X166376105Y-56346924D01*
X166568682Y-56969039D01*
X166640001Y-57647594D01*
X166640000Y-82467721D01*
X166573286Y-83148126D01*
X166385057Y-83771570D01*
X166079323Y-84346573D01*
X165667721Y-84851248D01*
X165165933Y-85266362D01*
X164593077Y-85576104D01*
X163970961Y-85768682D01*
X163292417Y-85840000D01*
X155749478Y-85840000D01*
X155757771Y-85836565D01*
X156228981Y-85521712D01*
X156629712Y-85120981D01*
X156944565Y-84649771D01*
X157161439Y-84126190D01*
X157272000Y-83570360D01*
X157272000Y-83003640D01*
X157161439Y-82447810D01*
X156944565Y-81924229D01*
X156629712Y-81453019D01*
X156228981Y-81052288D01*
X155757771Y-80737435D01*
X155234190Y-80520561D01*
X154953508Y-80464730D01*
X154995190Y-80456439D01*
X155518771Y-80239565D01*
X155989981Y-79924712D01*
X156390712Y-79523981D01*
X156705565Y-79052771D01*
X156922439Y-78529190D01*
X157033000Y-77973360D01*
X157033000Y-77406640D01*
X156922439Y-76850810D01*
X156705565Y-76327229D01*
X156390712Y-75856019D01*
X155989981Y-75455288D01*
X155518771Y-75140435D01*
X154995190Y-74923561D01*
X154439360Y-74813000D01*
X153872640Y-74813000D01*
X153316810Y-74923561D01*
X152793229Y-75140435D01*
X152322019Y-75455288D01*
X151921288Y-75856019D01*
X151606435Y-76327229D01*
X151389561Y-76850810D01*
X151279000Y-77406640D01*
X151279000Y-77973360D01*
X151389561Y-78529190D01*
X151606435Y-79052771D01*
X151921288Y-79523981D01*
X152322019Y-79924712D01*
X152793229Y-80239565D01*
X153316810Y-80456439D01*
X153597492Y-80512270D01*
X153555810Y-80520561D01*
X153032229Y-80737435D01*
X152561019Y-81052288D01*
X152160288Y-81453019D01*
X151845435Y-81924229D01*
X151684203Y-82313478D01*
X151591370Y-82275025D01*
X151274526Y-82212000D01*
X150951474Y-82212000D01*
X150634630Y-82275025D01*
X150336169Y-82398651D01*
X150067561Y-82578129D01*
X149839129Y-82806561D01*
X149659651Y-83075169D01*
X149536025Y-83373630D01*
X149473000Y-83690474D01*
X149473000Y-84013526D01*
X149536025Y-84330370D01*
X149659651Y-84628831D01*
X149839129Y-84897439D01*
X150067561Y-85125871D01*
X150336169Y-85305349D01*
X150634630Y-85428975D01*
X150951474Y-85492000D01*
X151274526Y-85492000D01*
X151591370Y-85428975D01*
X151889831Y-85305349D01*
X152158439Y-85125871D01*
X152161809Y-85122502D01*
X152561019Y-85521712D01*
X153032229Y-85836565D01*
X153040522Y-85840000D01*
X144319478Y-85840000D01*
X144327771Y-85836565D01*
X144798981Y-85521712D01*
X145199712Y-85120981D01*
X145514565Y-84649771D01*
X145677124Y-84257319D01*
X145851474Y-84292000D01*
X146174526Y-84292000D01*
X146491370Y-84228975D01*
X146789831Y-84105349D01*
X147058439Y-83925871D01*
X147286871Y-83697439D01*
X147466349Y-83428831D01*
X147589975Y-83130370D01*
X147653000Y-82813526D01*
X147653000Y-82490474D01*
X147589975Y-82173630D01*
X147466349Y-81875169D01*
X147286871Y-81606561D01*
X147058439Y-81378129D01*
X146789831Y-81198651D01*
X146491370Y-81075025D01*
X146174526Y-81012000D01*
X145851474Y-81012000D01*
X145534630Y-81075025D01*
X145236169Y-81198651D01*
X145061832Y-81315139D01*
X144798981Y-81052288D01*
X144327771Y-80737435D01*
X143804190Y-80520561D01*
X143366548Y-80433509D01*
X143834771Y-80239565D01*
X144305981Y-79924712D01*
X144706712Y-79523981D01*
X145021565Y-79052771D01*
X145238439Y-78529190D01*
X145349000Y-77973360D01*
X145349000Y-77406640D01*
X145238439Y-76850810D01*
X145021565Y-76327229D01*
X144706712Y-75856019D01*
X144305981Y-75455288D01*
X143834771Y-75140435D01*
X143311190Y-74923561D01*
X142755360Y-74813000D01*
X142188640Y-74813000D01*
X141632810Y-74923561D01*
X141109229Y-75140435D01*
X140638019Y-75455288D01*
X140237288Y-75856019D01*
X139922435Y-76327229D01*
X139705561Y-76850810D01*
X139595000Y-77406640D01*
X139595000Y-77973360D01*
X139705561Y-78529190D01*
X139922435Y-79052771D01*
X140237288Y-79523981D01*
X140638019Y-79924712D01*
X141109229Y-80239565D01*
X141632810Y-80456439D01*
X142070452Y-80543491D01*
X141602229Y-80737435D01*
X141131019Y-81052288D01*
X140730288Y-81453019D01*
X140415435Y-81924229D01*
X140198561Y-82447810D01*
X140088000Y-83003640D01*
X140088000Y-83570360D01*
X140198561Y-84126190D01*
X140415435Y-84649771D01*
X140730288Y-85120981D01*
X141131019Y-85521712D01*
X141602229Y-85836565D01*
X141610522Y-85840000D01*
X136042603Y-85840000D01*
X136506981Y-85529712D01*
X136907712Y-85128981D01*
X137222565Y-84657771D01*
X137439439Y-84134190D01*
X137550000Y-83578360D01*
X137550000Y-83011640D01*
X137439439Y-82455810D01*
X137222565Y-81932229D01*
X136907712Y-81461019D01*
X136506981Y-81060288D01*
X136035771Y-80745435D01*
X135512190Y-80528561D01*
X135166398Y-80459779D01*
X135183190Y-80456439D01*
X135706771Y-80239565D01*
X136177981Y-79924712D01*
X136578712Y-79523981D01*
X136893565Y-79052771D01*
X137110439Y-78529190D01*
X137221000Y-77973360D01*
X137221000Y-77406640D01*
X137110439Y-76850810D01*
X136893565Y-76327229D01*
X136578712Y-75856019D01*
X136177981Y-75455288D01*
X135706771Y-75140435D01*
X135183190Y-74923561D01*
X134627360Y-74813000D01*
X134060640Y-74813000D01*
X133504810Y-74923561D01*
X132981229Y-75140435D01*
X132510019Y-75455288D01*
X132109288Y-75856019D01*
X131794435Y-76327229D01*
X131577561Y-76850810D01*
X131467000Y-77406640D01*
X131467000Y-77973360D01*
X131577561Y-78529190D01*
X131794435Y-79052771D01*
X132109288Y-79523981D01*
X132510019Y-79924712D01*
X132981229Y-80239565D01*
X133504810Y-80456439D01*
X133850602Y-80525221D01*
X133833810Y-80528561D01*
X133310229Y-80745435D01*
X132839019Y-81060288D01*
X132438288Y-81461019D01*
X132123435Y-81932229D01*
X131962203Y-82321478D01*
X131869370Y-82283025D01*
X131552526Y-82220000D01*
X131229474Y-82220000D01*
X130912630Y-82283025D01*
X130614169Y-82406651D01*
X130345561Y-82586129D01*
X130117129Y-82814561D01*
X129937651Y-83083169D01*
X129814025Y-83381630D01*
X129751000Y-83698474D01*
X129751000Y-84021526D01*
X129814025Y-84338370D01*
X129937651Y-84636831D01*
X130117129Y-84905439D01*
X130345561Y-85133871D01*
X130614169Y-85313349D01*
X130912630Y-85436975D01*
X131229474Y-85500000D01*
X131552526Y-85500000D01*
X131869370Y-85436975D01*
X132167831Y-85313349D01*
X132436439Y-85133871D01*
X132439809Y-85130502D01*
X132839019Y-85529712D01*
X133303397Y-85840000D01*
X124612603Y-85840000D01*
X125076981Y-85529712D01*
X125477712Y-85128981D01*
X125792565Y-84657771D01*
X125955124Y-84265319D01*
X126129474Y-84300000D01*
X126452526Y-84300000D01*
X126769370Y-84236975D01*
X127067831Y-84113349D01*
X127336439Y-83933871D01*
X127564871Y-83705439D01*
X127744349Y-83436831D01*
X127867975Y-83138370D01*
X127931000Y-82821526D01*
X127931000Y-82498474D01*
X127867975Y-82181630D01*
X127744349Y-81883169D01*
X127564871Y-81614561D01*
X127336439Y-81386129D01*
X127067831Y-81206651D01*
X126769370Y-81083025D01*
X126452526Y-81020000D01*
X126129474Y-81020000D01*
X125812630Y-81083025D01*
X125514169Y-81206651D01*
X125339832Y-81323139D01*
X125076981Y-81060288D01*
X124605771Y-80745435D01*
X124082190Y-80528561D01*
X123736398Y-80459779D01*
X123753190Y-80456439D01*
X124276771Y-80239565D01*
X124747981Y-79924712D01*
X125148712Y-79523981D01*
X125463565Y-79052771D01*
X125680439Y-78529190D01*
X125791000Y-77973360D01*
X125791000Y-77406640D01*
X125680439Y-76850810D01*
X125463565Y-76327229D01*
X125148712Y-75856019D01*
X124747981Y-75455288D01*
X124276771Y-75140435D01*
X123753190Y-74923561D01*
X123197360Y-74813000D01*
X122630640Y-74813000D01*
X122074810Y-74923561D01*
X121551229Y-75140435D01*
X121080019Y-75455288D01*
X120679288Y-75856019D01*
X120364435Y-76327229D01*
X120147561Y-76850810D01*
X120037000Y-77406640D01*
X120037000Y-77973360D01*
X120147561Y-78529190D01*
X120364435Y-79052771D01*
X120679288Y-79523981D01*
X121080019Y-79924712D01*
X121551229Y-80239565D01*
X122074810Y-80456439D01*
X122420602Y-80525221D01*
X122403810Y-80528561D01*
X121880229Y-80745435D01*
X121409019Y-81060288D01*
X121008288Y-81461019D01*
X120693435Y-81932229D01*
X120476561Y-82455810D01*
X120366000Y-83011640D01*
X120366000Y-83578360D01*
X120476561Y-84134190D01*
X120693435Y-84657771D01*
X121008288Y-85128981D01*
X121409019Y-85529712D01*
X121873397Y-85840000D01*
X109992279Y-85840000D01*
X109311874Y-85773286D01*
X108688430Y-85585057D01*
X108113427Y-85279323D01*
X107608752Y-84867721D01*
X107193638Y-84365933D01*
X106883896Y-83793077D01*
X106691318Y-83170961D01*
X106620000Y-82492417D01*
X106620000Y-57790000D01*
X108471928Y-57790000D01*
X108471928Y-59490000D01*
X108484188Y-59614482D01*
X108520498Y-59734180D01*
X108579463Y-59844494D01*
X108658815Y-59941185D01*
X108755506Y-60020537D01*
X108865820Y-60079502D01*
X108938380Y-60101513D01*
X108806525Y-60233368D01*
X108644010Y-60476589D01*
X108532068Y-60746842D01*
X108475000Y-61033740D01*
X108475000Y-61326260D01*
X108532068Y-61613158D01*
X108644010Y-61883411D01*
X108806525Y-62126632D01*
X109013368Y-62333475D01*
X109187760Y-62450000D01*
X109013368Y-62566525D01*
X108806525Y-62773368D01*
X108644010Y-63016589D01*
X108532068Y-63286842D01*
X108475000Y-63573740D01*
X108475000Y-63866260D01*
X108532068Y-64153158D01*
X108644010Y-64423411D01*
X108806525Y-64666632D01*
X109013368Y-64873475D01*
X109187760Y-64990000D01*
X109013368Y-65106525D01*
X108806525Y-65313368D01*
X108644010Y-65556589D01*
X108532068Y-65826842D01*
X108475000Y-66113740D01*
X108475000Y-66406260D01*
X108532068Y-66693158D01*
X108644010Y-66963411D01*
X108806525Y-67206632D01*
X109013368Y-67413475D01*
X109187760Y-67530000D01*
X109013368Y-67646525D01*
X108806525Y-67853368D01*
X108644010Y-68096589D01*
X108532068Y-68366842D01*
X108475000Y-68653740D01*
X108475000Y-68946260D01*
X108532068Y-69233158D01*
X108644010Y-69503411D01*
X108806525Y-69746632D01*
X109013368Y-69953475D01*
X109187760Y-70070000D01*
X109013368Y-70186525D01*
X108806525Y-70393368D01*
X108644010Y-70636589D01*
X108532068Y-70906842D01*
X108475000Y-71193740D01*
X108475000Y-71486260D01*
X108532068Y-71773158D01*
X108644010Y-72043411D01*
X108806525Y-72286632D01*
X109013368Y-72493475D01*
X109187760Y-72610000D01*
X109013368Y-72726525D01*
X108806525Y-72933368D01*
X108644010Y-73176589D01*
X108532068Y-73446842D01*
X108475000Y-73733740D01*
X108475000Y-74026260D01*
X108532068Y-74313158D01*
X108644010Y-74583411D01*
X108806525Y-74826632D01*
X109013368Y-75033475D01*
X109187760Y-75150000D01*
X109013368Y-75266525D01*
X108806525Y-75473368D01*
X108644010Y-75716589D01*
X108532068Y-75986842D01*
X108475000Y-76273740D01*
X108475000Y-76566260D01*
X108532068Y-76853158D01*
X108644010Y-77123411D01*
X108806525Y-77366632D01*
X109013368Y-77573475D01*
X109187760Y-77690000D01*
X109013368Y-77806525D01*
X108806525Y-78013368D01*
X108644010Y-78256589D01*
X108532068Y-78526842D01*
X108475000Y-78813740D01*
X108475000Y-79106260D01*
X108532068Y-79393158D01*
X108644010Y-79663411D01*
X108806525Y-79906632D01*
X109013368Y-80113475D01*
X109187760Y-80230000D01*
X109013368Y-80346525D01*
X108806525Y-80553368D01*
X108644010Y-80796589D01*
X108532068Y-81066842D01*
X108475000Y-81353740D01*
X108475000Y-81646260D01*
X108532068Y-81933158D01*
X108644010Y-82203411D01*
X108806525Y-82446632D01*
X109013368Y-82653475D01*
X109256589Y-82815990D01*
X109526842Y-82927932D01*
X109813740Y-82985000D01*
X110106260Y-82985000D01*
X110393158Y-82927932D01*
X110663411Y-82815990D01*
X110906632Y-82653475D01*
X111113475Y-82446632D01*
X111275990Y-82203411D01*
X111387932Y-81933158D01*
X111445000Y-81646260D01*
X111445000Y-81353740D01*
X111387932Y-81066842D01*
X111275990Y-80796589D01*
X111113475Y-80553368D01*
X110906632Y-80346525D01*
X110732240Y-80230000D01*
X110906632Y-80113475D01*
X111113475Y-79906632D01*
X111230000Y-79732240D01*
X111346525Y-79906632D01*
X111553368Y-80113475D01*
X111796589Y-80275990D01*
X112066842Y-80387932D01*
X112353740Y-80445000D01*
X112646260Y-80445000D01*
X112933158Y-80387932D01*
X113203411Y-80275990D01*
X113446632Y-80113475D01*
X113653475Y-79906632D01*
X113815990Y-79663411D01*
X113927932Y-79393158D01*
X113985000Y-79106260D01*
X113985000Y-78813740D01*
X113927932Y-78526842D01*
X113815990Y-78256589D01*
X113653475Y-78013368D01*
X113446632Y-77806525D01*
X113272240Y-77690000D01*
X113446632Y-77573475D01*
X113653475Y-77366632D01*
X113815990Y-77123411D01*
X113927932Y-76853158D01*
X113985000Y-76566260D01*
X113985000Y-76273740D01*
X113927932Y-75986842D01*
X113815990Y-75716589D01*
X113653475Y-75473368D01*
X113446632Y-75266525D01*
X113272240Y-75150000D01*
X113446632Y-75033475D01*
X113653475Y-74826632D01*
X113815990Y-74583411D01*
X113927932Y-74313158D01*
X113985000Y-74026260D01*
X113985000Y-73733740D01*
X113927932Y-73446842D01*
X113815990Y-73176589D01*
X113653475Y-72933368D01*
X113446632Y-72726525D01*
X113272240Y-72610000D01*
X113446632Y-72493475D01*
X113653475Y-72286632D01*
X113815990Y-72043411D01*
X113927932Y-71773158D01*
X113985000Y-71486260D01*
X113985000Y-71193740D01*
X113927932Y-70906842D01*
X113815990Y-70636589D01*
X113653475Y-70393368D01*
X113446632Y-70186525D01*
X113272240Y-70070000D01*
X113446632Y-69953475D01*
X113653475Y-69746632D01*
X113815990Y-69503411D01*
X113927932Y-69233158D01*
X113985000Y-68946260D01*
X113985000Y-68653740D01*
X113927932Y-68366842D01*
X113906624Y-68315400D01*
X113988599Y-68315400D01*
X114984200Y-69311002D01*
X115007999Y-69340001D01*
X115123724Y-69434974D01*
X115255753Y-69505546D01*
X115399014Y-69549003D01*
X115510667Y-69560000D01*
X115510676Y-69560000D01*
X115547999Y-69563676D01*
X115585322Y-69560000D01*
X115860289Y-69560000D01*
X115904226Y-69603937D01*
X116073744Y-69717205D01*
X116262102Y-69795226D01*
X116462061Y-69835000D01*
X116665939Y-69835000D01*
X116865898Y-69795226D01*
X117054256Y-69717205D01*
X117223774Y-69603937D01*
X117367937Y-69459774D01*
X117481205Y-69290256D01*
X117559226Y-69101898D01*
X117599000Y-68901939D01*
X117599000Y-68698061D01*
X117559226Y-68498102D01*
X117481205Y-68309744D01*
X117384490Y-68165000D01*
X117481205Y-68020256D01*
X117559226Y-67831898D01*
X117599000Y-67631939D01*
X117599000Y-67428061D01*
X117559226Y-67228102D01*
X117481205Y-67039744D01*
X117384490Y-66895000D01*
X117481205Y-66750256D01*
X117559226Y-66561898D01*
X117599000Y-66361939D01*
X117599000Y-66158061D01*
X117559226Y-65958102D01*
X117481205Y-65769744D01*
X117384490Y-65625000D01*
X117481205Y-65480256D01*
X117559226Y-65291898D01*
X117599000Y-65091939D01*
X117599000Y-64888061D01*
X117559226Y-64688102D01*
X117481205Y-64499744D01*
X117367937Y-64330226D01*
X117324000Y-64286289D01*
X117324000Y-63339133D01*
X117327677Y-63301800D01*
X117313003Y-63152814D01*
X117269546Y-63009553D01*
X117198974Y-62877524D01*
X117127799Y-62790797D01*
X117104001Y-62761799D01*
X117075003Y-62738001D01*
X113761685Y-59424684D01*
X113815990Y-59343411D01*
X113927932Y-59073158D01*
X113985000Y-58786260D01*
X113985000Y-58493740D01*
X113927932Y-58206842D01*
X113815990Y-57936589D01*
X113653475Y-57693368D01*
X113446632Y-57486525D01*
X113203411Y-57324010D01*
X112933158Y-57212068D01*
X112646260Y-57155000D01*
X112353740Y-57155000D01*
X112066842Y-57212068D01*
X111796589Y-57324010D01*
X111553368Y-57486525D01*
X111421513Y-57618380D01*
X111399502Y-57545820D01*
X111340537Y-57435506D01*
X111261185Y-57338815D01*
X111164494Y-57259463D01*
X111054180Y-57200498D01*
X110934482Y-57164188D01*
X110810000Y-57151928D01*
X109110000Y-57151928D01*
X108985518Y-57164188D01*
X108865820Y-57200498D01*
X108755506Y-57259463D01*
X108658815Y-57338815D01*
X108579463Y-57435506D01*
X108520498Y-57545820D01*
X108484188Y-57665518D01*
X108471928Y-57790000D01*
X106620000Y-57790000D01*
X106620000Y-57672278D01*
X106686714Y-56991874D01*
X106874943Y-56368428D01*
X107180681Y-55793421D01*
X107592279Y-55288753D01*
X108094067Y-54873638D01*
X108666924Y-54563895D01*
X109289039Y-54371318D01*
X109967584Y-54300000D01*
X120277083Y-54300000D01*
X120058435Y-54627229D01*
G37*
X120058435Y-54627229D02*
X119841561Y-55150810D01*
X119731000Y-55706640D01*
X119731000Y-56273360D01*
X119841561Y-56829190D01*
X120058435Y-57352771D01*
X120373288Y-57823981D01*
X120774019Y-58224712D01*
X121245229Y-58539565D01*
X121768810Y-58756439D01*
X121830577Y-58768725D01*
X121551229Y-58884435D01*
X121080019Y-59199288D01*
X120679288Y-59600019D01*
X120364435Y-60071229D01*
X120147561Y-60594810D01*
X120037000Y-61150640D01*
X120037000Y-61717360D01*
X120147561Y-62273190D01*
X120364435Y-62796771D01*
X120679288Y-63267981D01*
X121080019Y-63668712D01*
X121515489Y-63959684D01*
X121491939Y-63955000D01*
X121288061Y-63955000D01*
X121088102Y-63994774D01*
X120899744Y-64072795D01*
X120730226Y-64186063D01*
X120586063Y-64330226D01*
X120472795Y-64499744D01*
X120394774Y-64688102D01*
X120355000Y-64888061D01*
X120355000Y-65091939D01*
X120394774Y-65291898D01*
X120472795Y-65480256D01*
X120569510Y-65625000D01*
X120472795Y-65769744D01*
X120394774Y-65958102D01*
X120355000Y-66158061D01*
X120355000Y-66361939D01*
X120394774Y-66561898D01*
X120472795Y-66750256D01*
X120569510Y-66895000D01*
X120472795Y-67039744D01*
X120394774Y-67228102D01*
X120355000Y-67428061D01*
X120355000Y-67631939D01*
X120394774Y-67831898D01*
X120472795Y-68020256D01*
X120569510Y-68165000D01*
X120472795Y-68309744D01*
X120394774Y-68498102D01*
X120355000Y-68698061D01*
X120355000Y-68901939D01*
X120394774Y-69101898D01*
X120472795Y-69290256D01*
X120586063Y-69459774D01*
X120730226Y-69603937D01*
X120899744Y-69717205D01*
X121088102Y-69795226D01*
X121288061Y-69835000D01*
X121491939Y-69835000D01*
X121691898Y-69795226D01*
X121880256Y-69717205D01*
X122049774Y-69603937D01*
X122093711Y-69560000D01*
X123703199Y-69560000D01*
X123745000Y-69601801D01*
X123745000Y-69663939D01*
X123784774Y-69863898D01*
X123862795Y-70052256D01*
X123976063Y-70221774D01*
X124120226Y-70365937D01*
X124289744Y-70479205D01*
X124478102Y-70557226D01*
X124678061Y-70597000D01*
X124881939Y-70597000D01*
X125081898Y-70557226D01*
X125270256Y-70479205D01*
X125439774Y-70365937D01*
X125583937Y-70221774D01*
X125697205Y-70052256D01*
X125775226Y-69863898D01*
X125815000Y-69663939D01*
X125815000Y-69639801D01*
X128280201Y-72105003D01*
X128303999Y-72134001D01*
X128332997Y-72157799D01*
X128419723Y-72228974D01*
X128527593Y-72286632D01*
X128551753Y-72299546D01*
X128695014Y-72343003D01*
X128806667Y-72354000D01*
X128806677Y-72354000D01*
X128844000Y-72357676D01*
X128881323Y-72354000D01*
X132616678Y-72354000D01*
X132654000Y-72357676D01*
X132691322Y-72354000D01*
X132691333Y-72354000D01*
X132802986Y-72343003D01*
X132946247Y-72299546D01*
X133078276Y-72228974D01*
X133194001Y-72134001D01*
X133217804Y-72104997D01*
X135000802Y-70322000D01*
X143913084Y-70322000D01*
X143957021Y-70365937D01*
X144126539Y-70479205D01*
X144314897Y-70557226D01*
X144514856Y-70597000D01*
X144718734Y-70597000D01*
X144918693Y-70557226D01*
X145107051Y-70479205D01*
X145276569Y-70365937D01*
X145420732Y-70221774D01*
X145534000Y-70052256D01*
X145612021Y-69863898D01*
X145651795Y-69663939D01*
X145651795Y-69460061D01*
X145622941Y-69315000D01*
X148611289Y-69315000D01*
X148655226Y-69358937D01*
X148824744Y-69472205D01*
X149013102Y-69550226D01*
X149213061Y-69590000D01*
X149416939Y-69590000D01*
X149616898Y-69550226D01*
X149805256Y-69472205D01*
X149974774Y-69358937D01*
X150118937Y-69214774D01*
X150232205Y-69045256D01*
X150310226Y-68856898D01*
X150350000Y-68656939D01*
X150350000Y-68453061D01*
X150310226Y-68253102D01*
X150232205Y-68064744D01*
X150118937Y-67895226D01*
X149974774Y-67751063D01*
X149805256Y-67637795D01*
X149616898Y-67559774D01*
X149416939Y-67520000D01*
X149213061Y-67520000D01*
X149013102Y-67559774D01*
X148824744Y-67637795D01*
X148655226Y-67751063D01*
X148611289Y-67795000D01*
X133952325Y-67795000D01*
X133915000Y-67791324D01*
X133877675Y-67795000D01*
X133877667Y-67795000D01*
X133766014Y-67805997D01*
X133622753Y-67849454D01*
X133490724Y-67920026D01*
X133374999Y-68014999D01*
X133351201Y-68043997D01*
X131831199Y-69564000D01*
X129865870Y-69564000D01*
X129894898Y-69558226D01*
X130083256Y-69480205D01*
X130252774Y-69366937D01*
X130396937Y-69222774D01*
X130510205Y-69053256D01*
X130588226Y-68864898D01*
X130628000Y-68664939D01*
X130628000Y-68461061D01*
X130588226Y-68261102D01*
X130510205Y-68072744D01*
X130396937Y-67903226D01*
X130252774Y-67759063D01*
X130083256Y-67645795D01*
X129894898Y-67567774D01*
X129694939Y-67528000D01*
X129632802Y-67528000D01*
X126583804Y-64479003D01*
X126560001Y-64449999D01*
X126444276Y-64355026D01*
X126312247Y-64284454D01*
X126168986Y-64240997D01*
X126057333Y-64230000D01*
X126057322Y-64230000D01*
X126020000Y-64226324D01*
X125982678Y-64230000D01*
X123604576Y-64230000D01*
X123753190Y-64200439D01*
X124276771Y-63983565D01*
X124747981Y-63668712D01*
X125148712Y-63267981D01*
X125463565Y-62796771D01*
X125680439Y-62273190D01*
X125791000Y-61717360D01*
X125791000Y-61150640D01*
X125680439Y-60594810D01*
X125463565Y-60071229D01*
X125148712Y-59600019D01*
X124747981Y-59199288D01*
X124276771Y-58884435D01*
X123753190Y-58667561D01*
X123691423Y-58655275D01*
X123970771Y-58539565D01*
X124441981Y-58224712D01*
X124842712Y-57823981D01*
X125157565Y-57352771D01*
X125301573Y-57005104D01*
X125431630Y-57058975D01*
X125748474Y-57122000D01*
X126071526Y-57122000D01*
X126388370Y-57058975D01*
X126686831Y-56935349D01*
X126955439Y-56755871D01*
X127183871Y-56527439D01*
X127363349Y-56258831D01*
X127486975Y-55960370D01*
X127550000Y-55643526D01*
X127550000Y-55320474D01*
X127486975Y-55003630D01*
X127363349Y-54705169D01*
X127183871Y-54436561D01*
X127047310Y-54300000D01*
X131707083Y-54300000D01*
X131488435Y-54627229D01*
X131305586Y-55068667D01*
X131171526Y-55042000D01*
X130848474Y-55042000D01*
X130531630Y-55105025D01*
X130233169Y-55228651D01*
X129964561Y-55408129D01*
X129736129Y-55636561D01*
X129556651Y-55905169D01*
X129433025Y-56203630D01*
X129370000Y-56520474D01*
X129370000Y-56843526D01*
X129433025Y-57160370D01*
X129556651Y-57458831D01*
X129736129Y-57727439D01*
X129964561Y-57955871D01*
X130233169Y-58135349D01*
X130531630Y-58258975D01*
X130848474Y-58322000D01*
X131171526Y-58322000D01*
X131488370Y-58258975D01*
X131786831Y-58135349D01*
X131983348Y-58004041D01*
X132204019Y-58224712D01*
X132675229Y-58539565D01*
X133198810Y-58756439D01*
X133260577Y-58768725D01*
X132981229Y-58884435D01*
X132510019Y-59199288D01*
X132109288Y-59600019D01*
X131794435Y-60071229D01*
X131577561Y-60594810D01*
X131467000Y-61150640D01*
X131467000Y-61717360D01*
X131577561Y-62273190D01*
X131794435Y-62796771D01*
X132109288Y-63267981D01*
X132510019Y-63668712D01*
X132981229Y-63983565D01*
X133504810Y-64200439D01*
X134060640Y-64311000D01*
X134627360Y-64311000D01*
X135183190Y-64200439D01*
X135706771Y-63983565D01*
X136177981Y-63668712D01*
X136578712Y-63267981D01*
X136893565Y-62796771D01*
X137110439Y-62273190D01*
X137221000Y-61717360D01*
X137221000Y-61150640D01*
X137110439Y-60594810D01*
X136893565Y-60071229D01*
X136578712Y-59600019D01*
X136177981Y-59199288D01*
X135706771Y-58884435D01*
X135183190Y-58667561D01*
X135121423Y-58655275D01*
X135400771Y-58539565D01*
X135871981Y-58224712D01*
X136272712Y-57823981D01*
X136587565Y-57352771D01*
X136804439Y-56829190D01*
X136915000Y-56273360D01*
X136915000Y-55706640D01*
X136804439Y-55150810D01*
X136587565Y-54627229D01*
X136368917Y-54300000D01*
X139993737Y-54300000D01*
X139780435Y-54619229D01*
X139563561Y-55142810D01*
X139453000Y-55698640D01*
X139453000Y-56265360D01*
X139563561Y-56821190D01*
X139780435Y-57344771D01*
X140095288Y-57815981D01*
X140496019Y-58216712D01*
X140967229Y-58531565D01*
X141464181Y-58737409D01*
X141109229Y-58884435D01*
X140638019Y-59199288D01*
X140237288Y-59600019D01*
X139922435Y-60071229D01*
X139705561Y-60594810D01*
X139595000Y-61150640D01*
X139595000Y-61717360D01*
X139705561Y-62273190D01*
X139922435Y-62796771D01*
X140237288Y-63267981D01*
X140638019Y-63668712D01*
X141109229Y-63983565D01*
X141632810Y-64200439D01*
X142188640Y-64311000D01*
X142755360Y-64311000D01*
X143311190Y-64200439D01*
X143834771Y-63983565D01*
X144305981Y-63668712D01*
X144706712Y-63267981D01*
X145021565Y-62796771D01*
X145238439Y-62273190D01*
X145349000Y-61717360D01*
X145349000Y-61150640D01*
X145238439Y-60594810D01*
X145021565Y-60071229D01*
X144706712Y-59600019D01*
X144305981Y-59199288D01*
X143834771Y-58884435D01*
X143337819Y-58678591D01*
X143692771Y-58531565D01*
X144163981Y-58216712D01*
X144564712Y-57815981D01*
X144879565Y-57344771D01*
X145023573Y-56997104D01*
X145153630Y-57050975D01*
X145470474Y-57114000D01*
X145793526Y-57114000D01*
X146110370Y-57050975D01*
X146408831Y-56927349D01*
X146677439Y-56747871D01*
X146905871Y-56519439D01*
X147085349Y-56250831D01*
X147208975Y-55952370D01*
X147272000Y-55635526D01*
X147272000Y-55312474D01*
X147208975Y-54995630D01*
X147085349Y-54697169D01*
X146905871Y-54428561D01*
X146777310Y-54300000D01*
X151423737Y-54300000D01*
X151210435Y-54619229D01*
X151027586Y-55060667D01*
X150893526Y-55034000D01*
X150570474Y-55034000D01*
X150253630Y-55097025D01*
X149955169Y-55220651D01*
X149686561Y-55400129D01*
X149458129Y-55628561D01*
X149278651Y-55897169D01*
X149155025Y-56195630D01*
X149092000Y-56512474D01*
X149092000Y-56835526D01*
X149155025Y-57152370D01*
X149278651Y-57450831D01*
X149458129Y-57719439D01*
X149686561Y-57947871D01*
X149955169Y-58127349D01*
X150253630Y-58250975D01*
X150570474Y-58314000D01*
X150893526Y-58314000D01*
X151210370Y-58250975D01*
X151508831Y-58127349D01*
X151705348Y-57996041D01*
X151926019Y-58216712D01*
X152397229Y-58531565D01*
X152920810Y-58748439D01*
X153056427Y-58775415D01*
X152793229Y-58884435D01*
X152322019Y-59199288D01*
X151921288Y-59600019D01*
X151606435Y-60071229D01*
X151389561Y-60594810D01*
X151279000Y-61150640D01*
X151279000Y-61717360D01*
X151389561Y-62273190D01*
X151606435Y-62796771D01*
X151921288Y-63267981D01*
X152322019Y-63668712D01*
X152793229Y-63983565D01*
X153316810Y-64200439D01*
X153872640Y-64311000D01*
X154439360Y-64311000D01*
X154995190Y-64200439D01*
X155518771Y-63983565D01*
X155989981Y-63668712D01*
X156390712Y-63267981D01*
X156705565Y-62796771D01*
X156922439Y-62273190D01*
X157033000Y-61717360D01*
X157033000Y-61150640D01*
X156922439Y-60594810D01*
X156705565Y-60071229D01*
X156390712Y-59600019D01*
X155989981Y-59199288D01*
X155518771Y-58884435D01*
X154995190Y-58667561D01*
X154859573Y-58640585D01*
X155122771Y-58531565D01*
X155593981Y-58216712D01*
X155994712Y-57815981D01*
X156012071Y-57790000D01*
X159271928Y-57790000D01*
X159271928Y-59490000D01*
X159284188Y-59614482D01*
X159320498Y-59734180D01*
X159379463Y-59844494D01*
X159458815Y-59941185D01*
X159555506Y-60020537D01*
X159665820Y-60079502D01*
X159738380Y-60101513D01*
X159606525Y-60233368D01*
X159444010Y-60476589D01*
X159332068Y-60746842D01*
X159275000Y-61033740D01*
X159275000Y-61326260D01*
X159332068Y-61613158D01*
X159444010Y-61883411D01*
X159606525Y-62126632D01*
X159813368Y-62333475D01*
X159987760Y-62450000D01*
X159813368Y-62566525D01*
X159606525Y-62773368D01*
X159444010Y-63016589D01*
X159332068Y-63286842D01*
X159275000Y-63573740D01*
X159275000Y-63866260D01*
X159332068Y-64153158D01*
X159444010Y-64423411D01*
X159606525Y-64666632D01*
X159813368Y-64873475D01*
X159987760Y-64990000D01*
X159813368Y-65106525D01*
X159606525Y-65313368D01*
X159444010Y-65556589D01*
X159332068Y-65826842D01*
X159275000Y-66113740D01*
X159275000Y-66406260D01*
X159332068Y-66693158D01*
X159444010Y-66963411D01*
X159606525Y-67206632D01*
X159813368Y-67413475D01*
X159987760Y-67530000D01*
X159813368Y-67646525D01*
X159606525Y-67853368D01*
X159444010Y-68096589D01*
X159332068Y-68366842D01*
X159275000Y-68653740D01*
X159275000Y-68946260D01*
X159332068Y-69233158D01*
X159444010Y-69503411D01*
X159606525Y-69746632D01*
X159813368Y-69953475D01*
X159987760Y-70070000D01*
X159813368Y-70186525D01*
X159606525Y-70393368D01*
X159444010Y-70636589D01*
X159332068Y-70906842D01*
X159275000Y-71193740D01*
X159275000Y-71486260D01*
X159332068Y-71773158D01*
X159444010Y-72043411D01*
X159606525Y-72286632D01*
X159813368Y-72493475D01*
X159987760Y-72610000D01*
X159813368Y-72726525D01*
X159606525Y-72933368D01*
X159444010Y-73176589D01*
X159332068Y-73446842D01*
X159275000Y-73733740D01*
X159275000Y-74026260D01*
X159332068Y-74313158D01*
X159444010Y-74583411D01*
X159606525Y-74826632D01*
X159813368Y-75033475D01*
X159987760Y-75150000D01*
X159813368Y-75266525D01*
X159606525Y-75473368D01*
X159444010Y-75716589D01*
X159332068Y-75986842D01*
X159275000Y-76273740D01*
X159275000Y-76566260D01*
X159332068Y-76853158D01*
X159444010Y-77123411D01*
X159606525Y-77366632D01*
X159813368Y-77573475D01*
X159987760Y-77690000D01*
X159813368Y-77806525D01*
X159606525Y-78013368D01*
X159444010Y-78256589D01*
X159332068Y-78526842D01*
X159275000Y-78813740D01*
X159275000Y-79106260D01*
X159332068Y-79393158D01*
X159444010Y-79663411D01*
X159606525Y-79906632D01*
X159813368Y-80113475D01*
X159987760Y-80230000D01*
X159813368Y-80346525D01*
X159606525Y-80553368D01*
X159444010Y-80796589D01*
X159332068Y-81066842D01*
X159275000Y-81353740D01*
X159275000Y-81646260D01*
X159332068Y-81933158D01*
X159444010Y-82203411D01*
X159606525Y-82446632D01*
X159813368Y-82653475D01*
X160056589Y-82815990D01*
X160326842Y-82927932D01*
X160613740Y-82985000D01*
X160906260Y-82985000D01*
X161193158Y-82927932D01*
X161463411Y-82815990D01*
X161706632Y-82653475D01*
X161913475Y-82446632D01*
X162030000Y-82272240D01*
X162146525Y-82446632D01*
X162353368Y-82653475D01*
X162596589Y-82815990D01*
X162866842Y-82927932D01*
X163153740Y-82985000D01*
X163446260Y-82985000D01*
X163733158Y-82927932D01*
X164003411Y-82815990D01*
X164246632Y-82653475D01*
X164453475Y-82446632D01*
X164615990Y-82203411D01*
X164727932Y-81933158D01*
X164785000Y-81646260D01*
X164785000Y-81353740D01*
X164727932Y-81066842D01*
X164615990Y-80796589D01*
X164453475Y-80553368D01*
X164246632Y-80346525D01*
X164072240Y-80230000D01*
X164246632Y-80113475D01*
X164453475Y-79906632D01*
X164615990Y-79663411D01*
X164727932Y-79393158D01*
X164785000Y-79106260D01*
X164785000Y-78813740D01*
X164727932Y-78526842D01*
X164615990Y-78256589D01*
X164453475Y-78013368D01*
X164246632Y-77806525D01*
X164072240Y-77690000D01*
X164246632Y-77573475D01*
X164453475Y-77366632D01*
X164615990Y-77123411D01*
X164727932Y-76853158D01*
X164785000Y-76566260D01*
X164785000Y-76273740D01*
X164727932Y-75986842D01*
X164615990Y-75716589D01*
X164453475Y-75473368D01*
X164246632Y-75266525D01*
X164072240Y-75150000D01*
X164246632Y-75033475D01*
X164453475Y-74826632D01*
X164615990Y-74583411D01*
X164727932Y-74313158D01*
X164785000Y-74026260D01*
X164785000Y-73733740D01*
X164727932Y-73446842D01*
X164615990Y-73176589D01*
X164453475Y-72933368D01*
X164246632Y-72726525D01*
X164072240Y-72610000D01*
X164246632Y-72493475D01*
X164453475Y-72286632D01*
X164615990Y-72043411D01*
X164727932Y-71773158D01*
X164785000Y-71486260D01*
X164785000Y-71193740D01*
X164727932Y-70906842D01*
X164615990Y-70636589D01*
X164453475Y-70393368D01*
X164246632Y-70186525D01*
X164072240Y-70070000D01*
X164246632Y-69953475D01*
X164453475Y-69746632D01*
X164615990Y-69503411D01*
X164727932Y-69233158D01*
X164785000Y-68946260D01*
X164785000Y-68653740D01*
X164727932Y-68366842D01*
X164615990Y-68096589D01*
X164453475Y-67853368D01*
X164246632Y-67646525D01*
X164072240Y-67530000D01*
X164246632Y-67413475D01*
X164453475Y-67206632D01*
X164615990Y-66963411D01*
X164727932Y-66693158D01*
X164785000Y-66406260D01*
X164785000Y-66113740D01*
X164727932Y-65826842D01*
X164615990Y-65556589D01*
X164453475Y-65313368D01*
X164246632Y-65106525D01*
X164072240Y-64990000D01*
X164246632Y-64873475D01*
X164453475Y-64666632D01*
X164615990Y-64423411D01*
X164727932Y-64153158D01*
X164785000Y-63866260D01*
X164785000Y-63573740D01*
X164727932Y-63286842D01*
X164615990Y-63016589D01*
X164453475Y-62773368D01*
X164246632Y-62566525D01*
X164072240Y-62450000D01*
X164246632Y-62333475D01*
X164453475Y-62126632D01*
X164615990Y-61883411D01*
X164727932Y-61613158D01*
X164785000Y-61326260D01*
X164785000Y-61033740D01*
X164727932Y-60746842D01*
X164615990Y-60476589D01*
X164453475Y-60233368D01*
X164246632Y-60026525D01*
X164072240Y-59910000D01*
X164246632Y-59793475D01*
X164453475Y-59586632D01*
X164615990Y-59343411D01*
X164727932Y-59073158D01*
X164785000Y-58786260D01*
X164785000Y-58493740D01*
X164727932Y-58206842D01*
X164615990Y-57936589D01*
X164453475Y-57693368D01*
X164246632Y-57486525D01*
X164003411Y-57324010D01*
X163733158Y-57212068D01*
X163446260Y-57155000D01*
X163153740Y-57155000D01*
X162866842Y-57212068D01*
X162596589Y-57324010D01*
X162353368Y-57486525D01*
X162221513Y-57618380D01*
X162199502Y-57545820D01*
X162140537Y-57435506D01*
X162061185Y-57338815D01*
X161964494Y-57259463D01*
X161854180Y-57200498D01*
X161734482Y-57164188D01*
X161610000Y-57151928D01*
X159910000Y-57151928D01*
X159785518Y-57164188D01*
X159665820Y-57200498D01*
X159555506Y-57259463D01*
X159458815Y-57338815D01*
X159379463Y-57435506D01*
X159320498Y-57545820D01*
X159284188Y-57665518D01*
X159271928Y-57790000D01*
X156012071Y-57790000D01*
X156309565Y-57344771D01*
X156526439Y-56821190D01*
X156637000Y-56265360D01*
X156637000Y-55698640D01*
X156526439Y-55142810D01*
X156309565Y-54619229D01*
X156096263Y-54300000D01*
X163267722Y-54300000D01*
X163948126Y-54366714D01*
X164571572Y-54554943D01*
X165146579Y-54860681D01*
X165651247Y-55272279D01*
X166066362Y-55774067D01*
X166376105Y-56346924D01*
X166568682Y-56969039D01*
X166640001Y-57647594D01*
X166640000Y-82467721D01*
X166573286Y-83148126D01*
X166385057Y-83771570D01*
X166079323Y-84346573D01*
X165667721Y-84851248D01*
X165165933Y-85266362D01*
X164593077Y-85576104D01*
X163970961Y-85768682D01*
X163292417Y-85840000D01*
X155749478Y-85840000D01*
X155757771Y-85836565D01*
X156228981Y-85521712D01*
X156629712Y-85120981D01*
X156944565Y-84649771D01*
X157161439Y-84126190D01*
X157272000Y-83570360D01*
X157272000Y-83003640D01*
X157161439Y-82447810D01*
X156944565Y-81924229D01*
X156629712Y-81453019D01*
X156228981Y-81052288D01*
X155757771Y-80737435D01*
X155234190Y-80520561D01*
X154953508Y-80464730D01*
X154995190Y-80456439D01*
X155518771Y-80239565D01*
X155989981Y-79924712D01*
X156390712Y-79523981D01*
X156705565Y-79052771D01*
X156922439Y-78529190D01*
X157033000Y-77973360D01*
X157033000Y-77406640D01*
X156922439Y-76850810D01*
X156705565Y-76327229D01*
X156390712Y-75856019D01*
X155989981Y-75455288D01*
X155518771Y-75140435D01*
X154995190Y-74923561D01*
X154439360Y-74813000D01*
X153872640Y-74813000D01*
X153316810Y-74923561D01*
X152793229Y-75140435D01*
X152322019Y-75455288D01*
X151921288Y-75856019D01*
X151606435Y-76327229D01*
X151389561Y-76850810D01*
X151279000Y-77406640D01*
X151279000Y-77973360D01*
X151389561Y-78529190D01*
X151606435Y-79052771D01*
X151921288Y-79523981D01*
X152322019Y-79924712D01*
X152793229Y-80239565D01*
X153316810Y-80456439D01*
X153597492Y-80512270D01*
X153555810Y-80520561D01*
X153032229Y-80737435D01*
X152561019Y-81052288D01*
X152160288Y-81453019D01*
X151845435Y-81924229D01*
X151684203Y-82313478D01*
X151591370Y-82275025D01*
X151274526Y-82212000D01*
X150951474Y-82212000D01*
X150634630Y-82275025D01*
X150336169Y-82398651D01*
X150067561Y-82578129D01*
X149839129Y-82806561D01*
X149659651Y-83075169D01*
X149536025Y-83373630D01*
X149473000Y-83690474D01*
X149473000Y-84013526D01*
X149536025Y-84330370D01*
X149659651Y-84628831D01*
X149839129Y-84897439D01*
X150067561Y-85125871D01*
X150336169Y-85305349D01*
X150634630Y-85428975D01*
X150951474Y-85492000D01*
X151274526Y-85492000D01*
X151591370Y-85428975D01*
X151889831Y-85305349D01*
X152158439Y-85125871D01*
X152161809Y-85122502D01*
X152561019Y-85521712D01*
X153032229Y-85836565D01*
X153040522Y-85840000D01*
X144319478Y-85840000D01*
X144327771Y-85836565D01*
X144798981Y-85521712D01*
X145199712Y-85120981D01*
X145514565Y-84649771D01*
X145677124Y-84257319D01*
X145851474Y-84292000D01*
X146174526Y-84292000D01*
X146491370Y-84228975D01*
X146789831Y-84105349D01*
X147058439Y-83925871D01*
X147286871Y-83697439D01*
X147466349Y-83428831D01*
X147589975Y-83130370D01*
X147653000Y-82813526D01*
X147653000Y-82490474D01*
X147589975Y-82173630D01*
X147466349Y-81875169D01*
X147286871Y-81606561D01*
X147058439Y-81378129D01*
X146789831Y-81198651D01*
X146491370Y-81075025D01*
X146174526Y-81012000D01*
X145851474Y-81012000D01*
X145534630Y-81075025D01*
X145236169Y-81198651D01*
X145061832Y-81315139D01*
X144798981Y-81052288D01*
X144327771Y-80737435D01*
X143804190Y-80520561D01*
X143366548Y-80433509D01*
X143834771Y-80239565D01*
X144305981Y-79924712D01*
X144706712Y-79523981D01*
X145021565Y-79052771D01*
X145238439Y-78529190D01*
X145349000Y-77973360D01*
X145349000Y-77406640D01*
X145238439Y-76850810D01*
X145021565Y-76327229D01*
X144706712Y-75856019D01*
X144305981Y-75455288D01*
X143834771Y-75140435D01*
X143311190Y-74923561D01*
X142755360Y-74813000D01*
X142188640Y-74813000D01*
X141632810Y-74923561D01*
X141109229Y-75140435D01*
X140638019Y-75455288D01*
X140237288Y-75856019D01*
X139922435Y-76327229D01*
X139705561Y-76850810D01*
X139595000Y-77406640D01*
X139595000Y-77973360D01*
X139705561Y-78529190D01*
X139922435Y-79052771D01*
X140237288Y-79523981D01*
X140638019Y-79924712D01*
X141109229Y-80239565D01*
X141632810Y-80456439D01*
X142070452Y-80543491D01*
X141602229Y-80737435D01*
X141131019Y-81052288D01*
X140730288Y-81453019D01*
X140415435Y-81924229D01*
X140198561Y-82447810D01*
X140088000Y-83003640D01*
X140088000Y-83570360D01*
X140198561Y-84126190D01*
X140415435Y-84649771D01*
X140730288Y-85120981D01*
X141131019Y-85521712D01*
X141602229Y-85836565D01*
X141610522Y-85840000D01*
X136042603Y-85840000D01*
X136506981Y-85529712D01*
X136907712Y-85128981D01*
X137222565Y-84657771D01*
X137439439Y-84134190D01*
X137550000Y-83578360D01*
X137550000Y-83011640D01*
X137439439Y-82455810D01*
X137222565Y-81932229D01*
X136907712Y-81461019D01*
X136506981Y-81060288D01*
X136035771Y-80745435D01*
X135512190Y-80528561D01*
X135166398Y-80459779D01*
X135183190Y-80456439D01*
X135706771Y-80239565D01*
X136177981Y-79924712D01*
X136578712Y-79523981D01*
X136893565Y-79052771D01*
X137110439Y-78529190D01*
X137221000Y-77973360D01*
X137221000Y-77406640D01*
X137110439Y-76850810D01*
X136893565Y-76327229D01*
X136578712Y-75856019D01*
X136177981Y-75455288D01*
X135706771Y-75140435D01*
X135183190Y-74923561D01*
X134627360Y-74813000D01*
X134060640Y-74813000D01*
X133504810Y-74923561D01*
X132981229Y-75140435D01*
X132510019Y-75455288D01*
X132109288Y-75856019D01*
X131794435Y-76327229D01*
X131577561Y-76850810D01*
X131467000Y-77406640D01*
X131467000Y-77973360D01*
X131577561Y-78529190D01*
X131794435Y-79052771D01*
X132109288Y-79523981D01*
X132510019Y-79924712D01*
X132981229Y-80239565D01*
X133504810Y-80456439D01*
X133850602Y-80525221D01*
X133833810Y-80528561D01*
X133310229Y-80745435D01*
X132839019Y-81060288D01*
X132438288Y-81461019D01*
X132123435Y-81932229D01*
X131962203Y-82321478D01*
X131869370Y-82283025D01*
X131552526Y-82220000D01*
X131229474Y-82220000D01*
X130912630Y-82283025D01*
X130614169Y-82406651D01*
X130345561Y-82586129D01*
X130117129Y-82814561D01*
X129937651Y-83083169D01*
X129814025Y-83381630D01*
X129751000Y-83698474D01*
X129751000Y-84021526D01*
X129814025Y-84338370D01*
X129937651Y-84636831D01*
X130117129Y-84905439D01*
X130345561Y-85133871D01*
X130614169Y-85313349D01*
X130912630Y-85436975D01*
X131229474Y-85500000D01*
X131552526Y-85500000D01*
X131869370Y-85436975D01*
X132167831Y-85313349D01*
X132436439Y-85133871D01*
X132439809Y-85130502D01*
X132839019Y-85529712D01*
X133303397Y-85840000D01*
X124612603Y-85840000D01*
X125076981Y-85529712D01*
X125477712Y-85128981D01*
X125792565Y-84657771D01*
X125955124Y-84265319D01*
X126129474Y-84300000D01*
X126452526Y-84300000D01*
X126769370Y-84236975D01*
X127067831Y-84113349D01*
X127336439Y-83933871D01*
X127564871Y-83705439D01*
X127744349Y-83436831D01*
X127867975Y-83138370D01*
X127931000Y-82821526D01*
X127931000Y-82498474D01*
X127867975Y-82181630D01*
X127744349Y-81883169D01*
X127564871Y-81614561D01*
X127336439Y-81386129D01*
X127067831Y-81206651D01*
X126769370Y-81083025D01*
X126452526Y-81020000D01*
X126129474Y-81020000D01*
X125812630Y-81083025D01*
X125514169Y-81206651D01*
X125339832Y-81323139D01*
X125076981Y-81060288D01*
X124605771Y-80745435D01*
X124082190Y-80528561D01*
X123736398Y-80459779D01*
X123753190Y-80456439D01*
X124276771Y-80239565D01*
X124747981Y-79924712D01*
X125148712Y-79523981D01*
X125463565Y-79052771D01*
X125680439Y-78529190D01*
X125791000Y-77973360D01*
X125791000Y-77406640D01*
X125680439Y-76850810D01*
X125463565Y-76327229D01*
X125148712Y-75856019D01*
X124747981Y-75455288D01*
X124276771Y-75140435D01*
X123753190Y-74923561D01*
X123197360Y-74813000D01*
X122630640Y-74813000D01*
X122074810Y-74923561D01*
X121551229Y-75140435D01*
X121080019Y-75455288D01*
X120679288Y-75856019D01*
X120364435Y-76327229D01*
X120147561Y-76850810D01*
X120037000Y-77406640D01*
X120037000Y-77973360D01*
X120147561Y-78529190D01*
X120364435Y-79052771D01*
X120679288Y-79523981D01*
X121080019Y-79924712D01*
X121551229Y-80239565D01*
X122074810Y-80456439D01*
X122420602Y-80525221D01*
X122403810Y-80528561D01*
X121880229Y-80745435D01*
X121409019Y-81060288D01*
X121008288Y-81461019D01*
X120693435Y-81932229D01*
X120476561Y-82455810D01*
X120366000Y-83011640D01*
X120366000Y-83578360D01*
X120476561Y-84134190D01*
X120693435Y-84657771D01*
X121008288Y-85128981D01*
X121409019Y-85529712D01*
X121873397Y-85840000D01*
X109992279Y-85840000D01*
X109311874Y-85773286D01*
X108688430Y-85585057D01*
X108113427Y-85279323D01*
X107608752Y-84867721D01*
X107193638Y-84365933D01*
X106883896Y-83793077D01*
X106691318Y-83170961D01*
X106620000Y-82492417D01*
X106620000Y-57790000D01*
X108471928Y-57790000D01*
X108471928Y-59490000D01*
X108484188Y-59614482D01*
X108520498Y-59734180D01*
X108579463Y-59844494D01*
X108658815Y-59941185D01*
X108755506Y-60020537D01*
X108865820Y-60079502D01*
X108938380Y-60101513D01*
X108806525Y-60233368D01*
X108644010Y-60476589D01*
X108532068Y-60746842D01*
X108475000Y-61033740D01*
X108475000Y-61326260D01*
X108532068Y-61613158D01*
X108644010Y-61883411D01*
X108806525Y-62126632D01*
X109013368Y-62333475D01*
X109187760Y-62450000D01*
X109013368Y-62566525D01*
X108806525Y-62773368D01*
X108644010Y-63016589D01*
X108532068Y-63286842D01*
X108475000Y-63573740D01*
X108475000Y-63866260D01*
X108532068Y-64153158D01*
X108644010Y-64423411D01*
X108806525Y-64666632D01*
X109013368Y-64873475D01*
X109187760Y-64990000D01*
X109013368Y-65106525D01*
X108806525Y-65313368D01*
X108644010Y-65556589D01*
X108532068Y-65826842D01*
X108475000Y-66113740D01*
X108475000Y-66406260D01*
X108532068Y-66693158D01*
X108644010Y-66963411D01*
X108806525Y-67206632D01*
X109013368Y-67413475D01*
X109187760Y-67530000D01*
X109013368Y-67646525D01*
X108806525Y-67853368D01*
X108644010Y-68096589D01*
X108532068Y-68366842D01*
X108475000Y-68653740D01*
X108475000Y-68946260D01*
X108532068Y-69233158D01*
X108644010Y-69503411D01*
X108806525Y-69746632D01*
X109013368Y-69953475D01*
X109187760Y-70070000D01*
X109013368Y-70186525D01*
X108806525Y-70393368D01*
X108644010Y-70636589D01*
X108532068Y-70906842D01*
X108475000Y-71193740D01*
X108475000Y-71486260D01*
X108532068Y-71773158D01*
X108644010Y-72043411D01*
X108806525Y-72286632D01*
X109013368Y-72493475D01*
X109187760Y-72610000D01*
X109013368Y-72726525D01*
X108806525Y-72933368D01*
X108644010Y-73176589D01*
X108532068Y-73446842D01*
X108475000Y-73733740D01*
X108475000Y-74026260D01*
X108532068Y-74313158D01*
X108644010Y-74583411D01*
X108806525Y-74826632D01*
X109013368Y-75033475D01*
X109187760Y-75150000D01*
X109013368Y-75266525D01*
X108806525Y-75473368D01*
X108644010Y-75716589D01*
X108532068Y-75986842D01*
X108475000Y-76273740D01*
X108475000Y-76566260D01*
X108532068Y-76853158D01*
X108644010Y-77123411D01*
X108806525Y-77366632D01*
X109013368Y-77573475D01*
X109187760Y-77690000D01*
X109013368Y-77806525D01*
X108806525Y-78013368D01*
X108644010Y-78256589D01*
X108532068Y-78526842D01*
X108475000Y-78813740D01*
X108475000Y-79106260D01*
X108532068Y-79393158D01*
X108644010Y-79663411D01*
X108806525Y-79906632D01*
X109013368Y-80113475D01*
X109187760Y-80230000D01*
X109013368Y-80346525D01*
X108806525Y-80553368D01*
X108644010Y-80796589D01*
X108532068Y-81066842D01*
X108475000Y-81353740D01*
X108475000Y-81646260D01*
X108532068Y-81933158D01*
X108644010Y-82203411D01*
X108806525Y-82446632D01*
X109013368Y-82653475D01*
X109256589Y-82815990D01*
X109526842Y-82927932D01*
X109813740Y-82985000D01*
X110106260Y-82985000D01*
X110393158Y-82927932D01*
X110663411Y-82815990D01*
X110906632Y-82653475D01*
X111113475Y-82446632D01*
X111275990Y-82203411D01*
X111387932Y-81933158D01*
X111445000Y-81646260D01*
X111445000Y-81353740D01*
X111387932Y-81066842D01*
X111275990Y-80796589D01*
X111113475Y-80553368D01*
X110906632Y-80346525D01*
X110732240Y-80230000D01*
X110906632Y-80113475D01*
X111113475Y-79906632D01*
X111230000Y-79732240D01*
X111346525Y-79906632D01*
X111553368Y-80113475D01*
X111796589Y-80275990D01*
X112066842Y-80387932D01*
X112353740Y-80445000D01*
X112646260Y-80445000D01*
X112933158Y-80387932D01*
X113203411Y-80275990D01*
X113446632Y-80113475D01*
X113653475Y-79906632D01*
X113815990Y-79663411D01*
X113927932Y-79393158D01*
X113985000Y-79106260D01*
X113985000Y-78813740D01*
X113927932Y-78526842D01*
X113815990Y-78256589D01*
X113653475Y-78013368D01*
X113446632Y-77806525D01*
X113272240Y-77690000D01*
X113446632Y-77573475D01*
X113653475Y-77366632D01*
X113815990Y-77123411D01*
X113927932Y-76853158D01*
X113985000Y-76566260D01*
X113985000Y-76273740D01*
X113927932Y-75986842D01*
X113815990Y-75716589D01*
X113653475Y-75473368D01*
X113446632Y-75266525D01*
X113272240Y-75150000D01*
X113446632Y-75033475D01*
X113653475Y-74826632D01*
X113815990Y-74583411D01*
X113927932Y-74313158D01*
X113985000Y-74026260D01*
X113985000Y-73733740D01*
X113927932Y-73446842D01*
X113815990Y-73176589D01*
X113653475Y-72933368D01*
X113446632Y-72726525D01*
X113272240Y-72610000D01*
X113446632Y-72493475D01*
X113653475Y-72286632D01*
X113815990Y-72043411D01*
X113927932Y-71773158D01*
X113985000Y-71486260D01*
X113985000Y-71193740D01*
X113927932Y-70906842D01*
X113815990Y-70636589D01*
X113653475Y-70393368D01*
X113446632Y-70186525D01*
X113272240Y-70070000D01*
X113446632Y-69953475D01*
X113653475Y-69746632D01*
X113815990Y-69503411D01*
X113927932Y-69233158D01*
X113985000Y-68946260D01*
X113985000Y-68653740D01*
X113927932Y-68366842D01*
X113906624Y-68315400D01*
X113988599Y-68315400D01*
X114984200Y-69311002D01*
X115007999Y-69340001D01*
X115123724Y-69434974D01*
X115255753Y-69505546D01*
X115399014Y-69549003D01*
X115510667Y-69560000D01*
X115510676Y-69560000D01*
X115547999Y-69563676D01*
X115585322Y-69560000D01*
X115860289Y-69560000D01*
X115904226Y-69603937D01*
X116073744Y-69717205D01*
X116262102Y-69795226D01*
X116462061Y-69835000D01*
X116665939Y-69835000D01*
X116865898Y-69795226D01*
X117054256Y-69717205D01*
X117223774Y-69603937D01*
X117367937Y-69459774D01*
X117481205Y-69290256D01*
X117559226Y-69101898D01*
X117599000Y-68901939D01*
X117599000Y-68698061D01*
X117559226Y-68498102D01*
X117481205Y-68309744D01*
X117384490Y-68165000D01*
X117481205Y-68020256D01*
X117559226Y-67831898D01*
X117599000Y-67631939D01*
X117599000Y-67428061D01*
X117559226Y-67228102D01*
X117481205Y-67039744D01*
X117384490Y-66895000D01*
X117481205Y-66750256D01*
X117559226Y-66561898D01*
X117599000Y-66361939D01*
X117599000Y-66158061D01*
X117559226Y-65958102D01*
X117481205Y-65769744D01*
X117384490Y-65625000D01*
X117481205Y-65480256D01*
X117559226Y-65291898D01*
X117599000Y-65091939D01*
X117599000Y-64888061D01*
X117559226Y-64688102D01*
X117481205Y-64499744D01*
X117367937Y-64330226D01*
X117324000Y-64286289D01*
X117324000Y-63339133D01*
X117327677Y-63301800D01*
X117313003Y-63152814D01*
X117269546Y-63009553D01*
X117198974Y-62877524D01*
X117127799Y-62790797D01*
X117104001Y-62761799D01*
X117075003Y-62738001D01*
X113761685Y-59424684D01*
X113815990Y-59343411D01*
X113927932Y-59073158D01*
X113985000Y-58786260D01*
X113985000Y-58493740D01*
X113927932Y-58206842D01*
X113815990Y-57936589D01*
X113653475Y-57693368D01*
X113446632Y-57486525D01*
X113203411Y-57324010D01*
X112933158Y-57212068D01*
X112646260Y-57155000D01*
X112353740Y-57155000D01*
X112066842Y-57212068D01*
X111796589Y-57324010D01*
X111553368Y-57486525D01*
X111421513Y-57618380D01*
X111399502Y-57545820D01*
X111340537Y-57435506D01*
X111261185Y-57338815D01*
X111164494Y-57259463D01*
X111054180Y-57200498D01*
X110934482Y-57164188D01*
X110810000Y-57151928D01*
X109110000Y-57151928D01*
X108985518Y-57164188D01*
X108865820Y-57200498D01*
X108755506Y-57259463D01*
X108658815Y-57338815D01*
X108579463Y-57435506D01*
X108520498Y-57545820D01*
X108484188Y-57665518D01*
X108471928Y-57790000D01*
X106620000Y-57790000D01*
X106620000Y-57672278D01*
X106686714Y-56991874D01*
X106874943Y-56368428D01*
X107180681Y-55793421D01*
X107592279Y-55288753D01*
X108094067Y-54873638D01*
X108666924Y-54563895D01*
X109289039Y-54371318D01*
X109967584Y-54300000D01*
X120277083Y-54300000D01*
X120058435Y-54627229D01*
%TD*%
M02*
