%TF.GenerationSoftware,KiCad,Pcbnew,(5.1.6)-1*%
%TF.CreationDate,2020-06-16T18:44:35+01:00*%
%TF.ProjectId,I_sense_pcb,495f7365-6e73-4655-9f70-63622e6b6963,rev?*%
%TF.SameCoordinates,Original*%
%TF.FileFunction,Paste,Top*%
%TF.FilePolarity,Positive*%
%FSLAX46Y46*%
G04 Gerber Fmt 4.6, Leading zero omitted, Abs format (unit mm)*
G04 Created by KiCad (PCBNEW (5.1.6)-1) date 2020-06-16 18:44:35*
%MOMM*%
%LPD*%
G01*
G04 APERTURE LIST*
G04 APERTURE END LIST*
%TO.C,U4*%
G36*
G01*
X146600200Y-74330399D02*
X146600200Y-74630399D01*
G75*
G02*
X146450200Y-74780399I-150000J0D01*
G01*
X145000200Y-74780399D01*
G75*
G02*
X144850200Y-74630399I0J150000D01*
G01*
X144850200Y-74330399D01*
G75*
G02*
X145000200Y-74180399I150000J0D01*
G01*
X146450200Y-74180399D01*
G75*
G02*
X146600200Y-74330399I0J-150000D01*
G01*
G37*
G36*
G01*
X146600200Y-73060399D02*
X146600200Y-73360399D01*
G75*
G02*
X146450200Y-73510399I-150000J0D01*
G01*
X145000200Y-73510399D01*
G75*
G02*
X144850200Y-73360399I0J150000D01*
G01*
X144850200Y-73060399D01*
G75*
G02*
X145000200Y-72910399I150000J0D01*
G01*
X146450200Y-72910399D01*
G75*
G02*
X146600200Y-73060399I0J-150000D01*
G01*
G37*
G36*
G01*
X146600200Y-71790399D02*
X146600200Y-72090399D01*
G75*
G02*
X146450200Y-72240399I-150000J0D01*
G01*
X145000200Y-72240399D01*
G75*
G02*
X144850200Y-72090399I0J150000D01*
G01*
X144850200Y-71790399D01*
G75*
G02*
X145000200Y-71640399I150000J0D01*
G01*
X146450200Y-71640399D01*
G75*
G02*
X146600200Y-71790399I0J-150000D01*
G01*
G37*
G36*
G01*
X146600200Y-70520399D02*
X146600200Y-70820399D01*
G75*
G02*
X146450200Y-70970399I-150000J0D01*
G01*
X145000200Y-70970399D01*
G75*
G02*
X144850200Y-70820399I0J150000D01*
G01*
X144850200Y-70520399D01*
G75*
G02*
X145000200Y-70370399I150000J0D01*
G01*
X146450200Y-70370399D01*
G75*
G02*
X146600200Y-70520399I0J-150000D01*
G01*
G37*
G36*
G01*
X151750200Y-70520399D02*
X151750200Y-70820399D01*
G75*
G02*
X151600200Y-70970399I-150000J0D01*
G01*
X150150200Y-70970399D01*
G75*
G02*
X150000200Y-70820399I0J150000D01*
G01*
X150000200Y-70520399D01*
G75*
G02*
X150150200Y-70370399I150000J0D01*
G01*
X151600200Y-70370399D01*
G75*
G02*
X151750200Y-70520399I0J-150000D01*
G01*
G37*
G36*
G01*
X151750200Y-71790399D02*
X151750200Y-72090399D01*
G75*
G02*
X151600200Y-72240399I-150000J0D01*
G01*
X150150200Y-72240399D01*
G75*
G02*
X150000200Y-72090399I0J150000D01*
G01*
X150000200Y-71790399D01*
G75*
G02*
X150150200Y-71640399I150000J0D01*
G01*
X151600200Y-71640399D01*
G75*
G02*
X151750200Y-71790399I0J-150000D01*
G01*
G37*
G36*
G01*
X151750200Y-73060399D02*
X151750200Y-73360399D01*
G75*
G02*
X151600200Y-73510399I-150000J0D01*
G01*
X150150200Y-73510399D01*
G75*
G02*
X150000200Y-73360399I0J150000D01*
G01*
X150000200Y-73060399D01*
G75*
G02*
X150150200Y-72910399I150000J0D01*
G01*
X151600200Y-72910399D01*
G75*
G02*
X151750200Y-73060399I0J-150000D01*
G01*
G37*
G36*
G01*
X151750200Y-74330399D02*
X151750200Y-74630399D01*
G75*
G02*
X151600200Y-74780399I-150000J0D01*
G01*
X150150200Y-74780399D01*
G75*
G02*
X150000200Y-74630399I0J150000D01*
G01*
X150000200Y-74330399D01*
G75*
G02*
X150150200Y-74180399I150000J0D01*
G01*
X151600200Y-74180399D01*
G75*
G02*
X151750200Y-74330399I0J-150000D01*
G01*
G37*
%TD*%
%TO.C,C4*%
G36*
G01*
X143929250Y-73965500D02*
X143016750Y-73965500D01*
G75*
G02*
X142773000Y-73721750I0J243750D01*
G01*
X142773000Y-73234250D01*
G75*
G02*
X143016750Y-72990500I243750J0D01*
G01*
X143929250Y-72990500D01*
G75*
G02*
X144173000Y-73234250I0J-243750D01*
G01*
X144173000Y-73721750D01*
G75*
G02*
X143929250Y-73965500I-243750J0D01*
G01*
G37*
G36*
G01*
X143929250Y-72090500D02*
X143016750Y-72090500D01*
G75*
G02*
X142773000Y-71846750I0J243750D01*
G01*
X142773000Y-71359250D01*
G75*
G02*
X143016750Y-71115500I243750J0D01*
G01*
X143929250Y-71115500D01*
G75*
G02*
X144173000Y-71359250I0J-243750D01*
G01*
X144173000Y-71846750D01*
G75*
G02*
X143929250Y-72090500I-243750J0D01*
G01*
G37*
%TD*%
%TO.C,R4*%
G36*
G01*
X150539000Y-79149401D02*
X150539000Y-76299399D01*
G75*
G02*
X150788999Y-76049400I249999J0D01*
G01*
X151639001Y-76049400D01*
G75*
G02*
X151889000Y-76299399I0J-249999D01*
G01*
X151889000Y-79149401D01*
G75*
G02*
X151639001Y-79399400I-249999J0D01*
G01*
X150788999Y-79399400D01*
G75*
G02*
X150539000Y-79149401I0J249999D01*
G01*
G37*
G36*
G01*
X144739000Y-79149401D02*
X144739000Y-76299399D01*
G75*
G02*
X144988999Y-76049400I249999J0D01*
G01*
X145839001Y-76049400D01*
G75*
G02*
X146089000Y-76299399I0J-249999D01*
G01*
X146089000Y-79149401D01*
G75*
G02*
X145839001Y-79399400I-249999J0D01*
G01*
X144988999Y-79399400D01*
G75*
G02*
X144739000Y-79149401I0J249999D01*
G01*
G37*
%TD*%
%TO.C,R3*%
G36*
G01*
X146124800Y-60119599D02*
X146124800Y-62969601D01*
G75*
G02*
X145874801Y-63219600I-249999J0D01*
G01*
X145024799Y-63219600D01*
G75*
G02*
X144774800Y-62969601I0J249999D01*
G01*
X144774800Y-60119599D01*
G75*
G02*
X145024799Y-59869600I249999J0D01*
G01*
X145874801Y-59869600D01*
G75*
G02*
X146124800Y-60119599I0J-249999D01*
G01*
G37*
G36*
G01*
X151924800Y-60119599D02*
X151924800Y-62969601D01*
G75*
G02*
X151674801Y-63219600I-249999J0D01*
G01*
X150824799Y-63219600D01*
G75*
G02*
X150574800Y-62969601I0J249999D01*
G01*
X150574800Y-60119599D01*
G75*
G02*
X150824799Y-59869600I249999J0D01*
G01*
X151674801Y-59869600D01*
G75*
G02*
X151924800Y-60119599I0J-249999D01*
G01*
G37*
%TD*%
%TO.C,U3*%
G36*
G01*
X150124800Y-64938601D02*
X150124800Y-64638601D01*
G75*
G02*
X150274800Y-64488601I150000J0D01*
G01*
X151724800Y-64488601D01*
G75*
G02*
X151874800Y-64638601I0J-150000D01*
G01*
X151874800Y-64938601D01*
G75*
G02*
X151724800Y-65088601I-150000J0D01*
G01*
X150274800Y-65088601D01*
G75*
G02*
X150124800Y-64938601I0J150000D01*
G01*
G37*
G36*
G01*
X150124800Y-66208601D02*
X150124800Y-65908601D01*
G75*
G02*
X150274800Y-65758601I150000J0D01*
G01*
X151724800Y-65758601D01*
G75*
G02*
X151874800Y-65908601I0J-150000D01*
G01*
X151874800Y-66208601D01*
G75*
G02*
X151724800Y-66358601I-150000J0D01*
G01*
X150274800Y-66358601D01*
G75*
G02*
X150124800Y-66208601I0J150000D01*
G01*
G37*
G36*
G01*
X150124800Y-67478601D02*
X150124800Y-67178601D01*
G75*
G02*
X150274800Y-67028601I150000J0D01*
G01*
X151724800Y-67028601D01*
G75*
G02*
X151874800Y-67178601I0J-150000D01*
G01*
X151874800Y-67478601D01*
G75*
G02*
X151724800Y-67628601I-150000J0D01*
G01*
X150274800Y-67628601D01*
G75*
G02*
X150124800Y-67478601I0J150000D01*
G01*
G37*
G36*
G01*
X150124800Y-68748601D02*
X150124800Y-68448601D01*
G75*
G02*
X150274800Y-68298601I150000J0D01*
G01*
X151724800Y-68298601D01*
G75*
G02*
X151874800Y-68448601I0J-150000D01*
G01*
X151874800Y-68748601D01*
G75*
G02*
X151724800Y-68898601I-150000J0D01*
G01*
X150274800Y-68898601D01*
G75*
G02*
X150124800Y-68748601I0J150000D01*
G01*
G37*
G36*
G01*
X144974800Y-68748601D02*
X144974800Y-68448601D01*
G75*
G02*
X145124800Y-68298601I150000J0D01*
G01*
X146574800Y-68298601D01*
G75*
G02*
X146724800Y-68448601I0J-150000D01*
G01*
X146724800Y-68748601D01*
G75*
G02*
X146574800Y-68898601I-150000J0D01*
G01*
X145124800Y-68898601D01*
G75*
G02*
X144974800Y-68748601I0J150000D01*
G01*
G37*
G36*
G01*
X144974800Y-67478601D02*
X144974800Y-67178601D01*
G75*
G02*
X145124800Y-67028601I150000J0D01*
G01*
X146574800Y-67028601D01*
G75*
G02*
X146724800Y-67178601I0J-150000D01*
G01*
X146724800Y-67478601D01*
G75*
G02*
X146574800Y-67628601I-150000J0D01*
G01*
X145124800Y-67628601D01*
G75*
G02*
X144974800Y-67478601I0J150000D01*
G01*
G37*
G36*
G01*
X144974800Y-66208601D02*
X144974800Y-65908601D01*
G75*
G02*
X145124800Y-65758601I150000J0D01*
G01*
X146574800Y-65758601D01*
G75*
G02*
X146724800Y-65908601I0J-150000D01*
G01*
X146724800Y-66208601D01*
G75*
G02*
X146574800Y-66358601I-150000J0D01*
G01*
X145124800Y-66358601D01*
G75*
G02*
X144974800Y-66208601I0J150000D01*
G01*
G37*
G36*
G01*
X144974800Y-64938601D02*
X144974800Y-64638601D01*
G75*
G02*
X145124800Y-64488601I150000J0D01*
G01*
X146574800Y-64488601D01*
G75*
G02*
X146724800Y-64638601I0J-150000D01*
G01*
X146724800Y-64938601D01*
G75*
G02*
X146574800Y-65088601I-150000J0D01*
G01*
X145124800Y-65088601D01*
G75*
G02*
X144974800Y-64938601I0J150000D01*
G01*
G37*
%TD*%
%TO.C,C3*%
G36*
G01*
X152795750Y-67199300D02*
X153708250Y-67199300D01*
G75*
G02*
X153952000Y-67443050I0J-243750D01*
G01*
X153952000Y-67930550D01*
G75*
G02*
X153708250Y-68174300I-243750J0D01*
G01*
X152795750Y-68174300D01*
G75*
G02*
X152552000Y-67930550I0J243750D01*
G01*
X152552000Y-67443050D01*
G75*
G02*
X152795750Y-67199300I243750J0D01*
G01*
G37*
G36*
G01*
X152795750Y-65324300D02*
X153708250Y-65324300D01*
G75*
G02*
X153952000Y-65568050I0J-243750D01*
G01*
X153952000Y-66055550D01*
G75*
G02*
X153708250Y-66299300I-243750J0D01*
G01*
X152795750Y-66299300D01*
G75*
G02*
X152552000Y-66055550I0J243750D01*
G01*
X152552000Y-65568050D01*
G75*
G02*
X152795750Y-65324300I243750J0D01*
G01*
G37*
%TD*%
%TO.C,C2*%
G36*
G01*
X133073750Y-65332300D02*
X133986250Y-65332300D01*
G75*
G02*
X134230000Y-65576050I0J-243750D01*
G01*
X134230000Y-66063550D01*
G75*
G02*
X133986250Y-66307300I-243750J0D01*
G01*
X133073750Y-66307300D01*
G75*
G02*
X132830000Y-66063550I0J243750D01*
G01*
X132830000Y-65576050D01*
G75*
G02*
X133073750Y-65332300I243750J0D01*
G01*
G37*
G36*
G01*
X133073750Y-67207300D02*
X133986250Y-67207300D01*
G75*
G02*
X134230000Y-67451050I0J-243750D01*
G01*
X134230000Y-67938550D01*
G75*
G02*
X133986250Y-68182300I-243750J0D01*
G01*
X133073750Y-68182300D01*
G75*
G02*
X132830000Y-67938550I0J243750D01*
G01*
X132830000Y-67451050D01*
G75*
G02*
X133073750Y-67207300I243750J0D01*
G01*
G37*
%TD*%
%TO.C,U2*%
G36*
G01*
X125252800Y-64946601D02*
X125252800Y-64646601D01*
G75*
G02*
X125402800Y-64496601I150000J0D01*
G01*
X126852800Y-64496601D01*
G75*
G02*
X127002800Y-64646601I0J-150000D01*
G01*
X127002800Y-64946601D01*
G75*
G02*
X126852800Y-65096601I-150000J0D01*
G01*
X125402800Y-65096601D01*
G75*
G02*
X125252800Y-64946601I0J150000D01*
G01*
G37*
G36*
G01*
X125252800Y-66216601D02*
X125252800Y-65916601D01*
G75*
G02*
X125402800Y-65766601I150000J0D01*
G01*
X126852800Y-65766601D01*
G75*
G02*
X127002800Y-65916601I0J-150000D01*
G01*
X127002800Y-66216601D01*
G75*
G02*
X126852800Y-66366601I-150000J0D01*
G01*
X125402800Y-66366601D01*
G75*
G02*
X125252800Y-66216601I0J150000D01*
G01*
G37*
G36*
G01*
X125252800Y-67486601D02*
X125252800Y-67186601D01*
G75*
G02*
X125402800Y-67036601I150000J0D01*
G01*
X126852800Y-67036601D01*
G75*
G02*
X127002800Y-67186601I0J-150000D01*
G01*
X127002800Y-67486601D01*
G75*
G02*
X126852800Y-67636601I-150000J0D01*
G01*
X125402800Y-67636601D01*
G75*
G02*
X125252800Y-67486601I0J150000D01*
G01*
G37*
G36*
G01*
X125252800Y-68756601D02*
X125252800Y-68456601D01*
G75*
G02*
X125402800Y-68306601I150000J0D01*
G01*
X126852800Y-68306601D01*
G75*
G02*
X127002800Y-68456601I0J-150000D01*
G01*
X127002800Y-68756601D01*
G75*
G02*
X126852800Y-68906601I-150000J0D01*
G01*
X125402800Y-68906601D01*
G75*
G02*
X125252800Y-68756601I0J150000D01*
G01*
G37*
G36*
G01*
X130402800Y-68756601D02*
X130402800Y-68456601D01*
G75*
G02*
X130552800Y-68306601I150000J0D01*
G01*
X132002800Y-68306601D01*
G75*
G02*
X132152800Y-68456601I0J-150000D01*
G01*
X132152800Y-68756601D01*
G75*
G02*
X132002800Y-68906601I-150000J0D01*
G01*
X130552800Y-68906601D01*
G75*
G02*
X130402800Y-68756601I0J150000D01*
G01*
G37*
G36*
G01*
X130402800Y-67486601D02*
X130402800Y-67186601D01*
G75*
G02*
X130552800Y-67036601I150000J0D01*
G01*
X132002800Y-67036601D01*
G75*
G02*
X132152800Y-67186601I0J-150000D01*
G01*
X132152800Y-67486601D01*
G75*
G02*
X132002800Y-67636601I-150000J0D01*
G01*
X130552800Y-67636601D01*
G75*
G02*
X130402800Y-67486601I0J150000D01*
G01*
G37*
G36*
G01*
X130402800Y-66216601D02*
X130402800Y-65916601D01*
G75*
G02*
X130552800Y-65766601I150000J0D01*
G01*
X132002800Y-65766601D01*
G75*
G02*
X132152800Y-65916601I0J-150000D01*
G01*
X132152800Y-66216601D01*
G75*
G02*
X132002800Y-66366601I-150000J0D01*
G01*
X130552800Y-66366601D01*
G75*
G02*
X130402800Y-66216601I0J150000D01*
G01*
G37*
G36*
G01*
X130402800Y-64946601D02*
X130402800Y-64646601D01*
G75*
G02*
X130552800Y-64496601I150000J0D01*
G01*
X132002800Y-64496601D01*
G75*
G02*
X132152800Y-64646601I0J-150000D01*
G01*
X132152800Y-64946601D01*
G75*
G02*
X132002800Y-65096601I-150000J0D01*
G01*
X130552800Y-65096601D01*
G75*
G02*
X130402800Y-64946601I0J150000D01*
G01*
G37*
%TD*%
%TO.C,R2*%
G36*
G01*
X132202800Y-60127599D02*
X132202800Y-62977601D01*
G75*
G02*
X131952801Y-63227600I-249999J0D01*
G01*
X131102799Y-63227600D01*
G75*
G02*
X130852800Y-62977601I0J249999D01*
G01*
X130852800Y-60127599D01*
G75*
G02*
X131102799Y-59877600I249999J0D01*
G01*
X131952801Y-59877600D01*
G75*
G02*
X132202800Y-60127599I0J-249999D01*
G01*
G37*
G36*
G01*
X126402800Y-60127599D02*
X126402800Y-62977601D01*
G75*
G02*
X126152801Y-63227600I-249999J0D01*
G01*
X125302799Y-63227600D01*
G75*
G02*
X125052800Y-62977601I0J249999D01*
G01*
X125052800Y-60127599D01*
G75*
G02*
X125302799Y-59877600I249999J0D01*
G01*
X126152801Y-59877600D01*
G75*
G02*
X126402800Y-60127599I0J-249999D01*
G01*
G37*
%TD*%
%TO.C,R1*%
G36*
G01*
X125078200Y-79157401D02*
X125078200Y-76307399D01*
G75*
G02*
X125328199Y-76057400I249999J0D01*
G01*
X126178201Y-76057400D01*
G75*
G02*
X126428200Y-76307399I0J-249999D01*
G01*
X126428200Y-79157401D01*
G75*
G02*
X126178201Y-79407400I-249999J0D01*
G01*
X125328199Y-79407400D01*
G75*
G02*
X125078200Y-79157401I0J249999D01*
G01*
G37*
G36*
G01*
X130878200Y-79157401D02*
X130878200Y-76307399D01*
G75*
G02*
X131128199Y-76057400I249999J0D01*
G01*
X131978201Y-76057400D01*
G75*
G02*
X132228200Y-76307399I0J-249999D01*
G01*
X132228200Y-79157401D01*
G75*
G02*
X131978201Y-79407400I-249999J0D01*
G01*
X131128199Y-79407400D01*
G75*
G02*
X130878200Y-79157401I0J249999D01*
G01*
G37*
%TD*%
%TO.C,C1*%
G36*
G01*
X124207250Y-72098500D02*
X123294750Y-72098500D01*
G75*
G02*
X123051000Y-71854750I0J243750D01*
G01*
X123051000Y-71367250D01*
G75*
G02*
X123294750Y-71123500I243750J0D01*
G01*
X124207250Y-71123500D01*
G75*
G02*
X124451000Y-71367250I0J-243750D01*
G01*
X124451000Y-71854750D01*
G75*
G02*
X124207250Y-72098500I-243750J0D01*
G01*
G37*
G36*
G01*
X124207250Y-73973500D02*
X123294750Y-73973500D01*
G75*
G02*
X123051000Y-73729750I0J243750D01*
G01*
X123051000Y-73242250D01*
G75*
G02*
X123294750Y-72998500I243750J0D01*
G01*
X124207250Y-72998500D01*
G75*
G02*
X124451000Y-73242250I0J-243750D01*
G01*
X124451000Y-73729750D01*
G75*
G02*
X124207250Y-73973500I-243750J0D01*
G01*
G37*
%TD*%
%TO.C,U1*%
G36*
G01*
X132028200Y-74338399D02*
X132028200Y-74638399D01*
G75*
G02*
X131878200Y-74788399I-150000J0D01*
G01*
X130428200Y-74788399D01*
G75*
G02*
X130278200Y-74638399I0J150000D01*
G01*
X130278200Y-74338399D01*
G75*
G02*
X130428200Y-74188399I150000J0D01*
G01*
X131878200Y-74188399D01*
G75*
G02*
X132028200Y-74338399I0J-150000D01*
G01*
G37*
G36*
G01*
X132028200Y-73068399D02*
X132028200Y-73368399D01*
G75*
G02*
X131878200Y-73518399I-150000J0D01*
G01*
X130428200Y-73518399D01*
G75*
G02*
X130278200Y-73368399I0J150000D01*
G01*
X130278200Y-73068399D01*
G75*
G02*
X130428200Y-72918399I150000J0D01*
G01*
X131878200Y-72918399D01*
G75*
G02*
X132028200Y-73068399I0J-150000D01*
G01*
G37*
G36*
G01*
X132028200Y-71798399D02*
X132028200Y-72098399D01*
G75*
G02*
X131878200Y-72248399I-150000J0D01*
G01*
X130428200Y-72248399D01*
G75*
G02*
X130278200Y-72098399I0J150000D01*
G01*
X130278200Y-71798399D01*
G75*
G02*
X130428200Y-71648399I150000J0D01*
G01*
X131878200Y-71648399D01*
G75*
G02*
X132028200Y-71798399I0J-150000D01*
G01*
G37*
G36*
G01*
X132028200Y-70528399D02*
X132028200Y-70828399D01*
G75*
G02*
X131878200Y-70978399I-150000J0D01*
G01*
X130428200Y-70978399D01*
G75*
G02*
X130278200Y-70828399I0J150000D01*
G01*
X130278200Y-70528399D01*
G75*
G02*
X130428200Y-70378399I150000J0D01*
G01*
X131878200Y-70378399D01*
G75*
G02*
X132028200Y-70528399I0J-150000D01*
G01*
G37*
G36*
G01*
X126878200Y-70528399D02*
X126878200Y-70828399D01*
G75*
G02*
X126728200Y-70978399I-150000J0D01*
G01*
X125278200Y-70978399D01*
G75*
G02*
X125128200Y-70828399I0J150000D01*
G01*
X125128200Y-70528399D01*
G75*
G02*
X125278200Y-70378399I150000J0D01*
G01*
X126728200Y-70378399D01*
G75*
G02*
X126878200Y-70528399I0J-150000D01*
G01*
G37*
G36*
G01*
X126878200Y-71798399D02*
X126878200Y-72098399D01*
G75*
G02*
X126728200Y-72248399I-150000J0D01*
G01*
X125278200Y-72248399D01*
G75*
G02*
X125128200Y-72098399I0J150000D01*
G01*
X125128200Y-71798399D01*
G75*
G02*
X125278200Y-71648399I150000J0D01*
G01*
X126728200Y-71648399D01*
G75*
G02*
X126878200Y-71798399I0J-150000D01*
G01*
G37*
G36*
G01*
X126878200Y-73068399D02*
X126878200Y-73368399D01*
G75*
G02*
X126728200Y-73518399I-150000J0D01*
G01*
X125278200Y-73518399D01*
G75*
G02*
X125128200Y-73368399I0J150000D01*
G01*
X125128200Y-73068399D01*
G75*
G02*
X125278200Y-72918399I150000J0D01*
G01*
X126728200Y-72918399D01*
G75*
G02*
X126878200Y-73068399I0J-150000D01*
G01*
G37*
G36*
G01*
X126878200Y-74338399D02*
X126878200Y-74638399D01*
G75*
G02*
X126728200Y-74788399I-150000J0D01*
G01*
X125278200Y-74788399D01*
G75*
G02*
X125128200Y-74638399I0J150000D01*
G01*
X125128200Y-74338399D01*
G75*
G02*
X125278200Y-74188399I150000J0D01*
G01*
X126728200Y-74188399D01*
G75*
G02*
X126878200Y-74338399I0J-150000D01*
G01*
G37*
%TD*%
M02*
