%TF.GenerationSoftware,KiCad,Pcbnew,(5.1.6)-1*%
%TF.CreationDate,2020-06-16T18:44:35+01:00*%
%TF.ProjectId,I_sense_pcb,495f7365-6e73-4655-9f70-63622e6b6963,rev?*%
%TF.SameCoordinates,Original*%
%TF.FileFunction,Legend,Top*%
%TF.FilePolarity,Positive*%
%FSLAX46Y46*%
G04 Gerber Fmt 4.6, Leading zero omitted, Abs format (unit mm)*
G04 Created by KiCad (PCBNEW (5.1.6)-1) date 2020-06-16 18:44:35*
%MOMM*%
%LPD*%
G01*
G04 APERTURE LIST*
%ADD10C,0.150000*%
%ADD11C,0.100000*%
%ADD12C,0.125000*%
%ADD13C,0.120000*%
G04 APERTURE END LIST*
D10*
X114505714Y-78631428D02*
X114220000Y-78631428D01*
X114191428Y-78917142D01*
X114220000Y-78888571D01*
X114277142Y-78860000D01*
X114420000Y-78860000D01*
X114477142Y-78888571D01*
X114505714Y-78917142D01*
X114534285Y-78974285D01*
X114534285Y-79117142D01*
X114505714Y-79174285D01*
X114477142Y-79202857D01*
X114420000Y-79231428D01*
X114277142Y-79231428D01*
X114220000Y-79202857D01*
X114191428Y-79174285D01*
X114705714Y-78631428D02*
X114905714Y-79231428D01*
X115105714Y-78631428D01*
X114226142Y-63633628D02*
X114597571Y-63633628D01*
X114397571Y-63862200D01*
X114483285Y-63862200D01*
X114540428Y-63890771D01*
X114569000Y-63919342D01*
X114597571Y-63976485D01*
X114597571Y-64119342D01*
X114569000Y-64176485D01*
X114540428Y-64205057D01*
X114483285Y-64233628D01*
X114311857Y-64233628D01*
X114254714Y-64205057D01*
X114226142Y-64176485D01*
X114769000Y-63633628D02*
X114969000Y-64233628D01*
X115169000Y-63633628D01*
X115311857Y-63633628D02*
X115683285Y-63633628D01*
X115483285Y-63862200D01*
X115569000Y-63862200D01*
X115626142Y-63890771D01*
X115654714Y-63919342D01*
X115683285Y-63976485D01*
X115683285Y-64119342D01*
X115654714Y-64176485D01*
X115626142Y-64205057D01*
X115569000Y-64233628D01*
X115397571Y-64233628D01*
X115340428Y-64205057D01*
X115311857Y-64176485D01*
X114240428Y-66491057D02*
X114326142Y-66519628D01*
X114469000Y-66519628D01*
X114526142Y-66491057D01*
X114554714Y-66462485D01*
X114583285Y-66405342D01*
X114583285Y-66348200D01*
X114554714Y-66291057D01*
X114526142Y-66262485D01*
X114469000Y-66233914D01*
X114354714Y-66205342D01*
X114297571Y-66176771D01*
X114269000Y-66148200D01*
X114240428Y-66091057D01*
X114240428Y-66033914D01*
X114269000Y-65976771D01*
X114297571Y-65948200D01*
X114354714Y-65919628D01*
X114497571Y-65919628D01*
X114583285Y-65948200D01*
X114840428Y-66519628D02*
X114840428Y-65919628D01*
X114983285Y-65919628D01*
X115069000Y-65948200D01*
X115126142Y-66005342D01*
X115154714Y-66062485D01*
X115183285Y-66176771D01*
X115183285Y-66262485D01*
X115154714Y-66376771D01*
X115126142Y-66433914D01*
X115069000Y-66491057D01*
X114983285Y-66519628D01*
X114840428Y-66519628D01*
X115411857Y-66348200D02*
X115697571Y-66348200D01*
X115354714Y-66519628D02*
X115554714Y-65919628D01*
X115754714Y-66519628D01*
D11*
X142928571Y-66133333D02*
X143309523Y-66133333D01*
X142852380Y-66361904D02*
X143119047Y-65561904D01*
X143385714Y-66361904D01*
X144071428Y-66361904D02*
X143614285Y-66361904D01*
X143842857Y-66361904D02*
X143842857Y-65561904D01*
X143766666Y-65676190D01*
X143690476Y-65752380D01*
X143614285Y-65790476D01*
D12*
X142397571Y-74377190D02*
X142445190Y-74377190D01*
X142492809Y-74401000D01*
X142516619Y-74424809D01*
X142540428Y-74472428D01*
X142564238Y-74567666D01*
X142564238Y-74686714D01*
X142540428Y-74781952D01*
X142516619Y-74829571D01*
X142492809Y-74853380D01*
X142445190Y-74877190D01*
X142397571Y-74877190D01*
X142349952Y-74853380D01*
X142326142Y-74829571D01*
X142302333Y-74781952D01*
X142278523Y-74686714D01*
X142278523Y-74567666D01*
X142302333Y-74472428D01*
X142326142Y-74424809D01*
X142349952Y-74401000D01*
X142397571Y-74377190D01*
X142778523Y-74829571D02*
X142802333Y-74853380D01*
X142778523Y-74877190D01*
X142754714Y-74853380D01*
X142778523Y-74829571D01*
X142778523Y-74877190D01*
X143278523Y-74877190D02*
X142992809Y-74877190D01*
X143135666Y-74877190D02*
X143135666Y-74377190D01*
X143088047Y-74448619D01*
X143040428Y-74496238D01*
X142992809Y-74520047D01*
X143707095Y-74543857D02*
X143707095Y-74877190D01*
X143492809Y-74543857D02*
X143492809Y-74805761D01*
X143516619Y-74853380D01*
X143564238Y-74877190D01*
X143635666Y-74877190D01*
X143683285Y-74853380D01*
X143707095Y-74829571D01*
X144111857Y-74615285D02*
X143945190Y-74615285D01*
X143945190Y-74877190D02*
X143945190Y-74377190D01*
X144183285Y-74377190D01*
D11*
X152428571Y-73133333D02*
X152809523Y-73133333D01*
X152352380Y-73361904D02*
X152619047Y-72561904D01*
X152885714Y-73361904D01*
X153076190Y-72561904D02*
X153571428Y-72561904D01*
X153304761Y-72866666D01*
X153419047Y-72866666D01*
X153495238Y-72904761D01*
X153533333Y-72942857D01*
X153571428Y-73019047D01*
X153571428Y-73209523D01*
X153533333Y-73285714D01*
X153495238Y-73323809D01*
X153419047Y-73361904D01*
X153190476Y-73361904D01*
X153114285Y-73323809D01*
X153076190Y-73285714D01*
D12*
X152811571Y-68535190D02*
X152859190Y-68535190D01*
X152906809Y-68559000D01*
X152930619Y-68582809D01*
X152954428Y-68630428D01*
X152978238Y-68725666D01*
X152978238Y-68844714D01*
X152954428Y-68939952D01*
X152930619Y-68987571D01*
X152906809Y-69011380D01*
X152859190Y-69035190D01*
X152811571Y-69035190D01*
X152763952Y-69011380D01*
X152740142Y-68987571D01*
X152716333Y-68939952D01*
X152692523Y-68844714D01*
X152692523Y-68725666D01*
X152716333Y-68630428D01*
X152740142Y-68582809D01*
X152763952Y-68559000D01*
X152811571Y-68535190D01*
X153192523Y-68987571D02*
X153216333Y-69011380D01*
X153192523Y-69035190D01*
X153168714Y-69011380D01*
X153192523Y-68987571D01*
X153192523Y-69035190D01*
X153692523Y-69035190D02*
X153406809Y-69035190D01*
X153549666Y-69035190D02*
X153549666Y-68535190D01*
X153502047Y-68606619D01*
X153454428Y-68654238D01*
X153406809Y-68678047D01*
X154121095Y-68701857D02*
X154121095Y-69035190D01*
X153906809Y-68701857D02*
X153906809Y-68963761D01*
X153930619Y-69011380D01*
X153978238Y-69035190D01*
X154049666Y-69035190D01*
X154097285Y-69011380D01*
X154121095Y-68987571D01*
X154525857Y-68773285D02*
X154359190Y-68773285D01*
X154359190Y-69035190D02*
X154359190Y-68535190D01*
X154597285Y-68535190D01*
D11*
X123428571Y-66133333D02*
X123809523Y-66133333D01*
X123352380Y-66361904D02*
X123619047Y-65561904D01*
X123885714Y-66361904D01*
X124304761Y-65561904D02*
X124380952Y-65561904D01*
X124457142Y-65600000D01*
X124495238Y-65638095D01*
X124533333Y-65714285D01*
X124571428Y-65866666D01*
X124571428Y-66057142D01*
X124533333Y-66209523D01*
X124495238Y-66285714D01*
X124457142Y-66323809D01*
X124380952Y-66361904D01*
X124304761Y-66361904D01*
X124228571Y-66323809D01*
X124190476Y-66285714D01*
X124152380Y-66209523D01*
X124114285Y-66057142D01*
X124114285Y-65866666D01*
X124152380Y-65714285D01*
X124190476Y-65638095D01*
X124228571Y-65600000D01*
X124304761Y-65561904D01*
D12*
X133089571Y-68543190D02*
X133137190Y-68543190D01*
X133184809Y-68567000D01*
X133208619Y-68590809D01*
X133232428Y-68638428D01*
X133256238Y-68733666D01*
X133256238Y-68852714D01*
X133232428Y-68947952D01*
X133208619Y-68995571D01*
X133184809Y-69019380D01*
X133137190Y-69043190D01*
X133089571Y-69043190D01*
X133041952Y-69019380D01*
X133018142Y-68995571D01*
X132994333Y-68947952D01*
X132970523Y-68852714D01*
X132970523Y-68733666D01*
X132994333Y-68638428D01*
X133018142Y-68590809D01*
X133041952Y-68567000D01*
X133089571Y-68543190D01*
X133470523Y-68995571D02*
X133494333Y-69019380D01*
X133470523Y-69043190D01*
X133446714Y-69019380D01*
X133470523Y-68995571D01*
X133470523Y-69043190D01*
X133970523Y-69043190D02*
X133684809Y-69043190D01*
X133827666Y-69043190D02*
X133827666Y-68543190D01*
X133780047Y-68614619D01*
X133732428Y-68662238D01*
X133684809Y-68686047D01*
X134399095Y-68709857D02*
X134399095Y-69043190D01*
X134184809Y-68709857D02*
X134184809Y-68971761D01*
X134208619Y-69019380D01*
X134256238Y-69043190D01*
X134327666Y-69043190D01*
X134375285Y-69019380D01*
X134399095Y-68995571D01*
X134803857Y-68781285D02*
X134637190Y-68781285D01*
X134637190Y-69043190D02*
X134637190Y-68543190D01*
X134875285Y-68543190D01*
D11*
X132928571Y-73133333D02*
X133309523Y-73133333D01*
X132852380Y-73361904D02*
X133119047Y-72561904D01*
X133385714Y-73361904D01*
X133614285Y-72638095D02*
X133652380Y-72600000D01*
X133728571Y-72561904D01*
X133919047Y-72561904D01*
X133995238Y-72600000D01*
X134033333Y-72638095D01*
X134071428Y-72714285D01*
X134071428Y-72790476D01*
X134033333Y-72904761D01*
X133576190Y-73361904D01*
X134071428Y-73361904D01*
D12*
X122675571Y-74385190D02*
X122723190Y-74385190D01*
X122770809Y-74409000D01*
X122794619Y-74432809D01*
X122818428Y-74480428D01*
X122842238Y-74575666D01*
X122842238Y-74694714D01*
X122818428Y-74789952D01*
X122794619Y-74837571D01*
X122770809Y-74861380D01*
X122723190Y-74885190D01*
X122675571Y-74885190D01*
X122627952Y-74861380D01*
X122604142Y-74837571D01*
X122580333Y-74789952D01*
X122556523Y-74694714D01*
X122556523Y-74575666D01*
X122580333Y-74480428D01*
X122604142Y-74432809D01*
X122627952Y-74409000D01*
X122675571Y-74385190D01*
X123056523Y-74837571D02*
X123080333Y-74861380D01*
X123056523Y-74885190D01*
X123032714Y-74861380D01*
X123056523Y-74837571D01*
X123056523Y-74885190D01*
X123556523Y-74885190D02*
X123270809Y-74885190D01*
X123413666Y-74885190D02*
X123413666Y-74385190D01*
X123366047Y-74456619D01*
X123318428Y-74504238D01*
X123270809Y-74528047D01*
X123985095Y-74551857D02*
X123985095Y-74885190D01*
X123770809Y-74551857D02*
X123770809Y-74813761D01*
X123794619Y-74861380D01*
X123842238Y-74885190D01*
X123913666Y-74885190D01*
X123961285Y-74861380D01*
X123985095Y-74837571D01*
X124389857Y-74623285D02*
X124223190Y-74623285D01*
X124223190Y-74885190D02*
X124223190Y-74385190D01*
X124461285Y-74385190D01*
D10*
X114145142Y-76857428D02*
X114145142Y-76257428D01*
X114288000Y-76257428D01*
X114373714Y-76286000D01*
X114430857Y-76343142D01*
X114459428Y-76400285D01*
X114488000Y-76514571D01*
X114488000Y-76600285D01*
X114459428Y-76714571D01*
X114430857Y-76771714D01*
X114373714Y-76828857D01*
X114288000Y-76857428D01*
X114145142Y-76857428D01*
X114688000Y-76257428D02*
X115059428Y-76257428D01*
X114859428Y-76486000D01*
X114945142Y-76486000D01*
X115002285Y-76514571D01*
X115030857Y-76543142D01*
X115059428Y-76600285D01*
X115059428Y-76743142D01*
X115030857Y-76800285D01*
X115002285Y-76828857D01*
X114945142Y-76857428D01*
X114773714Y-76857428D01*
X114716571Y-76828857D01*
X114688000Y-76800285D01*
X114127714Y-69208857D02*
X114213428Y-69237428D01*
X114356285Y-69237428D01*
X114413428Y-69208857D01*
X114442000Y-69180285D01*
X114470571Y-69123142D01*
X114470571Y-69066000D01*
X114442000Y-69008857D01*
X114413428Y-68980285D01*
X114356285Y-68951714D01*
X114242000Y-68923142D01*
X114184857Y-68894571D01*
X114156285Y-68866000D01*
X114127714Y-68808857D01*
X114127714Y-68751714D01*
X114156285Y-68694571D01*
X114184857Y-68666000D01*
X114242000Y-68637428D01*
X114384857Y-68637428D01*
X114470571Y-68666000D01*
X115070571Y-69180285D02*
X115042000Y-69208857D01*
X114956285Y-69237428D01*
X114899142Y-69237428D01*
X114813428Y-69208857D01*
X114756285Y-69151714D01*
X114727714Y-69094571D01*
X114699142Y-68980285D01*
X114699142Y-68894571D01*
X114727714Y-68780285D01*
X114756285Y-68723142D01*
X114813428Y-68666000D01*
X114899142Y-68637428D01*
X114956285Y-68637428D01*
X115042000Y-68666000D01*
X115070571Y-68694571D01*
X115613428Y-69237428D02*
X115327714Y-69237428D01*
X115327714Y-68637428D01*
X114511857Y-81366000D02*
X114454714Y-81337428D01*
X114369000Y-81337428D01*
X114283285Y-81366000D01*
X114226142Y-81423142D01*
X114197571Y-81480285D01*
X114169000Y-81594571D01*
X114169000Y-81680285D01*
X114197571Y-81794571D01*
X114226142Y-81851714D01*
X114283285Y-81908857D01*
X114369000Y-81937428D01*
X114426142Y-81937428D01*
X114511857Y-81908857D01*
X114540428Y-81880285D01*
X114540428Y-81680285D01*
X114426142Y-81680285D01*
X114797571Y-81937428D02*
X114797571Y-81337428D01*
X115140428Y-81937428D01*
X115140428Y-81337428D01*
X115426142Y-81937428D02*
X115426142Y-81337428D01*
X115569000Y-81337428D01*
X115654714Y-81366000D01*
X115711857Y-81423142D01*
X115740428Y-81480285D01*
X115769000Y-81594571D01*
X115769000Y-81680285D01*
X115740428Y-81794571D01*
X115711857Y-81851714D01*
X115654714Y-81908857D01*
X115569000Y-81937428D01*
X115426142Y-81937428D01*
D11*
X108037952Y-82418380D02*
X107637952Y-82418380D01*
X107637952Y-82266000D01*
X107657000Y-82227904D01*
X107676047Y-82208857D01*
X107714142Y-82189809D01*
X107771285Y-82189809D01*
X107809380Y-82208857D01*
X107828428Y-82227904D01*
X107847476Y-82266000D01*
X107847476Y-82418380D01*
X107637952Y-82056476D02*
X108037952Y-81961238D01*
X107752238Y-81885047D01*
X108037952Y-81808857D01*
X107637952Y-81713619D01*
X108037952Y-81561238D02*
X107637952Y-81561238D01*
X107923666Y-81427904D01*
X107637952Y-81294571D01*
X108037952Y-81294571D01*
X108037952Y-80894571D02*
X108037952Y-81123142D01*
X108037952Y-81008857D02*
X107637952Y-81008857D01*
X107695095Y-81046952D01*
X107733190Y-81085047D01*
X107752238Y-81123142D01*
D10*
X107287142Y-71777428D02*
X107287142Y-71177428D01*
X107430000Y-71177428D01*
X107515714Y-71206000D01*
X107572857Y-71263142D01*
X107601428Y-71320285D01*
X107630000Y-71434571D01*
X107630000Y-71520285D01*
X107601428Y-71634571D01*
X107572857Y-71691714D01*
X107515714Y-71748857D01*
X107430000Y-71777428D01*
X107287142Y-71777428D01*
X108001428Y-71177428D02*
X108058571Y-71177428D01*
X108115714Y-71206000D01*
X108144285Y-71234571D01*
X108172857Y-71291714D01*
X108201428Y-71406000D01*
X108201428Y-71548857D01*
X108172857Y-71663142D01*
X108144285Y-71720285D01*
X108115714Y-71748857D01*
X108058571Y-71777428D01*
X108001428Y-71777428D01*
X107944285Y-71748857D01*
X107915714Y-71720285D01*
X107887142Y-71663142D01*
X107858571Y-71548857D01*
X107858571Y-71406000D01*
X107887142Y-71291714D01*
X107915714Y-71234571D01*
X107944285Y-71206000D01*
X108001428Y-71177428D01*
X107287142Y-74317428D02*
X107287142Y-73717428D01*
X107430000Y-73717428D01*
X107515714Y-73746000D01*
X107572857Y-73803142D01*
X107601428Y-73860285D01*
X107630000Y-73974571D01*
X107630000Y-74060285D01*
X107601428Y-74174571D01*
X107572857Y-74231714D01*
X107515714Y-74288857D01*
X107430000Y-74317428D01*
X107287142Y-74317428D01*
X108201428Y-74317428D02*
X107858571Y-74317428D01*
X108030000Y-74317428D02*
X108030000Y-73717428D01*
X107972857Y-73803142D01*
X107915714Y-73860285D01*
X107858571Y-73888857D01*
X107287142Y-76857428D02*
X107287142Y-76257428D01*
X107430000Y-76257428D01*
X107515714Y-76286000D01*
X107572857Y-76343142D01*
X107601428Y-76400285D01*
X107630000Y-76514571D01*
X107630000Y-76600285D01*
X107601428Y-76714571D01*
X107572857Y-76771714D01*
X107515714Y-76828857D01*
X107430000Y-76857428D01*
X107287142Y-76857428D01*
X107858571Y-76314571D02*
X107887142Y-76286000D01*
X107944285Y-76257428D01*
X108087142Y-76257428D01*
X108144285Y-76286000D01*
X108172857Y-76314571D01*
X108201428Y-76371714D01*
X108201428Y-76428857D01*
X108172857Y-76514571D01*
X107830000Y-76857428D01*
X108201428Y-76857428D01*
X107301428Y-58906000D02*
X107587142Y-58906000D01*
X107244285Y-59077428D02*
X107444285Y-58477428D01*
X107644285Y-59077428D01*
X107958571Y-58477428D02*
X108015714Y-58477428D01*
X108072857Y-58506000D01*
X108101428Y-58534571D01*
X108130000Y-58591714D01*
X108158571Y-58706000D01*
X108158571Y-58848857D01*
X108130000Y-58963142D01*
X108101428Y-59020285D01*
X108072857Y-59048857D01*
X108015714Y-59077428D01*
X107958571Y-59077428D01*
X107901428Y-59048857D01*
X107872857Y-59020285D01*
X107844285Y-58963142D01*
X107815714Y-58848857D01*
X107815714Y-58706000D01*
X107844285Y-58591714D01*
X107872857Y-58534571D01*
X107901428Y-58506000D01*
X107958571Y-58477428D01*
X107301428Y-61446000D02*
X107587142Y-61446000D01*
X107244285Y-61617428D02*
X107444285Y-61017428D01*
X107644285Y-61617428D01*
X108158571Y-61617428D02*
X107815714Y-61617428D01*
X107987142Y-61617428D02*
X107987142Y-61017428D01*
X107930000Y-61103142D01*
X107872857Y-61160285D01*
X107815714Y-61188857D01*
X107301428Y-63986000D02*
X107587142Y-63986000D01*
X107244285Y-64157428D02*
X107444285Y-63557428D01*
X107644285Y-64157428D01*
X107815714Y-63614571D02*
X107844285Y-63586000D01*
X107901428Y-63557428D01*
X108044285Y-63557428D01*
X108101428Y-63586000D01*
X108130000Y-63614571D01*
X108158571Y-63671714D01*
X108158571Y-63728857D01*
X108130000Y-63814571D01*
X107787142Y-64157428D01*
X108158571Y-64157428D01*
X107301428Y-66526000D02*
X107587142Y-66526000D01*
X107244285Y-66697428D02*
X107444285Y-66097428D01*
X107644285Y-66697428D01*
X107787142Y-66097428D02*
X108158571Y-66097428D01*
X107958571Y-66326000D01*
X108044285Y-66326000D01*
X108101428Y-66354571D01*
X108130000Y-66383142D01*
X108158571Y-66440285D01*
X108158571Y-66583142D01*
X108130000Y-66640285D01*
X108101428Y-66668857D01*
X108044285Y-66697428D01*
X107872857Y-66697428D01*
X107815714Y-66668857D01*
X107787142Y-66640285D01*
D11*
X108037952Y-80132380D02*
X107637952Y-80132380D01*
X107637952Y-79980000D01*
X107657000Y-79941904D01*
X107676047Y-79922857D01*
X107714142Y-79903809D01*
X107771285Y-79903809D01*
X107809380Y-79922857D01*
X107828428Y-79941904D01*
X107847476Y-79980000D01*
X107847476Y-80132380D01*
X107637952Y-79770476D02*
X108037952Y-79675238D01*
X107752238Y-79599047D01*
X108037952Y-79522857D01*
X107637952Y-79427619D01*
X108037952Y-79275238D02*
X107637952Y-79275238D01*
X107923666Y-79141904D01*
X107637952Y-79008571D01*
X108037952Y-79008571D01*
X107637952Y-78741904D02*
X107637952Y-78703809D01*
X107657000Y-78665714D01*
X107676047Y-78646666D01*
X107714142Y-78627619D01*
X107790333Y-78608571D01*
X107885571Y-78608571D01*
X107961761Y-78627619D01*
X107999857Y-78646666D01*
X108018904Y-78665714D01*
X108037952Y-78703809D01*
X108037952Y-78741904D01*
X108018904Y-78780000D01*
X107999857Y-78799047D01*
X107961761Y-78818095D01*
X107885571Y-78837142D01*
X107790333Y-78837142D01*
X107714142Y-78818095D01*
X107676047Y-78799047D01*
X107657000Y-78780000D01*
X107637952Y-78741904D01*
D10*
X107301428Y-69066000D02*
X107587142Y-69066000D01*
X107244285Y-69237428D02*
X107444285Y-68637428D01*
X107644285Y-69237428D01*
X108101428Y-68837428D02*
X108101428Y-69237428D01*
X107958571Y-68608857D02*
X107815714Y-69037428D01*
X108187142Y-69037428D01*
D13*
%TO.C,U4*%
X148300200Y-75135399D02*
X151750200Y-75135399D01*
X148300200Y-75135399D02*
X146350200Y-75135399D01*
X148300200Y-70015399D02*
X150250200Y-70015399D01*
X148300200Y-70015399D02*
X146350200Y-70015399D01*
%TO.C,C4*%
X144183000Y-72799078D02*
X144183000Y-72281922D01*
X142763000Y-72799078D02*
X142763000Y-72281922D01*
%TO.C,R4*%
X146261936Y-79434400D02*
X150366064Y-79434400D01*
X146261936Y-76014400D02*
X150366064Y-76014400D01*
%TO.C,J9*%
X155011000Y-55982000D02*
G75*
G03*
X155011000Y-55982000I-1251000J0D01*
G01*
%TO.C,R3*%
X150401864Y-59834600D02*
X146297736Y-59834600D01*
X150401864Y-63254600D02*
X146297736Y-63254600D01*
%TO.C,J10*%
X143581000Y-55982000D02*
G75*
G03*
X143581000Y-55982000I-1251000J0D01*
G01*
%TO.C,J14*%
X155407000Y-77690000D02*
G75*
G03*
X155407000Y-77690000I-1251000J0D01*
G01*
%TO.C,J15*%
X155407000Y-61434000D02*
G75*
G03*
X155407000Y-61434000I-1251000J0D01*
G01*
%TO.C,F4*%
X144913000Y-81652000D02*
X145134000Y-81652000D01*
X146892000Y-81652000D02*
X152213000Y-81652000D01*
X144913000Y-84852000D02*
X150235000Y-84852000D01*
X151992000Y-84852000D02*
X152213000Y-84852000D01*
X144913000Y-81652000D02*
X144913000Y-81902000D01*
X144913000Y-83402000D02*
X144913000Y-84852000D01*
X152213000Y-81652000D02*
X152213000Y-83103000D01*
X152213000Y-84602000D02*
X152213000Y-84852000D01*
%TO.C,J13*%
X143723000Y-61434000D02*
G75*
G03*
X143723000Y-61434000I-1251000J0D01*
G01*
%TO.C,J16*%
X143723000Y-77690000D02*
G75*
G03*
X143723000Y-77690000I-1251000J0D01*
G01*
%TO.C,J12*%
X144216000Y-83287000D02*
G75*
G03*
X144216000Y-83287000I-1251000J0D01*
G01*
%TO.C,U3*%
X148424800Y-64133601D02*
X144974800Y-64133601D01*
X148424800Y-64133601D02*
X150374800Y-64133601D01*
X148424800Y-69253601D02*
X146474800Y-69253601D01*
X148424800Y-69253601D02*
X150374800Y-69253601D01*
%TO.C,C3*%
X152542000Y-66490722D02*
X152542000Y-67007878D01*
X153962000Y-66490722D02*
X153962000Y-67007878D01*
%TO.C,J11*%
X155646000Y-83287000D02*
G75*
G03*
X155646000Y-83287000I-1251000J0D01*
G01*
%TO.C,F3*%
X151832000Y-57424000D02*
X151832000Y-57674000D01*
X151832000Y-54474000D02*
X151832000Y-55925000D01*
X144532000Y-56224000D02*
X144532000Y-57674000D01*
X144532000Y-54474000D02*
X144532000Y-54724000D01*
X151611000Y-57674000D02*
X151832000Y-57674000D01*
X144532000Y-57674000D02*
X149854000Y-57674000D01*
X146511000Y-54474000D02*
X151832000Y-54474000D01*
X144532000Y-54474000D02*
X144753000Y-54474000D01*
%TO.C,F2*%
X132110000Y-57432000D02*
X132110000Y-57682000D01*
X132110000Y-54482000D02*
X132110000Y-55933000D01*
X124810000Y-56232000D02*
X124810000Y-57682000D01*
X124810000Y-54482000D02*
X124810000Y-54732000D01*
X131889000Y-57682000D02*
X132110000Y-57682000D01*
X124810000Y-57682000D02*
X130132000Y-57682000D01*
X126789000Y-54482000D02*
X132110000Y-54482000D01*
X124810000Y-54482000D02*
X125031000Y-54482000D01*
%TO.C,J1*%
X135924000Y-83295000D02*
G75*
G03*
X135924000Y-83295000I-1251000J0D01*
G01*
%TO.C,C2*%
X132820000Y-66498722D02*
X132820000Y-67015878D01*
X134240000Y-66498722D02*
X134240000Y-67015878D01*
%TO.C,U2*%
X128702800Y-64141601D02*
X125252800Y-64141601D01*
X128702800Y-64141601D02*
X130652800Y-64141601D01*
X128702800Y-69261601D02*
X126752800Y-69261601D01*
X128702800Y-69261601D02*
X130652800Y-69261601D01*
%TO.C,J2*%
X124494000Y-83295000D02*
G75*
G03*
X124494000Y-83295000I-1251000J0D01*
G01*
%TO.C,J7*%
X124165000Y-77690000D02*
G75*
G03*
X124165000Y-77690000I-1251000J0D01*
G01*
%TO.C,J6*%
X124165000Y-61434000D02*
G75*
G03*
X124165000Y-61434000I-1251000J0D01*
G01*
%TO.C,F1*%
X125191000Y-81660000D02*
X125412000Y-81660000D01*
X127170000Y-81660000D02*
X132491000Y-81660000D01*
X125191000Y-84860000D02*
X130513000Y-84860000D01*
X132270000Y-84860000D02*
X132491000Y-84860000D01*
X125191000Y-81660000D02*
X125191000Y-81910000D01*
X125191000Y-83410000D02*
X125191000Y-84860000D01*
X132491000Y-81660000D02*
X132491000Y-83111000D01*
X132491000Y-84610000D02*
X132491000Y-84860000D01*
%TO.C,J8*%
X135595000Y-61434000D02*
G75*
G03*
X135595000Y-61434000I-1251000J0D01*
G01*
%TO.C,J5*%
X135595000Y-77690000D02*
G75*
G03*
X135595000Y-77690000I-1251000J0D01*
G01*
%TO.C,J4*%
X123859000Y-55990000D02*
G75*
G03*
X123859000Y-55990000I-1251000J0D01*
G01*
%TO.C,R2*%
X130679864Y-59842600D02*
X126575736Y-59842600D01*
X130679864Y-63262600D02*
X126575736Y-63262600D01*
%TO.C,J3*%
X135289000Y-55990000D02*
G75*
G03*
X135289000Y-55990000I-1251000J0D01*
G01*
%TO.C,R1*%
X126601136Y-79442400D02*
X130705264Y-79442400D01*
X126601136Y-76022400D02*
X130705264Y-76022400D01*
%TO.C,C1*%
X124461000Y-72807078D02*
X124461000Y-72289922D01*
X123041000Y-72807078D02*
X123041000Y-72289922D01*
%TO.C,U1*%
X128578200Y-75143399D02*
X132028200Y-75143399D01*
X128578200Y-75143399D02*
X126628200Y-75143399D01*
X128578200Y-70023399D02*
X130528200Y-70023399D01*
X128578200Y-70023399D02*
X126628200Y-70023399D01*
%TO.C,J17*%
X108630000Y-57310000D02*
X109960000Y-57310000D01*
X108630000Y-58640000D02*
X108630000Y-57310000D01*
X111230000Y-57310000D02*
X113830000Y-57310000D01*
X111230000Y-59910000D02*
X111230000Y-57310000D01*
X108630000Y-59910000D02*
X111230000Y-59910000D01*
X113830000Y-57310000D02*
X113830000Y-82830000D01*
X108630000Y-59910000D02*
X108630000Y-82830000D01*
X108630000Y-82830000D02*
X113830000Y-82830000D01*
%TO.C,J18*%
X159430000Y-82830000D02*
X164630000Y-82830000D01*
X159430000Y-59910000D02*
X159430000Y-82830000D01*
X164630000Y-57310000D02*
X164630000Y-82830000D01*
X159430000Y-59910000D02*
X162030000Y-59910000D01*
X162030000Y-59910000D02*
X162030000Y-57310000D01*
X162030000Y-57310000D02*
X164630000Y-57310000D01*
X159430000Y-58640000D02*
X159430000Y-57310000D01*
X159430000Y-57310000D02*
X160760000Y-57310000D01*
%TD*%
M02*
