M48
; DRILL file {KiCad (5.1.6)-1} date 06/17/20 13:38:46
; FORMAT={-:-/ absolute / inch / decimal}
; #@! TF.CreationDate,2020-06-17T13:38:46+01:00
; #@! TF.GenerationSoftware,Kicad,Pcbnew,(5.1.6)-1
; #@! TF.FileFunction,Plated,1,2,PTH
FMAT,2
INCH
T1C0.0157
T2C0.0394
T3C0.0398
T4C0.0787
%
G90
G05
T1
X4.5891Y-2.5587
X4.5891Y-2.6087
X4.5891Y-2.6587
X4.5891Y-2.7087
X4.7791Y-2.5587
X4.7791Y-2.6087
X4.7791Y-2.6587
X4.7791Y-2.7087
X4.9126Y-2.7387
X5.0691Y-2.5987
X5.0691Y-2.8787
X5.1021Y-2.6993
X5.6936Y-2.7387
X5.8491Y-2.5987
X5.8491Y-2.8787
X5.8785Y-2.699
T2
X6.3291Y-2.3087
X6.3291Y-2.4087
X6.3291Y-2.5087
X6.3291Y-2.6087
X6.3291Y-2.7087
X6.3291Y-2.8087
X6.3291Y-2.9087
X6.3291Y-3.0087
X6.3291Y-3.1087
X6.3291Y-3.2087
X6.4291Y-2.3087
X6.4291Y-2.4087
X6.4291Y-2.5087
X6.4291Y-2.6087
X6.4291Y-2.7087
X6.4291Y-2.8087
X6.4291Y-2.9087
X6.4291Y-3.0087
X6.4291Y-3.1087
X6.4291Y-3.2087
X4.3291Y-2.3087
X4.3291Y-2.4087
X4.3291Y-2.5087
X4.3291Y-2.6087
X4.3291Y-2.7087
X4.3291Y-2.8087
X4.3291Y-2.9087
X4.3291Y-3.0087
X4.3291Y-3.1087
X4.3291Y-3.2087
X4.4291Y-2.3087
X4.4291Y-2.4087
X4.4291Y-2.5087
X4.4291Y-2.6087
X4.4291Y-2.7087
X4.4291Y-2.8087
X4.4291Y-2.9087
X4.4291Y-3.0087
X4.4291Y-3.1087
X4.4291Y-3.2087
T3
X4.9571Y-2.1843
X5.7335Y-2.184
X5.9343Y-2.2313
X4.9721Y-3.2543
X5.1729Y-3.3016
X5.7485Y-3.254
X5.9493Y-3.3013
X5.1579Y-2.2316
T4
X5.2891Y-3.0587
X6.0691Y-2.4187
X4.8391Y-2.4187
X5.3021Y-3.2793
X4.8521Y-3.2793
X4.8271Y-2.2043
X5.2891Y-2.4187
X5.6285Y-3.279
X6.0535Y-2.204
X5.6091Y-3.0587
X6.0691Y-3.0587
X4.8391Y-3.0587
X5.6091Y-2.4187
X5.6035Y-2.204
X6.0785Y-3.279
X5.2771Y-2.2043
T0
M30
