%TF.GenerationSoftware,KiCad,Pcbnew,(5.1.6)-1*%
%TF.CreationDate,2020-06-17T01:07:27+01:00*%
%TF.ProjectId,I_sense_pcb,495f7365-6e73-4655-9f70-63622e6b6963,rev?*%
%TF.SameCoordinates,Original*%
%TF.FileFunction,Legend,Top*%
%TF.FilePolarity,Positive*%
%FSLAX46Y46*%
G04 Gerber Fmt 4.6, Leading zero omitted, Abs format (unit mm)*
G04 Created by KiCad (PCBNEW (5.1.6)-1) date 2020-06-17 01:07:27*
%MOMM*%
%LPD*%
G01*
G04 APERTURE LIST*
%ADD10C,0.100000*%
%ADD11C,0.150000*%
%ADD12C,0.125000*%
%ADD13C,0.120000*%
G04 APERTURE END LIST*
D10*
X114420952Y-63446190D02*
X114730476Y-63446190D01*
X114563809Y-63636666D01*
X114635238Y-63636666D01*
X114682857Y-63660476D01*
X114706666Y-63684285D01*
X114730476Y-63731904D01*
X114730476Y-63850952D01*
X114706666Y-63898571D01*
X114682857Y-63922380D01*
X114635238Y-63946190D01*
X114492380Y-63946190D01*
X114444761Y-63922380D01*
X114420952Y-63898571D01*
X114873333Y-63446190D02*
X115040000Y-63946190D01*
X115206666Y-63446190D01*
X115325714Y-63446190D02*
X115635238Y-63446190D01*
X115468571Y-63636666D01*
X115540000Y-63636666D01*
X115587619Y-63660476D01*
X115611428Y-63684285D01*
X115635238Y-63731904D01*
X115635238Y-63850952D01*
X115611428Y-63898571D01*
X115587619Y-63922380D01*
X115540000Y-63946190D01*
X115397142Y-63946190D01*
X115349523Y-63922380D01*
X115325714Y-63898571D01*
X114432857Y-66462380D02*
X114504285Y-66486190D01*
X114623333Y-66486190D01*
X114670952Y-66462380D01*
X114694761Y-66438571D01*
X114718571Y-66390952D01*
X114718571Y-66343333D01*
X114694761Y-66295714D01*
X114670952Y-66271904D01*
X114623333Y-66248095D01*
X114528095Y-66224285D01*
X114480476Y-66200476D01*
X114456666Y-66176666D01*
X114432857Y-66129047D01*
X114432857Y-66081428D01*
X114456666Y-66033809D01*
X114480476Y-66010000D01*
X114528095Y-65986190D01*
X114647142Y-65986190D01*
X114718571Y-66010000D01*
X114932857Y-66486190D02*
X114932857Y-65986190D01*
X115051904Y-65986190D01*
X115123333Y-66010000D01*
X115170952Y-66057619D01*
X115194761Y-66105238D01*
X115218571Y-66200476D01*
X115218571Y-66271904D01*
X115194761Y-66367142D01*
X115170952Y-66414761D01*
X115123333Y-66462380D01*
X115051904Y-66486190D01*
X114932857Y-66486190D01*
X115409047Y-66343333D02*
X115647142Y-66343333D01*
X115361428Y-66486190D02*
X115528095Y-65986190D01*
X115694761Y-66486190D01*
X114444761Y-69002380D02*
X114516190Y-69026190D01*
X114635238Y-69026190D01*
X114682857Y-69002380D01*
X114706666Y-68978571D01*
X114730476Y-68930952D01*
X114730476Y-68883333D01*
X114706666Y-68835714D01*
X114682857Y-68811904D01*
X114635238Y-68788095D01*
X114540000Y-68764285D01*
X114492380Y-68740476D01*
X114468571Y-68716666D01*
X114444761Y-68669047D01*
X114444761Y-68621428D01*
X114468571Y-68573809D01*
X114492380Y-68550000D01*
X114540000Y-68526190D01*
X114659047Y-68526190D01*
X114730476Y-68550000D01*
X115230476Y-68978571D02*
X115206666Y-69002380D01*
X115135238Y-69026190D01*
X115087619Y-69026190D01*
X115016190Y-69002380D01*
X114968571Y-68954761D01*
X114944761Y-68907142D01*
X114920952Y-68811904D01*
X114920952Y-68740476D01*
X114944761Y-68645238D01*
X114968571Y-68597619D01*
X115016190Y-68550000D01*
X115087619Y-68526190D01*
X115135238Y-68526190D01*
X115206666Y-68550000D01*
X115230476Y-68573809D01*
X115682857Y-69026190D02*
X115444761Y-69026190D01*
X115444761Y-68526190D01*
X114944761Y-78686190D02*
X114706666Y-78686190D01*
X114682857Y-78924285D01*
X114706666Y-78900476D01*
X114754285Y-78876666D01*
X114873333Y-78876666D01*
X114920952Y-78900476D01*
X114944761Y-78924285D01*
X114968571Y-78971904D01*
X114968571Y-79090952D01*
X114944761Y-79138571D01*
X114920952Y-79162380D01*
X114873333Y-79186190D01*
X114754285Y-79186190D01*
X114706666Y-79162380D01*
X114682857Y-79138571D01*
X115111428Y-78686190D02*
X115278095Y-79186190D01*
X115444761Y-78686190D01*
X114659047Y-81250000D02*
X114611428Y-81226190D01*
X114540000Y-81226190D01*
X114468571Y-81250000D01*
X114420952Y-81297619D01*
X114397142Y-81345238D01*
X114373333Y-81440476D01*
X114373333Y-81511904D01*
X114397142Y-81607142D01*
X114420952Y-81654761D01*
X114468571Y-81702380D01*
X114540000Y-81726190D01*
X114587619Y-81726190D01*
X114659047Y-81702380D01*
X114682857Y-81678571D01*
X114682857Y-81511904D01*
X114587619Y-81511904D01*
X114897142Y-81726190D02*
X114897142Y-81226190D01*
X115182857Y-81726190D01*
X115182857Y-81226190D01*
X115420952Y-81726190D02*
X115420952Y-81226190D01*
X115540000Y-81226190D01*
X115611428Y-81250000D01*
X115659047Y-81297619D01*
X115682857Y-81345238D01*
X115706666Y-81440476D01*
X115706666Y-81511904D01*
X115682857Y-81607142D01*
X115659047Y-81654761D01*
X115611428Y-81702380D01*
X115540000Y-81726190D01*
X115420952Y-81726190D01*
X106991428Y-66486190D02*
X106991428Y-65986190D01*
X107110476Y-66533809D02*
X107491428Y-66533809D01*
X107824761Y-66152857D02*
X107824761Y-66486190D01*
X107705714Y-65962380D02*
X107586666Y-66319523D01*
X107896190Y-66319523D01*
X106991428Y-63946190D02*
X106991428Y-63446190D01*
X107110476Y-63993809D02*
X107491428Y-63993809D01*
X107562857Y-63446190D02*
X107872380Y-63446190D01*
X107705714Y-63636666D01*
X107777142Y-63636666D01*
X107824761Y-63660476D01*
X107848571Y-63684285D01*
X107872380Y-63731904D01*
X107872380Y-63850952D01*
X107848571Y-63898571D01*
X107824761Y-63922380D01*
X107777142Y-63946190D01*
X107634285Y-63946190D01*
X107586666Y-63922380D01*
X107562857Y-63898571D01*
X106991428Y-61406190D02*
X106991428Y-60906190D01*
X107110476Y-61453809D02*
X107491428Y-61453809D01*
X107586666Y-60953809D02*
X107610476Y-60930000D01*
X107658095Y-60906190D01*
X107777142Y-60906190D01*
X107824761Y-60930000D01*
X107848571Y-60953809D01*
X107872380Y-61001428D01*
X107872380Y-61049047D01*
X107848571Y-61120476D01*
X107562857Y-61406190D01*
X107872380Y-61406190D01*
D11*
X152962857Y-73452380D02*
X152962857Y-72452380D01*
X153200952Y-73547619D02*
X153962857Y-73547619D01*
X154105714Y-72452380D02*
X154724761Y-72452380D01*
X154391428Y-72833333D01*
X154534285Y-72833333D01*
X154629523Y-72880952D01*
X154677142Y-72928571D01*
X154724761Y-73023809D01*
X154724761Y-73261904D01*
X154677142Y-73357142D01*
X154629523Y-73404761D01*
X154534285Y-73452380D01*
X154248571Y-73452380D01*
X154153333Y-73404761D01*
X154105714Y-73357142D01*
X141532857Y-67102380D02*
X141532857Y-66102380D01*
X141770952Y-67197619D02*
X142532857Y-67197619D01*
X142723333Y-66197619D02*
X142770952Y-66150000D01*
X142866190Y-66102380D01*
X143104285Y-66102380D01*
X143199523Y-66150000D01*
X143247142Y-66197619D01*
X143294761Y-66292857D01*
X143294761Y-66388095D01*
X143247142Y-66530952D01*
X142675714Y-67102380D01*
X143294761Y-67102380D01*
X122482857Y-66712380D02*
X122482857Y-65712380D01*
X122720952Y-66807619D02*
X123482857Y-66807619D01*
X124244761Y-66712380D02*
X123673333Y-66712380D01*
X123959047Y-66712380D02*
X123959047Y-65712380D01*
X123863809Y-65855238D01*
X123768571Y-65950476D01*
X123673333Y-65998095D01*
D12*
X142397571Y-74377190D02*
X142445190Y-74377190D01*
X142492809Y-74401000D01*
X142516619Y-74424809D01*
X142540428Y-74472428D01*
X142564238Y-74567666D01*
X142564238Y-74686714D01*
X142540428Y-74781952D01*
X142516619Y-74829571D01*
X142492809Y-74853380D01*
X142445190Y-74877190D01*
X142397571Y-74877190D01*
X142349952Y-74853380D01*
X142326142Y-74829571D01*
X142302333Y-74781952D01*
X142278523Y-74686714D01*
X142278523Y-74567666D01*
X142302333Y-74472428D01*
X142326142Y-74424809D01*
X142349952Y-74401000D01*
X142397571Y-74377190D01*
X142778523Y-74829571D02*
X142802333Y-74853380D01*
X142778523Y-74877190D01*
X142754714Y-74853380D01*
X142778523Y-74829571D01*
X142778523Y-74877190D01*
X143278523Y-74877190D02*
X142992809Y-74877190D01*
X143135666Y-74877190D02*
X143135666Y-74377190D01*
X143088047Y-74448619D01*
X143040428Y-74496238D01*
X142992809Y-74520047D01*
X143707095Y-74543857D02*
X143707095Y-74877190D01*
X143492809Y-74543857D02*
X143492809Y-74805761D01*
X143516619Y-74853380D01*
X143564238Y-74877190D01*
X143635666Y-74877190D01*
X143683285Y-74853380D01*
X143707095Y-74829571D01*
X144111857Y-74615285D02*
X143945190Y-74615285D01*
X143945190Y-74877190D02*
X143945190Y-74377190D01*
X144183285Y-74377190D01*
X152811571Y-68535190D02*
X152859190Y-68535190D01*
X152906809Y-68559000D01*
X152930619Y-68582809D01*
X152954428Y-68630428D01*
X152978238Y-68725666D01*
X152978238Y-68844714D01*
X152954428Y-68939952D01*
X152930619Y-68987571D01*
X152906809Y-69011380D01*
X152859190Y-69035190D01*
X152811571Y-69035190D01*
X152763952Y-69011380D01*
X152740142Y-68987571D01*
X152716333Y-68939952D01*
X152692523Y-68844714D01*
X152692523Y-68725666D01*
X152716333Y-68630428D01*
X152740142Y-68582809D01*
X152763952Y-68559000D01*
X152811571Y-68535190D01*
X153192523Y-68987571D02*
X153216333Y-69011380D01*
X153192523Y-69035190D01*
X153168714Y-69011380D01*
X153192523Y-68987571D01*
X153192523Y-69035190D01*
X153692523Y-69035190D02*
X153406809Y-69035190D01*
X153549666Y-69035190D02*
X153549666Y-68535190D01*
X153502047Y-68606619D01*
X153454428Y-68654238D01*
X153406809Y-68678047D01*
X154121095Y-68701857D02*
X154121095Y-69035190D01*
X153906809Y-68701857D02*
X153906809Y-68963761D01*
X153930619Y-69011380D01*
X153978238Y-69035190D01*
X154049666Y-69035190D01*
X154097285Y-69011380D01*
X154121095Y-68987571D01*
X154525857Y-68773285D02*
X154359190Y-68773285D01*
X154359190Y-69035190D02*
X154359190Y-68535190D01*
X154597285Y-68535190D01*
X133089571Y-68543190D02*
X133137190Y-68543190D01*
X133184809Y-68567000D01*
X133208619Y-68590809D01*
X133232428Y-68638428D01*
X133256238Y-68733666D01*
X133256238Y-68852714D01*
X133232428Y-68947952D01*
X133208619Y-68995571D01*
X133184809Y-69019380D01*
X133137190Y-69043190D01*
X133089571Y-69043190D01*
X133041952Y-69019380D01*
X133018142Y-68995571D01*
X132994333Y-68947952D01*
X132970523Y-68852714D01*
X132970523Y-68733666D01*
X132994333Y-68638428D01*
X133018142Y-68590809D01*
X133041952Y-68567000D01*
X133089571Y-68543190D01*
X133470523Y-68995571D02*
X133494333Y-69019380D01*
X133470523Y-69043190D01*
X133446714Y-69019380D01*
X133470523Y-68995571D01*
X133470523Y-69043190D01*
X133970523Y-69043190D02*
X133684809Y-69043190D01*
X133827666Y-69043190D02*
X133827666Y-68543190D01*
X133780047Y-68614619D01*
X133732428Y-68662238D01*
X133684809Y-68686047D01*
X134399095Y-68709857D02*
X134399095Y-69043190D01*
X134184809Y-68709857D02*
X134184809Y-68971761D01*
X134208619Y-69019380D01*
X134256238Y-69043190D01*
X134327666Y-69043190D01*
X134375285Y-69019380D01*
X134399095Y-68995571D01*
X134803857Y-68781285D02*
X134637190Y-68781285D01*
X134637190Y-69043190D02*
X134637190Y-68543190D01*
X134875285Y-68543190D01*
D11*
X133232857Y-73452380D02*
X133232857Y-72452380D01*
X133470952Y-73547619D02*
X134232857Y-73547619D01*
X134899523Y-72785714D02*
X134899523Y-73452380D01*
X134661428Y-72404761D02*
X134423333Y-73119047D01*
X135042380Y-73119047D01*
D12*
X122675571Y-74385190D02*
X122723190Y-74385190D01*
X122770809Y-74409000D01*
X122794619Y-74432809D01*
X122818428Y-74480428D01*
X122842238Y-74575666D01*
X122842238Y-74694714D01*
X122818428Y-74789952D01*
X122794619Y-74837571D01*
X122770809Y-74861380D01*
X122723190Y-74885190D01*
X122675571Y-74885190D01*
X122627952Y-74861380D01*
X122604142Y-74837571D01*
X122580333Y-74789952D01*
X122556523Y-74694714D01*
X122556523Y-74575666D01*
X122580333Y-74480428D01*
X122604142Y-74432809D01*
X122627952Y-74409000D01*
X122675571Y-74385190D01*
X123056523Y-74837571D02*
X123080333Y-74861380D01*
X123056523Y-74885190D01*
X123032714Y-74861380D01*
X123056523Y-74837571D01*
X123056523Y-74885190D01*
X123556523Y-74885190D02*
X123270809Y-74885190D01*
X123413666Y-74885190D02*
X123413666Y-74385190D01*
X123366047Y-74456619D01*
X123318428Y-74504238D01*
X123270809Y-74528047D01*
X123985095Y-74551857D02*
X123985095Y-74885190D01*
X123770809Y-74551857D02*
X123770809Y-74813761D01*
X123794619Y-74861380D01*
X123842238Y-74885190D01*
X123913666Y-74885190D01*
X123961285Y-74861380D01*
X123985095Y-74837571D01*
X124389857Y-74623285D02*
X124223190Y-74623285D01*
X124223190Y-74885190D02*
X124223190Y-74385190D01*
X124461285Y-74385190D01*
D10*
X106991428Y-58866190D02*
X106991428Y-58366190D01*
X107110476Y-58913809D02*
X107491428Y-58913809D01*
X107872380Y-58866190D02*
X107586666Y-58866190D01*
X107729523Y-58866190D02*
X107729523Y-58366190D01*
X107681904Y-58437619D01*
X107634285Y-58485238D01*
X107586666Y-58509047D01*
D13*
%TO.C,U4*%
X148300200Y-75135399D02*
X151750200Y-75135399D01*
X148300200Y-75135399D02*
X146350200Y-75135399D01*
X148300200Y-70015399D02*
X150250200Y-70015399D01*
X148300200Y-70015399D02*
X146350200Y-70015399D01*
%TO.C,C4*%
X144183000Y-72799078D02*
X144183000Y-72281922D01*
X142763000Y-72799078D02*
X142763000Y-72281922D01*
%TO.C,R4*%
X146261936Y-79434400D02*
X150366064Y-79434400D01*
X146261936Y-76014400D02*
X150366064Y-76014400D01*
%TO.C,J9*%
X155011000Y-55982000D02*
G75*
G03*
X155011000Y-55982000I-1251000J0D01*
G01*
%TO.C,R3*%
X150401864Y-59834600D02*
X146297736Y-59834600D01*
X150401864Y-63254600D02*
X146297736Y-63254600D01*
%TO.C,J10*%
X143581000Y-55982000D02*
G75*
G03*
X143581000Y-55982000I-1251000J0D01*
G01*
%TO.C,J14*%
X155407000Y-77690000D02*
G75*
G03*
X155407000Y-77690000I-1251000J0D01*
G01*
%TO.C,J15*%
X155407000Y-61434000D02*
G75*
G03*
X155407000Y-61434000I-1251000J0D01*
G01*
%TO.C,F4*%
X144913000Y-81652000D02*
X145134000Y-81652000D01*
X146892000Y-81652000D02*
X152213000Y-81652000D01*
X144913000Y-84852000D02*
X150235000Y-84852000D01*
X151992000Y-84852000D02*
X152213000Y-84852000D01*
X144913000Y-81652000D02*
X144913000Y-81902000D01*
X144913000Y-83402000D02*
X144913000Y-84852000D01*
X152213000Y-81652000D02*
X152213000Y-83103000D01*
X152213000Y-84602000D02*
X152213000Y-84852000D01*
%TO.C,J13*%
X143723000Y-61434000D02*
G75*
G03*
X143723000Y-61434000I-1251000J0D01*
G01*
%TO.C,J16*%
X143723000Y-77690000D02*
G75*
G03*
X143723000Y-77690000I-1251000J0D01*
G01*
%TO.C,J12*%
X144216000Y-83287000D02*
G75*
G03*
X144216000Y-83287000I-1251000J0D01*
G01*
%TO.C,U3*%
X148424800Y-64133601D02*
X144974800Y-64133601D01*
X148424800Y-64133601D02*
X150374800Y-64133601D01*
X148424800Y-69253601D02*
X146474800Y-69253601D01*
X148424800Y-69253601D02*
X150374800Y-69253601D01*
%TO.C,C3*%
X152542000Y-66490722D02*
X152542000Y-67007878D01*
X153962000Y-66490722D02*
X153962000Y-67007878D01*
%TO.C,J11*%
X155646000Y-83287000D02*
G75*
G03*
X155646000Y-83287000I-1251000J0D01*
G01*
%TO.C,F3*%
X151832000Y-57424000D02*
X151832000Y-57674000D01*
X151832000Y-54474000D02*
X151832000Y-55925000D01*
X144532000Y-56224000D02*
X144532000Y-57674000D01*
X144532000Y-54474000D02*
X144532000Y-54724000D01*
X151611000Y-57674000D02*
X151832000Y-57674000D01*
X144532000Y-57674000D02*
X149854000Y-57674000D01*
X146511000Y-54474000D02*
X151832000Y-54474000D01*
X144532000Y-54474000D02*
X144753000Y-54474000D01*
%TO.C,F2*%
X132110000Y-57432000D02*
X132110000Y-57682000D01*
X132110000Y-54482000D02*
X132110000Y-55933000D01*
X124810000Y-56232000D02*
X124810000Y-57682000D01*
X124810000Y-54482000D02*
X124810000Y-54732000D01*
X131889000Y-57682000D02*
X132110000Y-57682000D01*
X124810000Y-57682000D02*
X130132000Y-57682000D01*
X126789000Y-54482000D02*
X132110000Y-54482000D01*
X124810000Y-54482000D02*
X125031000Y-54482000D01*
%TO.C,J1*%
X135924000Y-83295000D02*
G75*
G03*
X135924000Y-83295000I-1251000J0D01*
G01*
%TO.C,C2*%
X132820000Y-66498722D02*
X132820000Y-67015878D01*
X134240000Y-66498722D02*
X134240000Y-67015878D01*
%TO.C,U2*%
X128702800Y-64141601D02*
X125252800Y-64141601D01*
X128702800Y-64141601D02*
X130652800Y-64141601D01*
X128702800Y-69261601D02*
X126752800Y-69261601D01*
X128702800Y-69261601D02*
X130652800Y-69261601D01*
%TO.C,J2*%
X124494000Y-83295000D02*
G75*
G03*
X124494000Y-83295000I-1251000J0D01*
G01*
%TO.C,J7*%
X124165000Y-77690000D02*
G75*
G03*
X124165000Y-77690000I-1251000J0D01*
G01*
%TO.C,J6*%
X124165000Y-61434000D02*
G75*
G03*
X124165000Y-61434000I-1251000J0D01*
G01*
%TO.C,F1*%
X125191000Y-81660000D02*
X125412000Y-81660000D01*
X127170000Y-81660000D02*
X132491000Y-81660000D01*
X125191000Y-84860000D02*
X130513000Y-84860000D01*
X132270000Y-84860000D02*
X132491000Y-84860000D01*
X125191000Y-81660000D02*
X125191000Y-81910000D01*
X125191000Y-83410000D02*
X125191000Y-84860000D01*
X132491000Y-81660000D02*
X132491000Y-83111000D01*
X132491000Y-84610000D02*
X132491000Y-84860000D01*
%TO.C,J8*%
X135595000Y-61434000D02*
G75*
G03*
X135595000Y-61434000I-1251000J0D01*
G01*
%TO.C,J5*%
X135595000Y-77690000D02*
G75*
G03*
X135595000Y-77690000I-1251000J0D01*
G01*
%TO.C,J4*%
X123859000Y-55990000D02*
G75*
G03*
X123859000Y-55990000I-1251000J0D01*
G01*
%TO.C,R2*%
X130679864Y-59842600D02*
X126575736Y-59842600D01*
X130679864Y-63262600D02*
X126575736Y-63262600D01*
%TO.C,J3*%
X135289000Y-55990000D02*
G75*
G03*
X135289000Y-55990000I-1251000J0D01*
G01*
%TO.C,R1*%
X126601136Y-79442400D02*
X130705264Y-79442400D01*
X126601136Y-76022400D02*
X130705264Y-76022400D01*
%TO.C,C1*%
X124461000Y-72807078D02*
X124461000Y-72289922D01*
X123041000Y-72807078D02*
X123041000Y-72289922D01*
%TO.C,U1*%
X128578200Y-75143399D02*
X132028200Y-75143399D01*
X128578200Y-75143399D02*
X126628200Y-75143399D01*
X128578200Y-70023399D02*
X130528200Y-70023399D01*
X128578200Y-70023399D02*
X126628200Y-70023399D01*
%TO.C,J17*%
X108630000Y-57310000D02*
X109960000Y-57310000D01*
X108630000Y-58640000D02*
X108630000Y-57310000D01*
X111230000Y-57310000D02*
X113830000Y-57310000D01*
X111230000Y-59910000D02*
X111230000Y-57310000D01*
X108630000Y-59910000D02*
X111230000Y-59910000D01*
X113830000Y-57310000D02*
X113830000Y-82830000D01*
X108630000Y-59910000D02*
X108630000Y-82830000D01*
X108630000Y-82830000D02*
X113830000Y-82830000D01*
%TO.C,J18*%
X159430000Y-82830000D02*
X164630000Y-82830000D01*
X159430000Y-59910000D02*
X159430000Y-82830000D01*
X164630000Y-57310000D02*
X164630000Y-82830000D01*
X159430000Y-59910000D02*
X162030000Y-59910000D01*
X162030000Y-59910000D02*
X162030000Y-57310000D01*
X162030000Y-57310000D02*
X164630000Y-57310000D01*
X159430000Y-58640000D02*
X159430000Y-57310000D01*
X159430000Y-57310000D02*
X160760000Y-57310000D01*
%TD*%
M02*
