%TF.GenerationSoftware,KiCad,Pcbnew,(5.1.6)-1*%
%TF.CreationDate,2020-06-17T13:38:48+01:00*%
%TF.ProjectId,I_sense_pcb,495f7365-6e73-4655-9f70-63622e6b6963,rev?*%
%TF.SameCoordinates,Original*%
%TF.FileFunction,Soldermask,Top*%
%TF.FilePolarity,Negative*%
%FSLAX46Y46*%
G04 Gerber Fmt 4.6, Leading zero omitted, Abs format (unit mm)*
G04 Created by KiCad (PCBNEW (5.1.6)-1) date 2020-06-17 13:38:48*
%MOMM*%
%LPD*%
G01*
G04 APERTURE LIST*
%ADD10C,3.600000*%
%ADD11C,2.110000*%
%ADD12R,1.800000X1.800000*%
%ADD13O,1.800000X1.800000*%
G04 APERTURE END LIST*
%TO.C,U4*%
G36*
G01*
X146650200Y-74305399D02*
X146650200Y-74655399D01*
G75*
G02*
X146475200Y-74830399I-175000J0D01*
G01*
X144975200Y-74830399D01*
G75*
G02*
X144800200Y-74655399I0J175000D01*
G01*
X144800200Y-74305399D01*
G75*
G02*
X144975200Y-74130399I175000J0D01*
G01*
X146475200Y-74130399D01*
G75*
G02*
X146650200Y-74305399I0J-175000D01*
G01*
G37*
G36*
G01*
X146650200Y-73035399D02*
X146650200Y-73385399D01*
G75*
G02*
X146475200Y-73560399I-175000J0D01*
G01*
X144975200Y-73560399D01*
G75*
G02*
X144800200Y-73385399I0J175000D01*
G01*
X144800200Y-73035399D01*
G75*
G02*
X144975200Y-72860399I175000J0D01*
G01*
X146475200Y-72860399D01*
G75*
G02*
X146650200Y-73035399I0J-175000D01*
G01*
G37*
G36*
G01*
X146650200Y-71765399D02*
X146650200Y-72115399D01*
G75*
G02*
X146475200Y-72290399I-175000J0D01*
G01*
X144975200Y-72290399D01*
G75*
G02*
X144800200Y-72115399I0J175000D01*
G01*
X144800200Y-71765399D01*
G75*
G02*
X144975200Y-71590399I175000J0D01*
G01*
X146475200Y-71590399D01*
G75*
G02*
X146650200Y-71765399I0J-175000D01*
G01*
G37*
G36*
G01*
X146650200Y-70495399D02*
X146650200Y-70845399D01*
G75*
G02*
X146475200Y-71020399I-175000J0D01*
G01*
X144975200Y-71020399D01*
G75*
G02*
X144800200Y-70845399I0J175000D01*
G01*
X144800200Y-70495399D01*
G75*
G02*
X144975200Y-70320399I175000J0D01*
G01*
X146475200Y-70320399D01*
G75*
G02*
X146650200Y-70495399I0J-175000D01*
G01*
G37*
G36*
G01*
X151800200Y-70495399D02*
X151800200Y-70845399D01*
G75*
G02*
X151625200Y-71020399I-175000J0D01*
G01*
X150125200Y-71020399D01*
G75*
G02*
X149950200Y-70845399I0J175000D01*
G01*
X149950200Y-70495399D01*
G75*
G02*
X150125200Y-70320399I175000J0D01*
G01*
X151625200Y-70320399D01*
G75*
G02*
X151800200Y-70495399I0J-175000D01*
G01*
G37*
G36*
G01*
X151800200Y-71765399D02*
X151800200Y-72115399D01*
G75*
G02*
X151625200Y-72290399I-175000J0D01*
G01*
X150125200Y-72290399D01*
G75*
G02*
X149950200Y-72115399I0J175000D01*
G01*
X149950200Y-71765399D01*
G75*
G02*
X150125200Y-71590399I175000J0D01*
G01*
X151625200Y-71590399D01*
G75*
G02*
X151800200Y-71765399I0J-175000D01*
G01*
G37*
G36*
G01*
X151800200Y-73035399D02*
X151800200Y-73385399D01*
G75*
G02*
X151625200Y-73560399I-175000J0D01*
G01*
X150125200Y-73560399D01*
G75*
G02*
X149950200Y-73385399I0J175000D01*
G01*
X149950200Y-73035399D01*
G75*
G02*
X150125200Y-72860399I175000J0D01*
G01*
X151625200Y-72860399D01*
G75*
G02*
X151800200Y-73035399I0J-175000D01*
G01*
G37*
G36*
G01*
X151800200Y-74305399D02*
X151800200Y-74655399D01*
G75*
G02*
X151625200Y-74830399I-175000J0D01*
G01*
X150125200Y-74830399D01*
G75*
G02*
X149950200Y-74655399I0J175000D01*
G01*
X149950200Y-74305399D01*
G75*
G02*
X150125200Y-74130399I175000J0D01*
G01*
X151625200Y-74130399D01*
G75*
G02*
X151800200Y-74305399I0J-175000D01*
G01*
G37*
%TD*%
%TO.C,C4*%
G36*
G01*
X143954250Y-74015500D02*
X142991750Y-74015500D01*
G75*
G02*
X142723000Y-73746750I0J268750D01*
G01*
X142723000Y-73209250D01*
G75*
G02*
X142991750Y-72940500I268750J0D01*
G01*
X143954250Y-72940500D01*
G75*
G02*
X144223000Y-73209250I0J-268750D01*
G01*
X144223000Y-73746750D01*
G75*
G02*
X143954250Y-74015500I-268750J0D01*
G01*
G37*
G36*
G01*
X143954250Y-72140500D02*
X142991750Y-72140500D01*
G75*
G02*
X142723000Y-71871750I0J268750D01*
G01*
X142723000Y-71334250D01*
G75*
G02*
X142991750Y-71065500I268750J0D01*
G01*
X143954250Y-71065500D01*
G75*
G02*
X144223000Y-71334250I0J-268750D01*
G01*
X144223000Y-71871750D01*
G75*
G02*
X143954250Y-72140500I-268750J0D01*
G01*
G37*
%TD*%
%TO.C,R4*%
G36*
G01*
X150489000Y-79180882D02*
X150489000Y-76267918D01*
G75*
G02*
X150757518Y-75999400I268518J0D01*
G01*
X151670482Y-75999400D01*
G75*
G02*
X151939000Y-76267918I0J-268518D01*
G01*
X151939000Y-79180882D01*
G75*
G02*
X151670482Y-79449400I-268518J0D01*
G01*
X150757518Y-79449400D01*
G75*
G02*
X150489000Y-79180882I0J268518D01*
G01*
G37*
G36*
G01*
X144689000Y-79180882D02*
X144689000Y-76267918D01*
G75*
G02*
X144957518Y-75999400I268518J0D01*
G01*
X145870482Y-75999400D01*
G75*
G02*
X146139000Y-76267918I0J-268518D01*
G01*
X146139000Y-79180882D01*
G75*
G02*
X145870482Y-79449400I-268518J0D01*
G01*
X144957518Y-79449400D01*
G75*
G02*
X144689000Y-79180882I0J268518D01*
G01*
G37*
%TD*%
D10*
%TO.C,J9*%
X153760000Y-55982000D03*
%TD*%
%TO.C,R3*%
G36*
G01*
X146174800Y-60088118D02*
X146174800Y-63001082D01*
G75*
G02*
X145906282Y-63269600I-268518J0D01*
G01*
X144993318Y-63269600D01*
G75*
G02*
X144724800Y-63001082I0J268518D01*
G01*
X144724800Y-60088118D01*
G75*
G02*
X144993318Y-59819600I268518J0D01*
G01*
X145906282Y-59819600D01*
G75*
G02*
X146174800Y-60088118I0J-268518D01*
G01*
G37*
G36*
G01*
X151974800Y-60088118D02*
X151974800Y-63001082D01*
G75*
G02*
X151706282Y-63269600I-268518J0D01*
G01*
X150793318Y-63269600D01*
G75*
G02*
X150524800Y-63001082I0J268518D01*
G01*
X150524800Y-60088118D01*
G75*
G02*
X150793318Y-59819600I268518J0D01*
G01*
X151706282Y-59819600D01*
G75*
G02*
X151974800Y-60088118I0J-268518D01*
G01*
G37*
%TD*%
%TO.C,J10*%
X142330000Y-55982000D03*
%TD*%
%TO.C,J14*%
X154156000Y-77690000D03*
%TD*%
%TO.C,J15*%
X154156000Y-61434000D03*
%TD*%
D11*
%TO.C,F4*%
X146013000Y-82652000D03*
X151113000Y-83852000D03*
%TD*%
D10*
%TO.C,J13*%
X142472000Y-61434000D03*
%TD*%
%TO.C,J16*%
X142472000Y-77690000D03*
%TD*%
%TO.C,J12*%
X142965000Y-83287000D03*
%TD*%
%TO.C,U3*%
G36*
G01*
X150074800Y-64963601D02*
X150074800Y-64613601D01*
G75*
G02*
X150249800Y-64438601I175000J0D01*
G01*
X151749800Y-64438601D01*
G75*
G02*
X151924800Y-64613601I0J-175000D01*
G01*
X151924800Y-64963601D01*
G75*
G02*
X151749800Y-65138601I-175000J0D01*
G01*
X150249800Y-65138601D01*
G75*
G02*
X150074800Y-64963601I0J175000D01*
G01*
G37*
G36*
G01*
X150074800Y-66233601D02*
X150074800Y-65883601D01*
G75*
G02*
X150249800Y-65708601I175000J0D01*
G01*
X151749800Y-65708601D01*
G75*
G02*
X151924800Y-65883601I0J-175000D01*
G01*
X151924800Y-66233601D01*
G75*
G02*
X151749800Y-66408601I-175000J0D01*
G01*
X150249800Y-66408601D01*
G75*
G02*
X150074800Y-66233601I0J175000D01*
G01*
G37*
G36*
G01*
X150074800Y-67503601D02*
X150074800Y-67153601D01*
G75*
G02*
X150249800Y-66978601I175000J0D01*
G01*
X151749800Y-66978601D01*
G75*
G02*
X151924800Y-67153601I0J-175000D01*
G01*
X151924800Y-67503601D01*
G75*
G02*
X151749800Y-67678601I-175000J0D01*
G01*
X150249800Y-67678601D01*
G75*
G02*
X150074800Y-67503601I0J175000D01*
G01*
G37*
G36*
G01*
X150074800Y-68773601D02*
X150074800Y-68423601D01*
G75*
G02*
X150249800Y-68248601I175000J0D01*
G01*
X151749800Y-68248601D01*
G75*
G02*
X151924800Y-68423601I0J-175000D01*
G01*
X151924800Y-68773601D01*
G75*
G02*
X151749800Y-68948601I-175000J0D01*
G01*
X150249800Y-68948601D01*
G75*
G02*
X150074800Y-68773601I0J175000D01*
G01*
G37*
G36*
G01*
X144924800Y-68773601D02*
X144924800Y-68423601D01*
G75*
G02*
X145099800Y-68248601I175000J0D01*
G01*
X146599800Y-68248601D01*
G75*
G02*
X146774800Y-68423601I0J-175000D01*
G01*
X146774800Y-68773601D01*
G75*
G02*
X146599800Y-68948601I-175000J0D01*
G01*
X145099800Y-68948601D01*
G75*
G02*
X144924800Y-68773601I0J175000D01*
G01*
G37*
G36*
G01*
X144924800Y-67503601D02*
X144924800Y-67153601D01*
G75*
G02*
X145099800Y-66978601I175000J0D01*
G01*
X146599800Y-66978601D01*
G75*
G02*
X146774800Y-67153601I0J-175000D01*
G01*
X146774800Y-67503601D01*
G75*
G02*
X146599800Y-67678601I-175000J0D01*
G01*
X145099800Y-67678601D01*
G75*
G02*
X144924800Y-67503601I0J175000D01*
G01*
G37*
G36*
G01*
X144924800Y-66233601D02*
X144924800Y-65883601D01*
G75*
G02*
X145099800Y-65708601I175000J0D01*
G01*
X146599800Y-65708601D01*
G75*
G02*
X146774800Y-65883601I0J-175000D01*
G01*
X146774800Y-66233601D01*
G75*
G02*
X146599800Y-66408601I-175000J0D01*
G01*
X145099800Y-66408601D01*
G75*
G02*
X144924800Y-66233601I0J175000D01*
G01*
G37*
G36*
G01*
X144924800Y-64963601D02*
X144924800Y-64613601D01*
G75*
G02*
X145099800Y-64438601I175000J0D01*
G01*
X146599800Y-64438601D01*
G75*
G02*
X146774800Y-64613601I0J-175000D01*
G01*
X146774800Y-64963601D01*
G75*
G02*
X146599800Y-65138601I-175000J0D01*
G01*
X145099800Y-65138601D01*
G75*
G02*
X144924800Y-64963601I0J175000D01*
G01*
G37*
%TD*%
%TO.C,C3*%
G36*
G01*
X152770750Y-67149300D02*
X153733250Y-67149300D01*
G75*
G02*
X154002000Y-67418050I0J-268750D01*
G01*
X154002000Y-67955550D01*
G75*
G02*
X153733250Y-68224300I-268750J0D01*
G01*
X152770750Y-68224300D01*
G75*
G02*
X152502000Y-67955550I0J268750D01*
G01*
X152502000Y-67418050D01*
G75*
G02*
X152770750Y-67149300I268750J0D01*
G01*
G37*
G36*
G01*
X152770750Y-65274300D02*
X153733250Y-65274300D01*
G75*
G02*
X154002000Y-65543050I0J-268750D01*
G01*
X154002000Y-66080550D01*
G75*
G02*
X153733250Y-66349300I-268750J0D01*
G01*
X152770750Y-66349300D01*
G75*
G02*
X152502000Y-66080550I0J268750D01*
G01*
X152502000Y-65543050D01*
G75*
G02*
X152770750Y-65274300I268750J0D01*
G01*
G37*
%TD*%
%TO.C,J11*%
X154395000Y-83287000D03*
%TD*%
D11*
%TO.C,F3*%
X150732000Y-56674000D03*
X145632000Y-55474000D03*
%TD*%
%TO.C,F2*%
X125910000Y-55482000D03*
X131010000Y-56682000D03*
%TD*%
D10*
%TO.C,J1*%
X134673000Y-83295000D03*
%TD*%
%TO.C,C2*%
G36*
G01*
X133048750Y-65282300D02*
X134011250Y-65282300D01*
G75*
G02*
X134280000Y-65551050I0J-268750D01*
G01*
X134280000Y-66088550D01*
G75*
G02*
X134011250Y-66357300I-268750J0D01*
G01*
X133048750Y-66357300D01*
G75*
G02*
X132780000Y-66088550I0J268750D01*
G01*
X132780000Y-65551050D01*
G75*
G02*
X133048750Y-65282300I268750J0D01*
G01*
G37*
G36*
G01*
X133048750Y-67157300D02*
X134011250Y-67157300D01*
G75*
G02*
X134280000Y-67426050I0J-268750D01*
G01*
X134280000Y-67963550D01*
G75*
G02*
X134011250Y-68232300I-268750J0D01*
G01*
X133048750Y-68232300D01*
G75*
G02*
X132780000Y-67963550I0J268750D01*
G01*
X132780000Y-67426050D01*
G75*
G02*
X133048750Y-67157300I268750J0D01*
G01*
G37*
%TD*%
%TO.C,U2*%
G36*
G01*
X125202800Y-64971601D02*
X125202800Y-64621601D01*
G75*
G02*
X125377800Y-64446601I175000J0D01*
G01*
X126877800Y-64446601D01*
G75*
G02*
X127052800Y-64621601I0J-175000D01*
G01*
X127052800Y-64971601D01*
G75*
G02*
X126877800Y-65146601I-175000J0D01*
G01*
X125377800Y-65146601D01*
G75*
G02*
X125202800Y-64971601I0J175000D01*
G01*
G37*
G36*
G01*
X125202800Y-66241601D02*
X125202800Y-65891601D01*
G75*
G02*
X125377800Y-65716601I175000J0D01*
G01*
X126877800Y-65716601D01*
G75*
G02*
X127052800Y-65891601I0J-175000D01*
G01*
X127052800Y-66241601D01*
G75*
G02*
X126877800Y-66416601I-175000J0D01*
G01*
X125377800Y-66416601D01*
G75*
G02*
X125202800Y-66241601I0J175000D01*
G01*
G37*
G36*
G01*
X125202800Y-67511601D02*
X125202800Y-67161601D01*
G75*
G02*
X125377800Y-66986601I175000J0D01*
G01*
X126877800Y-66986601D01*
G75*
G02*
X127052800Y-67161601I0J-175000D01*
G01*
X127052800Y-67511601D01*
G75*
G02*
X126877800Y-67686601I-175000J0D01*
G01*
X125377800Y-67686601D01*
G75*
G02*
X125202800Y-67511601I0J175000D01*
G01*
G37*
G36*
G01*
X125202800Y-68781601D02*
X125202800Y-68431601D01*
G75*
G02*
X125377800Y-68256601I175000J0D01*
G01*
X126877800Y-68256601D01*
G75*
G02*
X127052800Y-68431601I0J-175000D01*
G01*
X127052800Y-68781601D01*
G75*
G02*
X126877800Y-68956601I-175000J0D01*
G01*
X125377800Y-68956601D01*
G75*
G02*
X125202800Y-68781601I0J175000D01*
G01*
G37*
G36*
G01*
X130352800Y-68781601D02*
X130352800Y-68431601D01*
G75*
G02*
X130527800Y-68256601I175000J0D01*
G01*
X132027800Y-68256601D01*
G75*
G02*
X132202800Y-68431601I0J-175000D01*
G01*
X132202800Y-68781601D01*
G75*
G02*
X132027800Y-68956601I-175000J0D01*
G01*
X130527800Y-68956601D01*
G75*
G02*
X130352800Y-68781601I0J175000D01*
G01*
G37*
G36*
G01*
X130352800Y-67511601D02*
X130352800Y-67161601D01*
G75*
G02*
X130527800Y-66986601I175000J0D01*
G01*
X132027800Y-66986601D01*
G75*
G02*
X132202800Y-67161601I0J-175000D01*
G01*
X132202800Y-67511601D01*
G75*
G02*
X132027800Y-67686601I-175000J0D01*
G01*
X130527800Y-67686601D01*
G75*
G02*
X130352800Y-67511601I0J175000D01*
G01*
G37*
G36*
G01*
X130352800Y-66241601D02*
X130352800Y-65891601D01*
G75*
G02*
X130527800Y-65716601I175000J0D01*
G01*
X132027800Y-65716601D01*
G75*
G02*
X132202800Y-65891601I0J-175000D01*
G01*
X132202800Y-66241601D01*
G75*
G02*
X132027800Y-66416601I-175000J0D01*
G01*
X130527800Y-66416601D01*
G75*
G02*
X130352800Y-66241601I0J175000D01*
G01*
G37*
G36*
G01*
X130352800Y-64971601D02*
X130352800Y-64621601D01*
G75*
G02*
X130527800Y-64446601I175000J0D01*
G01*
X132027800Y-64446601D01*
G75*
G02*
X132202800Y-64621601I0J-175000D01*
G01*
X132202800Y-64971601D01*
G75*
G02*
X132027800Y-65146601I-175000J0D01*
G01*
X130527800Y-65146601D01*
G75*
G02*
X130352800Y-64971601I0J175000D01*
G01*
G37*
%TD*%
%TO.C,J2*%
X123243000Y-83295000D03*
%TD*%
%TO.C,J7*%
X122914000Y-77690000D03*
%TD*%
%TO.C,J6*%
X122914000Y-61434000D03*
%TD*%
D11*
%TO.C,F1*%
X131391000Y-83860000D03*
X126291000Y-82660000D03*
%TD*%
D10*
%TO.C,J8*%
X134344000Y-61434000D03*
%TD*%
%TO.C,J5*%
X134344000Y-77690000D03*
%TD*%
%TO.C,J4*%
X122608000Y-55990000D03*
%TD*%
%TO.C,R2*%
G36*
G01*
X132252800Y-60096118D02*
X132252800Y-63009082D01*
G75*
G02*
X131984282Y-63277600I-268518J0D01*
G01*
X131071318Y-63277600D01*
G75*
G02*
X130802800Y-63009082I0J268518D01*
G01*
X130802800Y-60096118D01*
G75*
G02*
X131071318Y-59827600I268518J0D01*
G01*
X131984282Y-59827600D01*
G75*
G02*
X132252800Y-60096118I0J-268518D01*
G01*
G37*
G36*
G01*
X126452800Y-60096118D02*
X126452800Y-63009082D01*
G75*
G02*
X126184282Y-63277600I-268518J0D01*
G01*
X125271318Y-63277600D01*
G75*
G02*
X125002800Y-63009082I0J268518D01*
G01*
X125002800Y-60096118D01*
G75*
G02*
X125271318Y-59827600I268518J0D01*
G01*
X126184282Y-59827600D01*
G75*
G02*
X126452800Y-60096118I0J-268518D01*
G01*
G37*
%TD*%
%TO.C,J3*%
X134038000Y-55990000D03*
%TD*%
%TO.C,R1*%
G36*
G01*
X125028200Y-79188882D02*
X125028200Y-76275918D01*
G75*
G02*
X125296718Y-76007400I268518J0D01*
G01*
X126209682Y-76007400D01*
G75*
G02*
X126478200Y-76275918I0J-268518D01*
G01*
X126478200Y-79188882D01*
G75*
G02*
X126209682Y-79457400I-268518J0D01*
G01*
X125296718Y-79457400D01*
G75*
G02*
X125028200Y-79188882I0J268518D01*
G01*
G37*
G36*
G01*
X130828200Y-79188882D02*
X130828200Y-76275918D01*
G75*
G02*
X131096718Y-76007400I268518J0D01*
G01*
X132009682Y-76007400D01*
G75*
G02*
X132278200Y-76275918I0J-268518D01*
G01*
X132278200Y-79188882D01*
G75*
G02*
X132009682Y-79457400I-268518J0D01*
G01*
X131096718Y-79457400D01*
G75*
G02*
X130828200Y-79188882I0J268518D01*
G01*
G37*
%TD*%
%TO.C,C1*%
G36*
G01*
X124232250Y-72148500D02*
X123269750Y-72148500D01*
G75*
G02*
X123001000Y-71879750I0J268750D01*
G01*
X123001000Y-71342250D01*
G75*
G02*
X123269750Y-71073500I268750J0D01*
G01*
X124232250Y-71073500D01*
G75*
G02*
X124501000Y-71342250I0J-268750D01*
G01*
X124501000Y-71879750D01*
G75*
G02*
X124232250Y-72148500I-268750J0D01*
G01*
G37*
G36*
G01*
X124232250Y-74023500D02*
X123269750Y-74023500D01*
G75*
G02*
X123001000Y-73754750I0J268750D01*
G01*
X123001000Y-73217250D01*
G75*
G02*
X123269750Y-72948500I268750J0D01*
G01*
X124232250Y-72948500D01*
G75*
G02*
X124501000Y-73217250I0J-268750D01*
G01*
X124501000Y-73754750D01*
G75*
G02*
X124232250Y-74023500I-268750J0D01*
G01*
G37*
%TD*%
%TO.C,U1*%
G36*
G01*
X132078200Y-74313399D02*
X132078200Y-74663399D01*
G75*
G02*
X131903200Y-74838399I-175000J0D01*
G01*
X130403200Y-74838399D01*
G75*
G02*
X130228200Y-74663399I0J175000D01*
G01*
X130228200Y-74313399D01*
G75*
G02*
X130403200Y-74138399I175000J0D01*
G01*
X131903200Y-74138399D01*
G75*
G02*
X132078200Y-74313399I0J-175000D01*
G01*
G37*
G36*
G01*
X132078200Y-73043399D02*
X132078200Y-73393399D01*
G75*
G02*
X131903200Y-73568399I-175000J0D01*
G01*
X130403200Y-73568399D01*
G75*
G02*
X130228200Y-73393399I0J175000D01*
G01*
X130228200Y-73043399D01*
G75*
G02*
X130403200Y-72868399I175000J0D01*
G01*
X131903200Y-72868399D01*
G75*
G02*
X132078200Y-73043399I0J-175000D01*
G01*
G37*
G36*
G01*
X132078200Y-71773399D02*
X132078200Y-72123399D01*
G75*
G02*
X131903200Y-72298399I-175000J0D01*
G01*
X130403200Y-72298399D01*
G75*
G02*
X130228200Y-72123399I0J175000D01*
G01*
X130228200Y-71773399D01*
G75*
G02*
X130403200Y-71598399I175000J0D01*
G01*
X131903200Y-71598399D01*
G75*
G02*
X132078200Y-71773399I0J-175000D01*
G01*
G37*
G36*
G01*
X132078200Y-70503399D02*
X132078200Y-70853399D01*
G75*
G02*
X131903200Y-71028399I-175000J0D01*
G01*
X130403200Y-71028399D01*
G75*
G02*
X130228200Y-70853399I0J175000D01*
G01*
X130228200Y-70503399D01*
G75*
G02*
X130403200Y-70328399I175000J0D01*
G01*
X131903200Y-70328399D01*
G75*
G02*
X132078200Y-70503399I0J-175000D01*
G01*
G37*
G36*
G01*
X126928200Y-70503399D02*
X126928200Y-70853399D01*
G75*
G02*
X126753200Y-71028399I-175000J0D01*
G01*
X125253200Y-71028399D01*
G75*
G02*
X125078200Y-70853399I0J175000D01*
G01*
X125078200Y-70503399D01*
G75*
G02*
X125253200Y-70328399I175000J0D01*
G01*
X126753200Y-70328399D01*
G75*
G02*
X126928200Y-70503399I0J-175000D01*
G01*
G37*
G36*
G01*
X126928200Y-71773399D02*
X126928200Y-72123399D01*
G75*
G02*
X126753200Y-72298399I-175000J0D01*
G01*
X125253200Y-72298399D01*
G75*
G02*
X125078200Y-72123399I0J175000D01*
G01*
X125078200Y-71773399D01*
G75*
G02*
X125253200Y-71598399I175000J0D01*
G01*
X126753200Y-71598399D01*
G75*
G02*
X126928200Y-71773399I0J-175000D01*
G01*
G37*
G36*
G01*
X126928200Y-73043399D02*
X126928200Y-73393399D01*
G75*
G02*
X126753200Y-73568399I-175000J0D01*
G01*
X125253200Y-73568399D01*
G75*
G02*
X125078200Y-73393399I0J175000D01*
G01*
X125078200Y-73043399D01*
G75*
G02*
X125253200Y-72868399I175000J0D01*
G01*
X126753200Y-72868399D01*
G75*
G02*
X126928200Y-73043399I0J-175000D01*
G01*
G37*
G36*
G01*
X126928200Y-74313399D02*
X126928200Y-74663399D01*
G75*
G02*
X126753200Y-74838399I-175000J0D01*
G01*
X125253200Y-74838399D01*
G75*
G02*
X125078200Y-74663399I0J175000D01*
G01*
X125078200Y-74313399D01*
G75*
G02*
X125253200Y-74138399I175000J0D01*
G01*
X126753200Y-74138399D01*
G75*
G02*
X126928200Y-74313399I0J-175000D01*
G01*
G37*
%TD*%
D12*
%TO.C,J17*%
X109960000Y-58640000D03*
D13*
X112500000Y-58640000D03*
X109960000Y-61180000D03*
X112500000Y-61180000D03*
X109960000Y-63720000D03*
X112500000Y-63720000D03*
X109960000Y-66260000D03*
X112500000Y-66260000D03*
X109960000Y-68800000D03*
X112500000Y-68800000D03*
X109960000Y-71340000D03*
X112500000Y-71340000D03*
X109960000Y-73880000D03*
X112500000Y-73880000D03*
X109960000Y-76420000D03*
X112500000Y-76420000D03*
X109960000Y-78960000D03*
X112500000Y-78960000D03*
X109960000Y-81500000D03*
X112500000Y-81500000D03*
%TD*%
%TO.C,J18*%
X163300000Y-81500000D03*
X160760000Y-81500000D03*
X163300000Y-78960000D03*
X160760000Y-78960000D03*
X163300000Y-76420000D03*
X160760000Y-76420000D03*
X163300000Y-73880000D03*
X160760000Y-73880000D03*
X163300000Y-71340000D03*
X160760000Y-71340000D03*
X163300000Y-68800000D03*
X160760000Y-68800000D03*
X163300000Y-66260000D03*
X160760000Y-66260000D03*
X163300000Y-63720000D03*
X160760000Y-63720000D03*
X163300000Y-61180000D03*
X160760000Y-61180000D03*
X163300000Y-58640000D03*
D12*
X160760000Y-58640000D03*
%TD*%
M02*
