%TF.GenerationSoftware,KiCad,Pcbnew,(5.1.6)-1*%
%TF.CreationDate,2020-06-17T13:38:48+01:00*%
%TF.ProjectId,I_sense_pcb,495f7365-6e73-4655-9f70-63622e6b6963,rev?*%
%TF.SameCoordinates,Original*%
%TF.FileFunction,Copper,L1,Top*%
%TF.FilePolarity,Positive*%
%FSLAX46Y46*%
G04 Gerber Fmt 4.6, Leading zero omitted, Abs format (unit mm)*
G04 Created by KiCad (PCBNEW (5.1.6)-1) date 2020-06-17 13:38:48*
%MOMM*%
%LPD*%
G01*
G04 APERTURE LIST*
%TA.AperFunction,ComponentPad*%
%ADD10C,3.500000*%
%TD*%
%TA.AperFunction,ComponentPad*%
%ADD11C,2.010000*%
%TD*%
%TA.AperFunction,ComponentPad*%
%ADD12R,1.700000X1.700000*%
%TD*%
%TA.AperFunction,ComponentPad*%
%ADD13O,1.700000X1.700000*%
%TD*%
%TA.AperFunction,ViaPad*%
%ADD14C,0.800000*%
%TD*%
%TA.AperFunction,Conductor*%
%ADD15C,0.500000*%
%TD*%
%TA.AperFunction,Conductor*%
%ADD16C,0.250000*%
%TD*%
%TA.AperFunction,Conductor*%
%ADD17C,4.000000*%
%TD*%
G04 APERTURE END LIST*
%TO.P,U4,8*%
%TO.N,Net-(J16-Pad1)*%
%TA.AperFunction,SMDPad,CuDef*%
G36*
G01*
X146600200Y-74330399D02*
X146600200Y-74630399D01*
G75*
G02*
X146450200Y-74780399I-150000J0D01*
G01*
X145000200Y-74780399D01*
G75*
G02*
X144850200Y-74630399I0J150000D01*
G01*
X144850200Y-74330399D01*
G75*
G02*
X145000200Y-74180399I150000J0D01*
G01*
X146450200Y-74180399D01*
G75*
G02*
X146600200Y-74330399I0J-150000D01*
G01*
G37*
%TD.AperFunction*%
%TO.P,U4,7*%
%TO.N,GND*%
%TA.AperFunction,SMDPad,CuDef*%
G36*
G01*
X146600200Y-73060399D02*
X146600200Y-73360399D01*
G75*
G02*
X146450200Y-73510399I-150000J0D01*
G01*
X145000200Y-73510399D01*
G75*
G02*
X144850200Y-73360399I0J150000D01*
G01*
X144850200Y-73060399D01*
G75*
G02*
X145000200Y-72910399I150000J0D01*
G01*
X146450200Y-72910399D01*
G75*
G02*
X146600200Y-73060399I0J-150000D01*
G01*
G37*
%TD.AperFunction*%
%TO.P,U4,6*%
%TO.N,+5V*%
%TA.AperFunction,SMDPad,CuDef*%
G36*
G01*
X146600200Y-71790399D02*
X146600200Y-72090399D01*
G75*
G02*
X146450200Y-72240399I-150000J0D01*
G01*
X145000200Y-72240399D01*
G75*
G02*
X144850200Y-72090399I0J150000D01*
G01*
X144850200Y-71790399D01*
G75*
G02*
X145000200Y-71640399I150000J0D01*
G01*
X146450200Y-71640399D01*
G75*
G02*
X146600200Y-71790399I0J-150000D01*
G01*
G37*
%TD.AperFunction*%
%TO.P,U4,5*%
%TO.N,A2*%
%TA.AperFunction,SMDPad,CuDef*%
G36*
G01*
X146600200Y-70520399D02*
X146600200Y-70820399D01*
G75*
G02*
X146450200Y-70970399I-150000J0D01*
G01*
X145000200Y-70970399D01*
G75*
G02*
X144850200Y-70820399I0J150000D01*
G01*
X144850200Y-70520399D01*
G75*
G02*
X145000200Y-70370399I150000J0D01*
G01*
X146450200Y-70370399D01*
G75*
G02*
X146600200Y-70520399I0J-150000D01*
G01*
G37*
%TD.AperFunction*%
%TO.P,U4,4*%
%TO.N,Net-(U4-Pad4)*%
%TA.AperFunction,SMDPad,CuDef*%
G36*
G01*
X151750200Y-70520399D02*
X151750200Y-70820399D01*
G75*
G02*
X151600200Y-70970399I-150000J0D01*
G01*
X150150200Y-70970399D01*
G75*
G02*
X150000200Y-70820399I0J150000D01*
G01*
X150000200Y-70520399D01*
G75*
G02*
X150150200Y-70370399I150000J0D01*
G01*
X151600200Y-70370399D01*
G75*
G02*
X151750200Y-70520399I0J-150000D01*
G01*
G37*
%TD.AperFunction*%
%TO.P,U4,3*%
%TO.N,+5V*%
%TA.AperFunction,SMDPad,CuDef*%
G36*
G01*
X151750200Y-71790399D02*
X151750200Y-72090399D01*
G75*
G02*
X151600200Y-72240399I-150000J0D01*
G01*
X150150200Y-72240399D01*
G75*
G02*
X150000200Y-72090399I0J150000D01*
G01*
X150000200Y-71790399D01*
G75*
G02*
X150150200Y-71640399I150000J0D01*
G01*
X151600200Y-71640399D01*
G75*
G02*
X151750200Y-71790399I0J-150000D01*
G01*
G37*
%TD.AperFunction*%
%TO.P,U4,2*%
%TO.N,GND*%
%TA.AperFunction,SMDPad,CuDef*%
G36*
G01*
X151750200Y-73060399D02*
X151750200Y-73360399D01*
G75*
G02*
X151600200Y-73510399I-150000J0D01*
G01*
X150150200Y-73510399D01*
G75*
G02*
X150000200Y-73360399I0J150000D01*
G01*
X150000200Y-73060399D01*
G75*
G02*
X150150200Y-72910399I150000J0D01*
G01*
X151600200Y-72910399D01*
G75*
G02*
X151750200Y-73060399I0J-150000D01*
G01*
G37*
%TD.AperFunction*%
%TO.P,U4,1*%
%TO.N,Net-(J14-Pad1)*%
%TA.AperFunction,SMDPad,CuDef*%
G36*
G01*
X151750200Y-74330399D02*
X151750200Y-74630399D01*
G75*
G02*
X151600200Y-74780399I-150000J0D01*
G01*
X150150200Y-74780399D01*
G75*
G02*
X150000200Y-74630399I0J150000D01*
G01*
X150000200Y-74330399D01*
G75*
G02*
X150150200Y-74180399I150000J0D01*
G01*
X151600200Y-74180399D01*
G75*
G02*
X151750200Y-74330399I0J-150000D01*
G01*
G37*
%TD.AperFunction*%
%TD*%
%TO.P,C4,1*%
%TO.N,GND*%
%TA.AperFunction,SMDPad,CuDef*%
G36*
G01*
X143929250Y-73965500D02*
X143016750Y-73965500D01*
G75*
G02*
X142773000Y-73721750I0J243750D01*
G01*
X142773000Y-73234250D01*
G75*
G02*
X143016750Y-72990500I243750J0D01*
G01*
X143929250Y-72990500D01*
G75*
G02*
X144173000Y-73234250I0J-243750D01*
G01*
X144173000Y-73721750D01*
G75*
G02*
X143929250Y-73965500I-243750J0D01*
G01*
G37*
%TD.AperFunction*%
%TO.P,C4,2*%
%TO.N,+5V*%
%TA.AperFunction,SMDPad,CuDef*%
G36*
G01*
X143929250Y-72090500D02*
X143016750Y-72090500D01*
G75*
G02*
X142773000Y-71846750I0J243750D01*
G01*
X142773000Y-71359250D01*
G75*
G02*
X143016750Y-71115500I243750J0D01*
G01*
X143929250Y-71115500D01*
G75*
G02*
X144173000Y-71359250I0J-243750D01*
G01*
X144173000Y-71846750D01*
G75*
G02*
X143929250Y-72090500I-243750J0D01*
G01*
G37*
%TD.AperFunction*%
%TD*%
%TO.P,R4,2*%
%TO.N,Net-(J14-Pad1)*%
%TA.AperFunction,SMDPad,CuDef*%
G36*
G01*
X150539000Y-79149401D02*
X150539000Y-76299399D01*
G75*
G02*
X150788999Y-76049400I249999J0D01*
G01*
X151639001Y-76049400D01*
G75*
G02*
X151889000Y-76299399I0J-249999D01*
G01*
X151889000Y-79149401D01*
G75*
G02*
X151639001Y-79399400I-249999J0D01*
G01*
X150788999Y-79399400D01*
G75*
G02*
X150539000Y-79149401I0J249999D01*
G01*
G37*
%TD.AperFunction*%
%TO.P,R4,1*%
%TO.N,Net-(J16-Pad1)*%
%TA.AperFunction,SMDPad,CuDef*%
G36*
G01*
X144739000Y-79149401D02*
X144739000Y-76299399D01*
G75*
G02*
X144988999Y-76049400I249999J0D01*
G01*
X145839001Y-76049400D01*
G75*
G02*
X146089000Y-76299399I0J-249999D01*
G01*
X146089000Y-79149401D01*
G75*
G02*
X145839001Y-79399400I-249999J0D01*
G01*
X144988999Y-79399400D01*
G75*
G02*
X144739000Y-79149401I0J249999D01*
G01*
G37*
%TD.AperFunction*%
%TD*%
D10*
%TO.P,J9,1*%
%TO.N,Net-(F3-Pad2)*%
X153760000Y-55982000D03*
%TD*%
%TO.P,R3,2*%
%TO.N,Net-(J13-Pad1)*%
%TA.AperFunction,SMDPad,CuDef*%
G36*
G01*
X146124800Y-60119599D02*
X146124800Y-62969601D01*
G75*
G02*
X145874801Y-63219600I-249999J0D01*
G01*
X145024799Y-63219600D01*
G75*
G02*
X144774800Y-62969601I0J249999D01*
G01*
X144774800Y-60119599D01*
G75*
G02*
X145024799Y-59869600I249999J0D01*
G01*
X145874801Y-59869600D01*
G75*
G02*
X146124800Y-60119599I0J-249999D01*
G01*
G37*
%TD.AperFunction*%
%TO.P,R3,1*%
%TO.N,Net-(J15-Pad1)*%
%TA.AperFunction,SMDPad,CuDef*%
G36*
G01*
X151924800Y-60119599D02*
X151924800Y-62969601D01*
G75*
G02*
X151674801Y-63219600I-249999J0D01*
G01*
X150824799Y-63219600D01*
G75*
G02*
X150574800Y-62969601I0J249999D01*
G01*
X150574800Y-60119599D01*
G75*
G02*
X150824799Y-59869600I249999J0D01*
G01*
X151674801Y-59869600D01*
G75*
G02*
X151924800Y-60119599I0J-249999D01*
G01*
G37*
%TD.AperFunction*%
%TD*%
%TO.P,J10,1*%
%TO.N,Net-(F3-Pad1)*%
X142330000Y-55982000D03*
%TD*%
%TO.P,J14,1*%
%TO.N,Net-(J14-Pad1)*%
X154156000Y-77690000D03*
%TD*%
%TO.P,J15,1*%
%TO.N,Net-(J15-Pad1)*%
X154156000Y-61434000D03*
%TD*%
D11*
%TO.P,F4,1*%
%TO.N,Net-(F4-Pad1)*%
X146013000Y-82652000D03*
%TO.P,F4,2*%
%TO.N,Net-(F4-Pad2)*%
X151113000Y-83852000D03*
%TD*%
D10*
%TO.P,J13,1*%
%TO.N,Net-(J13-Pad1)*%
X142472000Y-61434000D03*
%TD*%
%TO.P,J16,1*%
%TO.N,Net-(J16-Pad1)*%
X142472000Y-77690000D03*
%TD*%
%TO.P,J12,1*%
%TO.N,Net-(F4-Pad1)*%
X142965000Y-83287000D03*
%TD*%
%TO.P,U3,8*%
%TO.N,Net-(J15-Pad1)*%
%TA.AperFunction,SMDPad,CuDef*%
G36*
G01*
X150124800Y-64938601D02*
X150124800Y-64638601D01*
G75*
G02*
X150274800Y-64488601I150000J0D01*
G01*
X151724800Y-64488601D01*
G75*
G02*
X151874800Y-64638601I0J-150000D01*
G01*
X151874800Y-64938601D01*
G75*
G02*
X151724800Y-65088601I-150000J0D01*
G01*
X150274800Y-65088601D01*
G75*
G02*
X150124800Y-64938601I0J150000D01*
G01*
G37*
%TD.AperFunction*%
%TO.P,U3,7*%
%TO.N,GND*%
%TA.AperFunction,SMDPad,CuDef*%
G36*
G01*
X150124800Y-66208601D02*
X150124800Y-65908601D01*
G75*
G02*
X150274800Y-65758601I150000J0D01*
G01*
X151724800Y-65758601D01*
G75*
G02*
X151874800Y-65908601I0J-150000D01*
G01*
X151874800Y-66208601D01*
G75*
G02*
X151724800Y-66358601I-150000J0D01*
G01*
X150274800Y-66358601D01*
G75*
G02*
X150124800Y-66208601I0J150000D01*
G01*
G37*
%TD.AperFunction*%
%TO.P,U3,6*%
%TO.N,+5V*%
%TA.AperFunction,SMDPad,CuDef*%
G36*
G01*
X150124800Y-67478601D02*
X150124800Y-67178601D01*
G75*
G02*
X150274800Y-67028601I150000J0D01*
G01*
X151724800Y-67028601D01*
G75*
G02*
X151874800Y-67178601I0J-150000D01*
G01*
X151874800Y-67478601D01*
G75*
G02*
X151724800Y-67628601I-150000J0D01*
G01*
X150274800Y-67628601D01*
G75*
G02*
X150124800Y-67478601I0J150000D01*
G01*
G37*
%TD.AperFunction*%
%TO.P,U3,5*%
%TO.N,A1*%
%TA.AperFunction,SMDPad,CuDef*%
G36*
G01*
X150124800Y-68748601D02*
X150124800Y-68448601D01*
G75*
G02*
X150274800Y-68298601I150000J0D01*
G01*
X151724800Y-68298601D01*
G75*
G02*
X151874800Y-68448601I0J-150000D01*
G01*
X151874800Y-68748601D01*
G75*
G02*
X151724800Y-68898601I-150000J0D01*
G01*
X150274800Y-68898601D01*
G75*
G02*
X150124800Y-68748601I0J150000D01*
G01*
G37*
%TD.AperFunction*%
%TO.P,U3,4*%
%TO.N,Net-(U3-Pad4)*%
%TA.AperFunction,SMDPad,CuDef*%
G36*
G01*
X144974800Y-68748601D02*
X144974800Y-68448601D01*
G75*
G02*
X145124800Y-68298601I150000J0D01*
G01*
X146574800Y-68298601D01*
G75*
G02*
X146724800Y-68448601I0J-150000D01*
G01*
X146724800Y-68748601D01*
G75*
G02*
X146574800Y-68898601I-150000J0D01*
G01*
X145124800Y-68898601D01*
G75*
G02*
X144974800Y-68748601I0J150000D01*
G01*
G37*
%TD.AperFunction*%
%TO.P,U3,3*%
%TO.N,+5V*%
%TA.AperFunction,SMDPad,CuDef*%
G36*
G01*
X144974800Y-67478601D02*
X144974800Y-67178601D01*
G75*
G02*
X145124800Y-67028601I150000J0D01*
G01*
X146574800Y-67028601D01*
G75*
G02*
X146724800Y-67178601I0J-150000D01*
G01*
X146724800Y-67478601D01*
G75*
G02*
X146574800Y-67628601I-150000J0D01*
G01*
X145124800Y-67628601D01*
G75*
G02*
X144974800Y-67478601I0J150000D01*
G01*
G37*
%TD.AperFunction*%
%TO.P,U3,2*%
%TO.N,GND*%
%TA.AperFunction,SMDPad,CuDef*%
G36*
G01*
X144974800Y-66208601D02*
X144974800Y-65908601D01*
G75*
G02*
X145124800Y-65758601I150000J0D01*
G01*
X146574800Y-65758601D01*
G75*
G02*
X146724800Y-65908601I0J-150000D01*
G01*
X146724800Y-66208601D01*
G75*
G02*
X146574800Y-66358601I-150000J0D01*
G01*
X145124800Y-66358601D01*
G75*
G02*
X144974800Y-66208601I0J150000D01*
G01*
G37*
%TD.AperFunction*%
%TO.P,U3,1*%
%TO.N,Net-(J13-Pad1)*%
%TA.AperFunction,SMDPad,CuDef*%
G36*
G01*
X144974800Y-64938601D02*
X144974800Y-64638601D01*
G75*
G02*
X145124800Y-64488601I150000J0D01*
G01*
X146574800Y-64488601D01*
G75*
G02*
X146724800Y-64638601I0J-150000D01*
G01*
X146724800Y-64938601D01*
G75*
G02*
X146574800Y-65088601I-150000J0D01*
G01*
X145124800Y-65088601D01*
G75*
G02*
X144974800Y-64938601I0J150000D01*
G01*
G37*
%TD.AperFunction*%
%TD*%
%TO.P,C3,2*%
%TO.N,+5V*%
%TA.AperFunction,SMDPad,CuDef*%
G36*
G01*
X152795750Y-67199300D02*
X153708250Y-67199300D01*
G75*
G02*
X153952000Y-67443050I0J-243750D01*
G01*
X153952000Y-67930550D01*
G75*
G02*
X153708250Y-68174300I-243750J0D01*
G01*
X152795750Y-68174300D01*
G75*
G02*
X152552000Y-67930550I0J243750D01*
G01*
X152552000Y-67443050D01*
G75*
G02*
X152795750Y-67199300I243750J0D01*
G01*
G37*
%TD.AperFunction*%
%TO.P,C3,1*%
%TO.N,GND*%
%TA.AperFunction,SMDPad,CuDef*%
G36*
G01*
X152795750Y-65324300D02*
X153708250Y-65324300D01*
G75*
G02*
X153952000Y-65568050I0J-243750D01*
G01*
X153952000Y-66055550D01*
G75*
G02*
X153708250Y-66299300I-243750J0D01*
G01*
X152795750Y-66299300D01*
G75*
G02*
X152552000Y-66055550I0J243750D01*
G01*
X152552000Y-65568050D01*
G75*
G02*
X152795750Y-65324300I243750J0D01*
G01*
G37*
%TD.AperFunction*%
%TD*%
%TO.P,J11,1*%
%TO.N,Net-(F4-Pad2)*%
X154395000Y-83287000D03*
%TD*%
D11*
%TO.P,F3,2*%
%TO.N,Net-(F3-Pad2)*%
X150732000Y-56674000D03*
%TO.P,F3,1*%
%TO.N,Net-(F3-Pad1)*%
X145632000Y-55474000D03*
%TD*%
%TO.P,F2,1*%
%TO.N,Net-(F2-Pad1)*%
X125910000Y-55482000D03*
%TO.P,F2,2*%
%TO.N,Net-(F2-Pad2)*%
X131010000Y-56682000D03*
%TD*%
D10*
%TO.P,J1,1*%
%TO.N,Net-(F1-Pad2)*%
X134673000Y-83295000D03*
%TD*%
%TO.P,C2,1*%
%TO.N,GND*%
%TA.AperFunction,SMDPad,CuDef*%
G36*
G01*
X133073750Y-65332300D02*
X133986250Y-65332300D01*
G75*
G02*
X134230000Y-65576050I0J-243750D01*
G01*
X134230000Y-66063550D01*
G75*
G02*
X133986250Y-66307300I-243750J0D01*
G01*
X133073750Y-66307300D01*
G75*
G02*
X132830000Y-66063550I0J243750D01*
G01*
X132830000Y-65576050D01*
G75*
G02*
X133073750Y-65332300I243750J0D01*
G01*
G37*
%TD.AperFunction*%
%TO.P,C2,2*%
%TO.N,+5V*%
%TA.AperFunction,SMDPad,CuDef*%
G36*
G01*
X133073750Y-67207300D02*
X133986250Y-67207300D01*
G75*
G02*
X134230000Y-67451050I0J-243750D01*
G01*
X134230000Y-67938550D01*
G75*
G02*
X133986250Y-68182300I-243750J0D01*
G01*
X133073750Y-68182300D01*
G75*
G02*
X132830000Y-67938550I0J243750D01*
G01*
X132830000Y-67451050D01*
G75*
G02*
X133073750Y-67207300I243750J0D01*
G01*
G37*
%TD.AperFunction*%
%TD*%
%TO.P,U2,1*%
%TO.N,Net-(J6-Pad1)*%
%TA.AperFunction,SMDPad,CuDef*%
G36*
G01*
X125252800Y-64946601D02*
X125252800Y-64646601D01*
G75*
G02*
X125402800Y-64496601I150000J0D01*
G01*
X126852800Y-64496601D01*
G75*
G02*
X127002800Y-64646601I0J-150000D01*
G01*
X127002800Y-64946601D01*
G75*
G02*
X126852800Y-65096601I-150000J0D01*
G01*
X125402800Y-65096601D01*
G75*
G02*
X125252800Y-64946601I0J150000D01*
G01*
G37*
%TD.AperFunction*%
%TO.P,U2,2*%
%TO.N,GND*%
%TA.AperFunction,SMDPad,CuDef*%
G36*
G01*
X125252800Y-66216601D02*
X125252800Y-65916601D01*
G75*
G02*
X125402800Y-65766601I150000J0D01*
G01*
X126852800Y-65766601D01*
G75*
G02*
X127002800Y-65916601I0J-150000D01*
G01*
X127002800Y-66216601D01*
G75*
G02*
X126852800Y-66366601I-150000J0D01*
G01*
X125402800Y-66366601D01*
G75*
G02*
X125252800Y-66216601I0J150000D01*
G01*
G37*
%TD.AperFunction*%
%TO.P,U2,3*%
%TO.N,+5V*%
%TA.AperFunction,SMDPad,CuDef*%
G36*
G01*
X125252800Y-67486601D02*
X125252800Y-67186601D01*
G75*
G02*
X125402800Y-67036601I150000J0D01*
G01*
X126852800Y-67036601D01*
G75*
G02*
X127002800Y-67186601I0J-150000D01*
G01*
X127002800Y-67486601D01*
G75*
G02*
X126852800Y-67636601I-150000J0D01*
G01*
X125402800Y-67636601D01*
G75*
G02*
X125252800Y-67486601I0J150000D01*
G01*
G37*
%TD.AperFunction*%
%TO.P,U2,4*%
%TO.N,Net-(U2-Pad4)*%
%TA.AperFunction,SMDPad,CuDef*%
G36*
G01*
X125252800Y-68756601D02*
X125252800Y-68456601D01*
G75*
G02*
X125402800Y-68306601I150000J0D01*
G01*
X126852800Y-68306601D01*
G75*
G02*
X127002800Y-68456601I0J-150000D01*
G01*
X127002800Y-68756601D01*
G75*
G02*
X126852800Y-68906601I-150000J0D01*
G01*
X125402800Y-68906601D01*
G75*
G02*
X125252800Y-68756601I0J150000D01*
G01*
G37*
%TD.AperFunction*%
%TO.P,U2,5*%
%TO.N,A0*%
%TA.AperFunction,SMDPad,CuDef*%
G36*
G01*
X130402800Y-68756601D02*
X130402800Y-68456601D01*
G75*
G02*
X130552800Y-68306601I150000J0D01*
G01*
X132002800Y-68306601D01*
G75*
G02*
X132152800Y-68456601I0J-150000D01*
G01*
X132152800Y-68756601D01*
G75*
G02*
X132002800Y-68906601I-150000J0D01*
G01*
X130552800Y-68906601D01*
G75*
G02*
X130402800Y-68756601I0J150000D01*
G01*
G37*
%TD.AperFunction*%
%TO.P,U2,6*%
%TO.N,+5V*%
%TA.AperFunction,SMDPad,CuDef*%
G36*
G01*
X130402800Y-67486601D02*
X130402800Y-67186601D01*
G75*
G02*
X130552800Y-67036601I150000J0D01*
G01*
X132002800Y-67036601D01*
G75*
G02*
X132152800Y-67186601I0J-150000D01*
G01*
X132152800Y-67486601D01*
G75*
G02*
X132002800Y-67636601I-150000J0D01*
G01*
X130552800Y-67636601D01*
G75*
G02*
X130402800Y-67486601I0J150000D01*
G01*
G37*
%TD.AperFunction*%
%TO.P,U2,7*%
%TO.N,GND*%
%TA.AperFunction,SMDPad,CuDef*%
G36*
G01*
X130402800Y-66216601D02*
X130402800Y-65916601D01*
G75*
G02*
X130552800Y-65766601I150000J0D01*
G01*
X132002800Y-65766601D01*
G75*
G02*
X132152800Y-65916601I0J-150000D01*
G01*
X132152800Y-66216601D01*
G75*
G02*
X132002800Y-66366601I-150000J0D01*
G01*
X130552800Y-66366601D01*
G75*
G02*
X130402800Y-66216601I0J150000D01*
G01*
G37*
%TD.AperFunction*%
%TO.P,U2,8*%
%TO.N,Net-(J8-Pad1)*%
%TA.AperFunction,SMDPad,CuDef*%
G36*
G01*
X130402800Y-64946601D02*
X130402800Y-64646601D01*
G75*
G02*
X130552800Y-64496601I150000J0D01*
G01*
X132002800Y-64496601D01*
G75*
G02*
X132152800Y-64646601I0J-150000D01*
G01*
X132152800Y-64946601D01*
G75*
G02*
X132002800Y-65096601I-150000J0D01*
G01*
X130552800Y-65096601D01*
G75*
G02*
X130402800Y-64946601I0J150000D01*
G01*
G37*
%TD.AperFunction*%
%TD*%
%TO.P,J2,1*%
%TO.N,Net-(F1-Pad1)*%
X123243000Y-83295000D03*
%TD*%
%TO.P,J7,1*%
%TO.N,Net-(J7-Pad1)*%
X122914000Y-77690000D03*
%TD*%
%TO.P,J6,1*%
%TO.N,Net-(J6-Pad1)*%
X122914000Y-61434000D03*
%TD*%
D11*
%TO.P,F1,2*%
%TO.N,Net-(F1-Pad2)*%
X131391000Y-83860000D03*
%TO.P,F1,1*%
%TO.N,Net-(F1-Pad1)*%
X126291000Y-82660000D03*
%TD*%
D10*
%TO.P,J8,1*%
%TO.N,Net-(J8-Pad1)*%
X134344000Y-61434000D03*
%TD*%
%TO.P,J5,1*%
%TO.N,Net-(J5-Pad1)*%
X134344000Y-77690000D03*
%TD*%
%TO.P,J4,1*%
%TO.N,Net-(F2-Pad1)*%
X122608000Y-55990000D03*
%TD*%
%TO.P,R2,1*%
%TO.N,Net-(J8-Pad1)*%
%TA.AperFunction,SMDPad,CuDef*%
G36*
G01*
X132202800Y-60127599D02*
X132202800Y-62977601D01*
G75*
G02*
X131952801Y-63227600I-249999J0D01*
G01*
X131102799Y-63227600D01*
G75*
G02*
X130852800Y-62977601I0J249999D01*
G01*
X130852800Y-60127599D01*
G75*
G02*
X131102799Y-59877600I249999J0D01*
G01*
X131952801Y-59877600D01*
G75*
G02*
X132202800Y-60127599I0J-249999D01*
G01*
G37*
%TD.AperFunction*%
%TO.P,R2,2*%
%TO.N,Net-(J6-Pad1)*%
%TA.AperFunction,SMDPad,CuDef*%
G36*
G01*
X126402800Y-60127599D02*
X126402800Y-62977601D01*
G75*
G02*
X126152801Y-63227600I-249999J0D01*
G01*
X125302799Y-63227600D01*
G75*
G02*
X125052800Y-62977601I0J249999D01*
G01*
X125052800Y-60127599D01*
G75*
G02*
X125302799Y-59877600I249999J0D01*
G01*
X126152801Y-59877600D01*
G75*
G02*
X126402800Y-60127599I0J-249999D01*
G01*
G37*
%TD.AperFunction*%
%TD*%
%TO.P,J3,1*%
%TO.N,Net-(F2-Pad2)*%
X134038000Y-55990000D03*
%TD*%
%TO.P,R1,1*%
%TO.N,Net-(J7-Pad1)*%
%TA.AperFunction,SMDPad,CuDef*%
G36*
G01*
X125078200Y-79157401D02*
X125078200Y-76307399D01*
G75*
G02*
X125328199Y-76057400I249999J0D01*
G01*
X126178201Y-76057400D01*
G75*
G02*
X126428200Y-76307399I0J-249999D01*
G01*
X126428200Y-79157401D01*
G75*
G02*
X126178201Y-79407400I-249999J0D01*
G01*
X125328199Y-79407400D01*
G75*
G02*
X125078200Y-79157401I0J249999D01*
G01*
G37*
%TD.AperFunction*%
%TO.P,R1,2*%
%TO.N,Net-(J5-Pad1)*%
%TA.AperFunction,SMDPad,CuDef*%
G36*
G01*
X130878200Y-79157401D02*
X130878200Y-76307399D01*
G75*
G02*
X131128199Y-76057400I249999J0D01*
G01*
X131978201Y-76057400D01*
G75*
G02*
X132228200Y-76307399I0J-249999D01*
G01*
X132228200Y-79157401D01*
G75*
G02*
X131978201Y-79407400I-249999J0D01*
G01*
X131128199Y-79407400D01*
G75*
G02*
X130878200Y-79157401I0J249999D01*
G01*
G37*
%TD.AperFunction*%
%TD*%
%TO.P,C1,2*%
%TO.N,+5V*%
%TA.AperFunction,SMDPad,CuDef*%
G36*
G01*
X124207250Y-72098500D02*
X123294750Y-72098500D01*
G75*
G02*
X123051000Y-71854750I0J243750D01*
G01*
X123051000Y-71367250D01*
G75*
G02*
X123294750Y-71123500I243750J0D01*
G01*
X124207250Y-71123500D01*
G75*
G02*
X124451000Y-71367250I0J-243750D01*
G01*
X124451000Y-71854750D01*
G75*
G02*
X124207250Y-72098500I-243750J0D01*
G01*
G37*
%TD.AperFunction*%
%TO.P,C1,1*%
%TO.N,GND*%
%TA.AperFunction,SMDPad,CuDef*%
G36*
G01*
X124207250Y-73973500D02*
X123294750Y-73973500D01*
G75*
G02*
X123051000Y-73729750I0J243750D01*
G01*
X123051000Y-73242250D01*
G75*
G02*
X123294750Y-72998500I243750J0D01*
G01*
X124207250Y-72998500D01*
G75*
G02*
X124451000Y-73242250I0J-243750D01*
G01*
X124451000Y-73729750D01*
G75*
G02*
X124207250Y-73973500I-243750J0D01*
G01*
G37*
%TD.AperFunction*%
%TD*%
%TO.P,U1,1*%
%TO.N,Net-(J5-Pad1)*%
%TA.AperFunction,SMDPad,CuDef*%
G36*
G01*
X132028200Y-74338399D02*
X132028200Y-74638399D01*
G75*
G02*
X131878200Y-74788399I-150000J0D01*
G01*
X130428200Y-74788399D01*
G75*
G02*
X130278200Y-74638399I0J150000D01*
G01*
X130278200Y-74338399D01*
G75*
G02*
X130428200Y-74188399I150000J0D01*
G01*
X131878200Y-74188399D01*
G75*
G02*
X132028200Y-74338399I0J-150000D01*
G01*
G37*
%TD.AperFunction*%
%TO.P,U1,2*%
%TO.N,GND*%
%TA.AperFunction,SMDPad,CuDef*%
G36*
G01*
X132028200Y-73068399D02*
X132028200Y-73368399D01*
G75*
G02*
X131878200Y-73518399I-150000J0D01*
G01*
X130428200Y-73518399D01*
G75*
G02*
X130278200Y-73368399I0J150000D01*
G01*
X130278200Y-73068399D01*
G75*
G02*
X130428200Y-72918399I150000J0D01*
G01*
X131878200Y-72918399D01*
G75*
G02*
X132028200Y-73068399I0J-150000D01*
G01*
G37*
%TD.AperFunction*%
%TO.P,U1,3*%
%TO.N,+5V*%
%TA.AperFunction,SMDPad,CuDef*%
G36*
G01*
X132028200Y-71798399D02*
X132028200Y-72098399D01*
G75*
G02*
X131878200Y-72248399I-150000J0D01*
G01*
X130428200Y-72248399D01*
G75*
G02*
X130278200Y-72098399I0J150000D01*
G01*
X130278200Y-71798399D01*
G75*
G02*
X130428200Y-71648399I150000J0D01*
G01*
X131878200Y-71648399D01*
G75*
G02*
X132028200Y-71798399I0J-150000D01*
G01*
G37*
%TD.AperFunction*%
%TO.P,U1,4*%
%TO.N,Net-(U1-Pad4)*%
%TA.AperFunction,SMDPad,CuDef*%
G36*
G01*
X132028200Y-70528399D02*
X132028200Y-70828399D01*
G75*
G02*
X131878200Y-70978399I-150000J0D01*
G01*
X130428200Y-70978399D01*
G75*
G02*
X130278200Y-70828399I0J150000D01*
G01*
X130278200Y-70528399D01*
G75*
G02*
X130428200Y-70378399I150000J0D01*
G01*
X131878200Y-70378399D01*
G75*
G02*
X132028200Y-70528399I0J-150000D01*
G01*
G37*
%TD.AperFunction*%
%TO.P,U1,5*%
%TO.N,A3*%
%TA.AperFunction,SMDPad,CuDef*%
G36*
G01*
X126878200Y-70528399D02*
X126878200Y-70828399D01*
G75*
G02*
X126728200Y-70978399I-150000J0D01*
G01*
X125278200Y-70978399D01*
G75*
G02*
X125128200Y-70828399I0J150000D01*
G01*
X125128200Y-70528399D01*
G75*
G02*
X125278200Y-70378399I150000J0D01*
G01*
X126728200Y-70378399D01*
G75*
G02*
X126878200Y-70528399I0J-150000D01*
G01*
G37*
%TD.AperFunction*%
%TO.P,U1,6*%
%TO.N,+5V*%
%TA.AperFunction,SMDPad,CuDef*%
G36*
G01*
X126878200Y-71798399D02*
X126878200Y-72098399D01*
G75*
G02*
X126728200Y-72248399I-150000J0D01*
G01*
X125278200Y-72248399D01*
G75*
G02*
X125128200Y-72098399I0J150000D01*
G01*
X125128200Y-71798399D01*
G75*
G02*
X125278200Y-71648399I150000J0D01*
G01*
X126728200Y-71648399D01*
G75*
G02*
X126878200Y-71798399I0J-150000D01*
G01*
G37*
%TD.AperFunction*%
%TO.P,U1,7*%
%TO.N,GND*%
%TA.AperFunction,SMDPad,CuDef*%
G36*
G01*
X126878200Y-73068399D02*
X126878200Y-73368399D01*
G75*
G02*
X126728200Y-73518399I-150000J0D01*
G01*
X125278200Y-73518399D01*
G75*
G02*
X125128200Y-73368399I0J150000D01*
G01*
X125128200Y-73068399D01*
G75*
G02*
X125278200Y-72918399I150000J0D01*
G01*
X126728200Y-72918399D01*
G75*
G02*
X126878200Y-73068399I0J-150000D01*
G01*
G37*
%TD.AperFunction*%
%TO.P,U1,8*%
%TO.N,Net-(J7-Pad1)*%
%TA.AperFunction,SMDPad,CuDef*%
G36*
G01*
X126878200Y-74338399D02*
X126878200Y-74638399D01*
G75*
G02*
X126728200Y-74788399I-150000J0D01*
G01*
X125278200Y-74788399D01*
G75*
G02*
X125128200Y-74638399I0J150000D01*
G01*
X125128200Y-74338399D01*
G75*
G02*
X125278200Y-74188399I150000J0D01*
G01*
X126728200Y-74188399D01*
G75*
G02*
X126878200Y-74338399I0J-150000D01*
G01*
G37*
%TD.AperFunction*%
%TD*%
D12*
%TO.P,J17,1*%
%TO.N,A0*%
X109960000Y-58640000D03*
D13*
%TO.P,J17,2*%
%TO.N,I_sense_2*%
X112500000Y-58640000D03*
%TO.P,J17,3*%
%TO.N,A1*%
X109960000Y-61180000D03*
%TO.P,J17,4*%
%TO.N,T_sense2*%
X112500000Y-61180000D03*
%TO.P,J17,5*%
%TO.N,A2*%
X109960000Y-63720000D03*
%TO.P,J17,6*%
%TO.N,+3V3*%
X112500000Y-63720000D03*
%TO.P,J17,7*%
%TO.N,A3*%
X109960000Y-66260000D03*
%TO.P,J17,8*%
%TO.N,SDA*%
X112500000Y-66260000D03*
%TO.P,J17,9*%
%TO.N,A4*%
X109960000Y-68800000D03*
%TO.P,J17,10*%
%TO.N,SCL*%
X112500000Y-68800000D03*
%TO.P,J17,11*%
%TO.N,D0*%
X109960000Y-71340000D03*
%TO.P,J17,12*%
%TO.N,I_sense_1*%
X112500000Y-71340000D03*
%TO.P,J17,13*%
%TO.N,D1*%
X109960000Y-73880000D03*
%TO.P,J17,14*%
%TO.N,T_sense1*%
X112500000Y-73880000D03*
%TO.P,J17,15*%
%TO.N,D2*%
X109960000Y-76420000D03*
%TO.P,J17,16*%
%TO.N,D3*%
X112500000Y-76420000D03*
%TO.P,J17,17*%
%TO.N,PWM0*%
X109960000Y-78960000D03*
%TO.P,J17,18*%
%TO.N,+5V*%
X112500000Y-78960000D03*
%TO.P,J17,19*%
%TO.N,PWM1*%
X109960000Y-81500000D03*
%TO.P,J17,20*%
%TO.N,GND*%
X112500000Y-81500000D03*
%TD*%
%TO.P,J18,20*%
%TO.N,Net-(J18-Pad20)*%
X163300000Y-81500000D03*
%TO.P,J18,19*%
%TO.N,Net-(J18-Pad19)*%
X160760000Y-81500000D03*
%TO.P,J18,18*%
%TO.N,Net-(J18-Pad18)*%
X163300000Y-78960000D03*
%TO.P,J18,17*%
%TO.N,Net-(J18-Pad17)*%
X160760000Y-78960000D03*
%TO.P,J18,16*%
%TO.N,Net-(J18-Pad16)*%
X163300000Y-76420000D03*
%TO.P,J18,15*%
%TO.N,Net-(J18-Pad15)*%
X160760000Y-76420000D03*
%TO.P,J18,14*%
%TO.N,Net-(J18-Pad14)*%
X163300000Y-73880000D03*
%TO.P,J18,13*%
%TO.N,Net-(J18-Pad13)*%
X160760000Y-73880000D03*
%TO.P,J18,12*%
%TO.N,Net-(J18-Pad12)*%
X163300000Y-71340000D03*
%TO.P,J18,11*%
%TO.N,Net-(J18-Pad11)*%
X160760000Y-71340000D03*
%TO.P,J18,10*%
%TO.N,Net-(J18-Pad10)*%
X163300000Y-68800000D03*
%TO.P,J18,9*%
%TO.N,Net-(J18-Pad9)*%
X160760000Y-68800000D03*
%TO.P,J18,8*%
%TO.N,Net-(J18-Pad8)*%
X163300000Y-66260000D03*
%TO.P,J18,7*%
%TO.N,Net-(J18-Pad7)*%
X160760000Y-66260000D03*
%TO.P,J18,6*%
%TO.N,Net-(J18-Pad6)*%
X163300000Y-63720000D03*
%TO.P,J18,5*%
%TO.N,Net-(J18-Pad5)*%
X160760000Y-63720000D03*
%TO.P,J18,4*%
%TO.N,Net-(J18-Pad4)*%
X163300000Y-61180000D03*
%TO.P,J18,3*%
%TO.N,Net-(J18-Pad3)*%
X160760000Y-61180000D03*
%TO.P,J18,2*%
%TO.N,Net-(J18-Pad2)*%
X163300000Y-58640000D03*
D12*
%TO.P,J18,1*%
%TO.N,Net-(J18-Pad1)*%
X160760000Y-58640000D03*
%TD*%
D14*
%TO.N,GND*%
X128756000Y-73118000D03*
X128756000Y-66006000D03*
X148568000Y-73118000D03*
X148568000Y-66006000D03*
%TO.N,A0*%
X129593000Y-68563000D03*
X121390000Y-64990000D03*
X116564000Y-64990000D03*
%TO.N,A1*%
X149315000Y-68555000D03*
X121390000Y-66260000D03*
X116564000Y-66260000D03*
%TO.N,A2*%
X144616795Y-69562000D03*
X121390000Y-67530000D03*
X116564000Y-67530000D03*
%TO.N,A3*%
X124780000Y-69562000D03*
X121390000Y-68800000D03*
X116564000Y-68800000D03*
%TD*%
D15*
%TO.N,GND*%
X133283199Y-66066601D02*
X133530000Y-65819800D01*
X143213399Y-73218399D02*
X143473000Y-73478000D01*
X133768801Y-66058601D02*
X133530000Y-65819800D01*
X131052801Y-73118000D02*
X131153200Y-73218399D01*
X128756000Y-73118000D02*
X131052801Y-73118000D01*
X124018601Y-73218399D02*
X126003200Y-73218399D01*
X123751000Y-73486000D02*
X124018601Y-73218399D01*
X128756000Y-73118000D02*
X128655601Y-73218399D01*
X128655601Y-73218399D02*
X126203998Y-73218399D01*
X128695399Y-66066601D02*
X128756000Y-66006000D01*
X126127800Y-66066601D02*
X128695399Y-66066601D01*
X131217199Y-66006000D02*
X131277800Y-66066601D01*
X128756000Y-66006000D02*
X131217199Y-66006000D01*
X133530000Y-65819800D02*
X133343800Y-66006000D01*
X131338401Y-66006000D02*
X131277800Y-66066601D01*
X133343800Y-66006000D02*
X131338401Y-66006000D01*
X150782801Y-73118000D02*
X150875200Y-73210399D01*
X148568000Y-73118000D02*
X150782801Y-73118000D01*
X145817599Y-73118000D02*
X145725200Y-73210399D01*
X148568000Y-73118000D02*
X145817599Y-73118000D01*
X143833000Y-73118000D02*
X143473000Y-73478000D01*
X145725200Y-73210399D02*
X145632801Y-73118000D01*
X145632801Y-73118000D02*
X143833000Y-73118000D01*
X150947199Y-66006000D02*
X150999800Y-66058601D01*
X148568000Y-66006000D02*
X150947199Y-66006000D01*
X145902401Y-66006000D02*
X145849800Y-66058601D01*
X148568000Y-66006000D02*
X145902401Y-66006000D01*
X153005199Y-66058601D02*
X153252000Y-65811800D01*
X150999800Y-66058601D02*
X153005199Y-66058601D01*
%TO.N,+5V*%
X145732399Y-71933200D02*
X145725200Y-71940399D01*
X145725200Y-71940399D02*
X143810399Y-71940399D01*
X145958599Y-67437400D02*
X145849800Y-67328601D01*
X148400600Y-71933200D02*
X145732399Y-71933200D01*
X150868001Y-71933200D02*
X150875200Y-71940399D01*
X148400600Y-71933200D02*
X150868001Y-71933200D01*
X150891001Y-67437400D02*
X150999800Y-67328601D01*
X128678600Y-71941200D02*
X131146001Y-71941200D01*
X131146001Y-71941200D02*
X131153200Y-71948399D01*
X128678600Y-71941200D02*
X126010399Y-71941200D01*
X126010399Y-71941200D02*
X126003200Y-71948399D01*
X133530000Y-70446599D02*
X133530000Y-67694800D01*
X132028200Y-71948399D02*
X133530000Y-70446599D01*
X131153200Y-71948399D02*
X132028200Y-71948399D01*
X153252000Y-70438599D02*
X153252000Y-67686800D01*
X151750200Y-71940399D02*
X153252000Y-70438599D01*
X150875200Y-71940399D02*
X151750200Y-71940399D01*
X123751000Y-68838401D02*
X123751000Y-71611000D01*
X125252800Y-67336601D02*
X123751000Y-68838401D01*
X126127800Y-67336601D02*
X125252800Y-67336601D01*
X123988000Y-71848000D02*
X123751000Y-71611000D01*
X126003200Y-71948399D02*
X125902801Y-71848000D01*
X125902801Y-71848000D02*
X123988000Y-71848000D01*
X126127800Y-67336601D02*
X131277800Y-67336601D01*
X145849800Y-67328601D02*
X150999800Y-67328601D01*
X152893801Y-67328601D02*
X153252000Y-67686800D01*
X150999800Y-67328601D02*
X152893801Y-67328601D01*
X114112000Y-73880000D02*
X116381000Y-71611000D01*
X114112000Y-77436000D02*
X114112000Y-73880000D01*
X112500000Y-78960000D02*
X112588000Y-78960000D01*
X112588000Y-78960000D02*
X114112000Y-77436000D01*
X116381000Y-71611000D02*
X123751000Y-71611000D01*
X133171801Y-67336601D02*
X133530000Y-67694800D01*
X131277800Y-67336601D02*
X133171801Y-67336601D01*
X143473000Y-71603000D02*
X141777000Y-71603000D01*
X137868800Y-67694800D02*
X133530000Y-67694800D01*
X141777000Y-71603000D02*
X137868800Y-67694800D01*
D16*
%TO.N,SCL*%
X113010000Y-68690000D02*
X112540000Y-69160000D01*
D17*
%TO.N,Net-(F1-Pad1)*%
X123935000Y-82603000D02*
X123243000Y-83295000D01*
X126271000Y-82603000D02*
X123935000Y-82603000D01*
%TO.N,Net-(F1-Pad2)*%
X134673000Y-83295000D02*
X131879000Y-83295000D01*
D16*
%TO.N,A0*%
X129593000Y-68563000D02*
X131234199Y-68563000D01*
X131234199Y-68563000D02*
X131277800Y-68606601D01*
X116564000Y-64990000D02*
X121390000Y-64990000D01*
%TO.N,A1*%
X150956199Y-68555000D02*
X150999800Y-68598601D01*
X149315000Y-68555000D02*
X150956199Y-68555000D01*
X116564000Y-66260000D02*
X121390000Y-66260000D01*
%TO.N,A2*%
X144616801Y-69562000D02*
X144616795Y-69562000D01*
X145725200Y-70670399D02*
X144616801Y-69562000D01*
X116564000Y-67530000D02*
X121390000Y-67530000D01*
%TO.N,A3*%
X124886801Y-69562000D02*
X126003200Y-70678399D01*
X124780000Y-69562000D02*
X124886801Y-69562000D01*
X116564000Y-68800000D02*
X121390000Y-68800000D01*
D15*
%TO.N,Net-(J5-Pad1)*%
X131553200Y-74888399D02*
X131153200Y-74488399D01*
X131553200Y-77732400D02*
X131553200Y-74888399D01*
D17*
X134344000Y-77690000D02*
X131595600Y-77690000D01*
%TO.N,Net-(F2-Pad1)*%
X122608000Y-55990000D02*
X125402000Y-55990000D01*
%TO.N,Net-(F2-Pad2)*%
X133346000Y-56682000D02*
X134038000Y-55990000D01*
X131010000Y-56682000D02*
X133346000Y-56682000D01*
%TO.N,Net-(F3-Pad2)*%
X150732000Y-56674000D02*
X153068000Y-56674000D01*
X153068000Y-56674000D02*
X153760000Y-55982000D01*
%TO.N,Net-(F3-Pad1)*%
X142330000Y-55982000D02*
X145124000Y-55982000D01*
%TO.N,Net-(F4-Pad1)*%
X143657000Y-82595000D02*
X142965000Y-83287000D01*
X145993000Y-82595000D02*
X143657000Y-82595000D01*
%TO.N,Net-(F4-Pad2)*%
X154395000Y-83287000D02*
X151601000Y-83287000D01*
D15*
%TO.N,Net-(J13-Pad1)*%
X145449800Y-61544600D02*
X145449800Y-64388601D01*
X145449800Y-64388601D02*
X145849800Y-64788601D01*
D17*
X142472000Y-61434000D02*
X145339200Y-61434000D01*
D15*
%TO.N,Net-(J14-Pad1)*%
X150854000Y-74501599D02*
X150875200Y-74480399D01*
X151275200Y-77724400D02*
X150854000Y-77303200D01*
X150854000Y-77303200D02*
X150854000Y-74501599D01*
D17*
X154156000Y-77690000D02*
X151248400Y-77690000D01*
D15*
%TO.N,Net-(J15-Pad1)*%
X151249800Y-64538601D02*
X150999800Y-64788601D01*
X151249800Y-61544600D02*
X151249800Y-64538601D01*
D17*
X154156000Y-61434000D02*
X151360400Y-61434000D01*
D15*
%TO.N,Net-(J16-Pad1)*%
X145475200Y-77724400D02*
X145475200Y-74730399D01*
X145475200Y-74730399D02*
X145725200Y-74480399D01*
D17*
X142472000Y-77690000D02*
X145379600Y-77690000D01*
D15*
%TO.N,Net-(J6-Pad1)*%
X125727800Y-64396601D02*
X126127800Y-64796601D01*
X125727800Y-61552600D02*
X125727800Y-64396601D01*
D17*
X122914000Y-61434000D02*
X125609200Y-61434000D01*
D15*
%TO.N,Net-(J7-Pad1)*%
X125753200Y-74738399D02*
X126003200Y-74488399D01*
X125753200Y-77732400D02*
X125753200Y-74738399D01*
D17*
X122914000Y-77690000D02*
X125710800Y-77690000D01*
D15*
%TO.N,Net-(J8-Pad1)*%
X131527800Y-61552600D02*
X131527800Y-64546601D01*
X131527800Y-64546601D02*
X131277800Y-64796601D01*
D17*
X134344000Y-61434000D02*
X131646400Y-61434000D01*
%TD*%
M02*
