%TF.GenerationSoftware,KiCad,Pcbnew,(5.1.6)-1*%
%TF.CreationDate,2020-06-17T00:15:46+01:00*%
%TF.ProjectId,Arduino_Nano_shield,41726475-696e-46f5-9f4e-616e6f5f7368,rev?*%
%TF.SameCoordinates,Original*%
%TF.FileFunction,Copper,L2,Bot*%
%TF.FilePolarity,Positive*%
%FSLAX46Y46*%
G04 Gerber Fmt 4.6, Leading zero omitted, Abs format (unit mm)*
G04 Created by KiCad (PCBNEW (5.1.6)-1) date 2020-06-17 00:15:46*
%MOMM*%
%LPD*%
G01*
G04 APERTURE LIST*
%TA.AperFunction,ComponentPad*%
%ADD10R,1.700000X1.700000*%
%TD*%
%TA.AperFunction,ComponentPad*%
%ADD11O,1.700000X1.700000*%
%TD*%
%TA.AperFunction,ComponentPad*%
%ADD12C,1.727200*%
%TD*%
%TA.AperFunction,ComponentPad*%
%ADD13R,1.727200X1.727200*%
%TD*%
%TA.AperFunction,ViaPad*%
%ADD14C,0.800000*%
%TD*%
%TA.AperFunction,Conductor*%
%ADD15C,0.250000*%
%TD*%
%TA.AperFunction,Conductor*%
%ADD16C,0.254000*%
%TD*%
G04 APERTURE END LIST*
D10*
%TO.P,J1,1*%
%TO.N,A0*%
X96520000Y-48260000D03*
D11*
%TO.P,J1,2*%
%TO.N,I_sense_2*%
X99060000Y-48260000D03*
%TO.P,J1,3*%
%TO.N,A1*%
X96520000Y-50800000D03*
%TO.P,J1,4*%
%TO.N,T_sense2*%
X99060000Y-50800000D03*
%TO.P,J1,5*%
%TO.N,A2*%
X96520000Y-53340000D03*
%TO.P,J1,6*%
%TO.N,+3V3*%
X99060000Y-53340000D03*
%TO.P,J1,7*%
%TO.N,A3*%
X96520000Y-55880000D03*
%TO.P,J1,8*%
%TO.N,SDA*%
X99060000Y-55880000D03*
%TO.P,J1,9*%
%TO.N,A4*%
X96520000Y-58420000D03*
%TO.P,J1,10*%
%TO.N,SCL*%
X99060000Y-58420000D03*
%TO.P,J1,11*%
%TO.N,D0*%
X96520000Y-60960000D03*
%TO.P,J1,12*%
%TO.N,I_sense_1*%
X99060000Y-60960000D03*
%TO.P,J1,13*%
%TO.N,D1*%
X96520000Y-63500000D03*
%TO.P,J1,14*%
%TO.N,T_sense1*%
X99060000Y-63500000D03*
%TO.P,J1,15*%
%TO.N,D2*%
X96520000Y-66040000D03*
%TO.P,J1,16*%
%TO.N,D3*%
X99060000Y-66040000D03*
%TO.P,J1,17*%
%TO.N,PWM0*%
X96520000Y-68580000D03*
%TO.P,J1,18*%
%TO.N,+5V*%
X99060000Y-68580000D03*
%TO.P,J1,19*%
%TO.N,PWM1*%
X96520000Y-71120000D03*
%TO.P,J1,20*%
%TO.N,GND*%
X99060000Y-71120000D03*
%TD*%
%TO.P,J2,20*%
%TO.N,Net-(J2-Pad20)*%
X149860000Y-71120000D03*
%TO.P,J2,19*%
%TO.N,D13*%
X147320000Y-71120000D03*
%TO.P,J2,18*%
%TO.N,Net-(J2-Pad18)*%
X149860000Y-68580000D03*
%TO.P,J2,17*%
%TO.N,D12*%
X147320000Y-68580000D03*
%TO.P,J2,16*%
%TO.N,Net-(J2-Pad16)*%
X149860000Y-66040000D03*
%TO.P,J2,15*%
%TO.N,PWM5*%
X147320000Y-66040000D03*
%TO.P,J2,14*%
%TO.N,Net-(J2-Pad14)*%
X149860000Y-63500000D03*
%TO.P,J2,13*%
%TO.N,PWM4*%
X147320000Y-63500000D03*
%TO.P,J2,12*%
%TO.N,Net-(J2-Pad12)*%
X149860000Y-60960000D03*
%TO.P,J2,11*%
%TO.N,PWM3*%
X147320000Y-60960000D03*
%TO.P,J2,10*%
%TO.N,Net-(J2-Pad10)*%
X149860000Y-58420000D03*
%TO.P,J2,9*%
%TO.N,D8*%
X147320000Y-58420000D03*
%TO.P,J2,8*%
%TO.N,Net-(J2-Pad8)*%
X149860000Y-55880000D03*
%TO.P,J2,7*%
%TO.N,D7*%
X147320000Y-55880000D03*
%TO.P,J2,6*%
%TO.N,Net-(J2-Pad6)*%
X149860000Y-53340000D03*
%TO.P,J2,5*%
%TO.N,PWM2*%
X147320000Y-53340000D03*
%TO.P,J2,4*%
%TO.N,Net-(J2-Pad4)*%
X149860000Y-50800000D03*
%TO.P,J2,3*%
%TO.N,D4*%
X147320000Y-50800000D03*
%TO.P,J2,2*%
%TO.N,Net-(J2-Pad2)*%
X149860000Y-48260000D03*
D10*
%TO.P,J2,1*%
%TO.N,Net-(J2-Pad1)*%
X147320000Y-48260000D03*
%TD*%
D12*
%TO.P,XA2,VIN*%
%TO.N,Net-(XA2-PadVIN)*%
X104150000Y-76640000D03*
%TO.P,XA2,GND2*%
%TO.N,GND*%
X106690000Y-76640000D03*
%TO.P,XA2,RST2*%
%TO.N,Net-(XA2-PadRST2)*%
X109230000Y-76640000D03*
%TO.P,XA2,5V*%
%TO.N,+5V*%
X111770000Y-76640000D03*
%TO.P,XA2,A7*%
%TO.N,T_sense2*%
X114310000Y-76640000D03*
%TO.P,XA2,A6*%
%TO.N,I_sense_2*%
X116850000Y-76640000D03*
%TO.P,XA2,A5*%
%TO.N,SCL*%
X119390000Y-76640000D03*
%TO.P,XA2,A4*%
%TO.N,SDA*%
X121930000Y-76640000D03*
%TO.P,XA2,A3*%
%TO.N,T_sense1*%
X124470000Y-76640000D03*
%TO.P,XA2,A2*%
%TO.N,I_sense_1*%
X127010000Y-76640000D03*
%TO.P,XA2,A1*%
%TO.N,A1*%
X129550000Y-76640000D03*
%TO.P,XA2,A0*%
%TO.N,A0*%
X132090000Y-76640000D03*
%TO.P,XA2,AREF*%
%TO.N,Net-(XA2-PadAREF)*%
X134630000Y-76640000D03*
%TO.P,XA2,3V3*%
%TO.N,+3V3*%
X137170000Y-76640000D03*
%TO.P,XA2,D13*%
%TO.N,D13*%
X139710000Y-76640000D03*
%TO.P,XA2,D12*%
%TO.N,D12*%
X139710000Y-91880000D03*
%TO.P,XA2,D11*%
%TO.N,PWM5*%
X137170000Y-91880000D03*
%TO.P,XA2,D10*%
%TO.N,PWM4*%
X134630000Y-91880000D03*
%TO.P,XA2,D9*%
%TO.N,PWM3*%
X132090000Y-91880000D03*
%TO.P,XA2,D8*%
%TO.N,D8*%
X129550000Y-91880000D03*
%TO.P,XA2,D7*%
%TO.N,D7*%
X127010000Y-91880000D03*
%TO.P,XA2,D6*%
%TO.N,PWM2*%
X124470000Y-91880000D03*
%TO.P,XA2,D5*%
%TO.N,PWM1*%
X121930000Y-91880000D03*
%TO.P,XA2,D4*%
%TO.N,D4*%
X119390000Y-91880000D03*
%TO.P,XA2,D3*%
%TO.N,PWM0*%
X116850000Y-91880000D03*
%TO.P,XA2,D2*%
%TO.N,D2*%
X114310000Y-91880000D03*
%TO.P,XA2,GND1*%
%TO.N,GND*%
X111770000Y-91880000D03*
%TO.P,XA2,RST1*%
%TO.N,Net-(XA2-PadRST1)*%
X109230000Y-91880000D03*
%TO.P,XA2,D0*%
%TO.N,D0*%
X106690000Y-91880000D03*
D13*
%TO.P,XA2,D1*%
%TO.N,D1*%
X104150000Y-91880000D03*
%TD*%
D14*
%TO.N,I_sense_2*%
X116833000Y-59716000D03*
%TO.N,T_sense2*%
X102863000Y-50800000D03*
X114310000Y-62400000D03*
X106546000Y-54509000D03*
%TO.N,D0*%
X95020000Y-67260000D03*
X96520000Y-80260000D03*
%TO.N,I_sense_1*%
X108882800Y-61468600D03*
%TO.N,D1*%
X95520000Y-81260000D03*
%TO.N,T_sense1*%
X111457600Y-63627600D03*
%TO.N,D2*%
X97520000Y-79260000D03*
%TO.N,PWM0*%
X99020000Y-80260000D03*
X99020000Y-75260000D03*
%TO.N,PWM1*%
X121930000Y-88350000D03*
X117110000Y-88350000D03*
%TO.N,PWM5*%
X138423000Y-79782000D03*
X139705700Y-73317700D03*
%TO.N,PWM4*%
X135883000Y-79782000D03*
X137165700Y-73063700D03*
%TO.N,PWM3*%
X133216000Y-79401000D03*
X134752700Y-72936700D03*
%TO.N,D8*%
X130676000Y-79147000D03*
X132085700Y-72936700D03*
%TO.N,D7*%
X125697600Y-78842200D03*
X125697600Y-63449800D03*
%TO.N,PWM2*%
X123020000Y-78760000D03*
X123118601Y-61858601D03*
%TO.N,D4*%
X120541400Y-78842200D03*
X120520000Y-60760000D03*
%TD*%
D15*
%TO.N,I_sense_2*%
X116850000Y-76640000D02*
X116850000Y-59733000D01*
%TO.N,T_sense2*%
X114310000Y-63050000D02*
X114310000Y-76640000D01*
X114310000Y-63050000D02*
X114310000Y-62400000D01*
X114310000Y-62400000D02*
X114310000Y-62400000D01*
X102863000Y-50826000D02*
X102863000Y-50800000D01*
X106546000Y-54509000D02*
X102863000Y-50826000D01*
%TO.N,D0*%
X96570000Y-75260000D02*
X94520000Y-73210000D01*
X94520000Y-73210000D02*
X94520000Y-67760000D01*
X94520000Y-67760000D02*
X95020000Y-67260000D01*
X96570000Y-80210000D02*
X96520000Y-80260000D01*
X96570000Y-75260000D02*
X96570000Y-80210000D01*
%TO.N,I_sense_1*%
X99568600Y-61468600D02*
X99060000Y-60960000D01*
X108882800Y-61468600D02*
X99568600Y-61468600D01*
%TO.N,D1*%
X93769800Y-66250200D02*
X96520000Y-63500000D01*
X95520000Y-81260000D02*
X95520000Y-75233000D01*
X93769800Y-73482800D02*
X93769800Y-66250200D01*
X95520000Y-75233000D02*
X93769800Y-73482800D01*
%TO.N,T_sense1*%
X99187600Y-63627600D02*
X99060000Y-63500000D01*
X111457600Y-63627600D02*
X99187600Y-63627600D01*
%TO.N,D2*%
X97783000Y-78997000D02*
X97520000Y-79260000D01*
X96520000Y-66040000D02*
X97783000Y-67303000D01*
X97783000Y-67303000D02*
X97783000Y-78997000D01*
%TO.N,PWM0*%
X99020000Y-80260000D02*
X99020000Y-75192200D01*
%TO.N,PWM1*%
X121930000Y-88350000D02*
X117110000Y-88350000D01*
X117110000Y-88350000D02*
X117110000Y-88350000D01*
%TO.N,PWM5*%
X146983400Y-66040000D02*
X147320000Y-66040000D01*
X138423000Y-79782000D02*
X138423000Y-74600400D01*
X138423000Y-74600400D02*
X139705700Y-73317700D01*
%TO.N,PWM4*%
X146729400Y-63500000D02*
X147320000Y-63500000D01*
X135908400Y-74321000D02*
X137165700Y-73063700D01*
X135883000Y-79782000D02*
X135908400Y-79756600D01*
X135908400Y-79756600D02*
X135908400Y-74321000D01*
%TO.N,PWM3*%
X146729400Y-60960000D02*
X147320000Y-60960000D01*
X133343000Y-74346400D02*
X134752700Y-72936700D01*
X133216000Y-79401000D02*
X133343000Y-79274000D01*
X133343000Y-79274000D02*
X133343000Y-74346400D01*
%TO.N,D8*%
X130828400Y-74194000D02*
X132085700Y-72936700D01*
X130676000Y-79147000D02*
X130828400Y-78994600D01*
X146602400Y-58420000D02*
X147320000Y-58420000D01*
X130828400Y-78994600D02*
X130828400Y-74194000D01*
%TO.N,D7*%
X125697600Y-78842200D02*
X125697600Y-63449800D01*
X125697600Y-63449800D02*
X125697600Y-63449800D01*
%TO.N,PWM2*%
X123118601Y-61858601D02*
X123118601Y-61858601D01*
X123183000Y-61923000D02*
X123118601Y-61858601D01*
X123020000Y-78760000D02*
X123183000Y-78597000D01*
X123183000Y-78597000D02*
X123183000Y-61923000D01*
%TO.N,D4*%
X120668400Y-78715200D02*
X120668400Y-60908400D01*
X120541400Y-78842200D02*
X120668400Y-78715200D01*
X120668400Y-60908400D02*
X120520000Y-60760000D01*
%TD*%
D16*
%TO.N,GND*%
G36*
X150168126Y-44986714D02*
G01*
X150791572Y-45174943D01*
X151366579Y-45480681D01*
X151871247Y-45892279D01*
X152286362Y-46394067D01*
X152596105Y-46966924D01*
X152788682Y-47589039D01*
X152860001Y-48267594D01*
X152860000Y-91227721D01*
X152793286Y-91908126D01*
X152605057Y-92531570D01*
X152299323Y-93106573D01*
X151887721Y-93611248D01*
X151385933Y-94026362D01*
X150813077Y-94336104D01*
X150190961Y-94528682D01*
X149512417Y-94600000D01*
X96552279Y-94600000D01*
X95871874Y-94533286D01*
X95248430Y-94345057D01*
X94673427Y-94039323D01*
X94168752Y-93627721D01*
X93753638Y-93125933D01*
X93443896Y-92553077D01*
X93251318Y-91930961D01*
X93180000Y-91252417D01*
X93180000Y-91039872D01*
X94285000Y-91039872D01*
X94285000Y-91480128D01*
X94370890Y-91911925D01*
X94539369Y-92318669D01*
X94783962Y-92684729D01*
X95095271Y-92996038D01*
X95461331Y-93240631D01*
X95868075Y-93409110D01*
X96299872Y-93495000D01*
X96740128Y-93495000D01*
X97171925Y-93409110D01*
X97578669Y-93240631D01*
X97944729Y-92996038D01*
X98256038Y-92684729D01*
X98500631Y-92318669D01*
X98669110Y-91911925D01*
X98706022Y-91726353D01*
X100050000Y-91726353D01*
X100050000Y-92033647D01*
X100109950Y-92335035D01*
X100227546Y-92618937D01*
X100398269Y-92874442D01*
X100615558Y-93091731D01*
X100871063Y-93262454D01*
X101154965Y-93380050D01*
X101456353Y-93440000D01*
X101763647Y-93440000D01*
X102065035Y-93380050D01*
X102348937Y-93262454D01*
X102604442Y-93091731D01*
X102700902Y-92995271D01*
X102755863Y-93098094D01*
X102835215Y-93194785D01*
X102931906Y-93274137D01*
X103042220Y-93333102D01*
X103161918Y-93369412D01*
X103286400Y-93381672D01*
X105013600Y-93381672D01*
X105138082Y-93369412D01*
X105257780Y-93333102D01*
X105368094Y-93274137D01*
X105464785Y-93194785D01*
X105544137Y-93098094D01*
X105603102Y-92987780D01*
X105620636Y-92929977D01*
X105734698Y-93044039D01*
X105980147Y-93208042D01*
X106252875Y-93321010D01*
X106542401Y-93378600D01*
X106837599Y-93378600D01*
X107127125Y-93321010D01*
X107399853Y-93208042D01*
X107645302Y-93044039D01*
X107854039Y-92835302D01*
X107960000Y-92676719D01*
X108065961Y-92835302D01*
X108274698Y-93044039D01*
X108520147Y-93208042D01*
X108792875Y-93321010D01*
X109082401Y-93378600D01*
X109377599Y-93378600D01*
X109667125Y-93321010D01*
X109939853Y-93208042D01*
X110185302Y-93044039D01*
X110394039Y-92835302D01*
X110558042Y-92589853D01*
X110671010Y-92317125D01*
X110728600Y-92027599D01*
X110728600Y-91732401D01*
X112811400Y-91732401D01*
X112811400Y-92027599D01*
X112868990Y-92317125D01*
X112981958Y-92589853D01*
X113145961Y-92835302D01*
X113354698Y-93044039D01*
X113600147Y-93208042D01*
X113872875Y-93321010D01*
X114162401Y-93378600D01*
X114457599Y-93378600D01*
X114747125Y-93321010D01*
X115019853Y-93208042D01*
X115265302Y-93044039D01*
X115474039Y-92835302D01*
X115580000Y-92676719D01*
X115685961Y-92835302D01*
X115894698Y-93044039D01*
X116140147Y-93208042D01*
X116412875Y-93321010D01*
X116702401Y-93378600D01*
X116997599Y-93378600D01*
X117287125Y-93321010D01*
X117559853Y-93208042D01*
X117805302Y-93044039D01*
X118014039Y-92835302D01*
X118120000Y-92676719D01*
X118225961Y-92835302D01*
X118434698Y-93044039D01*
X118680147Y-93208042D01*
X118952875Y-93321010D01*
X119242401Y-93378600D01*
X119537599Y-93378600D01*
X119827125Y-93321010D01*
X120099853Y-93208042D01*
X120345302Y-93044039D01*
X120554039Y-92835302D01*
X120660000Y-92676719D01*
X120765961Y-92835302D01*
X120974698Y-93044039D01*
X121220147Y-93208042D01*
X121492875Y-93321010D01*
X121782401Y-93378600D01*
X122077599Y-93378600D01*
X122367125Y-93321010D01*
X122639853Y-93208042D01*
X122885302Y-93044039D01*
X123094039Y-92835302D01*
X123200000Y-92676719D01*
X123305961Y-92835302D01*
X123514698Y-93044039D01*
X123760147Y-93208042D01*
X124032875Y-93321010D01*
X124322401Y-93378600D01*
X124617599Y-93378600D01*
X124907125Y-93321010D01*
X125179853Y-93208042D01*
X125425302Y-93044039D01*
X125634039Y-92835302D01*
X125740000Y-92676719D01*
X125845961Y-92835302D01*
X126054698Y-93044039D01*
X126300147Y-93208042D01*
X126572875Y-93321010D01*
X126862401Y-93378600D01*
X127157599Y-93378600D01*
X127447125Y-93321010D01*
X127719853Y-93208042D01*
X127965302Y-93044039D01*
X128174039Y-92835302D01*
X128280000Y-92676719D01*
X128385961Y-92835302D01*
X128594698Y-93044039D01*
X128840147Y-93208042D01*
X129112875Y-93321010D01*
X129402401Y-93378600D01*
X129697599Y-93378600D01*
X129987125Y-93321010D01*
X130259853Y-93208042D01*
X130505302Y-93044039D01*
X130714039Y-92835302D01*
X130820000Y-92676719D01*
X130925961Y-92835302D01*
X131134698Y-93044039D01*
X131380147Y-93208042D01*
X131652875Y-93321010D01*
X131942401Y-93378600D01*
X132237599Y-93378600D01*
X132527125Y-93321010D01*
X132799853Y-93208042D01*
X133045302Y-93044039D01*
X133254039Y-92835302D01*
X133360000Y-92676719D01*
X133465961Y-92835302D01*
X133674698Y-93044039D01*
X133920147Y-93208042D01*
X134192875Y-93321010D01*
X134482401Y-93378600D01*
X134777599Y-93378600D01*
X135067125Y-93321010D01*
X135339853Y-93208042D01*
X135585302Y-93044039D01*
X135794039Y-92835302D01*
X135900000Y-92676719D01*
X136005961Y-92835302D01*
X136214698Y-93044039D01*
X136460147Y-93208042D01*
X136732875Y-93321010D01*
X137022401Y-93378600D01*
X137317599Y-93378600D01*
X137607125Y-93321010D01*
X137879853Y-93208042D01*
X138125302Y-93044039D01*
X138334039Y-92835302D01*
X138440000Y-92676719D01*
X138545961Y-92835302D01*
X138754698Y-93044039D01*
X139000147Y-93208042D01*
X139272875Y-93321010D01*
X139562401Y-93378600D01*
X139857599Y-93378600D01*
X140147125Y-93321010D01*
X140419853Y-93208042D01*
X140665302Y-93044039D01*
X140874039Y-92835302D01*
X140943078Y-92731978D01*
X141038269Y-92874442D01*
X141255558Y-93091731D01*
X141511063Y-93262454D01*
X141794965Y-93380050D01*
X142096353Y-93440000D01*
X142403647Y-93440000D01*
X142705035Y-93380050D01*
X142988937Y-93262454D01*
X143244442Y-93091731D01*
X143461731Y-92874442D01*
X143632454Y-92618937D01*
X143750050Y-92335035D01*
X143810000Y-92033647D01*
X143810000Y-91726353D01*
X143750050Y-91424965D01*
X143632454Y-91141063D01*
X143564841Y-91039872D01*
X147285000Y-91039872D01*
X147285000Y-91480128D01*
X147370890Y-91911925D01*
X147539369Y-92318669D01*
X147783962Y-92684729D01*
X148095271Y-92996038D01*
X148461331Y-93240631D01*
X148868075Y-93409110D01*
X149299872Y-93495000D01*
X149740128Y-93495000D01*
X150171925Y-93409110D01*
X150578669Y-93240631D01*
X150944729Y-92996038D01*
X151256038Y-92684729D01*
X151500631Y-92318669D01*
X151669110Y-91911925D01*
X151755000Y-91480128D01*
X151755000Y-91039872D01*
X151669110Y-90608075D01*
X151500631Y-90201331D01*
X151256038Y-89835271D01*
X150944729Y-89523962D01*
X150578669Y-89279369D01*
X150171925Y-89110890D01*
X149740128Y-89025000D01*
X149299872Y-89025000D01*
X148868075Y-89110890D01*
X148461331Y-89279369D01*
X148095271Y-89523962D01*
X147783962Y-89835271D01*
X147539369Y-90201331D01*
X147370890Y-90608075D01*
X147285000Y-91039872D01*
X143564841Y-91039872D01*
X143461731Y-90885558D01*
X143244442Y-90668269D01*
X142988937Y-90497546D01*
X142705035Y-90379950D01*
X142403647Y-90320000D01*
X142096353Y-90320000D01*
X141794965Y-90379950D01*
X141511063Y-90497546D01*
X141255558Y-90668269D01*
X141038269Y-90885558D01*
X140943078Y-91028022D01*
X140874039Y-90924698D01*
X140665302Y-90715961D01*
X140419853Y-90551958D01*
X140147125Y-90438990D01*
X139857599Y-90381400D01*
X139562401Y-90381400D01*
X139272875Y-90438990D01*
X139000147Y-90551958D01*
X138754698Y-90715961D01*
X138545961Y-90924698D01*
X138440000Y-91083281D01*
X138334039Y-90924698D01*
X138125302Y-90715961D01*
X137879853Y-90551958D01*
X137607125Y-90438990D01*
X137317599Y-90381400D01*
X137022401Y-90381400D01*
X136732875Y-90438990D01*
X136460147Y-90551958D01*
X136214698Y-90715961D01*
X136005961Y-90924698D01*
X135900000Y-91083281D01*
X135794039Y-90924698D01*
X135585302Y-90715961D01*
X135339853Y-90551958D01*
X135067125Y-90438990D01*
X134777599Y-90381400D01*
X134482401Y-90381400D01*
X134192875Y-90438990D01*
X133920147Y-90551958D01*
X133674698Y-90715961D01*
X133465961Y-90924698D01*
X133360000Y-91083281D01*
X133254039Y-90924698D01*
X133045302Y-90715961D01*
X132799853Y-90551958D01*
X132527125Y-90438990D01*
X132237599Y-90381400D01*
X131942401Y-90381400D01*
X131652875Y-90438990D01*
X131380147Y-90551958D01*
X131134698Y-90715961D01*
X130925961Y-90924698D01*
X130820000Y-91083281D01*
X130714039Y-90924698D01*
X130505302Y-90715961D01*
X130259853Y-90551958D01*
X129987125Y-90438990D01*
X129697599Y-90381400D01*
X129402401Y-90381400D01*
X129112875Y-90438990D01*
X128840147Y-90551958D01*
X128594698Y-90715961D01*
X128385961Y-90924698D01*
X128280000Y-91083281D01*
X128174039Y-90924698D01*
X127965302Y-90715961D01*
X127719853Y-90551958D01*
X127447125Y-90438990D01*
X127157599Y-90381400D01*
X126862401Y-90381400D01*
X126572875Y-90438990D01*
X126300147Y-90551958D01*
X126054698Y-90715961D01*
X125845961Y-90924698D01*
X125740000Y-91083281D01*
X125634039Y-90924698D01*
X125425302Y-90715961D01*
X125179853Y-90551958D01*
X124907125Y-90438990D01*
X124617599Y-90381400D01*
X124322401Y-90381400D01*
X124032875Y-90438990D01*
X123760147Y-90551958D01*
X123514698Y-90715961D01*
X123305961Y-90924698D01*
X123200000Y-91083281D01*
X123094039Y-90924698D01*
X122885302Y-90715961D01*
X122639853Y-90551958D01*
X122367125Y-90438990D01*
X122077599Y-90381400D01*
X121782401Y-90381400D01*
X121492875Y-90438990D01*
X121220147Y-90551958D01*
X120974698Y-90715961D01*
X120765961Y-90924698D01*
X120660000Y-91083281D01*
X120554039Y-90924698D01*
X120345302Y-90715961D01*
X120099853Y-90551958D01*
X119827125Y-90438990D01*
X119537599Y-90381400D01*
X119242401Y-90381400D01*
X118952875Y-90438990D01*
X118680147Y-90551958D01*
X118434698Y-90715961D01*
X118225961Y-90924698D01*
X118120000Y-91083281D01*
X118014039Y-90924698D01*
X117805302Y-90715961D01*
X117559853Y-90551958D01*
X117287125Y-90438990D01*
X116997599Y-90381400D01*
X116702401Y-90381400D01*
X116412875Y-90438990D01*
X116140147Y-90551958D01*
X115894698Y-90715961D01*
X115685961Y-90924698D01*
X115580000Y-91083281D01*
X115474039Y-90924698D01*
X115265302Y-90715961D01*
X115019853Y-90551958D01*
X114747125Y-90438990D01*
X114457599Y-90381400D01*
X114162401Y-90381400D01*
X113872875Y-90438990D01*
X113600147Y-90551958D01*
X113354698Y-90715961D01*
X113145961Y-90924698D01*
X112981958Y-91170147D01*
X112868990Y-91442875D01*
X112811400Y-91732401D01*
X110728600Y-91732401D01*
X110671010Y-91442875D01*
X110558042Y-91170147D01*
X110394039Y-90924698D01*
X110185302Y-90715961D01*
X109939853Y-90551958D01*
X109667125Y-90438990D01*
X109377599Y-90381400D01*
X109082401Y-90381400D01*
X108792875Y-90438990D01*
X108520147Y-90551958D01*
X108274698Y-90715961D01*
X108065961Y-90924698D01*
X107960000Y-91083281D01*
X107854039Y-90924698D01*
X107645302Y-90715961D01*
X107399853Y-90551958D01*
X107127125Y-90438990D01*
X106837599Y-90381400D01*
X106542401Y-90381400D01*
X106252875Y-90438990D01*
X105980147Y-90551958D01*
X105734698Y-90715961D01*
X105620636Y-90830023D01*
X105603102Y-90772220D01*
X105544137Y-90661906D01*
X105464785Y-90565215D01*
X105368094Y-90485863D01*
X105257780Y-90426898D01*
X105138082Y-90390588D01*
X105013600Y-90378328D01*
X103286400Y-90378328D01*
X103161918Y-90390588D01*
X103042220Y-90426898D01*
X102931906Y-90485863D01*
X102835215Y-90565215D01*
X102755863Y-90661906D01*
X102700902Y-90764729D01*
X102604442Y-90668269D01*
X102348937Y-90497546D01*
X102065035Y-90379950D01*
X101763647Y-90320000D01*
X101456353Y-90320000D01*
X101154965Y-90379950D01*
X100871063Y-90497546D01*
X100615558Y-90668269D01*
X100398269Y-90885558D01*
X100227546Y-91141063D01*
X100109950Y-91424965D01*
X100050000Y-91726353D01*
X98706022Y-91726353D01*
X98755000Y-91480128D01*
X98755000Y-91039872D01*
X98669110Y-90608075D01*
X98500631Y-90201331D01*
X98256038Y-89835271D01*
X97944729Y-89523962D01*
X97578669Y-89279369D01*
X97171925Y-89110890D01*
X96740128Y-89025000D01*
X96299872Y-89025000D01*
X95868075Y-89110890D01*
X95461331Y-89279369D01*
X95095271Y-89523962D01*
X94783962Y-89835271D01*
X94539369Y-90201331D01*
X94370890Y-90608075D01*
X94285000Y-91039872D01*
X93180000Y-91039872D01*
X93180000Y-88248061D01*
X116075000Y-88248061D01*
X116075000Y-88451939D01*
X116114774Y-88651898D01*
X116192795Y-88840256D01*
X116306063Y-89009774D01*
X116450226Y-89153937D01*
X116619744Y-89267205D01*
X116808102Y-89345226D01*
X117008061Y-89385000D01*
X117211939Y-89385000D01*
X117411898Y-89345226D01*
X117600256Y-89267205D01*
X117769774Y-89153937D01*
X117813711Y-89110000D01*
X121226289Y-89110000D01*
X121270226Y-89153937D01*
X121439744Y-89267205D01*
X121628102Y-89345226D01*
X121828061Y-89385000D01*
X122031939Y-89385000D01*
X122231898Y-89345226D01*
X122420256Y-89267205D01*
X122589774Y-89153937D01*
X122733937Y-89009774D01*
X122847205Y-88840256D01*
X122925226Y-88651898D01*
X122965000Y-88451939D01*
X122965000Y-88248061D01*
X122925226Y-88048102D01*
X122847205Y-87859744D01*
X122733937Y-87690226D01*
X122589774Y-87546063D01*
X122420256Y-87432795D01*
X122231898Y-87354774D01*
X122031939Y-87315000D01*
X121828061Y-87315000D01*
X121628102Y-87354774D01*
X121439744Y-87432795D01*
X121270226Y-87546063D01*
X121226289Y-87590000D01*
X117813711Y-87590000D01*
X117769774Y-87546063D01*
X117600256Y-87432795D01*
X117411898Y-87354774D01*
X117211939Y-87315000D01*
X117008061Y-87315000D01*
X116808102Y-87354774D01*
X116619744Y-87432795D01*
X116450226Y-87546063D01*
X116306063Y-87690226D01*
X116192795Y-87859744D01*
X116114774Y-88048102D01*
X116075000Y-88248061D01*
X93180000Y-88248061D01*
X93180000Y-73962120D01*
X93229799Y-74022801D01*
X93258803Y-74046604D01*
X94760001Y-75547803D01*
X94760000Y-80556289D01*
X94716063Y-80600226D01*
X94602795Y-80769744D01*
X94524774Y-80958102D01*
X94485000Y-81158061D01*
X94485000Y-81361939D01*
X94524774Y-81561898D01*
X94602795Y-81750256D01*
X94716063Y-81919774D01*
X94860226Y-82063937D01*
X95029744Y-82177205D01*
X95218102Y-82255226D01*
X95418061Y-82295000D01*
X95621939Y-82295000D01*
X95821898Y-82255226D01*
X96010256Y-82177205D01*
X96179774Y-82063937D01*
X96323937Y-81919774D01*
X96437205Y-81750256D01*
X96515226Y-81561898D01*
X96555000Y-81361939D01*
X96555000Y-81295000D01*
X96621939Y-81295000D01*
X96821898Y-81255226D01*
X97010256Y-81177205D01*
X97179774Y-81063937D01*
X97323937Y-80919774D01*
X97437205Y-80750256D01*
X97515226Y-80561898D01*
X97555000Y-80361939D01*
X97555000Y-80295000D01*
X97621939Y-80295000D01*
X97821898Y-80255226D01*
X97985000Y-80187666D01*
X97985000Y-80361939D01*
X98024774Y-80561898D01*
X98102795Y-80750256D01*
X98216063Y-80919774D01*
X98360226Y-81063937D01*
X98529744Y-81177205D01*
X98718102Y-81255226D01*
X98918061Y-81295000D01*
X99121939Y-81295000D01*
X99321898Y-81255226D01*
X99510256Y-81177205D01*
X99679774Y-81063937D01*
X99823937Y-80919774D01*
X99937205Y-80750256D01*
X100015226Y-80561898D01*
X100055000Y-80361939D01*
X100055000Y-80158061D01*
X100015226Y-79958102D01*
X99937205Y-79769744D01*
X99823937Y-79600226D01*
X99780000Y-79556289D01*
X99780000Y-76486353D01*
X100050000Y-76486353D01*
X100050000Y-76793647D01*
X100109950Y-77095035D01*
X100227546Y-77378937D01*
X100398269Y-77634442D01*
X100615558Y-77851731D01*
X100871063Y-78022454D01*
X101154965Y-78140050D01*
X101456353Y-78200000D01*
X101763647Y-78200000D01*
X102065035Y-78140050D01*
X102348937Y-78022454D01*
X102604442Y-77851731D01*
X102821731Y-77634442D01*
X102916922Y-77491978D01*
X102985961Y-77595302D01*
X103194698Y-77804039D01*
X103440147Y-77968042D01*
X103712875Y-78081010D01*
X104002401Y-78138600D01*
X104297599Y-78138600D01*
X104587125Y-78081010D01*
X104859853Y-77968042D01*
X105105302Y-77804039D01*
X105314039Y-77595302D01*
X105478042Y-77349853D01*
X105591010Y-77077125D01*
X105648600Y-76787599D01*
X105648600Y-76492401D01*
X107731400Y-76492401D01*
X107731400Y-76787599D01*
X107788990Y-77077125D01*
X107901958Y-77349853D01*
X108065961Y-77595302D01*
X108274698Y-77804039D01*
X108520147Y-77968042D01*
X108792875Y-78081010D01*
X109082401Y-78138600D01*
X109377599Y-78138600D01*
X109667125Y-78081010D01*
X109939853Y-77968042D01*
X110185302Y-77804039D01*
X110394039Y-77595302D01*
X110500000Y-77436719D01*
X110605961Y-77595302D01*
X110814698Y-77804039D01*
X111060147Y-77968042D01*
X111332875Y-78081010D01*
X111622401Y-78138600D01*
X111917599Y-78138600D01*
X112207125Y-78081010D01*
X112479853Y-77968042D01*
X112725302Y-77804039D01*
X112934039Y-77595302D01*
X113040000Y-77436719D01*
X113145961Y-77595302D01*
X113354698Y-77804039D01*
X113600147Y-77968042D01*
X113872875Y-78081010D01*
X114162401Y-78138600D01*
X114457599Y-78138600D01*
X114747125Y-78081010D01*
X115019853Y-77968042D01*
X115265302Y-77804039D01*
X115474039Y-77595302D01*
X115580000Y-77436719D01*
X115685961Y-77595302D01*
X115894698Y-77804039D01*
X116140147Y-77968042D01*
X116412875Y-78081010D01*
X116702401Y-78138600D01*
X116997599Y-78138600D01*
X117287125Y-78081010D01*
X117559853Y-77968042D01*
X117805302Y-77804039D01*
X118014039Y-77595302D01*
X118120000Y-77436719D01*
X118225961Y-77595302D01*
X118434698Y-77804039D01*
X118680147Y-77968042D01*
X118952875Y-78081010D01*
X119242401Y-78138600D01*
X119537599Y-78138600D01*
X119827125Y-78081010D01*
X119847190Y-78072699D01*
X119737463Y-78182426D01*
X119624195Y-78351944D01*
X119546174Y-78540302D01*
X119506400Y-78740261D01*
X119506400Y-78944139D01*
X119546174Y-79144098D01*
X119624195Y-79332456D01*
X119737463Y-79501974D01*
X119881626Y-79646137D01*
X120051144Y-79759405D01*
X120239502Y-79837426D01*
X120439461Y-79877200D01*
X120643339Y-79877200D01*
X120843298Y-79837426D01*
X121031656Y-79759405D01*
X121201174Y-79646137D01*
X121345337Y-79501974D01*
X121458605Y-79332456D01*
X121536626Y-79144098D01*
X121576400Y-78944139D01*
X121576400Y-78740261D01*
X121536626Y-78540302D01*
X121458605Y-78351944D01*
X121428400Y-78306739D01*
X121428400Y-78054303D01*
X121492875Y-78081010D01*
X121782401Y-78138600D01*
X122077599Y-78138600D01*
X122207716Y-78112718D01*
X122102795Y-78269744D01*
X122024774Y-78458102D01*
X121985000Y-78658061D01*
X121985000Y-78861939D01*
X122024774Y-79061898D01*
X122102795Y-79250256D01*
X122216063Y-79419774D01*
X122360226Y-79563937D01*
X122529744Y-79677205D01*
X122718102Y-79755226D01*
X122918061Y-79795000D01*
X123121939Y-79795000D01*
X123321898Y-79755226D01*
X123510256Y-79677205D01*
X123679774Y-79563937D01*
X123823937Y-79419774D01*
X123937205Y-79250256D01*
X124015226Y-79061898D01*
X124055000Y-78861939D01*
X124055000Y-78658061D01*
X124015226Y-78458102D01*
X123943000Y-78283734D01*
X123943000Y-78043782D01*
X124032875Y-78081010D01*
X124322401Y-78138600D01*
X124617599Y-78138600D01*
X124907125Y-78081010D01*
X124937600Y-78068387D01*
X124937600Y-78138489D01*
X124893663Y-78182426D01*
X124780395Y-78351944D01*
X124702374Y-78540302D01*
X124662600Y-78740261D01*
X124662600Y-78944139D01*
X124702374Y-79144098D01*
X124780395Y-79332456D01*
X124893663Y-79501974D01*
X125037826Y-79646137D01*
X125207344Y-79759405D01*
X125395702Y-79837426D01*
X125595661Y-79877200D01*
X125799539Y-79877200D01*
X125999498Y-79837426D01*
X126187856Y-79759405D01*
X126357374Y-79646137D01*
X126501537Y-79501974D01*
X126614805Y-79332456D01*
X126692826Y-79144098D01*
X126732600Y-78944139D01*
X126732600Y-78740261D01*
X126692826Y-78540302D01*
X126614805Y-78351944D01*
X126501537Y-78182426D01*
X126457600Y-78138489D01*
X126457600Y-78033261D01*
X126572875Y-78081010D01*
X126862401Y-78138600D01*
X127157599Y-78138600D01*
X127447125Y-78081010D01*
X127719853Y-77968042D01*
X127965302Y-77804039D01*
X128174039Y-77595302D01*
X128280000Y-77436719D01*
X128385961Y-77595302D01*
X128594698Y-77804039D01*
X128840147Y-77968042D01*
X129112875Y-78081010D01*
X129402401Y-78138600D01*
X129697599Y-78138600D01*
X129987125Y-78081010D01*
X130068400Y-78047345D01*
X130068400Y-78308201D01*
X130016226Y-78343063D01*
X129872063Y-78487226D01*
X129758795Y-78656744D01*
X129680774Y-78845102D01*
X129641000Y-79045061D01*
X129641000Y-79248939D01*
X129680774Y-79448898D01*
X129758795Y-79637256D01*
X129872063Y-79806774D01*
X130016226Y-79950937D01*
X130185744Y-80064205D01*
X130374102Y-80142226D01*
X130574061Y-80182000D01*
X130777939Y-80182000D01*
X130977898Y-80142226D01*
X131166256Y-80064205D01*
X131335774Y-79950937D01*
X131479937Y-79806774D01*
X131593205Y-79637256D01*
X131671226Y-79448898D01*
X131711000Y-79248939D01*
X131711000Y-79045061D01*
X131671226Y-78845102D01*
X131593205Y-78656744D01*
X131588400Y-78649553D01*
X131588400Y-78054303D01*
X131652875Y-78081010D01*
X131942401Y-78138600D01*
X132237599Y-78138600D01*
X132527125Y-78081010D01*
X132583000Y-78057866D01*
X132583000Y-78579173D01*
X132556226Y-78597063D01*
X132412063Y-78741226D01*
X132298795Y-78910744D01*
X132220774Y-79099102D01*
X132181000Y-79299061D01*
X132181000Y-79502939D01*
X132220774Y-79702898D01*
X132298795Y-79891256D01*
X132412063Y-80060774D01*
X132556226Y-80204937D01*
X132725744Y-80318205D01*
X132914102Y-80396226D01*
X133114061Y-80436000D01*
X133317939Y-80436000D01*
X133517898Y-80396226D01*
X133706256Y-80318205D01*
X133875774Y-80204937D01*
X134019937Y-80060774D01*
X134133205Y-79891256D01*
X134211226Y-79702898D01*
X134251000Y-79502939D01*
X134251000Y-79299061D01*
X134211226Y-79099102D01*
X134133205Y-78910744D01*
X134103000Y-78865539D01*
X134103000Y-78043782D01*
X134192875Y-78081010D01*
X134482401Y-78138600D01*
X134777599Y-78138600D01*
X135067125Y-78081010D01*
X135148400Y-78047345D01*
X135148400Y-79052889D01*
X135079063Y-79122226D01*
X134965795Y-79291744D01*
X134887774Y-79480102D01*
X134848000Y-79680061D01*
X134848000Y-79883939D01*
X134887774Y-80083898D01*
X134965795Y-80272256D01*
X135079063Y-80441774D01*
X135223226Y-80585937D01*
X135392744Y-80699205D01*
X135581102Y-80777226D01*
X135781061Y-80817000D01*
X135984939Y-80817000D01*
X136184898Y-80777226D01*
X136373256Y-80699205D01*
X136542774Y-80585937D01*
X136686937Y-80441774D01*
X136800205Y-80272256D01*
X136878226Y-80083898D01*
X136918000Y-79883939D01*
X136918000Y-79680061D01*
X136878226Y-79480102D01*
X136800205Y-79291744D01*
X136686937Y-79122226D01*
X136668400Y-79103689D01*
X136668400Y-78054303D01*
X136732875Y-78081010D01*
X137022401Y-78138600D01*
X137317599Y-78138600D01*
X137607125Y-78081010D01*
X137663000Y-78057866D01*
X137663000Y-79078289D01*
X137619063Y-79122226D01*
X137505795Y-79291744D01*
X137427774Y-79480102D01*
X137388000Y-79680061D01*
X137388000Y-79883939D01*
X137427774Y-80083898D01*
X137505795Y-80272256D01*
X137619063Y-80441774D01*
X137763226Y-80585937D01*
X137932744Y-80699205D01*
X138121102Y-80777226D01*
X138321061Y-80817000D01*
X138524939Y-80817000D01*
X138724898Y-80777226D01*
X138913256Y-80699205D01*
X139082774Y-80585937D01*
X139226937Y-80441774D01*
X139340205Y-80272256D01*
X139418226Y-80083898D01*
X139458000Y-79883939D01*
X139458000Y-79680061D01*
X139418226Y-79480102D01*
X139340205Y-79291744D01*
X139226937Y-79122226D01*
X139183000Y-79078289D01*
X139183000Y-78043782D01*
X139272875Y-78081010D01*
X139562401Y-78138600D01*
X139857599Y-78138600D01*
X140147125Y-78081010D01*
X140419853Y-77968042D01*
X140665302Y-77804039D01*
X140874039Y-77595302D01*
X140943078Y-77491978D01*
X141038269Y-77634442D01*
X141255558Y-77851731D01*
X141511063Y-78022454D01*
X141794965Y-78140050D01*
X142096353Y-78200000D01*
X142403647Y-78200000D01*
X142705035Y-78140050D01*
X142988937Y-78022454D01*
X143244442Y-77851731D01*
X143461731Y-77634442D01*
X143632454Y-77378937D01*
X143750050Y-77095035D01*
X143810000Y-76793647D01*
X143810000Y-76486353D01*
X143750050Y-76184965D01*
X143632454Y-75901063D01*
X143461731Y-75645558D01*
X143244442Y-75428269D01*
X142988937Y-75257546D01*
X142705035Y-75139950D01*
X142403647Y-75080000D01*
X142096353Y-75080000D01*
X141794965Y-75139950D01*
X141511063Y-75257546D01*
X141255558Y-75428269D01*
X141038269Y-75645558D01*
X140943078Y-75788022D01*
X140874039Y-75684698D01*
X140665302Y-75475961D01*
X140419853Y-75311958D01*
X140147125Y-75198990D01*
X139857599Y-75141400D01*
X139562401Y-75141400D01*
X139272875Y-75198990D01*
X139183000Y-75236218D01*
X139183000Y-74915201D01*
X139745502Y-74352700D01*
X139807639Y-74352700D01*
X140007598Y-74312926D01*
X140195956Y-74234905D01*
X140365474Y-74121637D01*
X140509637Y-73977474D01*
X140622905Y-73807956D01*
X140700926Y-73619598D01*
X140740700Y-73419639D01*
X140740700Y-73215761D01*
X140700926Y-73015802D01*
X140622905Y-72827444D01*
X140509637Y-72657926D01*
X140365474Y-72513763D01*
X140195956Y-72400495D01*
X140007598Y-72322474D01*
X139807639Y-72282700D01*
X139603761Y-72282700D01*
X139403802Y-72322474D01*
X139215444Y-72400495D01*
X139045926Y-72513763D01*
X138901763Y-72657926D01*
X138788495Y-72827444D01*
X138710474Y-73015802D01*
X138670700Y-73215761D01*
X138670700Y-73277898D01*
X137911998Y-74036601D01*
X137883000Y-74060399D01*
X137859202Y-74089397D01*
X137859201Y-74089398D01*
X137788026Y-74176124D01*
X137717454Y-74308154D01*
X137673998Y-74451415D01*
X137659324Y-74600400D01*
X137663001Y-74637732D01*
X137663001Y-75222135D01*
X137607125Y-75198990D01*
X137317599Y-75141400D01*
X137022401Y-75141400D01*
X136732875Y-75198990D01*
X136668400Y-75225697D01*
X136668400Y-74635801D01*
X137205502Y-74098700D01*
X137267639Y-74098700D01*
X137467598Y-74058926D01*
X137655956Y-73980905D01*
X137825474Y-73867637D01*
X137969637Y-73723474D01*
X138082905Y-73553956D01*
X138160926Y-73365598D01*
X138200700Y-73165639D01*
X138200700Y-72961761D01*
X138160926Y-72761802D01*
X138082905Y-72573444D01*
X137969637Y-72403926D01*
X137825474Y-72259763D01*
X137655956Y-72146495D01*
X137467598Y-72068474D01*
X137267639Y-72028700D01*
X137063761Y-72028700D01*
X136863802Y-72068474D01*
X136675444Y-72146495D01*
X136505926Y-72259763D01*
X136361763Y-72403926D01*
X136248495Y-72573444D01*
X136170474Y-72761802D01*
X136130700Y-72961761D01*
X136130700Y-73023898D01*
X135397398Y-73757201D01*
X135368400Y-73780999D01*
X135344602Y-73809997D01*
X135344601Y-73809998D01*
X135273426Y-73896724D01*
X135202854Y-74028754D01*
X135193702Y-74058926D01*
X135159398Y-74172014D01*
X135157233Y-74194000D01*
X135144724Y-74321000D01*
X135148401Y-74358332D01*
X135148401Y-75232656D01*
X135067125Y-75198990D01*
X134777599Y-75141400D01*
X134482401Y-75141400D01*
X134192875Y-75198990D01*
X134103000Y-75236218D01*
X134103000Y-74661201D01*
X134792502Y-73971700D01*
X134854639Y-73971700D01*
X135054598Y-73931926D01*
X135242956Y-73853905D01*
X135412474Y-73740637D01*
X135556637Y-73596474D01*
X135669905Y-73426956D01*
X135747926Y-73238598D01*
X135787700Y-73038639D01*
X135787700Y-72834761D01*
X135747926Y-72634802D01*
X135669905Y-72446444D01*
X135556637Y-72276926D01*
X135412474Y-72132763D01*
X135242956Y-72019495D01*
X135054598Y-71941474D01*
X134854639Y-71901700D01*
X134650761Y-71901700D01*
X134450802Y-71941474D01*
X134262444Y-72019495D01*
X134092926Y-72132763D01*
X133948763Y-72276926D01*
X133835495Y-72446444D01*
X133757474Y-72634802D01*
X133717700Y-72834761D01*
X133717700Y-72896898D01*
X132831998Y-73782601D01*
X132803000Y-73806399D01*
X132779202Y-73835397D01*
X132779201Y-73835398D01*
X132708026Y-73922124D01*
X132637454Y-74054154D01*
X132593998Y-74197415D01*
X132579324Y-74346400D01*
X132583001Y-74383732D01*
X132583001Y-75222135D01*
X132527125Y-75198990D01*
X132237599Y-75141400D01*
X131942401Y-75141400D01*
X131652875Y-75198990D01*
X131588400Y-75225697D01*
X131588400Y-74508801D01*
X132125502Y-73971700D01*
X132187639Y-73971700D01*
X132387598Y-73931926D01*
X132575956Y-73853905D01*
X132745474Y-73740637D01*
X132889637Y-73596474D01*
X133002905Y-73426956D01*
X133080926Y-73238598D01*
X133120700Y-73038639D01*
X133120700Y-72834761D01*
X133080926Y-72634802D01*
X133002905Y-72446444D01*
X132889637Y-72276926D01*
X132745474Y-72132763D01*
X132575956Y-72019495D01*
X132387598Y-71941474D01*
X132187639Y-71901700D01*
X131983761Y-71901700D01*
X131783802Y-71941474D01*
X131595444Y-72019495D01*
X131425926Y-72132763D01*
X131281763Y-72276926D01*
X131168495Y-72446444D01*
X131090474Y-72634802D01*
X131050700Y-72834761D01*
X131050700Y-72896898D01*
X130317398Y-73630201D01*
X130288400Y-73653999D01*
X130264602Y-73682997D01*
X130264601Y-73682998D01*
X130193426Y-73769724D01*
X130122854Y-73901754D01*
X130103540Y-73965426D01*
X130084331Y-74028754D01*
X130079398Y-74045015D01*
X130064724Y-74194000D01*
X130068401Y-74231332D01*
X130068401Y-75232656D01*
X129987125Y-75198990D01*
X129697599Y-75141400D01*
X129402401Y-75141400D01*
X129112875Y-75198990D01*
X128840147Y-75311958D01*
X128594698Y-75475961D01*
X128385961Y-75684698D01*
X128280000Y-75843281D01*
X128174039Y-75684698D01*
X127965302Y-75475961D01*
X127719853Y-75311958D01*
X127447125Y-75198990D01*
X127157599Y-75141400D01*
X126862401Y-75141400D01*
X126572875Y-75198990D01*
X126457600Y-75246739D01*
X126457600Y-64153511D01*
X126501537Y-64109574D01*
X126614805Y-63940056D01*
X126692826Y-63751698D01*
X126732600Y-63551739D01*
X126732600Y-63347861D01*
X126692826Y-63147902D01*
X126614805Y-62959544D01*
X126501537Y-62790026D01*
X126357374Y-62645863D01*
X126187856Y-62532595D01*
X125999498Y-62454574D01*
X125799539Y-62414800D01*
X125595661Y-62414800D01*
X125395702Y-62454574D01*
X125207344Y-62532595D01*
X125037826Y-62645863D01*
X124893663Y-62790026D01*
X124780395Y-62959544D01*
X124702374Y-63147902D01*
X124662600Y-63347861D01*
X124662600Y-63551739D01*
X124702374Y-63751698D01*
X124780395Y-63940056D01*
X124893663Y-64109574D01*
X124937601Y-64153512D01*
X124937600Y-75211613D01*
X124907125Y-75198990D01*
X124617599Y-75141400D01*
X124322401Y-75141400D01*
X124032875Y-75198990D01*
X123943000Y-75236218D01*
X123943000Y-62487751D01*
X124035806Y-62348857D01*
X124113827Y-62160499D01*
X124153601Y-61960540D01*
X124153601Y-61756662D01*
X124113827Y-61556703D01*
X124035806Y-61368345D01*
X123922538Y-61198827D01*
X123778375Y-61054664D01*
X123608857Y-60941396D01*
X123420499Y-60863375D01*
X123220540Y-60823601D01*
X123016662Y-60823601D01*
X122816703Y-60863375D01*
X122628345Y-60941396D01*
X122458827Y-61054664D01*
X122314664Y-61198827D01*
X122201396Y-61368345D01*
X122123375Y-61556703D01*
X122083601Y-61756662D01*
X122083601Y-61960540D01*
X122123375Y-62160499D01*
X122201396Y-62348857D01*
X122314664Y-62518375D01*
X122423001Y-62626712D01*
X122423000Y-75222134D01*
X122367125Y-75198990D01*
X122077599Y-75141400D01*
X121782401Y-75141400D01*
X121492875Y-75198990D01*
X121428400Y-75225697D01*
X121428400Y-61263434D01*
X121437205Y-61250256D01*
X121515226Y-61061898D01*
X121555000Y-60861939D01*
X121555000Y-60658061D01*
X121515226Y-60458102D01*
X121437205Y-60269744D01*
X121323937Y-60100226D01*
X121179774Y-59956063D01*
X121010256Y-59842795D01*
X120821898Y-59764774D01*
X120621939Y-59725000D01*
X120418061Y-59725000D01*
X120218102Y-59764774D01*
X120029744Y-59842795D01*
X119860226Y-59956063D01*
X119716063Y-60100226D01*
X119602795Y-60269744D01*
X119524774Y-60458102D01*
X119485000Y-60658061D01*
X119485000Y-60861939D01*
X119524774Y-61061898D01*
X119602795Y-61250256D01*
X119716063Y-61419774D01*
X119860226Y-61563937D01*
X119908401Y-61596126D01*
X119908400Y-75232655D01*
X119827125Y-75198990D01*
X119537599Y-75141400D01*
X119242401Y-75141400D01*
X118952875Y-75198990D01*
X118680147Y-75311958D01*
X118434698Y-75475961D01*
X118225961Y-75684698D01*
X118120000Y-75843281D01*
X118014039Y-75684698D01*
X117805302Y-75475961D01*
X117610000Y-75345465D01*
X117610000Y-60402711D01*
X117636937Y-60375774D01*
X117750205Y-60206256D01*
X117828226Y-60017898D01*
X117868000Y-59817939D01*
X117868000Y-59614061D01*
X117828226Y-59414102D01*
X117750205Y-59225744D01*
X117636937Y-59056226D01*
X117492774Y-58912063D01*
X117323256Y-58798795D01*
X117134898Y-58720774D01*
X116934939Y-58681000D01*
X116731061Y-58681000D01*
X116531102Y-58720774D01*
X116342744Y-58798795D01*
X116173226Y-58912063D01*
X116029063Y-59056226D01*
X115915795Y-59225744D01*
X115837774Y-59414102D01*
X115798000Y-59614061D01*
X115798000Y-59817939D01*
X115837774Y-60017898D01*
X115915795Y-60206256D01*
X116029063Y-60375774D01*
X116090001Y-60436712D01*
X116090000Y-75345465D01*
X115894698Y-75475961D01*
X115685961Y-75684698D01*
X115580000Y-75843281D01*
X115474039Y-75684698D01*
X115265302Y-75475961D01*
X115070000Y-75345465D01*
X115070000Y-63103711D01*
X115113937Y-63059774D01*
X115227205Y-62890256D01*
X115305226Y-62701898D01*
X115345000Y-62501939D01*
X115345000Y-62298061D01*
X115305226Y-62098102D01*
X115227205Y-61909744D01*
X115113937Y-61740226D01*
X114969774Y-61596063D01*
X114800256Y-61482795D01*
X114611898Y-61404774D01*
X114411939Y-61365000D01*
X114208061Y-61365000D01*
X114008102Y-61404774D01*
X113819744Y-61482795D01*
X113650226Y-61596063D01*
X113506063Y-61740226D01*
X113392795Y-61909744D01*
X113314774Y-62098102D01*
X113275000Y-62298061D01*
X113275000Y-62501939D01*
X113314774Y-62701898D01*
X113392795Y-62890256D01*
X113506063Y-63059774D01*
X113550000Y-63103711D01*
X113550001Y-75345464D01*
X113354698Y-75475961D01*
X113145961Y-75684698D01*
X113040000Y-75843281D01*
X112934039Y-75684698D01*
X112725302Y-75475961D01*
X112479853Y-75311958D01*
X112207125Y-75198990D01*
X111917599Y-75141400D01*
X111622401Y-75141400D01*
X111332875Y-75198990D01*
X111060147Y-75311958D01*
X110814698Y-75475961D01*
X110605961Y-75684698D01*
X110500000Y-75843281D01*
X110394039Y-75684698D01*
X110185302Y-75475961D01*
X109939853Y-75311958D01*
X109667125Y-75198990D01*
X109377599Y-75141400D01*
X109082401Y-75141400D01*
X108792875Y-75198990D01*
X108520147Y-75311958D01*
X108274698Y-75475961D01*
X108065961Y-75684698D01*
X107901958Y-75930147D01*
X107788990Y-76202875D01*
X107731400Y-76492401D01*
X105648600Y-76492401D01*
X105591010Y-76202875D01*
X105478042Y-75930147D01*
X105314039Y-75684698D01*
X105105302Y-75475961D01*
X104859853Y-75311958D01*
X104587125Y-75198990D01*
X104297599Y-75141400D01*
X104002401Y-75141400D01*
X103712875Y-75198990D01*
X103440147Y-75311958D01*
X103194698Y-75475961D01*
X102985961Y-75684698D01*
X102916922Y-75788022D01*
X102821731Y-75645558D01*
X102604442Y-75428269D01*
X102348937Y-75257546D01*
X102065035Y-75139950D01*
X101763647Y-75080000D01*
X101456353Y-75080000D01*
X101154965Y-75139950D01*
X100871063Y-75257546D01*
X100615558Y-75428269D01*
X100398269Y-75645558D01*
X100227546Y-75901063D01*
X100109950Y-76184965D01*
X100050000Y-76486353D01*
X99780000Y-76486353D01*
X99780000Y-75963711D01*
X99823937Y-75919774D01*
X99937205Y-75750256D01*
X100015226Y-75561898D01*
X100055000Y-75361939D01*
X100055000Y-75158061D01*
X100015226Y-74958102D01*
X99937205Y-74769744D01*
X99823937Y-74600226D01*
X99679774Y-74456063D01*
X99510256Y-74342795D01*
X99321898Y-74264774D01*
X99121939Y-74225000D01*
X98918061Y-74225000D01*
X98718102Y-74264774D01*
X98543000Y-74337304D01*
X98543000Y-69973204D01*
X98626842Y-70007932D01*
X98913740Y-70065000D01*
X99206260Y-70065000D01*
X99493158Y-70007932D01*
X99763411Y-69895990D01*
X100006632Y-69733475D01*
X100213475Y-69526632D01*
X100375990Y-69283411D01*
X100487932Y-69013158D01*
X100545000Y-68726260D01*
X100545000Y-68433740D01*
X100487932Y-68146842D01*
X100375990Y-67876589D01*
X100213475Y-67633368D01*
X100006632Y-67426525D01*
X99832240Y-67310000D01*
X100006632Y-67193475D01*
X100213475Y-66986632D01*
X100375990Y-66743411D01*
X100487932Y-66473158D01*
X100545000Y-66186260D01*
X100545000Y-65893740D01*
X100487932Y-65606842D01*
X100375990Y-65336589D01*
X100213475Y-65093368D01*
X100006632Y-64886525D01*
X99832240Y-64770000D01*
X100006632Y-64653475D01*
X100213475Y-64446632D01*
X100252919Y-64387600D01*
X110753889Y-64387600D01*
X110797826Y-64431537D01*
X110967344Y-64544805D01*
X111155702Y-64622826D01*
X111355661Y-64662600D01*
X111559539Y-64662600D01*
X111759498Y-64622826D01*
X111947856Y-64544805D01*
X112117374Y-64431537D01*
X112261537Y-64287374D01*
X112374805Y-64117856D01*
X112452826Y-63929498D01*
X112492600Y-63729539D01*
X112492600Y-63525661D01*
X112452826Y-63325702D01*
X112374805Y-63137344D01*
X112261537Y-62967826D01*
X112117374Y-62823663D01*
X111947856Y-62710395D01*
X111759498Y-62632374D01*
X111559539Y-62592600D01*
X111355661Y-62592600D01*
X111155702Y-62632374D01*
X110967344Y-62710395D01*
X110797826Y-62823663D01*
X110753889Y-62867600D01*
X100405404Y-62867600D01*
X100375990Y-62796589D01*
X100213475Y-62553368D01*
X100006632Y-62346525D01*
X99832240Y-62230000D01*
X99834335Y-62228600D01*
X108179089Y-62228600D01*
X108223026Y-62272537D01*
X108392544Y-62385805D01*
X108580902Y-62463826D01*
X108780861Y-62503600D01*
X108984739Y-62503600D01*
X109184698Y-62463826D01*
X109373056Y-62385805D01*
X109542574Y-62272537D01*
X109686737Y-62128374D01*
X109800005Y-61958856D01*
X109878026Y-61770498D01*
X109917800Y-61570539D01*
X109917800Y-61366661D01*
X109878026Y-61166702D01*
X109800005Y-60978344D01*
X109686737Y-60808826D01*
X109542574Y-60664663D01*
X109373056Y-60551395D01*
X109184698Y-60473374D01*
X108984739Y-60433600D01*
X108780861Y-60433600D01*
X108580902Y-60473374D01*
X108392544Y-60551395D01*
X108223026Y-60664663D01*
X108179089Y-60708600D01*
X100524086Y-60708600D01*
X100487932Y-60526842D01*
X100375990Y-60256589D01*
X100213475Y-60013368D01*
X100006632Y-59806525D01*
X99832240Y-59690000D01*
X100006632Y-59573475D01*
X100213475Y-59366632D01*
X100375990Y-59123411D01*
X100487932Y-58853158D01*
X100545000Y-58566260D01*
X100545000Y-58273740D01*
X100487932Y-57986842D01*
X100375990Y-57716589D01*
X100213475Y-57473368D01*
X100006632Y-57266525D01*
X99832240Y-57150000D01*
X100006632Y-57033475D01*
X100213475Y-56826632D01*
X100375990Y-56583411D01*
X100487932Y-56313158D01*
X100545000Y-56026260D01*
X100545000Y-55733740D01*
X100487932Y-55446842D01*
X100375990Y-55176589D01*
X100213475Y-54933368D01*
X100006632Y-54726525D01*
X99832240Y-54610000D01*
X100006632Y-54493475D01*
X100213475Y-54286632D01*
X100375990Y-54043411D01*
X100487932Y-53773158D01*
X100545000Y-53486260D01*
X100545000Y-53193740D01*
X100487932Y-52906842D01*
X100375990Y-52636589D01*
X100213475Y-52393368D01*
X100006632Y-52186525D01*
X99832240Y-52070000D01*
X100006632Y-51953475D01*
X100213475Y-51746632D01*
X100375990Y-51503411D01*
X100487932Y-51233158D01*
X100545000Y-50946260D01*
X100545000Y-50698061D01*
X101828000Y-50698061D01*
X101828000Y-50901939D01*
X101867774Y-51101898D01*
X101945795Y-51290256D01*
X102059063Y-51459774D01*
X102203226Y-51603937D01*
X102372744Y-51717205D01*
X102561102Y-51795226D01*
X102761061Y-51835000D01*
X102797199Y-51835000D01*
X105511000Y-54548802D01*
X105511000Y-54610939D01*
X105550774Y-54810898D01*
X105628795Y-54999256D01*
X105742063Y-55168774D01*
X105886226Y-55312937D01*
X106055744Y-55426205D01*
X106244102Y-55504226D01*
X106444061Y-55544000D01*
X106647939Y-55544000D01*
X106847898Y-55504226D01*
X107036256Y-55426205D01*
X107205774Y-55312937D01*
X107349937Y-55168774D01*
X107463205Y-54999256D01*
X107541226Y-54810898D01*
X107581000Y-54610939D01*
X107581000Y-54407061D01*
X107541226Y-54207102D01*
X107463205Y-54018744D01*
X107349937Y-53849226D01*
X107205774Y-53705063D01*
X107036256Y-53591795D01*
X106847898Y-53513774D01*
X106647939Y-53474000D01*
X106585802Y-53474000D01*
X103898000Y-50786199D01*
X103898000Y-50698061D01*
X103858226Y-50498102D01*
X103780205Y-50309744D01*
X103666937Y-50140226D01*
X103566583Y-50039872D01*
X111285000Y-50039872D01*
X111285000Y-50480128D01*
X111370890Y-50911925D01*
X111539369Y-51318669D01*
X111783962Y-51684729D01*
X112095271Y-51996038D01*
X112461331Y-52240631D01*
X112868075Y-52409110D01*
X113299872Y-52495000D01*
X113740128Y-52495000D01*
X114171925Y-52409110D01*
X114578669Y-52240631D01*
X114944729Y-51996038D01*
X115256038Y-51684729D01*
X115500631Y-51318669D01*
X115669110Y-50911925D01*
X115755000Y-50480128D01*
X115755000Y-50039872D01*
X130285000Y-50039872D01*
X130285000Y-50480128D01*
X130370890Y-50911925D01*
X130539369Y-51318669D01*
X130783962Y-51684729D01*
X131095271Y-51996038D01*
X131461331Y-52240631D01*
X131868075Y-52409110D01*
X132299872Y-52495000D01*
X132740128Y-52495000D01*
X133171925Y-52409110D01*
X133578669Y-52240631D01*
X133944729Y-51996038D01*
X134256038Y-51684729D01*
X134500631Y-51318669D01*
X134669110Y-50911925D01*
X134755000Y-50480128D01*
X134755000Y-50039872D01*
X134669110Y-49608075D01*
X134500631Y-49201331D01*
X134256038Y-48835271D01*
X133944729Y-48523962D01*
X133578669Y-48279369D01*
X133171925Y-48110890D01*
X132740128Y-48025000D01*
X132299872Y-48025000D01*
X131868075Y-48110890D01*
X131461331Y-48279369D01*
X131095271Y-48523962D01*
X130783962Y-48835271D01*
X130539369Y-49201331D01*
X130370890Y-49608075D01*
X130285000Y-50039872D01*
X115755000Y-50039872D01*
X115669110Y-49608075D01*
X115500631Y-49201331D01*
X115256038Y-48835271D01*
X114944729Y-48523962D01*
X114578669Y-48279369D01*
X114171925Y-48110890D01*
X113740128Y-48025000D01*
X113299872Y-48025000D01*
X112868075Y-48110890D01*
X112461331Y-48279369D01*
X112095271Y-48523962D01*
X111783962Y-48835271D01*
X111539369Y-49201331D01*
X111370890Y-49608075D01*
X111285000Y-50039872D01*
X103566583Y-50039872D01*
X103522774Y-49996063D01*
X103353256Y-49882795D01*
X103164898Y-49804774D01*
X102964939Y-49765000D01*
X102761061Y-49765000D01*
X102561102Y-49804774D01*
X102372744Y-49882795D01*
X102203226Y-49996063D01*
X102059063Y-50140226D01*
X101945795Y-50309744D01*
X101867774Y-50498102D01*
X101828000Y-50698061D01*
X100545000Y-50698061D01*
X100545000Y-50653740D01*
X100487932Y-50366842D01*
X100375990Y-50096589D01*
X100213475Y-49853368D01*
X100006632Y-49646525D01*
X99832240Y-49530000D01*
X100006632Y-49413475D01*
X100213475Y-49206632D01*
X100375990Y-48963411D01*
X100487932Y-48693158D01*
X100545000Y-48406260D01*
X100545000Y-48113740D01*
X100487932Y-47826842D01*
X100375990Y-47556589D01*
X100278043Y-47410000D01*
X145831928Y-47410000D01*
X145831928Y-49110000D01*
X145844188Y-49234482D01*
X145880498Y-49354180D01*
X145939463Y-49464494D01*
X146018815Y-49561185D01*
X146115506Y-49640537D01*
X146225820Y-49699502D01*
X146298380Y-49721513D01*
X146166525Y-49853368D01*
X146004010Y-50096589D01*
X145892068Y-50366842D01*
X145835000Y-50653740D01*
X145835000Y-50946260D01*
X145892068Y-51233158D01*
X146004010Y-51503411D01*
X146166525Y-51746632D01*
X146373368Y-51953475D01*
X146547760Y-52070000D01*
X146373368Y-52186525D01*
X146166525Y-52393368D01*
X146004010Y-52636589D01*
X145892068Y-52906842D01*
X145835000Y-53193740D01*
X145835000Y-53486260D01*
X145892068Y-53773158D01*
X146004010Y-54043411D01*
X146166525Y-54286632D01*
X146373368Y-54493475D01*
X146547760Y-54610000D01*
X146373368Y-54726525D01*
X146166525Y-54933368D01*
X146004010Y-55176589D01*
X145892068Y-55446842D01*
X145835000Y-55733740D01*
X145835000Y-56026260D01*
X145892068Y-56313158D01*
X146004010Y-56583411D01*
X146166525Y-56826632D01*
X146373368Y-57033475D01*
X146547760Y-57150000D01*
X146373368Y-57266525D01*
X146166525Y-57473368D01*
X146004010Y-57716589D01*
X145892068Y-57986842D01*
X145835000Y-58273740D01*
X145835000Y-58566260D01*
X145892068Y-58853158D01*
X146004010Y-59123411D01*
X146166525Y-59366632D01*
X146373368Y-59573475D01*
X146547760Y-59690000D01*
X146373368Y-59806525D01*
X146166525Y-60013368D01*
X146004010Y-60256589D01*
X145892068Y-60526842D01*
X145835000Y-60813740D01*
X145835000Y-61106260D01*
X145892068Y-61393158D01*
X146004010Y-61663411D01*
X146166525Y-61906632D01*
X146373368Y-62113475D01*
X146547760Y-62230000D01*
X146373368Y-62346525D01*
X146166525Y-62553368D01*
X146004010Y-62796589D01*
X145892068Y-63066842D01*
X145835000Y-63353740D01*
X145835000Y-63646260D01*
X145892068Y-63933158D01*
X146004010Y-64203411D01*
X146166525Y-64446632D01*
X146373368Y-64653475D01*
X146547760Y-64770000D01*
X146373368Y-64886525D01*
X146166525Y-65093368D01*
X146004010Y-65336589D01*
X145892068Y-65606842D01*
X145835000Y-65893740D01*
X145835000Y-66186260D01*
X145892068Y-66473158D01*
X146004010Y-66743411D01*
X146166525Y-66986632D01*
X146373368Y-67193475D01*
X146547760Y-67310000D01*
X146373368Y-67426525D01*
X146166525Y-67633368D01*
X146004010Y-67876589D01*
X145892068Y-68146842D01*
X145835000Y-68433740D01*
X145835000Y-68726260D01*
X145892068Y-69013158D01*
X146004010Y-69283411D01*
X146166525Y-69526632D01*
X146373368Y-69733475D01*
X146547760Y-69850000D01*
X146373368Y-69966525D01*
X146166525Y-70173368D01*
X146004010Y-70416589D01*
X145892068Y-70686842D01*
X145835000Y-70973740D01*
X145835000Y-71266260D01*
X145892068Y-71553158D01*
X146004010Y-71823411D01*
X146166525Y-72066632D01*
X146373368Y-72273475D01*
X146616589Y-72435990D01*
X146886842Y-72547932D01*
X147173740Y-72605000D01*
X147466260Y-72605000D01*
X147753158Y-72547932D01*
X148023411Y-72435990D01*
X148266632Y-72273475D01*
X148473475Y-72066632D01*
X148590000Y-71892240D01*
X148706525Y-72066632D01*
X148913368Y-72273475D01*
X149156589Y-72435990D01*
X149426842Y-72547932D01*
X149713740Y-72605000D01*
X150006260Y-72605000D01*
X150293158Y-72547932D01*
X150563411Y-72435990D01*
X150806632Y-72273475D01*
X151013475Y-72066632D01*
X151175990Y-71823411D01*
X151287932Y-71553158D01*
X151345000Y-71266260D01*
X151345000Y-70973740D01*
X151287932Y-70686842D01*
X151175990Y-70416589D01*
X151013475Y-70173368D01*
X150806632Y-69966525D01*
X150632240Y-69850000D01*
X150806632Y-69733475D01*
X151013475Y-69526632D01*
X151175990Y-69283411D01*
X151287932Y-69013158D01*
X151345000Y-68726260D01*
X151345000Y-68433740D01*
X151287932Y-68146842D01*
X151175990Y-67876589D01*
X151013475Y-67633368D01*
X150806632Y-67426525D01*
X150632240Y-67310000D01*
X150806632Y-67193475D01*
X151013475Y-66986632D01*
X151175990Y-66743411D01*
X151287932Y-66473158D01*
X151345000Y-66186260D01*
X151345000Y-65893740D01*
X151287932Y-65606842D01*
X151175990Y-65336589D01*
X151013475Y-65093368D01*
X150806632Y-64886525D01*
X150632240Y-64770000D01*
X150806632Y-64653475D01*
X151013475Y-64446632D01*
X151175990Y-64203411D01*
X151287932Y-63933158D01*
X151345000Y-63646260D01*
X151345000Y-63353740D01*
X151287932Y-63066842D01*
X151175990Y-62796589D01*
X151013475Y-62553368D01*
X150806632Y-62346525D01*
X150632240Y-62230000D01*
X150806632Y-62113475D01*
X151013475Y-61906632D01*
X151175990Y-61663411D01*
X151287932Y-61393158D01*
X151345000Y-61106260D01*
X151345000Y-60813740D01*
X151287932Y-60526842D01*
X151175990Y-60256589D01*
X151013475Y-60013368D01*
X150806632Y-59806525D01*
X150632240Y-59690000D01*
X150806632Y-59573475D01*
X151013475Y-59366632D01*
X151175990Y-59123411D01*
X151287932Y-58853158D01*
X151345000Y-58566260D01*
X151345000Y-58273740D01*
X151287932Y-57986842D01*
X151175990Y-57716589D01*
X151013475Y-57473368D01*
X150806632Y-57266525D01*
X150632240Y-57150000D01*
X150806632Y-57033475D01*
X151013475Y-56826632D01*
X151175990Y-56583411D01*
X151287932Y-56313158D01*
X151345000Y-56026260D01*
X151345000Y-55733740D01*
X151287932Y-55446842D01*
X151175990Y-55176589D01*
X151013475Y-54933368D01*
X150806632Y-54726525D01*
X150632240Y-54610000D01*
X150806632Y-54493475D01*
X151013475Y-54286632D01*
X151175990Y-54043411D01*
X151287932Y-53773158D01*
X151345000Y-53486260D01*
X151345000Y-53193740D01*
X151287932Y-52906842D01*
X151175990Y-52636589D01*
X151013475Y-52393368D01*
X150806632Y-52186525D01*
X150632240Y-52070000D01*
X150806632Y-51953475D01*
X151013475Y-51746632D01*
X151175990Y-51503411D01*
X151287932Y-51233158D01*
X151345000Y-50946260D01*
X151345000Y-50653740D01*
X151287932Y-50366842D01*
X151175990Y-50096589D01*
X151013475Y-49853368D01*
X150806632Y-49646525D01*
X150632240Y-49530000D01*
X150806632Y-49413475D01*
X151013475Y-49206632D01*
X151175990Y-48963411D01*
X151287932Y-48693158D01*
X151345000Y-48406260D01*
X151345000Y-48113740D01*
X151287932Y-47826842D01*
X151175990Y-47556589D01*
X151013475Y-47313368D01*
X150806632Y-47106525D01*
X150563411Y-46944010D01*
X150293158Y-46832068D01*
X150006260Y-46775000D01*
X149713740Y-46775000D01*
X149426842Y-46832068D01*
X149156589Y-46944010D01*
X148913368Y-47106525D01*
X148781513Y-47238380D01*
X148759502Y-47165820D01*
X148700537Y-47055506D01*
X148621185Y-46958815D01*
X148524494Y-46879463D01*
X148414180Y-46820498D01*
X148294482Y-46784188D01*
X148170000Y-46771928D01*
X146470000Y-46771928D01*
X146345518Y-46784188D01*
X146225820Y-46820498D01*
X146115506Y-46879463D01*
X146018815Y-46958815D01*
X145939463Y-47055506D01*
X145880498Y-47165820D01*
X145844188Y-47285518D01*
X145831928Y-47410000D01*
X100278043Y-47410000D01*
X100213475Y-47313368D01*
X100006632Y-47106525D01*
X99763411Y-46944010D01*
X99493158Y-46832068D01*
X99206260Y-46775000D01*
X98913740Y-46775000D01*
X98626842Y-46832068D01*
X98356589Y-46944010D01*
X98113368Y-47106525D01*
X97981513Y-47238380D01*
X97959502Y-47165820D01*
X97900537Y-47055506D01*
X97821185Y-46958815D01*
X97724494Y-46879463D01*
X97614180Y-46820498D01*
X97494482Y-46784188D01*
X97370000Y-46771928D01*
X95670000Y-46771928D01*
X95545518Y-46784188D01*
X95425820Y-46820498D01*
X95315506Y-46879463D01*
X95218815Y-46958815D01*
X95139463Y-47055506D01*
X95080498Y-47165820D01*
X95044188Y-47285518D01*
X95031928Y-47410000D01*
X95031928Y-49110000D01*
X95044188Y-49234482D01*
X95080498Y-49354180D01*
X95139463Y-49464494D01*
X95218815Y-49561185D01*
X95315506Y-49640537D01*
X95425820Y-49699502D01*
X95498380Y-49721513D01*
X95366525Y-49853368D01*
X95204010Y-50096589D01*
X95092068Y-50366842D01*
X95035000Y-50653740D01*
X95035000Y-50946260D01*
X95092068Y-51233158D01*
X95204010Y-51503411D01*
X95366525Y-51746632D01*
X95573368Y-51953475D01*
X95747760Y-52070000D01*
X95573368Y-52186525D01*
X95366525Y-52393368D01*
X95204010Y-52636589D01*
X95092068Y-52906842D01*
X95035000Y-53193740D01*
X95035000Y-53486260D01*
X95092068Y-53773158D01*
X95204010Y-54043411D01*
X95366525Y-54286632D01*
X95573368Y-54493475D01*
X95747760Y-54610000D01*
X95573368Y-54726525D01*
X95366525Y-54933368D01*
X95204010Y-55176589D01*
X95092068Y-55446842D01*
X95035000Y-55733740D01*
X95035000Y-56026260D01*
X95092068Y-56313158D01*
X95204010Y-56583411D01*
X95366525Y-56826632D01*
X95573368Y-57033475D01*
X95747760Y-57150000D01*
X95573368Y-57266525D01*
X95366525Y-57473368D01*
X95204010Y-57716589D01*
X95092068Y-57986842D01*
X95035000Y-58273740D01*
X95035000Y-58566260D01*
X95092068Y-58853158D01*
X95204010Y-59123411D01*
X95366525Y-59366632D01*
X95573368Y-59573475D01*
X95747760Y-59690000D01*
X95573368Y-59806525D01*
X95366525Y-60013368D01*
X95204010Y-60256589D01*
X95092068Y-60526842D01*
X95035000Y-60813740D01*
X95035000Y-61106260D01*
X95092068Y-61393158D01*
X95204010Y-61663411D01*
X95366525Y-61906632D01*
X95573368Y-62113475D01*
X95747760Y-62230000D01*
X95573368Y-62346525D01*
X95366525Y-62553368D01*
X95204010Y-62796589D01*
X95092068Y-63066842D01*
X95035000Y-63353740D01*
X95035000Y-63646260D01*
X95078790Y-63866408D01*
X93258798Y-65686401D01*
X93229800Y-65710199D01*
X93206002Y-65739197D01*
X93206001Y-65739198D01*
X93180000Y-65770880D01*
X93180000Y-48292278D01*
X93246714Y-47611874D01*
X93434943Y-46988428D01*
X93740681Y-46413421D01*
X94152279Y-45908753D01*
X94654067Y-45493638D01*
X95226924Y-45183895D01*
X95849039Y-44991318D01*
X96527584Y-44920000D01*
X149487722Y-44920000D01*
X150168126Y-44986714D01*
G37*
X150168126Y-44986714D02*
X150791572Y-45174943D01*
X151366579Y-45480681D01*
X151871247Y-45892279D01*
X152286362Y-46394067D01*
X152596105Y-46966924D01*
X152788682Y-47589039D01*
X152860001Y-48267594D01*
X152860000Y-91227721D01*
X152793286Y-91908126D01*
X152605057Y-92531570D01*
X152299323Y-93106573D01*
X151887721Y-93611248D01*
X151385933Y-94026362D01*
X150813077Y-94336104D01*
X150190961Y-94528682D01*
X149512417Y-94600000D01*
X96552279Y-94600000D01*
X95871874Y-94533286D01*
X95248430Y-94345057D01*
X94673427Y-94039323D01*
X94168752Y-93627721D01*
X93753638Y-93125933D01*
X93443896Y-92553077D01*
X93251318Y-91930961D01*
X93180000Y-91252417D01*
X93180000Y-91039872D01*
X94285000Y-91039872D01*
X94285000Y-91480128D01*
X94370890Y-91911925D01*
X94539369Y-92318669D01*
X94783962Y-92684729D01*
X95095271Y-92996038D01*
X95461331Y-93240631D01*
X95868075Y-93409110D01*
X96299872Y-93495000D01*
X96740128Y-93495000D01*
X97171925Y-93409110D01*
X97578669Y-93240631D01*
X97944729Y-92996038D01*
X98256038Y-92684729D01*
X98500631Y-92318669D01*
X98669110Y-91911925D01*
X98706022Y-91726353D01*
X100050000Y-91726353D01*
X100050000Y-92033647D01*
X100109950Y-92335035D01*
X100227546Y-92618937D01*
X100398269Y-92874442D01*
X100615558Y-93091731D01*
X100871063Y-93262454D01*
X101154965Y-93380050D01*
X101456353Y-93440000D01*
X101763647Y-93440000D01*
X102065035Y-93380050D01*
X102348937Y-93262454D01*
X102604442Y-93091731D01*
X102700902Y-92995271D01*
X102755863Y-93098094D01*
X102835215Y-93194785D01*
X102931906Y-93274137D01*
X103042220Y-93333102D01*
X103161918Y-93369412D01*
X103286400Y-93381672D01*
X105013600Y-93381672D01*
X105138082Y-93369412D01*
X105257780Y-93333102D01*
X105368094Y-93274137D01*
X105464785Y-93194785D01*
X105544137Y-93098094D01*
X105603102Y-92987780D01*
X105620636Y-92929977D01*
X105734698Y-93044039D01*
X105980147Y-93208042D01*
X106252875Y-93321010D01*
X106542401Y-93378600D01*
X106837599Y-93378600D01*
X107127125Y-93321010D01*
X107399853Y-93208042D01*
X107645302Y-93044039D01*
X107854039Y-92835302D01*
X107960000Y-92676719D01*
X108065961Y-92835302D01*
X108274698Y-93044039D01*
X108520147Y-93208042D01*
X108792875Y-93321010D01*
X109082401Y-93378600D01*
X109377599Y-93378600D01*
X109667125Y-93321010D01*
X109939853Y-93208042D01*
X110185302Y-93044039D01*
X110394039Y-92835302D01*
X110558042Y-92589853D01*
X110671010Y-92317125D01*
X110728600Y-92027599D01*
X110728600Y-91732401D01*
X112811400Y-91732401D01*
X112811400Y-92027599D01*
X112868990Y-92317125D01*
X112981958Y-92589853D01*
X113145961Y-92835302D01*
X113354698Y-93044039D01*
X113600147Y-93208042D01*
X113872875Y-93321010D01*
X114162401Y-93378600D01*
X114457599Y-93378600D01*
X114747125Y-93321010D01*
X115019853Y-93208042D01*
X115265302Y-93044039D01*
X115474039Y-92835302D01*
X115580000Y-92676719D01*
X115685961Y-92835302D01*
X115894698Y-93044039D01*
X116140147Y-93208042D01*
X116412875Y-93321010D01*
X116702401Y-93378600D01*
X116997599Y-93378600D01*
X117287125Y-93321010D01*
X117559853Y-93208042D01*
X117805302Y-93044039D01*
X118014039Y-92835302D01*
X118120000Y-92676719D01*
X118225961Y-92835302D01*
X118434698Y-93044039D01*
X118680147Y-93208042D01*
X118952875Y-93321010D01*
X119242401Y-93378600D01*
X119537599Y-93378600D01*
X119827125Y-93321010D01*
X120099853Y-93208042D01*
X120345302Y-93044039D01*
X120554039Y-92835302D01*
X120660000Y-92676719D01*
X120765961Y-92835302D01*
X120974698Y-93044039D01*
X121220147Y-93208042D01*
X121492875Y-93321010D01*
X121782401Y-93378600D01*
X122077599Y-93378600D01*
X122367125Y-93321010D01*
X122639853Y-93208042D01*
X122885302Y-93044039D01*
X123094039Y-92835302D01*
X123200000Y-92676719D01*
X123305961Y-92835302D01*
X123514698Y-93044039D01*
X123760147Y-93208042D01*
X124032875Y-93321010D01*
X124322401Y-93378600D01*
X124617599Y-93378600D01*
X124907125Y-93321010D01*
X125179853Y-93208042D01*
X125425302Y-93044039D01*
X125634039Y-92835302D01*
X125740000Y-92676719D01*
X125845961Y-92835302D01*
X126054698Y-93044039D01*
X126300147Y-93208042D01*
X126572875Y-93321010D01*
X126862401Y-93378600D01*
X127157599Y-93378600D01*
X127447125Y-93321010D01*
X127719853Y-93208042D01*
X127965302Y-93044039D01*
X128174039Y-92835302D01*
X128280000Y-92676719D01*
X128385961Y-92835302D01*
X128594698Y-93044039D01*
X128840147Y-93208042D01*
X129112875Y-93321010D01*
X129402401Y-93378600D01*
X129697599Y-93378600D01*
X129987125Y-93321010D01*
X130259853Y-93208042D01*
X130505302Y-93044039D01*
X130714039Y-92835302D01*
X130820000Y-92676719D01*
X130925961Y-92835302D01*
X131134698Y-93044039D01*
X131380147Y-93208042D01*
X131652875Y-93321010D01*
X131942401Y-93378600D01*
X132237599Y-93378600D01*
X132527125Y-93321010D01*
X132799853Y-93208042D01*
X133045302Y-93044039D01*
X133254039Y-92835302D01*
X133360000Y-92676719D01*
X133465961Y-92835302D01*
X133674698Y-93044039D01*
X133920147Y-93208042D01*
X134192875Y-93321010D01*
X134482401Y-93378600D01*
X134777599Y-93378600D01*
X135067125Y-93321010D01*
X135339853Y-93208042D01*
X135585302Y-93044039D01*
X135794039Y-92835302D01*
X135900000Y-92676719D01*
X136005961Y-92835302D01*
X136214698Y-93044039D01*
X136460147Y-93208042D01*
X136732875Y-93321010D01*
X137022401Y-93378600D01*
X137317599Y-93378600D01*
X137607125Y-93321010D01*
X137879853Y-93208042D01*
X138125302Y-93044039D01*
X138334039Y-92835302D01*
X138440000Y-92676719D01*
X138545961Y-92835302D01*
X138754698Y-93044039D01*
X139000147Y-93208042D01*
X139272875Y-93321010D01*
X139562401Y-93378600D01*
X139857599Y-93378600D01*
X140147125Y-93321010D01*
X140419853Y-93208042D01*
X140665302Y-93044039D01*
X140874039Y-92835302D01*
X140943078Y-92731978D01*
X141038269Y-92874442D01*
X141255558Y-93091731D01*
X141511063Y-93262454D01*
X141794965Y-93380050D01*
X142096353Y-93440000D01*
X142403647Y-93440000D01*
X142705035Y-93380050D01*
X142988937Y-93262454D01*
X143244442Y-93091731D01*
X143461731Y-92874442D01*
X143632454Y-92618937D01*
X143750050Y-92335035D01*
X143810000Y-92033647D01*
X143810000Y-91726353D01*
X143750050Y-91424965D01*
X143632454Y-91141063D01*
X143564841Y-91039872D01*
X147285000Y-91039872D01*
X147285000Y-91480128D01*
X147370890Y-91911925D01*
X147539369Y-92318669D01*
X147783962Y-92684729D01*
X148095271Y-92996038D01*
X148461331Y-93240631D01*
X148868075Y-93409110D01*
X149299872Y-93495000D01*
X149740128Y-93495000D01*
X150171925Y-93409110D01*
X150578669Y-93240631D01*
X150944729Y-92996038D01*
X151256038Y-92684729D01*
X151500631Y-92318669D01*
X151669110Y-91911925D01*
X151755000Y-91480128D01*
X151755000Y-91039872D01*
X151669110Y-90608075D01*
X151500631Y-90201331D01*
X151256038Y-89835271D01*
X150944729Y-89523962D01*
X150578669Y-89279369D01*
X150171925Y-89110890D01*
X149740128Y-89025000D01*
X149299872Y-89025000D01*
X148868075Y-89110890D01*
X148461331Y-89279369D01*
X148095271Y-89523962D01*
X147783962Y-89835271D01*
X147539369Y-90201331D01*
X147370890Y-90608075D01*
X147285000Y-91039872D01*
X143564841Y-91039872D01*
X143461731Y-90885558D01*
X143244442Y-90668269D01*
X142988937Y-90497546D01*
X142705035Y-90379950D01*
X142403647Y-90320000D01*
X142096353Y-90320000D01*
X141794965Y-90379950D01*
X141511063Y-90497546D01*
X141255558Y-90668269D01*
X141038269Y-90885558D01*
X140943078Y-91028022D01*
X140874039Y-90924698D01*
X140665302Y-90715961D01*
X140419853Y-90551958D01*
X140147125Y-90438990D01*
X139857599Y-90381400D01*
X139562401Y-90381400D01*
X139272875Y-90438990D01*
X139000147Y-90551958D01*
X138754698Y-90715961D01*
X138545961Y-90924698D01*
X138440000Y-91083281D01*
X138334039Y-90924698D01*
X138125302Y-90715961D01*
X137879853Y-90551958D01*
X137607125Y-90438990D01*
X137317599Y-90381400D01*
X137022401Y-90381400D01*
X136732875Y-90438990D01*
X136460147Y-90551958D01*
X136214698Y-90715961D01*
X136005961Y-90924698D01*
X135900000Y-91083281D01*
X135794039Y-90924698D01*
X135585302Y-90715961D01*
X135339853Y-90551958D01*
X135067125Y-90438990D01*
X134777599Y-90381400D01*
X134482401Y-90381400D01*
X134192875Y-90438990D01*
X133920147Y-90551958D01*
X133674698Y-90715961D01*
X133465961Y-90924698D01*
X133360000Y-91083281D01*
X133254039Y-90924698D01*
X133045302Y-90715961D01*
X132799853Y-90551958D01*
X132527125Y-90438990D01*
X132237599Y-90381400D01*
X131942401Y-90381400D01*
X131652875Y-90438990D01*
X131380147Y-90551958D01*
X131134698Y-90715961D01*
X130925961Y-90924698D01*
X130820000Y-91083281D01*
X130714039Y-90924698D01*
X130505302Y-90715961D01*
X130259853Y-90551958D01*
X129987125Y-90438990D01*
X129697599Y-90381400D01*
X129402401Y-90381400D01*
X129112875Y-90438990D01*
X128840147Y-90551958D01*
X128594698Y-90715961D01*
X128385961Y-90924698D01*
X128280000Y-91083281D01*
X128174039Y-90924698D01*
X127965302Y-90715961D01*
X127719853Y-90551958D01*
X127447125Y-90438990D01*
X127157599Y-90381400D01*
X126862401Y-90381400D01*
X126572875Y-90438990D01*
X126300147Y-90551958D01*
X126054698Y-90715961D01*
X125845961Y-90924698D01*
X125740000Y-91083281D01*
X125634039Y-90924698D01*
X125425302Y-90715961D01*
X125179853Y-90551958D01*
X124907125Y-90438990D01*
X124617599Y-90381400D01*
X124322401Y-90381400D01*
X124032875Y-90438990D01*
X123760147Y-90551958D01*
X123514698Y-90715961D01*
X123305961Y-90924698D01*
X123200000Y-91083281D01*
X123094039Y-90924698D01*
X122885302Y-90715961D01*
X122639853Y-90551958D01*
X122367125Y-90438990D01*
X122077599Y-90381400D01*
X121782401Y-90381400D01*
X121492875Y-90438990D01*
X121220147Y-90551958D01*
X120974698Y-90715961D01*
X120765961Y-90924698D01*
X120660000Y-91083281D01*
X120554039Y-90924698D01*
X120345302Y-90715961D01*
X120099853Y-90551958D01*
X119827125Y-90438990D01*
X119537599Y-90381400D01*
X119242401Y-90381400D01*
X118952875Y-90438990D01*
X118680147Y-90551958D01*
X118434698Y-90715961D01*
X118225961Y-90924698D01*
X118120000Y-91083281D01*
X118014039Y-90924698D01*
X117805302Y-90715961D01*
X117559853Y-90551958D01*
X117287125Y-90438990D01*
X116997599Y-90381400D01*
X116702401Y-90381400D01*
X116412875Y-90438990D01*
X116140147Y-90551958D01*
X115894698Y-90715961D01*
X115685961Y-90924698D01*
X115580000Y-91083281D01*
X115474039Y-90924698D01*
X115265302Y-90715961D01*
X115019853Y-90551958D01*
X114747125Y-90438990D01*
X114457599Y-90381400D01*
X114162401Y-90381400D01*
X113872875Y-90438990D01*
X113600147Y-90551958D01*
X113354698Y-90715961D01*
X113145961Y-90924698D01*
X112981958Y-91170147D01*
X112868990Y-91442875D01*
X112811400Y-91732401D01*
X110728600Y-91732401D01*
X110671010Y-91442875D01*
X110558042Y-91170147D01*
X110394039Y-90924698D01*
X110185302Y-90715961D01*
X109939853Y-90551958D01*
X109667125Y-90438990D01*
X109377599Y-90381400D01*
X109082401Y-90381400D01*
X108792875Y-90438990D01*
X108520147Y-90551958D01*
X108274698Y-90715961D01*
X108065961Y-90924698D01*
X107960000Y-91083281D01*
X107854039Y-90924698D01*
X107645302Y-90715961D01*
X107399853Y-90551958D01*
X107127125Y-90438990D01*
X106837599Y-90381400D01*
X106542401Y-90381400D01*
X106252875Y-90438990D01*
X105980147Y-90551958D01*
X105734698Y-90715961D01*
X105620636Y-90830023D01*
X105603102Y-90772220D01*
X105544137Y-90661906D01*
X105464785Y-90565215D01*
X105368094Y-90485863D01*
X105257780Y-90426898D01*
X105138082Y-90390588D01*
X105013600Y-90378328D01*
X103286400Y-90378328D01*
X103161918Y-90390588D01*
X103042220Y-90426898D01*
X102931906Y-90485863D01*
X102835215Y-90565215D01*
X102755863Y-90661906D01*
X102700902Y-90764729D01*
X102604442Y-90668269D01*
X102348937Y-90497546D01*
X102065035Y-90379950D01*
X101763647Y-90320000D01*
X101456353Y-90320000D01*
X101154965Y-90379950D01*
X100871063Y-90497546D01*
X100615558Y-90668269D01*
X100398269Y-90885558D01*
X100227546Y-91141063D01*
X100109950Y-91424965D01*
X100050000Y-91726353D01*
X98706022Y-91726353D01*
X98755000Y-91480128D01*
X98755000Y-91039872D01*
X98669110Y-90608075D01*
X98500631Y-90201331D01*
X98256038Y-89835271D01*
X97944729Y-89523962D01*
X97578669Y-89279369D01*
X97171925Y-89110890D01*
X96740128Y-89025000D01*
X96299872Y-89025000D01*
X95868075Y-89110890D01*
X95461331Y-89279369D01*
X95095271Y-89523962D01*
X94783962Y-89835271D01*
X94539369Y-90201331D01*
X94370890Y-90608075D01*
X94285000Y-91039872D01*
X93180000Y-91039872D01*
X93180000Y-88248061D01*
X116075000Y-88248061D01*
X116075000Y-88451939D01*
X116114774Y-88651898D01*
X116192795Y-88840256D01*
X116306063Y-89009774D01*
X116450226Y-89153937D01*
X116619744Y-89267205D01*
X116808102Y-89345226D01*
X117008061Y-89385000D01*
X117211939Y-89385000D01*
X117411898Y-89345226D01*
X117600256Y-89267205D01*
X117769774Y-89153937D01*
X117813711Y-89110000D01*
X121226289Y-89110000D01*
X121270226Y-89153937D01*
X121439744Y-89267205D01*
X121628102Y-89345226D01*
X121828061Y-89385000D01*
X122031939Y-89385000D01*
X122231898Y-89345226D01*
X122420256Y-89267205D01*
X122589774Y-89153937D01*
X122733937Y-89009774D01*
X122847205Y-88840256D01*
X122925226Y-88651898D01*
X122965000Y-88451939D01*
X122965000Y-88248061D01*
X122925226Y-88048102D01*
X122847205Y-87859744D01*
X122733937Y-87690226D01*
X122589774Y-87546063D01*
X122420256Y-87432795D01*
X122231898Y-87354774D01*
X122031939Y-87315000D01*
X121828061Y-87315000D01*
X121628102Y-87354774D01*
X121439744Y-87432795D01*
X121270226Y-87546063D01*
X121226289Y-87590000D01*
X117813711Y-87590000D01*
X117769774Y-87546063D01*
X117600256Y-87432795D01*
X117411898Y-87354774D01*
X117211939Y-87315000D01*
X117008061Y-87315000D01*
X116808102Y-87354774D01*
X116619744Y-87432795D01*
X116450226Y-87546063D01*
X116306063Y-87690226D01*
X116192795Y-87859744D01*
X116114774Y-88048102D01*
X116075000Y-88248061D01*
X93180000Y-88248061D01*
X93180000Y-73962120D01*
X93229799Y-74022801D01*
X93258803Y-74046604D01*
X94760001Y-75547803D01*
X94760000Y-80556289D01*
X94716063Y-80600226D01*
X94602795Y-80769744D01*
X94524774Y-80958102D01*
X94485000Y-81158061D01*
X94485000Y-81361939D01*
X94524774Y-81561898D01*
X94602795Y-81750256D01*
X94716063Y-81919774D01*
X94860226Y-82063937D01*
X95029744Y-82177205D01*
X95218102Y-82255226D01*
X95418061Y-82295000D01*
X95621939Y-82295000D01*
X95821898Y-82255226D01*
X96010256Y-82177205D01*
X96179774Y-82063937D01*
X96323937Y-81919774D01*
X96437205Y-81750256D01*
X96515226Y-81561898D01*
X96555000Y-81361939D01*
X96555000Y-81295000D01*
X96621939Y-81295000D01*
X96821898Y-81255226D01*
X97010256Y-81177205D01*
X97179774Y-81063937D01*
X97323937Y-80919774D01*
X97437205Y-80750256D01*
X97515226Y-80561898D01*
X97555000Y-80361939D01*
X97555000Y-80295000D01*
X97621939Y-80295000D01*
X97821898Y-80255226D01*
X97985000Y-80187666D01*
X97985000Y-80361939D01*
X98024774Y-80561898D01*
X98102795Y-80750256D01*
X98216063Y-80919774D01*
X98360226Y-81063937D01*
X98529744Y-81177205D01*
X98718102Y-81255226D01*
X98918061Y-81295000D01*
X99121939Y-81295000D01*
X99321898Y-81255226D01*
X99510256Y-81177205D01*
X99679774Y-81063937D01*
X99823937Y-80919774D01*
X99937205Y-80750256D01*
X100015226Y-80561898D01*
X100055000Y-80361939D01*
X100055000Y-80158061D01*
X100015226Y-79958102D01*
X99937205Y-79769744D01*
X99823937Y-79600226D01*
X99780000Y-79556289D01*
X99780000Y-76486353D01*
X100050000Y-76486353D01*
X100050000Y-76793647D01*
X100109950Y-77095035D01*
X100227546Y-77378937D01*
X100398269Y-77634442D01*
X100615558Y-77851731D01*
X100871063Y-78022454D01*
X101154965Y-78140050D01*
X101456353Y-78200000D01*
X101763647Y-78200000D01*
X102065035Y-78140050D01*
X102348937Y-78022454D01*
X102604442Y-77851731D01*
X102821731Y-77634442D01*
X102916922Y-77491978D01*
X102985961Y-77595302D01*
X103194698Y-77804039D01*
X103440147Y-77968042D01*
X103712875Y-78081010D01*
X104002401Y-78138600D01*
X104297599Y-78138600D01*
X104587125Y-78081010D01*
X104859853Y-77968042D01*
X105105302Y-77804039D01*
X105314039Y-77595302D01*
X105478042Y-77349853D01*
X105591010Y-77077125D01*
X105648600Y-76787599D01*
X105648600Y-76492401D01*
X107731400Y-76492401D01*
X107731400Y-76787599D01*
X107788990Y-77077125D01*
X107901958Y-77349853D01*
X108065961Y-77595302D01*
X108274698Y-77804039D01*
X108520147Y-77968042D01*
X108792875Y-78081010D01*
X109082401Y-78138600D01*
X109377599Y-78138600D01*
X109667125Y-78081010D01*
X109939853Y-77968042D01*
X110185302Y-77804039D01*
X110394039Y-77595302D01*
X110500000Y-77436719D01*
X110605961Y-77595302D01*
X110814698Y-77804039D01*
X111060147Y-77968042D01*
X111332875Y-78081010D01*
X111622401Y-78138600D01*
X111917599Y-78138600D01*
X112207125Y-78081010D01*
X112479853Y-77968042D01*
X112725302Y-77804039D01*
X112934039Y-77595302D01*
X113040000Y-77436719D01*
X113145961Y-77595302D01*
X113354698Y-77804039D01*
X113600147Y-77968042D01*
X113872875Y-78081010D01*
X114162401Y-78138600D01*
X114457599Y-78138600D01*
X114747125Y-78081010D01*
X115019853Y-77968042D01*
X115265302Y-77804039D01*
X115474039Y-77595302D01*
X115580000Y-77436719D01*
X115685961Y-77595302D01*
X115894698Y-77804039D01*
X116140147Y-77968042D01*
X116412875Y-78081010D01*
X116702401Y-78138600D01*
X116997599Y-78138600D01*
X117287125Y-78081010D01*
X117559853Y-77968042D01*
X117805302Y-77804039D01*
X118014039Y-77595302D01*
X118120000Y-77436719D01*
X118225961Y-77595302D01*
X118434698Y-77804039D01*
X118680147Y-77968042D01*
X118952875Y-78081010D01*
X119242401Y-78138600D01*
X119537599Y-78138600D01*
X119827125Y-78081010D01*
X119847190Y-78072699D01*
X119737463Y-78182426D01*
X119624195Y-78351944D01*
X119546174Y-78540302D01*
X119506400Y-78740261D01*
X119506400Y-78944139D01*
X119546174Y-79144098D01*
X119624195Y-79332456D01*
X119737463Y-79501974D01*
X119881626Y-79646137D01*
X120051144Y-79759405D01*
X120239502Y-79837426D01*
X120439461Y-79877200D01*
X120643339Y-79877200D01*
X120843298Y-79837426D01*
X121031656Y-79759405D01*
X121201174Y-79646137D01*
X121345337Y-79501974D01*
X121458605Y-79332456D01*
X121536626Y-79144098D01*
X121576400Y-78944139D01*
X121576400Y-78740261D01*
X121536626Y-78540302D01*
X121458605Y-78351944D01*
X121428400Y-78306739D01*
X121428400Y-78054303D01*
X121492875Y-78081010D01*
X121782401Y-78138600D01*
X122077599Y-78138600D01*
X122207716Y-78112718D01*
X122102795Y-78269744D01*
X122024774Y-78458102D01*
X121985000Y-78658061D01*
X121985000Y-78861939D01*
X122024774Y-79061898D01*
X122102795Y-79250256D01*
X122216063Y-79419774D01*
X122360226Y-79563937D01*
X122529744Y-79677205D01*
X122718102Y-79755226D01*
X122918061Y-79795000D01*
X123121939Y-79795000D01*
X123321898Y-79755226D01*
X123510256Y-79677205D01*
X123679774Y-79563937D01*
X123823937Y-79419774D01*
X123937205Y-79250256D01*
X124015226Y-79061898D01*
X124055000Y-78861939D01*
X124055000Y-78658061D01*
X124015226Y-78458102D01*
X123943000Y-78283734D01*
X123943000Y-78043782D01*
X124032875Y-78081010D01*
X124322401Y-78138600D01*
X124617599Y-78138600D01*
X124907125Y-78081010D01*
X124937600Y-78068387D01*
X124937600Y-78138489D01*
X124893663Y-78182426D01*
X124780395Y-78351944D01*
X124702374Y-78540302D01*
X124662600Y-78740261D01*
X124662600Y-78944139D01*
X124702374Y-79144098D01*
X124780395Y-79332456D01*
X124893663Y-79501974D01*
X125037826Y-79646137D01*
X125207344Y-79759405D01*
X125395702Y-79837426D01*
X125595661Y-79877200D01*
X125799539Y-79877200D01*
X125999498Y-79837426D01*
X126187856Y-79759405D01*
X126357374Y-79646137D01*
X126501537Y-79501974D01*
X126614805Y-79332456D01*
X126692826Y-79144098D01*
X126732600Y-78944139D01*
X126732600Y-78740261D01*
X126692826Y-78540302D01*
X126614805Y-78351944D01*
X126501537Y-78182426D01*
X126457600Y-78138489D01*
X126457600Y-78033261D01*
X126572875Y-78081010D01*
X126862401Y-78138600D01*
X127157599Y-78138600D01*
X127447125Y-78081010D01*
X127719853Y-77968042D01*
X127965302Y-77804039D01*
X128174039Y-77595302D01*
X128280000Y-77436719D01*
X128385961Y-77595302D01*
X128594698Y-77804039D01*
X128840147Y-77968042D01*
X129112875Y-78081010D01*
X129402401Y-78138600D01*
X129697599Y-78138600D01*
X129987125Y-78081010D01*
X130068400Y-78047345D01*
X130068400Y-78308201D01*
X130016226Y-78343063D01*
X129872063Y-78487226D01*
X129758795Y-78656744D01*
X129680774Y-78845102D01*
X129641000Y-79045061D01*
X129641000Y-79248939D01*
X129680774Y-79448898D01*
X129758795Y-79637256D01*
X129872063Y-79806774D01*
X130016226Y-79950937D01*
X130185744Y-80064205D01*
X130374102Y-80142226D01*
X130574061Y-80182000D01*
X130777939Y-80182000D01*
X130977898Y-80142226D01*
X131166256Y-80064205D01*
X131335774Y-79950937D01*
X131479937Y-79806774D01*
X131593205Y-79637256D01*
X131671226Y-79448898D01*
X131711000Y-79248939D01*
X131711000Y-79045061D01*
X131671226Y-78845102D01*
X131593205Y-78656744D01*
X131588400Y-78649553D01*
X131588400Y-78054303D01*
X131652875Y-78081010D01*
X131942401Y-78138600D01*
X132237599Y-78138600D01*
X132527125Y-78081010D01*
X132583000Y-78057866D01*
X132583000Y-78579173D01*
X132556226Y-78597063D01*
X132412063Y-78741226D01*
X132298795Y-78910744D01*
X132220774Y-79099102D01*
X132181000Y-79299061D01*
X132181000Y-79502939D01*
X132220774Y-79702898D01*
X132298795Y-79891256D01*
X132412063Y-80060774D01*
X132556226Y-80204937D01*
X132725744Y-80318205D01*
X132914102Y-80396226D01*
X133114061Y-80436000D01*
X133317939Y-80436000D01*
X133517898Y-80396226D01*
X133706256Y-80318205D01*
X133875774Y-80204937D01*
X134019937Y-80060774D01*
X134133205Y-79891256D01*
X134211226Y-79702898D01*
X134251000Y-79502939D01*
X134251000Y-79299061D01*
X134211226Y-79099102D01*
X134133205Y-78910744D01*
X134103000Y-78865539D01*
X134103000Y-78043782D01*
X134192875Y-78081010D01*
X134482401Y-78138600D01*
X134777599Y-78138600D01*
X135067125Y-78081010D01*
X135148400Y-78047345D01*
X135148400Y-79052889D01*
X135079063Y-79122226D01*
X134965795Y-79291744D01*
X134887774Y-79480102D01*
X134848000Y-79680061D01*
X134848000Y-79883939D01*
X134887774Y-80083898D01*
X134965795Y-80272256D01*
X135079063Y-80441774D01*
X135223226Y-80585937D01*
X135392744Y-80699205D01*
X135581102Y-80777226D01*
X135781061Y-80817000D01*
X135984939Y-80817000D01*
X136184898Y-80777226D01*
X136373256Y-80699205D01*
X136542774Y-80585937D01*
X136686937Y-80441774D01*
X136800205Y-80272256D01*
X136878226Y-80083898D01*
X136918000Y-79883939D01*
X136918000Y-79680061D01*
X136878226Y-79480102D01*
X136800205Y-79291744D01*
X136686937Y-79122226D01*
X136668400Y-79103689D01*
X136668400Y-78054303D01*
X136732875Y-78081010D01*
X137022401Y-78138600D01*
X137317599Y-78138600D01*
X137607125Y-78081010D01*
X137663000Y-78057866D01*
X137663000Y-79078289D01*
X137619063Y-79122226D01*
X137505795Y-79291744D01*
X137427774Y-79480102D01*
X137388000Y-79680061D01*
X137388000Y-79883939D01*
X137427774Y-80083898D01*
X137505795Y-80272256D01*
X137619063Y-80441774D01*
X137763226Y-80585937D01*
X137932744Y-80699205D01*
X138121102Y-80777226D01*
X138321061Y-80817000D01*
X138524939Y-80817000D01*
X138724898Y-80777226D01*
X138913256Y-80699205D01*
X139082774Y-80585937D01*
X139226937Y-80441774D01*
X139340205Y-80272256D01*
X139418226Y-80083898D01*
X139458000Y-79883939D01*
X139458000Y-79680061D01*
X139418226Y-79480102D01*
X139340205Y-79291744D01*
X139226937Y-79122226D01*
X139183000Y-79078289D01*
X139183000Y-78043782D01*
X139272875Y-78081010D01*
X139562401Y-78138600D01*
X139857599Y-78138600D01*
X140147125Y-78081010D01*
X140419853Y-77968042D01*
X140665302Y-77804039D01*
X140874039Y-77595302D01*
X140943078Y-77491978D01*
X141038269Y-77634442D01*
X141255558Y-77851731D01*
X141511063Y-78022454D01*
X141794965Y-78140050D01*
X142096353Y-78200000D01*
X142403647Y-78200000D01*
X142705035Y-78140050D01*
X142988937Y-78022454D01*
X143244442Y-77851731D01*
X143461731Y-77634442D01*
X143632454Y-77378937D01*
X143750050Y-77095035D01*
X143810000Y-76793647D01*
X143810000Y-76486353D01*
X143750050Y-76184965D01*
X143632454Y-75901063D01*
X143461731Y-75645558D01*
X143244442Y-75428269D01*
X142988937Y-75257546D01*
X142705035Y-75139950D01*
X142403647Y-75080000D01*
X142096353Y-75080000D01*
X141794965Y-75139950D01*
X141511063Y-75257546D01*
X141255558Y-75428269D01*
X141038269Y-75645558D01*
X140943078Y-75788022D01*
X140874039Y-75684698D01*
X140665302Y-75475961D01*
X140419853Y-75311958D01*
X140147125Y-75198990D01*
X139857599Y-75141400D01*
X139562401Y-75141400D01*
X139272875Y-75198990D01*
X139183000Y-75236218D01*
X139183000Y-74915201D01*
X139745502Y-74352700D01*
X139807639Y-74352700D01*
X140007598Y-74312926D01*
X140195956Y-74234905D01*
X140365474Y-74121637D01*
X140509637Y-73977474D01*
X140622905Y-73807956D01*
X140700926Y-73619598D01*
X140740700Y-73419639D01*
X140740700Y-73215761D01*
X140700926Y-73015802D01*
X140622905Y-72827444D01*
X140509637Y-72657926D01*
X140365474Y-72513763D01*
X140195956Y-72400495D01*
X140007598Y-72322474D01*
X139807639Y-72282700D01*
X139603761Y-72282700D01*
X139403802Y-72322474D01*
X139215444Y-72400495D01*
X139045926Y-72513763D01*
X138901763Y-72657926D01*
X138788495Y-72827444D01*
X138710474Y-73015802D01*
X138670700Y-73215761D01*
X138670700Y-73277898D01*
X137911998Y-74036601D01*
X137883000Y-74060399D01*
X137859202Y-74089397D01*
X137859201Y-74089398D01*
X137788026Y-74176124D01*
X137717454Y-74308154D01*
X137673998Y-74451415D01*
X137659324Y-74600400D01*
X137663001Y-74637732D01*
X137663001Y-75222135D01*
X137607125Y-75198990D01*
X137317599Y-75141400D01*
X137022401Y-75141400D01*
X136732875Y-75198990D01*
X136668400Y-75225697D01*
X136668400Y-74635801D01*
X137205502Y-74098700D01*
X137267639Y-74098700D01*
X137467598Y-74058926D01*
X137655956Y-73980905D01*
X137825474Y-73867637D01*
X137969637Y-73723474D01*
X138082905Y-73553956D01*
X138160926Y-73365598D01*
X138200700Y-73165639D01*
X138200700Y-72961761D01*
X138160926Y-72761802D01*
X138082905Y-72573444D01*
X137969637Y-72403926D01*
X137825474Y-72259763D01*
X137655956Y-72146495D01*
X137467598Y-72068474D01*
X137267639Y-72028700D01*
X137063761Y-72028700D01*
X136863802Y-72068474D01*
X136675444Y-72146495D01*
X136505926Y-72259763D01*
X136361763Y-72403926D01*
X136248495Y-72573444D01*
X136170474Y-72761802D01*
X136130700Y-72961761D01*
X136130700Y-73023898D01*
X135397398Y-73757201D01*
X135368400Y-73780999D01*
X135344602Y-73809997D01*
X135344601Y-73809998D01*
X135273426Y-73896724D01*
X135202854Y-74028754D01*
X135193702Y-74058926D01*
X135159398Y-74172014D01*
X135157233Y-74194000D01*
X135144724Y-74321000D01*
X135148401Y-74358332D01*
X135148401Y-75232656D01*
X135067125Y-75198990D01*
X134777599Y-75141400D01*
X134482401Y-75141400D01*
X134192875Y-75198990D01*
X134103000Y-75236218D01*
X134103000Y-74661201D01*
X134792502Y-73971700D01*
X134854639Y-73971700D01*
X135054598Y-73931926D01*
X135242956Y-73853905D01*
X135412474Y-73740637D01*
X135556637Y-73596474D01*
X135669905Y-73426956D01*
X135747926Y-73238598D01*
X135787700Y-73038639D01*
X135787700Y-72834761D01*
X135747926Y-72634802D01*
X135669905Y-72446444D01*
X135556637Y-72276926D01*
X135412474Y-72132763D01*
X135242956Y-72019495D01*
X135054598Y-71941474D01*
X134854639Y-71901700D01*
X134650761Y-71901700D01*
X134450802Y-71941474D01*
X134262444Y-72019495D01*
X134092926Y-72132763D01*
X133948763Y-72276926D01*
X133835495Y-72446444D01*
X133757474Y-72634802D01*
X133717700Y-72834761D01*
X133717700Y-72896898D01*
X132831998Y-73782601D01*
X132803000Y-73806399D01*
X132779202Y-73835397D01*
X132779201Y-73835398D01*
X132708026Y-73922124D01*
X132637454Y-74054154D01*
X132593998Y-74197415D01*
X132579324Y-74346400D01*
X132583001Y-74383732D01*
X132583001Y-75222135D01*
X132527125Y-75198990D01*
X132237599Y-75141400D01*
X131942401Y-75141400D01*
X131652875Y-75198990D01*
X131588400Y-75225697D01*
X131588400Y-74508801D01*
X132125502Y-73971700D01*
X132187639Y-73971700D01*
X132387598Y-73931926D01*
X132575956Y-73853905D01*
X132745474Y-73740637D01*
X132889637Y-73596474D01*
X133002905Y-73426956D01*
X133080926Y-73238598D01*
X133120700Y-73038639D01*
X133120700Y-72834761D01*
X133080926Y-72634802D01*
X133002905Y-72446444D01*
X132889637Y-72276926D01*
X132745474Y-72132763D01*
X132575956Y-72019495D01*
X132387598Y-71941474D01*
X132187639Y-71901700D01*
X131983761Y-71901700D01*
X131783802Y-71941474D01*
X131595444Y-72019495D01*
X131425926Y-72132763D01*
X131281763Y-72276926D01*
X131168495Y-72446444D01*
X131090474Y-72634802D01*
X131050700Y-72834761D01*
X131050700Y-72896898D01*
X130317398Y-73630201D01*
X130288400Y-73653999D01*
X130264602Y-73682997D01*
X130264601Y-73682998D01*
X130193426Y-73769724D01*
X130122854Y-73901754D01*
X130103540Y-73965426D01*
X130084331Y-74028754D01*
X130079398Y-74045015D01*
X130064724Y-74194000D01*
X130068401Y-74231332D01*
X130068401Y-75232656D01*
X129987125Y-75198990D01*
X129697599Y-75141400D01*
X129402401Y-75141400D01*
X129112875Y-75198990D01*
X128840147Y-75311958D01*
X128594698Y-75475961D01*
X128385961Y-75684698D01*
X128280000Y-75843281D01*
X128174039Y-75684698D01*
X127965302Y-75475961D01*
X127719853Y-75311958D01*
X127447125Y-75198990D01*
X127157599Y-75141400D01*
X126862401Y-75141400D01*
X126572875Y-75198990D01*
X126457600Y-75246739D01*
X126457600Y-64153511D01*
X126501537Y-64109574D01*
X126614805Y-63940056D01*
X126692826Y-63751698D01*
X126732600Y-63551739D01*
X126732600Y-63347861D01*
X126692826Y-63147902D01*
X126614805Y-62959544D01*
X126501537Y-62790026D01*
X126357374Y-62645863D01*
X126187856Y-62532595D01*
X125999498Y-62454574D01*
X125799539Y-62414800D01*
X125595661Y-62414800D01*
X125395702Y-62454574D01*
X125207344Y-62532595D01*
X125037826Y-62645863D01*
X124893663Y-62790026D01*
X124780395Y-62959544D01*
X124702374Y-63147902D01*
X124662600Y-63347861D01*
X124662600Y-63551739D01*
X124702374Y-63751698D01*
X124780395Y-63940056D01*
X124893663Y-64109574D01*
X124937601Y-64153512D01*
X124937600Y-75211613D01*
X124907125Y-75198990D01*
X124617599Y-75141400D01*
X124322401Y-75141400D01*
X124032875Y-75198990D01*
X123943000Y-75236218D01*
X123943000Y-62487751D01*
X124035806Y-62348857D01*
X124113827Y-62160499D01*
X124153601Y-61960540D01*
X124153601Y-61756662D01*
X124113827Y-61556703D01*
X124035806Y-61368345D01*
X123922538Y-61198827D01*
X123778375Y-61054664D01*
X123608857Y-60941396D01*
X123420499Y-60863375D01*
X123220540Y-60823601D01*
X123016662Y-60823601D01*
X122816703Y-60863375D01*
X122628345Y-60941396D01*
X122458827Y-61054664D01*
X122314664Y-61198827D01*
X122201396Y-61368345D01*
X122123375Y-61556703D01*
X122083601Y-61756662D01*
X122083601Y-61960540D01*
X122123375Y-62160499D01*
X122201396Y-62348857D01*
X122314664Y-62518375D01*
X122423001Y-62626712D01*
X122423000Y-75222134D01*
X122367125Y-75198990D01*
X122077599Y-75141400D01*
X121782401Y-75141400D01*
X121492875Y-75198990D01*
X121428400Y-75225697D01*
X121428400Y-61263434D01*
X121437205Y-61250256D01*
X121515226Y-61061898D01*
X121555000Y-60861939D01*
X121555000Y-60658061D01*
X121515226Y-60458102D01*
X121437205Y-60269744D01*
X121323937Y-60100226D01*
X121179774Y-59956063D01*
X121010256Y-59842795D01*
X120821898Y-59764774D01*
X120621939Y-59725000D01*
X120418061Y-59725000D01*
X120218102Y-59764774D01*
X120029744Y-59842795D01*
X119860226Y-59956063D01*
X119716063Y-60100226D01*
X119602795Y-60269744D01*
X119524774Y-60458102D01*
X119485000Y-60658061D01*
X119485000Y-60861939D01*
X119524774Y-61061898D01*
X119602795Y-61250256D01*
X119716063Y-61419774D01*
X119860226Y-61563937D01*
X119908401Y-61596126D01*
X119908400Y-75232655D01*
X119827125Y-75198990D01*
X119537599Y-75141400D01*
X119242401Y-75141400D01*
X118952875Y-75198990D01*
X118680147Y-75311958D01*
X118434698Y-75475961D01*
X118225961Y-75684698D01*
X118120000Y-75843281D01*
X118014039Y-75684698D01*
X117805302Y-75475961D01*
X117610000Y-75345465D01*
X117610000Y-60402711D01*
X117636937Y-60375774D01*
X117750205Y-60206256D01*
X117828226Y-60017898D01*
X117868000Y-59817939D01*
X117868000Y-59614061D01*
X117828226Y-59414102D01*
X117750205Y-59225744D01*
X117636937Y-59056226D01*
X117492774Y-58912063D01*
X117323256Y-58798795D01*
X117134898Y-58720774D01*
X116934939Y-58681000D01*
X116731061Y-58681000D01*
X116531102Y-58720774D01*
X116342744Y-58798795D01*
X116173226Y-58912063D01*
X116029063Y-59056226D01*
X115915795Y-59225744D01*
X115837774Y-59414102D01*
X115798000Y-59614061D01*
X115798000Y-59817939D01*
X115837774Y-60017898D01*
X115915795Y-60206256D01*
X116029063Y-60375774D01*
X116090001Y-60436712D01*
X116090000Y-75345465D01*
X115894698Y-75475961D01*
X115685961Y-75684698D01*
X115580000Y-75843281D01*
X115474039Y-75684698D01*
X115265302Y-75475961D01*
X115070000Y-75345465D01*
X115070000Y-63103711D01*
X115113937Y-63059774D01*
X115227205Y-62890256D01*
X115305226Y-62701898D01*
X115345000Y-62501939D01*
X115345000Y-62298061D01*
X115305226Y-62098102D01*
X115227205Y-61909744D01*
X115113937Y-61740226D01*
X114969774Y-61596063D01*
X114800256Y-61482795D01*
X114611898Y-61404774D01*
X114411939Y-61365000D01*
X114208061Y-61365000D01*
X114008102Y-61404774D01*
X113819744Y-61482795D01*
X113650226Y-61596063D01*
X113506063Y-61740226D01*
X113392795Y-61909744D01*
X113314774Y-62098102D01*
X113275000Y-62298061D01*
X113275000Y-62501939D01*
X113314774Y-62701898D01*
X113392795Y-62890256D01*
X113506063Y-63059774D01*
X113550000Y-63103711D01*
X113550001Y-75345464D01*
X113354698Y-75475961D01*
X113145961Y-75684698D01*
X113040000Y-75843281D01*
X112934039Y-75684698D01*
X112725302Y-75475961D01*
X112479853Y-75311958D01*
X112207125Y-75198990D01*
X111917599Y-75141400D01*
X111622401Y-75141400D01*
X111332875Y-75198990D01*
X111060147Y-75311958D01*
X110814698Y-75475961D01*
X110605961Y-75684698D01*
X110500000Y-75843281D01*
X110394039Y-75684698D01*
X110185302Y-75475961D01*
X109939853Y-75311958D01*
X109667125Y-75198990D01*
X109377599Y-75141400D01*
X109082401Y-75141400D01*
X108792875Y-75198990D01*
X108520147Y-75311958D01*
X108274698Y-75475961D01*
X108065961Y-75684698D01*
X107901958Y-75930147D01*
X107788990Y-76202875D01*
X107731400Y-76492401D01*
X105648600Y-76492401D01*
X105591010Y-76202875D01*
X105478042Y-75930147D01*
X105314039Y-75684698D01*
X105105302Y-75475961D01*
X104859853Y-75311958D01*
X104587125Y-75198990D01*
X104297599Y-75141400D01*
X104002401Y-75141400D01*
X103712875Y-75198990D01*
X103440147Y-75311958D01*
X103194698Y-75475961D01*
X102985961Y-75684698D01*
X102916922Y-75788022D01*
X102821731Y-75645558D01*
X102604442Y-75428269D01*
X102348937Y-75257546D01*
X102065035Y-75139950D01*
X101763647Y-75080000D01*
X101456353Y-75080000D01*
X101154965Y-75139950D01*
X100871063Y-75257546D01*
X100615558Y-75428269D01*
X100398269Y-75645558D01*
X100227546Y-75901063D01*
X100109950Y-76184965D01*
X100050000Y-76486353D01*
X99780000Y-76486353D01*
X99780000Y-75963711D01*
X99823937Y-75919774D01*
X99937205Y-75750256D01*
X100015226Y-75561898D01*
X100055000Y-75361939D01*
X100055000Y-75158061D01*
X100015226Y-74958102D01*
X99937205Y-74769744D01*
X99823937Y-74600226D01*
X99679774Y-74456063D01*
X99510256Y-74342795D01*
X99321898Y-74264774D01*
X99121939Y-74225000D01*
X98918061Y-74225000D01*
X98718102Y-74264774D01*
X98543000Y-74337304D01*
X98543000Y-69973204D01*
X98626842Y-70007932D01*
X98913740Y-70065000D01*
X99206260Y-70065000D01*
X99493158Y-70007932D01*
X99763411Y-69895990D01*
X100006632Y-69733475D01*
X100213475Y-69526632D01*
X100375990Y-69283411D01*
X100487932Y-69013158D01*
X100545000Y-68726260D01*
X100545000Y-68433740D01*
X100487932Y-68146842D01*
X100375990Y-67876589D01*
X100213475Y-67633368D01*
X100006632Y-67426525D01*
X99832240Y-67310000D01*
X100006632Y-67193475D01*
X100213475Y-66986632D01*
X100375990Y-66743411D01*
X100487932Y-66473158D01*
X100545000Y-66186260D01*
X100545000Y-65893740D01*
X100487932Y-65606842D01*
X100375990Y-65336589D01*
X100213475Y-65093368D01*
X100006632Y-64886525D01*
X99832240Y-64770000D01*
X100006632Y-64653475D01*
X100213475Y-64446632D01*
X100252919Y-64387600D01*
X110753889Y-64387600D01*
X110797826Y-64431537D01*
X110967344Y-64544805D01*
X111155702Y-64622826D01*
X111355661Y-64662600D01*
X111559539Y-64662600D01*
X111759498Y-64622826D01*
X111947856Y-64544805D01*
X112117374Y-64431537D01*
X112261537Y-64287374D01*
X112374805Y-64117856D01*
X112452826Y-63929498D01*
X112492600Y-63729539D01*
X112492600Y-63525661D01*
X112452826Y-63325702D01*
X112374805Y-63137344D01*
X112261537Y-62967826D01*
X112117374Y-62823663D01*
X111947856Y-62710395D01*
X111759498Y-62632374D01*
X111559539Y-62592600D01*
X111355661Y-62592600D01*
X111155702Y-62632374D01*
X110967344Y-62710395D01*
X110797826Y-62823663D01*
X110753889Y-62867600D01*
X100405404Y-62867600D01*
X100375990Y-62796589D01*
X100213475Y-62553368D01*
X100006632Y-62346525D01*
X99832240Y-62230000D01*
X99834335Y-62228600D01*
X108179089Y-62228600D01*
X108223026Y-62272537D01*
X108392544Y-62385805D01*
X108580902Y-62463826D01*
X108780861Y-62503600D01*
X108984739Y-62503600D01*
X109184698Y-62463826D01*
X109373056Y-62385805D01*
X109542574Y-62272537D01*
X109686737Y-62128374D01*
X109800005Y-61958856D01*
X109878026Y-61770498D01*
X109917800Y-61570539D01*
X109917800Y-61366661D01*
X109878026Y-61166702D01*
X109800005Y-60978344D01*
X109686737Y-60808826D01*
X109542574Y-60664663D01*
X109373056Y-60551395D01*
X109184698Y-60473374D01*
X108984739Y-60433600D01*
X108780861Y-60433600D01*
X108580902Y-60473374D01*
X108392544Y-60551395D01*
X108223026Y-60664663D01*
X108179089Y-60708600D01*
X100524086Y-60708600D01*
X100487932Y-60526842D01*
X100375990Y-60256589D01*
X100213475Y-60013368D01*
X100006632Y-59806525D01*
X99832240Y-59690000D01*
X100006632Y-59573475D01*
X100213475Y-59366632D01*
X100375990Y-59123411D01*
X100487932Y-58853158D01*
X100545000Y-58566260D01*
X100545000Y-58273740D01*
X100487932Y-57986842D01*
X100375990Y-57716589D01*
X100213475Y-57473368D01*
X100006632Y-57266525D01*
X99832240Y-57150000D01*
X100006632Y-57033475D01*
X100213475Y-56826632D01*
X100375990Y-56583411D01*
X100487932Y-56313158D01*
X100545000Y-56026260D01*
X100545000Y-55733740D01*
X100487932Y-55446842D01*
X100375990Y-55176589D01*
X100213475Y-54933368D01*
X100006632Y-54726525D01*
X99832240Y-54610000D01*
X100006632Y-54493475D01*
X100213475Y-54286632D01*
X100375990Y-54043411D01*
X100487932Y-53773158D01*
X100545000Y-53486260D01*
X100545000Y-53193740D01*
X100487932Y-52906842D01*
X100375990Y-52636589D01*
X100213475Y-52393368D01*
X100006632Y-52186525D01*
X99832240Y-52070000D01*
X100006632Y-51953475D01*
X100213475Y-51746632D01*
X100375990Y-51503411D01*
X100487932Y-51233158D01*
X100545000Y-50946260D01*
X100545000Y-50698061D01*
X101828000Y-50698061D01*
X101828000Y-50901939D01*
X101867774Y-51101898D01*
X101945795Y-51290256D01*
X102059063Y-51459774D01*
X102203226Y-51603937D01*
X102372744Y-51717205D01*
X102561102Y-51795226D01*
X102761061Y-51835000D01*
X102797199Y-51835000D01*
X105511000Y-54548802D01*
X105511000Y-54610939D01*
X105550774Y-54810898D01*
X105628795Y-54999256D01*
X105742063Y-55168774D01*
X105886226Y-55312937D01*
X106055744Y-55426205D01*
X106244102Y-55504226D01*
X106444061Y-55544000D01*
X106647939Y-55544000D01*
X106847898Y-55504226D01*
X107036256Y-55426205D01*
X107205774Y-55312937D01*
X107349937Y-55168774D01*
X107463205Y-54999256D01*
X107541226Y-54810898D01*
X107581000Y-54610939D01*
X107581000Y-54407061D01*
X107541226Y-54207102D01*
X107463205Y-54018744D01*
X107349937Y-53849226D01*
X107205774Y-53705063D01*
X107036256Y-53591795D01*
X106847898Y-53513774D01*
X106647939Y-53474000D01*
X106585802Y-53474000D01*
X103898000Y-50786199D01*
X103898000Y-50698061D01*
X103858226Y-50498102D01*
X103780205Y-50309744D01*
X103666937Y-50140226D01*
X103566583Y-50039872D01*
X111285000Y-50039872D01*
X111285000Y-50480128D01*
X111370890Y-50911925D01*
X111539369Y-51318669D01*
X111783962Y-51684729D01*
X112095271Y-51996038D01*
X112461331Y-52240631D01*
X112868075Y-52409110D01*
X113299872Y-52495000D01*
X113740128Y-52495000D01*
X114171925Y-52409110D01*
X114578669Y-52240631D01*
X114944729Y-51996038D01*
X115256038Y-51684729D01*
X115500631Y-51318669D01*
X115669110Y-50911925D01*
X115755000Y-50480128D01*
X115755000Y-50039872D01*
X130285000Y-50039872D01*
X130285000Y-50480128D01*
X130370890Y-50911925D01*
X130539369Y-51318669D01*
X130783962Y-51684729D01*
X131095271Y-51996038D01*
X131461331Y-52240631D01*
X131868075Y-52409110D01*
X132299872Y-52495000D01*
X132740128Y-52495000D01*
X133171925Y-52409110D01*
X133578669Y-52240631D01*
X133944729Y-51996038D01*
X134256038Y-51684729D01*
X134500631Y-51318669D01*
X134669110Y-50911925D01*
X134755000Y-50480128D01*
X134755000Y-50039872D01*
X134669110Y-49608075D01*
X134500631Y-49201331D01*
X134256038Y-48835271D01*
X133944729Y-48523962D01*
X133578669Y-48279369D01*
X133171925Y-48110890D01*
X132740128Y-48025000D01*
X132299872Y-48025000D01*
X131868075Y-48110890D01*
X131461331Y-48279369D01*
X131095271Y-48523962D01*
X130783962Y-48835271D01*
X130539369Y-49201331D01*
X130370890Y-49608075D01*
X130285000Y-50039872D01*
X115755000Y-50039872D01*
X115669110Y-49608075D01*
X115500631Y-49201331D01*
X115256038Y-48835271D01*
X114944729Y-48523962D01*
X114578669Y-48279369D01*
X114171925Y-48110890D01*
X113740128Y-48025000D01*
X113299872Y-48025000D01*
X112868075Y-48110890D01*
X112461331Y-48279369D01*
X112095271Y-48523962D01*
X111783962Y-48835271D01*
X111539369Y-49201331D01*
X111370890Y-49608075D01*
X111285000Y-50039872D01*
X103566583Y-50039872D01*
X103522774Y-49996063D01*
X103353256Y-49882795D01*
X103164898Y-49804774D01*
X102964939Y-49765000D01*
X102761061Y-49765000D01*
X102561102Y-49804774D01*
X102372744Y-49882795D01*
X102203226Y-49996063D01*
X102059063Y-50140226D01*
X101945795Y-50309744D01*
X101867774Y-50498102D01*
X101828000Y-50698061D01*
X100545000Y-50698061D01*
X100545000Y-50653740D01*
X100487932Y-50366842D01*
X100375990Y-50096589D01*
X100213475Y-49853368D01*
X100006632Y-49646525D01*
X99832240Y-49530000D01*
X100006632Y-49413475D01*
X100213475Y-49206632D01*
X100375990Y-48963411D01*
X100487932Y-48693158D01*
X100545000Y-48406260D01*
X100545000Y-48113740D01*
X100487932Y-47826842D01*
X100375990Y-47556589D01*
X100278043Y-47410000D01*
X145831928Y-47410000D01*
X145831928Y-49110000D01*
X145844188Y-49234482D01*
X145880498Y-49354180D01*
X145939463Y-49464494D01*
X146018815Y-49561185D01*
X146115506Y-49640537D01*
X146225820Y-49699502D01*
X146298380Y-49721513D01*
X146166525Y-49853368D01*
X146004010Y-50096589D01*
X145892068Y-50366842D01*
X145835000Y-50653740D01*
X145835000Y-50946260D01*
X145892068Y-51233158D01*
X146004010Y-51503411D01*
X146166525Y-51746632D01*
X146373368Y-51953475D01*
X146547760Y-52070000D01*
X146373368Y-52186525D01*
X146166525Y-52393368D01*
X146004010Y-52636589D01*
X145892068Y-52906842D01*
X145835000Y-53193740D01*
X145835000Y-53486260D01*
X145892068Y-53773158D01*
X146004010Y-54043411D01*
X146166525Y-54286632D01*
X146373368Y-54493475D01*
X146547760Y-54610000D01*
X146373368Y-54726525D01*
X146166525Y-54933368D01*
X146004010Y-55176589D01*
X145892068Y-55446842D01*
X145835000Y-55733740D01*
X145835000Y-56026260D01*
X145892068Y-56313158D01*
X146004010Y-56583411D01*
X146166525Y-56826632D01*
X146373368Y-57033475D01*
X146547760Y-57150000D01*
X146373368Y-57266525D01*
X146166525Y-57473368D01*
X146004010Y-57716589D01*
X145892068Y-57986842D01*
X145835000Y-58273740D01*
X145835000Y-58566260D01*
X145892068Y-58853158D01*
X146004010Y-59123411D01*
X146166525Y-59366632D01*
X146373368Y-59573475D01*
X146547760Y-59690000D01*
X146373368Y-59806525D01*
X146166525Y-60013368D01*
X146004010Y-60256589D01*
X145892068Y-60526842D01*
X145835000Y-60813740D01*
X145835000Y-61106260D01*
X145892068Y-61393158D01*
X146004010Y-61663411D01*
X146166525Y-61906632D01*
X146373368Y-62113475D01*
X146547760Y-62230000D01*
X146373368Y-62346525D01*
X146166525Y-62553368D01*
X146004010Y-62796589D01*
X145892068Y-63066842D01*
X145835000Y-63353740D01*
X145835000Y-63646260D01*
X145892068Y-63933158D01*
X146004010Y-64203411D01*
X146166525Y-64446632D01*
X146373368Y-64653475D01*
X146547760Y-64770000D01*
X146373368Y-64886525D01*
X146166525Y-65093368D01*
X146004010Y-65336589D01*
X145892068Y-65606842D01*
X145835000Y-65893740D01*
X145835000Y-66186260D01*
X145892068Y-66473158D01*
X146004010Y-66743411D01*
X146166525Y-66986632D01*
X146373368Y-67193475D01*
X146547760Y-67310000D01*
X146373368Y-67426525D01*
X146166525Y-67633368D01*
X146004010Y-67876589D01*
X145892068Y-68146842D01*
X145835000Y-68433740D01*
X145835000Y-68726260D01*
X145892068Y-69013158D01*
X146004010Y-69283411D01*
X146166525Y-69526632D01*
X146373368Y-69733475D01*
X146547760Y-69850000D01*
X146373368Y-69966525D01*
X146166525Y-70173368D01*
X146004010Y-70416589D01*
X145892068Y-70686842D01*
X145835000Y-70973740D01*
X145835000Y-71266260D01*
X145892068Y-71553158D01*
X146004010Y-71823411D01*
X146166525Y-72066632D01*
X146373368Y-72273475D01*
X146616589Y-72435990D01*
X146886842Y-72547932D01*
X147173740Y-72605000D01*
X147466260Y-72605000D01*
X147753158Y-72547932D01*
X148023411Y-72435990D01*
X148266632Y-72273475D01*
X148473475Y-72066632D01*
X148590000Y-71892240D01*
X148706525Y-72066632D01*
X148913368Y-72273475D01*
X149156589Y-72435990D01*
X149426842Y-72547932D01*
X149713740Y-72605000D01*
X150006260Y-72605000D01*
X150293158Y-72547932D01*
X150563411Y-72435990D01*
X150806632Y-72273475D01*
X151013475Y-72066632D01*
X151175990Y-71823411D01*
X151287932Y-71553158D01*
X151345000Y-71266260D01*
X151345000Y-70973740D01*
X151287932Y-70686842D01*
X151175990Y-70416589D01*
X151013475Y-70173368D01*
X150806632Y-69966525D01*
X150632240Y-69850000D01*
X150806632Y-69733475D01*
X151013475Y-69526632D01*
X151175990Y-69283411D01*
X151287932Y-69013158D01*
X151345000Y-68726260D01*
X151345000Y-68433740D01*
X151287932Y-68146842D01*
X151175990Y-67876589D01*
X151013475Y-67633368D01*
X150806632Y-67426525D01*
X150632240Y-67310000D01*
X150806632Y-67193475D01*
X151013475Y-66986632D01*
X151175990Y-66743411D01*
X151287932Y-66473158D01*
X151345000Y-66186260D01*
X151345000Y-65893740D01*
X151287932Y-65606842D01*
X151175990Y-65336589D01*
X151013475Y-65093368D01*
X150806632Y-64886525D01*
X150632240Y-64770000D01*
X150806632Y-64653475D01*
X151013475Y-64446632D01*
X151175990Y-64203411D01*
X151287932Y-63933158D01*
X151345000Y-63646260D01*
X151345000Y-63353740D01*
X151287932Y-63066842D01*
X151175990Y-62796589D01*
X151013475Y-62553368D01*
X150806632Y-62346525D01*
X150632240Y-62230000D01*
X150806632Y-62113475D01*
X151013475Y-61906632D01*
X151175990Y-61663411D01*
X151287932Y-61393158D01*
X151345000Y-61106260D01*
X151345000Y-60813740D01*
X151287932Y-60526842D01*
X151175990Y-60256589D01*
X151013475Y-60013368D01*
X150806632Y-59806525D01*
X150632240Y-59690000D01*
X150806632Y-59573475D01*
X151013475Y-59366632D01*
X151175990Y-59123411D01*
X151287932Y-58853158D01*
X151345000Y-58566260D01*
X151345000Y-58273740D01*
X151287932Y-57986842D01*
X151175990Y-57716589D01*
X151013475Y-57473368D01*
X150806632Y-57266525D01*
X150632240Y-57150000D01*
X150806632Y-57033475D01*
X151013475Y-56826632D01*
X151175990Y-56583411D01*
X151287932Y-56313158D01*
X151345000Y-56026260D01*
X151345000Y-55733740D01*
X151287932Y-55446842D01*
X151175990Y-55176589D01*
X151013475Y-54933368D01*
X150806632Y-54726525D01*
X150632240Y-54610000D01*
X150806632Y-54493475D01*
X151013475Y-54286632D01*
X151175990Y-54043411D01*
X151287932Y-53773158D01*
X151345000Y-53486260D01*
X151345000Y-53193740D01*
X151287932Y-52906842D01*
X151175990Y-52636589D01*
X151013475Y-52393368D01*
X150806632Y-52186525D01*
X150632240Y-52070000D01*
X150806632Y-51953475D01*
X151013475Y-51746632D01*
X151175990Y-51503411D01*
X151287932Y-51233158D01*
X151345000Y-50946260D01*
X151345000Y-50653740D01*
X151287932Y-50366842D01*
X151175990Y-50096589D01*
X151013475Y-49853368D01*
X150806632Y-49646525D01*
X150632240Y-49530000D01*
X150806632Y-49413475D01*
X151013475Y-49206632D01*
X151175990Y-48963411D01*
X151287932Y-48693158D01*
X151345000Y-48406260D01*
X151345000Y-48113740D01*
X151287932Y-47826842D01*
X151175990Y-47556589D01*
X151013475Y-47313368D01*
X150806632Y-47106525D01*
X150563411Y-46944010D01*
X150293158Y-46832068D01*
X150006260Y-46775000D01*
X149713740Y-46775000D01*
X149426842Y-46832068D01*
X149156589Y-46944010D01*
X148913368Y-47106525D01*
X148781513Y-47238380D01*
X148759502Y-47165820D01*
X148700537Y-47055506D01*
X148621185Y-46958815D01*
X148524494Y-46879463D01*
X148414180Y-46820498D01*
X148294482Y-46784188D01*
X148170000Y-46771928D01*
X146470000Y-46771928D01*
X146345518Y-46784188D01*
X146225820Y-46820498D01*
X146115506Y-46879463D01*
X146018815Y-46958815D01*
X145939463Y-47055506D01*
X145880498Y-47165820D01*
X145844188Y-47285518D01*
X145831928Y-47410000D01*
X100278043Y-47410000D01*
X100213475Y-47313368D01*
X100006632Y-47106525D01*
X99763411Y-46944010D01*
X99493158Y-46832068D01*
X99206260Y-46775000D01*
X98913740Y-46775000D01*
X98626842Y-46832068D01*
X98356589Y-46944010D01*
X98113368Y-47106525D01*
X97981513Y-47238380D01*
X97959502Y-47165820D01*
X97900537Y-47055506D01*
X97821185Y-46958815D01*
X97724494Y-46879463D01*
X97614180Y-46820498D01*
X97494482Y-46784188D01*
X97370000Y-46771928D01*
X95670000Y-46771928D01*
X95545518Y-46784188D01*
X95425820Y-46820498D01*
X95315506Y-46879463D01*
X95218815Y-46958815D01*
X95139463Y-47055506D01*
X95080498Y-47165820D01*
X95044188Y-47285518D01*
X95031928Y-47410000D01*
X95031928Y-49110000D01*
X95044188Y-49234482D01*
X95080498Y-49354180D01*
X95139463Y-49464494D01*
X95218815Y-49561185D01*
X95315506Y-49640537D01*
X95425820Y-49699502D01*
X95498380Y-49721513D01*
X95366525Y-49853368D01*
X95204010Y-50096589D01*
X95092068Y-50366842D01*
X95035000Y-50653740D01*
X95035000Y-50946260D01*
X95092068Y-51233158D01*
X95204010Y-51503411D01*
X95366525Y-51746632D01*
X95573368Y-51953475D01*
X95747760Y-52070000D01*
X95573368Y-52186525D01*
X95366525Y-52393368D01*
X95204010Y-52636589D01*
X95092068Y-52906842D01*
X95035000Y-53193740D01*
X95035000Y-53486260D01*
X95092068Y-53773158D01*
X95204010Y-54043411D01*
X95366525Y-54286632D01*
X95573368Y-54493475D01*
X95747760Y-54610000D01*
X95573368Y-54726525D01*
X95366525Y-54933368D01*
X95204010Y-55176589D01*
X95092068Y-55446842D01*
X95035000Y-55733740D01*
X95035000Y-56026260D01*
X95092068Y-56313158D01*
X95204010Y-56583411D01*
X95366525Y-56826632D01*
X95573368Y-57033475D01*
X95747760Y-57150000D01*
X95573368Y-57266525D01*
X95366525Y-57473368D01*
X95204010Y-57716589D01*
X95092068Y-57986842D01*
X95035000Y-58273740D01*
X95035000Y-58566260D01*
X95092068Y-58853158D01*
X95204010Y-59123411D01*
X95366525Y-59366632D01*
X95573368Y-59573475D01*
X95747760Y-59690000D01*
X95573368Y-59806525D01*
X95366525Y-60013368D01*
X95204010Y-60256589D01*
X95092068Y-60526842D01*
X95035000Y-60813740D01*
X95035000Y-61106260D01*
X95092068Y-61393158D01*
X95204010Y-61663411D01*
X95366525Y-61906632D01*
X95573368Y-62113475D01*
X95747760Y-62230000D01*
X95573368Y-62346525D01*
X95366525Y-62553368D01*
X95204010Y-62796589D01*
X95092068Y-63066842D01*
X95035000Y-63353740D01*
X95035000Y-63646260D01*
X95078790Y-63866408D01*
X93258798Y-65686401D01*
X93229800Y-65710199D01*
X93206002Y-65739197D01*
X93206001Y-65739198D01*
X93180000Y-65770880D01*
X93180000Y-48292278D01*
X93246714Y-47611874D01*
X93434943Y-46988428D01*
X93740681Y-46413421D01*
X94152279Y-45908753D01*
X94654067Y-45493638D01*
X95226924Y-45183895D01*
X95849039Y-44991318D01*
X96527584Y-44920000D01*
X149487722Y-44920000D01*
X150168126Y-44986714D01*
%TD*%
M02*
