M48
; DRILL file {KiCad (5.1.6)-1} date 06/17/20 13:37:46
; FORMAT={-:-/ absolute / inch / decimal}
; #@! TF.CreationDate,2020-06-17T13:37:46+01:00
; #@! TF.GenerationSoftware,Kicad,Pcbnew,(5.1.6)-1
; #@! TF.FileFunction,Plated,1,2,PTH
FMAT,2
INCH
T1C0.0157
T2C0.0394
T3C0.0400
%
G90
G05
T1
X3.7409Y-2.648
X3.7606Y-3.1992
X3.8Y-3.1598
X3.8394Y-3.1205
X3.8984Y-2.963
X3.8984Y-3.1598
X4.0497Y-2.0
X4.1947Y-2.146
X4.2867Y-2.42
X4.3881Y-2.505
X4.5004Y-2.4567
X4.5997Y-2.351
X4.6106Y-3.4783
X4.7449Y-2.3921
X4.75Y-3.26
X4.8004Y-3.4783
X4.8472Y-2.4354
X4.85Y-3.26
X4.9487Y-2.498
X4.95Y-3.26
X5.15Y-3.29
X5.2002Y-2.8715
X5.25Y-3.29
X5.3052Y-2.8715
X5.35Y-3.29
X5.4002Y-2.8765
X5.4497Y-3.29
X5.5002Y-2.8865
T2
X3.8Y-1.9
X3.8Y-2.0
X3.8Y-2.1
X3.8Y-2.2
X3.8Y-2.3
X3.8Y-2.4
X3.8Y-2.5
X3.8Y-2.6
X3.8Y-2.7
X3.8Y-2.8
X3.9Y-1.9
X3.9Y-2.0
X3.9Y-2.1
X3.9Y-2.2
X3.9Y-2.3
X3.9Y-2.4
X3.9Y-2.5
X3.9Y-2.6
X3.9Y-2.7
X3.9Y-2.8
X5.8Y-1.9
X5.8Y-2.0
X5.8Y-2.1
X5.8Y-2.2
X5.8Y-2.3
X5.8Y-2.4
X5.8Y-2.5
X5.8Y-2.6
X5.8Y-2.7
X5.8Y-2.8
X5.9Y-1.9
X5.9Y-2.0
X5.9Y-2.1
X5.9Y-2.2
X5.9Y-2.3
X5.9Y-2.4
X5.9Y-2.5
X5.9Y-2.6
X5.9Y-2.7
X5.9Y-2.8
T3
X4.1004Y-3.0961
X4.1004Y-3.6961
X4.2004Y-3.0961
X4.2004Y-3.6961
X4.3004Y-3.0961
X4.3004Y-3.6961
X4.4004Y-3.0961
X4.4004Y-3.6961
X4.5004Y-3.0961
X4.5004Y-3.6961
X4.6004Y-3.0961
X4.6004Y-3.6961
X4.7004Y-3.0961
X4.7004Y-3.6961
X4.8004Y-3.0961
X4.8004Y-3.6961
X4.9004Y-3.0961
X4.9004Y-3.6961
X5.0004Y-3.0961
X5.0004Y-3.6961
X5.1004Y-3.0961
X5.1004Y-3.6961
X5.2004Y-3.0961
X5.2004Y-3.6961
X5.3004Y-3.0961
X5.3004Y-3.6961
X5.4004Y-3.0961
X5.4004Y-3.6961
X5.5004Y-3.0961
X5.5004Y-3.6961
T0
M30
