%TF.GenerationSoftware,KiCad,Pcbnew,(5.1.6)-1*%
%TF.CreationDate,2020-06-17T00:15:46+01:00*%
%TF.ProjectId,Arduino_Nano_shield,41726475-696e-46f5-9f4e-616e6f5f7368,rev?*%
%TF.SameCoordinates,Original*%
%TF.FileFunction,Legend,Top*%
%TF.FilePolarity,Positive*%
%FSLAX46Y46*%
G04 Gerber Fmt 4.6, Leading zero omitted, Abs format (unit mm)*
G04 Created by KiCad (PCBNEW (5.1.6)-1) date 2020-06-17 00:15:46*
%MOMM*%
%LPD*%
G01*
G04 APERTURE LIST*
%ADD10C,0.150000*%
%ADD11C,0.100000*%
%ADD12C,0.120000*%
%ADD13C,0.075000*%
G04 APERTURE END LIST*
D10*
X114812380Y-56586666D02*
X115288571Y-56586666D01*
X114717142Y-56872380D02*
X115050476Y-55872380D01*
X115383809Y-56872380D01*
X115717142Y-56872380D02*
X115717142Y-56205714D01*
X115717142Y-56396190D02*
X115764761Y-56300952D01*
X115812380Y-56253333D01*
X115907619Y-56205714D01*
X116002857Y-56205714D01*
X116764761Y-56872380D02*
X116764761Y-55872380D01*
X116764761Y-56824761D02*
X116669523Y-56872380D01*
X116479047Y-56872380D01*
X116383809Y-56824761D01*
X116336190Y-56777142D01*
X116288571Y-56681904D01*
X116288571Y-56396190D01*
X116336190Y-56300952D01*
X116383809Y-56253333D01*
X116479047Y-56205714D01*
X116669523Y-56205714D01*
X116764761Y-56253333D01*
X117669523Y-56205714D02*
X117669523Y-56872380D01*
X117240952Y-56205714D02*
X117240952Y-56729523D01*
X117288571Y-56824761D01*
X117383809Y-56872380D01*
X117526666Y-56872380D01*
X117621904Y-56824761D01*
X117669523Y-56777142D01*
X118145714Y-56872380D02*
X118145714Y-56205714D01*
X118145714Y-55872380D02*
X118098095Y-55920000D01*
X118145714Y-55967619D01*
X118193333Y-55920000D01*
X118145714Y-55872380D01*
X118145714Y-55967619D01*
X118621904Y-56205714D02*
X118621904Y-56872380D01*
X118621904Y-56300952D02*
X118669523Y-56253333D01*
X118764761Y-56205714D01*
X118907619Y-56205714D01*
X119002857Y-56253333D01*
X119050476Y-56348571D01*
X119050476Y-56872380D01*
X119669523Y-56872380D02*
X119574285Y-56824761D01*
X119526666Y-56777142D01*
X119479047Y-56681904D01*
X119479047Y-56396190D01*
X119526666Y-56300952D01*
X119574285Y-56253333D01*
X119669523Y-56205714D01*
X119812380Y-56205714D01*
X119907619Y-56253333D01*
X119955238Y-56300952D01*
X120002857Y-56396190D01*
X120002857Y-56681904D01*
X119955238Y-56777142D01*
X119907619Y-56824761D01*
X119812380Y-56872380D01*
X119669523Y-56872380D01*
X121193333Y-56872380D02*
X121193333Y-55872380D01*
X121764761Y-56872380D01*
X121764761Y-55872380D01*
X122669523Y-56872380D02*
X122669523Y-56348571D01*
X122621904Y-56253333D01*
X122526666Y-56205714D01*
X122336190Y-56205714D01*
X122240952Y-56253333D01*
X122669523Y-56824761D02*
X122574285Y-56872380D01*
X122336190Y-56872380D01*
X122240952Y-56824761D01*
X122193333Y-56729523D01*
X122193333Y-56634285D01*
X122240952Y-56539047D01*
X122336190Y-56491428D01*
X122574285Y-56491428D01*
X122669523Y-56443809D01*
X123145714Y-56205714D02*
X123145714Y-56872380D01*
X123145714Y-56300952D02*
X123193333Y-56253333D01*
X123288571Y-56205714D01*
X123431428Y-56205714D01*
X123526666Y-56253333D01*
X123574285Y-56348571D01*
X123574285Y-56872380D01*
X124193333Y-56872380D02*
X124098095Y-56824761D01*
X124050476Y-56777142D01*
X124002857Y-56681904D01*
X124002857Y-56396190D01*
X124050476Y-56300952D01*
X124098095Y-56253333D01*
X124193333Y-56205714D01*
X124336190Y-56205714D01*
X124431428Y-56253333D01*
X124479047Y-56300952D01*
X124526666Y-56396190D01*
X124526666Y-56681904D01*
X124479047Y-56777142D01*
X124431428Y-56824761D01*
X124336190Y-56872380D01*
X124193333Y-56872380D01*
X125669523Y-56824761D02*
X125812380Y-56872380D01*
X126050476Y-56872380D01*
X126145714Y-56824761D01*
X126193333Y-56777142D01*
X126240952Y-56681904D01*
X126240952Y-56586666D01*
X126193333Y-56491428D01*
X126145714Y-56443809D01*
X126050476Y-56396190D01*
X125860000Y-56348571D01*
X125764761Y-56300952D01*
X125717142Y-56253333D01*
X125669523Y-56158095D01*
X125669523Y-56062857D01*
X125717142Y-55967619D01*
X125764761Y-55920000D01*
X125860000Y-55872380D01*
X126098095Y-55872380D01*
X126240952Y-55920000D01*
X126669523Y-56872380D02*
X126669523Y-55872380D01*
X127098095Y-56872380D02*
X127098095Y-56348571D01*
X127050476Y-56253333D01*
X126955238Y-56205714D01*
X126812380Y-56205714D01*
X126717142Y-56253333D01*
X126669523Y-56300952D01*
X127574285Y-56872380D02*
X127574285Y-56205714D01*
X127574285Y-55872380D02*
X127526666Y-55920000D01*
X127574285Y-55967619D01*
X127621904Y-55920000D01*
X127574285Y-55872380D01*
X127574285Y-55967619D01*
X128431428Y-56824761D02*
X128336190Y-56872380D01*
X128145714Y-56872380D01*
X128050476Y-56824761D01*
X128002857Y-56729523D01*
X128002857Y-56348571D01*
X128050476Y-56253333D01*
X128145714Y-56205714D01*
X128336190Y-56205714D01*
X128431428Y-56253333D01*
X128479047Y-56348571D01*
X128479047Y-56443809D01*
X128002857Y-56539047D01*
X129050476Y-56872380D02*
X128955238Y-56824761D01*
X128907619Y-56729523D01*
X128907619Y-55872380D01*
X129860000Y-56872380D02*
X129860000Y-55872380D01*
X129860000Y-56824761D02*
X129764761Y-56872380D01*
X129574285Y-56872380D01*
X129479047Y-56824761D01*
X129431428Y-56777142D01*
X129383809Y-56681904D01*
X129383809Y-56396190D01*
X129431428Y-56300952D01*
X129479047Y-56253333D01*
X129574285Y-56205714D01*
X129764761Y-56205714D01*
X129860000Y-56253333D01*
D11*
X93622857Y-50909333D02*
X93860952Y-50909333D01*
X93575238Y-51052190D02*
X93741904Y-50552190D01*
X93908571Y-51052190D01*
X94337142Y-51052190D02*
X94051428Y-51052190D01*
X94194285Y-51052190D02*
X94194285Y-50552190D01*
X94146666Y-50623619D01*
X94099047Y-50671238D01*
X94051428Y-50695047D01*
X93622857Y-48369333D02*
X93860952Y-48369333D01*
X93575238Y-48512190D02*
X93741904Y-48012190D01*
X93908571Y-48512190D01*
X94170476Y-48012190D02*
X94218095Y-48012190D01*
X94265714Y-48036000D01*
X94289523Y-48059809D01*
X94313333Y-48107428D01*
X94337142Y-48202666D01*
X94337142Y-48321714D01*
X94313333Y-48416952D01*
X94289523Y-48464571D01*
X94265714Y-48488380D01*
X94218095Y-48512190D01*
X94170476Y-48512190D01*
X94122857Y-48488380D01*
X94099047Y-48464571D01*
X94075238Y-48416952D01*
X94051428Y-48321714D01*
X94051428Y-48202666D01*
X94075238Y-48107428D01*
X94099047Y-48059809D01*
X94122857Y-48036000D01*
X94170476Y-48012190D01*
X93610952Y-61212190D02*
X93610952Y-60712190D01*
X93730000Y-60712190D01*
X93801428Y-60736000D01*
X93849047Y-60783619D01*
X93872857Y-60831238D01*
X93896666Y-60926476D01*
X93896666Y-60997904D01*
X93872857Y-61093142D01*
X93849047Y-61140761D01*
X93801428Y-61188380D01*
X93730000Y-61212190D01*
X93610952Y-61212190D01*
X94206190Y-60712190D02*
X94253809Y-60712190D01*
X94301428Y-60736000D01*
X94325238Y-60759809D01*
X94349047Y-60807428D01*
X94372857Y-60902666D01*
X94372857Y-61021714D01*
X94349047Y-61116952D01*
X94325238Y-61164571D01*
X94301428Y-61188380D01*
X94253809Y-61212190D01*
X94206190Y-61212190D01*
X94158571Y-61188380D01*
X94134761Y-61164571D01*
X94110952Y-61116952D01*
X94087142Y-61021714D01*
X94087142Y-60902666D01*
X94110952Y-60807428D01*
X94134761Y-60759809D01*
X94158571Y-60736000D01*
X94206190Y-60712190D01*
X93610952Y-63752190D02*
X93610952Y-63252190D01*
X93730000Y-63252190D01*
X93801428Y-63276000D01*
X93849047Y-63323619D01*
X93872857Y-63371238D01*
X93896666Y-63466476D01*
X93896666Y-63537904D01*
X93872857Y-63633142D01*
X93849047Y-63680761D01*
X93801428Y-63728380D01*
X93730000Y-63752190D01*
X93610952Y-63752190D01*
X94372857Y-63752190D02*
X94087142Y-63752190D01*
X94230000Y-63752190D02*
X94230000Y-63252190D01*
X94182380Y-63323619D01*
X94134761Y-63371238D01*
X94087142Y-63395047D01*
X93610952Y-66292190D02*
X93610952Y-65792190D01*
X93730000Y-65792190D01*
X93801428Y-65816000D01*
X93849047Y-65863619D01*
X93872857Y-65911238D01*
X93896666Y-66006476D01*
X93896666Y-66077904D01*
X93872857Y-66173142D01*
X93849047Y-66220761D01*
X93801428Y-66268380D01*
X93730000Y-66292190D01*
X93610952Y-66292190D01*
X94087142Y-65839809D02*
X94110952Y-65816000D01*
X94158571Y-65792190D01*
X94277619Y-65792190D01*
X94325238Y-65816000D01*
X94349047Y-65839809D01*
X94372857Y-65887428D01*
X94372857Y-65935047D01*
X94349047Y-66006476D01*
X94063333Y-66292190D01*
X94372857Y-66292190D01*
X93039523Y-68832190D02*
X93039523Y-68332190D01*
X93230000Y-68332190D01*
X93277619Y-68356000D01*
X93301428Y-68379809D01*
X93325238Y-68427428D01*
X93325238Y-68498857D01*
X93301428Y-68546476D01*
X93277619Y-68570285D01*
X93230000Y-68594095D01*
X93039523Y-68594095D01*
X93491904Y-68332190D02*
X93610952Y-68832190D01*
X93706190Y-68475047D01*
X93801428Y-68832190D01*
X93920476Y-68332190D01*
X94110952Y-68832190D02*
X94110952Y-68332190D01*
X94277619Y-68689333D01*
X94444285Y-68332190D01*
X94444285Y-68832190D01*
X94777619Y-68332190D02*
X94825238Y-68332190D01*
X94872857Y-68356000D01*
X94896666Y-68379809D01*
X94920476Y-68427428D01*
X94944285Y-68522666D01*
X94944285Y-68641714D01*
X94920476Y-68736952D01*
X94896666Y-68784571D01*
X94872857Y-68808380D01*
X94825238Y-68832190D01*
X94777619Y-68832190D01*
X94730000Y-68808380D01*
X94706190Y-68784571D01*
X94682380Y-68736952D01*
X94658571Y-68641714D01*
X94658571Y-68522666D01*
X94682380Y-68427428D01*
X94706190Y-68379809D01*
X94730000Y-68356000D01*
X94777619Y-68332190D01*
X93039523Y-71372190D02*
X93039523Y-70872190D01*
X93230000Y-70872190D01*
X93277619Y-70896000D01*
X93301428Y-70919809D01*
X93325238Y-70967428D01*
X93325238Y-71038857D01*
X93301428Y-71086476D01*
X93277619Y-71110285D01*
X93230000Y-71134095D01*
X93039523Y-71134095D01*
X93491904Y-70872190D02*
X93610952Y-71372190D01*
X93706190Y-71015047D01*
X93801428Y-71372190D01*
X93920476Y-70872190D01*
X94110952Y-71372190D02*
X94110952Y-70872190D01*
X94277619Y-71229333D01*
X94444285Y-70872190D01*
X94444285Y-71372190D01*
X94944285Y-71372190D02*
X94658571Y-71372190D01*
X94801428Y-71372190D02*
X94801428Y-70872190D01*
X94753809Y-70943619D01*
X94706190Y-70991238D01*
X94658571Y-71015047D01*
X101219047Y-70896000D02*
X101171428Y-70872190D01*
X101100000Y-70872190D01*
X101028571Y-70896000D01*
X100980952Y-70943619D01*
X100957142Y-70991238D01*
X100933333Y-71086476D01*
X100933333Y-71157904D01*
X100957142Y-71253142D01*
X100980952Y-71300761D01*
X101028571Y-71348380D01*
X101100000Y-71372190D01*
X101147619Y-71372190D01*
X101219047Y-71348380D01*
X101242857Y-71324571D01*
X101242857Y-71157904D01*
X101147619Y-71157904D01*
X101457142Y-71372190D02*
X101457142Y-70872190D01*
X101742857Y-71372190D01*
X101742857Y-70872190D01*
X101980952Y-71372190D02*
X101980952Y-70872190D01*
X102100000Y-70872190D01*
X102171428Y-70896000D01*
X102219047Y-70943619D01*
X102242857Y-70991238D01*
X102266666Y-71086476D01*
X102266666Y-71157904D01*
X102242857Y-71253142D01*
X102219047Y-71300761D01*
X102171428Y-71348380D01*
X102100000Y-71372190D01*
X101980952Y-71372190D01*
X101504761Y-68332190D02*
X101266666Y-68332190D01*
X101242857Y-68570285D01*
X101266666Y-68546476D01*
X101314285Y-68522666D01*
X101433333Y-68522666D01*
X101480952Y-68546476D01*
X101504761Y-68570285D01*
X101528571Y-68617904D01*
X101528571Y-68736952D01*
X101504761Y-68784571D01*
X101480952Y-68808380D01*
X101433333Y-68832190D01*
X101314285Y-68832190D01*
X101266666Y-68808380D01*
X101242857Y-68784571D01*
X101671428Y-68332190D02*
X101838095Y-68832190D01*
X102004761Y-68332190D01*
X101028571Y-63252190D02*
X101314285Y-63252190D01*
X101171428Y-63752190D02*
X101171428Y-63252190D01*
X101361904Y-63799809D02*
X101742857Y-63799809D01*
X102123809Y-63752190D02*
X101838095Y-63752190D01*
X101980952Y-63752190D02*
X101980952Y-63252190D01*
X101933333Y-63323619D01*
X101885714Y-63371238D01*
X101838095Y-63395047D01*
X101171428Y-61212190D02*
X101171428Y-60712190D01*
X101290476Y-61259809D02*
X101671428Y-61259809D01*
X102052380Y-61212190D02*
X101766666Y-61212190D01*
X101909523Y-61212190D02*
X101909523Y-60712190D01*
X101861904Y-60783619D01*
X101814285Y-60831238D01*
X101766666Y-60855047D01*
X101004761Y-58648380D02*
X101076190Y-58672190D01*
X101195238Y-58672190D01*
X101242857Y-58648380D01*
X101266666Y-58624571D01*
X101290476Y-58576952D01*
X101290476Y-58529333D01*
X101266666Y-58481714D01*
X101242857Y-58457904D01*
X101195238Y-58434095D01*
X101100000Y-58410285D01*
X101052380Y-58386476D01*
X101028571Y-58362666D01*
X101004761Y-58315047D01*
X101004761Y-58267428D01*
X101028571Y-58219809D01*
X101052380Y-58196000D01*
X101100000Y-58172190D01*
X101219047Y-58172190D01*
X101290476Y-58196000D01*
X101790476Y-58624571D02*
X101766666Y-58648380D01*
X101695238Y-58672190D01*
X101647619Y-58672190D01*
X101576190Y-58648380D01*
X101528571Y-58600761D01*
X101504761Y-58553142D01*
X101480952Y-58457904D01*
X101480952Y-58386476D01*
X101504761Y-58291238D01*
X101528571Y-58243619D01*
X101576190Y-58196000D01*
X101647619Y-58172190D01*
X101695238Y-58172190D01*
X101766666Y-58196000D01*
X101790476Y-58219809D01*
X102242857Y-58672190D02*
X102004761Y-58672190D01*
X102004761Y-58172190D01*
X100992857Y-56108380D02*
X101064285Y-56132190D01*
X101183333Y-56132190D01*
X101230952Y-56108380D01*
X101254761Y-56084571D01*
X101278571Y-56036952D01*
X101278571Y-55989333D01*
X101254761Y-55941714D01*
X101230952Y-55917904D01*
X101183333Y-55894095D01*
X101088095Y-55870285D01*
X101040476Y-55846476D01*
X101016666Y-55822666D01*
X100992857Y-55775047D01*
X100992857Y-55727428D01*
X101016666Y-55679809D01*
X101040476Y-55656000D01*
X101088095Y-55632190D01*
X101207142Y-55632190D01*
X101278571Y-55656000D01*
X101492857Y-56132190D02*
X101492857Y-55632190D01*
X101611904Y-55632190D01*
X101683333Y-55656000D01*
X101730952Y-55703619D01*
X101754761Y-55751238D01*
X101778571Y-55846476D01*
X101778571Y-55917904D01*
X101754761Y-56013142D01*
X101730952Y-56060761D01*
X101683333Y-56108380D01*
X101611904Y-56132190D01*
X101492857Y-56132190D01*
X101969047Y-55989333D02*
X102207142Y-55989333D01*
X101921428Y-56132190D02*
X102088095Y-55632190D01*
X102254761Y-56132190D01*
X100980952Y-53092190D02*
X101290476Y-53092190D01*
X101123809Y-53282666D01*
X101195238Y-53282666D01*
X101242857Y-53306476D01*
X101266666Y-53330285D01*
X101290476Y-53377904D01*
X101290476Y-53496952D01*
X101266666Y-53544571D01*
X101242857Y-53568380D01*
X101195238Y-53592190D01*
X101052380Y-53592190D01*
X101004761Y-53568380D01*
X100980952Y-53544571D01*
X101433333Y-53092190D02*
X101600000Y-53592190D01*
X101766666Y-53092190D01*
X101885714Y-53092190D02*
X102195238Y-53092190D01*
X102028571Y-53282666D01*
X102100000Y-53282666D01*
X102147619Y-53306476D01*
X102171428Y-53330285D01*
X102195238Y-53377904D01*
X102195238Y-53496952D01*
X102171428Y-53544571D01*
X102147619Y-53568380D01*
X102100000Y-53592190D01*
X101957142Y-53592190D01*
X101909523Y-53568380D01*
X101885714Y-53544571D01*
X101028571Y-50552190D02*
X101314285Y-50552190D01*
X101171428Y-51052190D02*
X101171428Y-50552190D01*
X101361904Y-51099809D02*
X101742857Y-51099809D01*
X101838095Y-50599809D02*
X101861904Y-50576000D01*
X101909523Y-50552190D01*
X102028571Y-50552190D01*
X102076190Y-50576000D01*
X102100000Y-50599809D01*
X102123809Y-50647428D01*
X102123809Y-50695047D01*
X102100000Y-50766476D01*
X101814285Y-51052190D01*
X102123809Y-51052190D01*
X101171428Y-48512190D02*
X101171428Y-48012190D01*
X101290476Y-48559809D02*
X101671428Y-48559809D01*
X101766666Y-48059809D02*
X101790476Y-48036000D01*
X101838095Y-48012190D01*
X101957142Y-48012190D01*
X102004761Y-48036000D01*
X102028571Y-48059809D01*
X102052380Y-48107428D01*
X102052380Y-48155047D01*
X102028571Y-48226476D01*
X101742857Y-48512190D01*
X102052380Y-48512190D01*
X144410952Y-58672190D02*
X144410952Y-58172190D01*
X144530000Y-58172190D01*
X144601428Y-58196000D01*
X144649047Y-58243619D01*
X144672857Y-58291238D01*
X144696666Y-58386476D01*
X144696666Y-58457904D01*
X144672857Y-58553142D01*
X144649047Y-58600761D01*
X144601428Y-58648380D01*
X144530000Y-58672190D01*
X144410952Y-58672190D01*
X144982380Y-58386476D02*
X144934761Y-58362666D01*
X144910952Y-58338857D01*
X144887142Y-58291238D01*
X144887142Y-58267428D01*
X144910952Y-58219809D01*
X144934761Y-58196000D01*
X144982380Y-58172190D01*
X145077619Y-58172190D01*
X145125238Y-58196000D01*
X145149047Y-58219809D01*
X145172857Y-58267428D01*
X145172857Y-58291238D01*
X145149047Y-58338857D01*
X145125238Y-58362666D01*
X145077619Y-58386476D01*
X144982380Y-58386476D01*
X144934761Y-58410285D01*
X144910952Y-58434095D01*
X144887142Y-58481714D01*
X144887142Y-58576952D01*
X144910952Y-58624571D01*
X144934761Y-58648380D01*
X144982380Y-58672190D01*
X145077619Y-58672190D01*
X145125238Y-58648380D01*
X145149047Y-58624571D01*
X145172857Y-58576952D01*
X145172857Y-58481714D01*
X145149047Y-58434095D01*
X145125238Y-58410285D01*
X145077619Y-58386476D01*
X144410952Y-56132190D02*
X144410952Y-55632190D01*
X144530000Y-55632190D01*
X144601428Y-55656000D01*
X144649047Y-55703619D01*
X144672857Y-55751238D01*
X144696666Y-55846476D01*
X144696666Y-55917904D01*
X144672857Y-56013142D01*
X144649047Y-56060761D01*
X144601428Y-56108380D01*
X144530000Y-56132190D01*
X144410952Y-56132190D01*
X144863333Y-55632190D02*
X145196666Y-55632190D01*
X144982380Y-56132190D01*
X144410952Y-51052190D02*
X144410952Y-50552190D01*
X144530000Y-50552190D01*
X144601428Y-50576000D01*
X144649047Y-50623619D01*
X144672857Y-50671238D01*
X144696666Y-50766476D01*
X144696666Y-50837904D01*
X144672857Y-50933142D01*
X144649047Y-50980761D01*
X144601428Y-51028380D01*
X144530000Y-51052190D01*
X144410952Y-51052190D01*
X145125238Y-50718857D02*
X145125238Y-51052190D01*
X145006190Y-50528380D02*
X144887142Y-50885523D01*
X145196666Y-50885523D01*
X144172857Y-71372190D02*
X144172857Y-70872190D01*
X144291904Y-70872190D01*
X144363333Y-70896000D01*
X144410952Y-70943619D01*
X144434761Y-70991238D01*
X144458571Y-71086476D01*
X144458571Y-71157904D01*
X144434761Y-71253142D01*
X144410952Y-71300761D01*
X144363333Y-71348380D01*
X144291904Y-71372190D01*
X144172857Y-71372190D01*
X144934761Y-71372190D02*
X144649047Y-71372190D01*
X144791904Y-71372190D02*
X144791904Y-70872190D01*
X144744285Y-70943619D01*
X144696666Y-70991238D01*
X144649047Y-71015047D01*
X145101428Y-70872190D02*
X145410952Y-70872190D01*
X145244285Y-71062666D01*
X145315714Y-71062666D01*
X145363333Y-71086476D01*
X145387142Y-71110285D01*
X145410952Y-71157904D01*
X145410952Y-71276952D01*
X145387142Y-71324571D01*
X145363333Y-71348380D01*
X145315714Y-71372190D01*
X145172857Y-71372190D01*
X145125238Y-71348380D01*
X145101428Y-71324571D01*
X144172857Y-68832190D02*
X144172857Y-68332190D01*
X144291904Y-68332190D01*
X144363333Y-68356000D01*
X144410952Y-68403619D01*
X144434761Y-68451238D01*
X144458571Y-68546476D01*
X144458571Y-68617904D01*
X144434761Y-68713142D01*
X144410952Y-68760761D01*
X144363333Y-68808380D01*
X144291904Y-68832190D01*
X144172857Y-68832190D01*
X144934761Y-68832190D02*
X144649047Y-68832190D01*
X144791904Y-68832190D02*
X144791904Y-68332190D01*
X144744285Y-68403619D01*
X144696666Y-68451238D01*
X144649047Y-68475047D01*
X145125238Y-68379809D02*
X145149047Y-68356000D01*
X145196666Y-68332190D01*
X145315714Y-68332190D01*
X145363333Y-68356000D01*
X145387142Y-68379809D01*
X145410952Y-68427428D01*
X145410952Y-68475047D01*
X145387142Y-68546476D01*
X145101428Y-68832190D01*
X145410952Y-68832190D01*
X143839523Y-66292190D02*
X143839523Y-65792190D01*
X144030000Y-65792190D01*
X144077619Y-65816000D01*
X144101428Y-65839809D01*
X144125238Y-65887428D01*
X144125238Y-65958857D01*
X144101428Y-66006476D01*
X144077619Y-66030285D01*
X144030000Y-66054095D01*
X143839523Y-66054095D01*
X144291904Y-65792190D02*
X144410952Y-66292190D01*
X144506190Y-65935047D01*
X144601428Y-66292190D01*
X144720476Y-65792190D01*
X144910952Y-66292190D02*
X144910952Y-65792190D01*
X145077619Y-66149333D01*
X145244285Y-65792190D01*
X145244285Y-66292190D01*
X145720476Y-65792190D02*
X145482380Y-65792190D01*
X145458571Y-66030285D01*
X145482380Y-66006476D01*
X145530000Y-65982666D01*
X145649047Y-65982666D01*
X145696666Y-66006476D01*
X145720476Y-66030285D01*
X145744285Y-66077904D01*
X145744285Y-66196952D01*
X145720476Y-66244571D01*
X145696666Y-66268380D01*
X145649047Y-66292190D01*
X145530000Y-66292190D01*
X145482380Y-66268380D01*
X145458571Y-66244571D01*
X143839523Y-63752190D02*
X143839523Y-63252190D01*
X144030000Y-63252190D01*
X144077619Y-63276000D01*
X144101428Y-63299809D01*
X144125238Y-63347428D01*
X144125238Y-63418857D01*
X144101428Y-63466476D01*
X144077619Y-63490285D01*
X144030000Y-63514095D01*
X143839523Y-63514095D01*
X144291904Y-63252190D02*
X144410952Y-63752190D01*
X144506190Y-63395047D01*
X144601428Y-63752190D01*
X144720476Y-63252190D01*
X144910952Y-63752190D02*
X144910952Y-63252190D01*
X145077619Y-63609333D01*
X145244285Y-63252190D01*
X145244285Y-63752190D01*
X145696666Y-63418857D02*
X145696666Y-63752190D01*
X145577619Y-63228380D02*
X145458571Y-63585523D01*
X145768095Y-63585523D01*
X143839523Y-61212190D02*
X143839523Y-60712190D01*
X144030000Y-60712190D01*
X144077619Y-60736000D01*
X144101428Y-60759809D01*
X144125238Y-60807428D01*
X144125238Y-60878857D01*
X144101428Y-60926476D01*
X144077619Y-60950285D01*
X144030000Y-60974095D01*
X143839523Y-60974095D01*
X144291904Y-60712190D02*
X144410952Y-61212190D01*
X144506190Y-60855047D01*
X144601428Y-61212190D01*
X144720476Y-60712190D01*
X144910952Y-61212190D02*
X144910952Y-60712190D01*
X145077619Y-61069333D01*
X145244285Y-60712190D01*
X145244285Y-61212190D01*
X145434761Y-60712190D02*
X145744285Y-60712190D01*
X145577619Y-60902666D01*
X145649047Y-60902666D01*
X145696666Y-60926476D01*
X145720476Y-60950285D01*
X145744285Y-60997904D01*
X145744285Y-61116952D01*
X145720476Y-61164571D01*
X145696666Y-61188380D01*
X145649047Y-61212190D01*
X145506190Y-61212190D01*
X145458571Y-61188380D01*
X145434761Y-61164571D01*
X143839523Y-53592190D02*
X143839523Y-53092190D01*
X144030000Y-53092190D01*
X144077619Y-53116000D01*
X144101428Y-53139809D01*
X144125238Y-53187428D01*
X144125238Y-53258857D01*
X144101428Y-53306476D01*
X144077619Y-53330285D01*
X144030000Y-53354095D01*
X143839523Y-53354095D01*
X144291904Y-53092190D02*
X144410952Y-53592190D01*
X144506190Y-53235047D01*
X144601428Y-53592190D01*
X144720476Y-53092190D01*
X144910952Y-53592190D02*
X144910952Y-53092190D01*
X145077619Y-53449333D01*
X145244285Y-53092190D01*
X145244285Y-53592190D01*
X145458571Y-53139809D02*
X145482380Y-53116000D01*
X145530000Y-53092190D01*
X145649047Y-53092190D01*
X145696666Y-53116000D01*
X145720476Y-53139809D01*
X145744285Y-53187428D01*
X145744285Y-53235047D01*
X145720476Y-53306476D01*
X145434761Y-53592190D01*
X145744285Y-53592190D01*
D10*
X131710476Y-46712380D02*
X131710476Y-45712380D01*
X132043809Y-46426666D01*
X132377142Y-45712380D01*
X132377142Y-46712380D01*
X132758095Y-45712380D02*
X133377142Y-45712380D01*
X133043809Y-46093333D01*
X133186666Y-46093333D01*
X133281904Y-46140952D01*
X133329523Y-46188571D01*
X133377142Y-46283809D01*
X133377142Y-46521904D01*
X133329523Y-46617142D01*
X133281904Y-46664761D01*
X133186666Y-46712380D01*
X132900952Y-46712380D01*
X132805714Y-46664761D01*
X132758095Y-46617142D01*
X148710476Y-87712380D02*
X148710476Y-86712380D01*
X149043809Y-87426666D01*
X149377142Y-86712380D01*
X149377142Y-87712380D01*
X149758095Y-86712380D02*
X150377142Y-86712380D01*
X150043809Y-87093333D01*
X150186666Y-87093333D01*
X150281904Y-87140952D01*
X150329523Y-87188571D01*
X150377142Y-87283809D01*
X150377142Y-87521904D01*
X150329523Y-87617142D01*
X150281904Y-87664761D01*
X150186666Y-87712380D01*
X149900952Y-87712380D01*
X149805714Y-87664761D01*
X149758095Y-87617142D01*
X112710476Y-46712380D02*
X112710476Y-45712380D01*
X113043809Y-46426666D01*
X113377142Y-45712380D01*
X113377142Y-46712380D01*
X113758095Y-45712380D02*
X114377142Y-45712380D01*
X114043809Y-46093333D01*
X114186666Y-46093333D01*
X114281904Y-46140952D01*
X114329523Y-46188571D01*
X114377142Y-46283809D01*
X114377142Y-46521904D01*
X114329523Y-46617142D01*
X114281904Y-46664761D01*
X114186666Y-46712380D01*
X113900952Y-46712380D01*
X113805714Y-46664761D01*
X113758095Y-46617142D01*
X95710476Y-87712380D02*
X95710476Y-86712380D01*
X96043809Y-87426666D01*
X96377142Y-86712380D01*
X96377142Y-87712380D01*
X96758095Y-86712380D02*
X97377142Y-86712380D01*
X97043809Y-87093333D01*
X97186666Y-87093333D01*
X97281904Y-87140952D01*
X97329523Y-87188571D01*
X97377142Y-87283809D01*
X97377142Y-87521904D01*
X97329523Y-87617142D01*
X97281904Y-87664761D01*
X97186666Y-87712380D01*
X96900952Y-87712380D01*
X96805714Y-87664761D01*
X96758095Y-87617142D01*
D12*
%TO.C,J1*%
X95190000Y-72450000D02*
X100390000Y-72450000D01*
X95190000Y-49530000D02*
X95190000Y-72450000D01*
X100390000Y-46930000D02*
X100390000Y-72450000D01*
X95190000Y-49530000D02*
X97790000Y-49530000D01*
X97790000Y-49530000D02*
X97790000Y-46930000D01*
X97790000Y-46930000D02*
X100390000Y-46930000D01*
X95190000Y-48260000D02*
X95190000Y-46930000D01*
X95190000Y-46930000D02*
X96520000Y-46930000D01*
%TO.C,J2*%
X145990000Y-46930000D02*
X147320000Y-46930000D01*
X145990000Y-48260000D02*
X145990000Y-46930000D01*
X148590000Y-46930000D02*
X151190000Y-46930000D01*
X148590000Y-49530000D02*
X148590000Y-46930000D01*
X145990000Y-49530000D02*
X148590000Y-49530000D01*
X151190000Y-46930000D02*
X151190000Y-72450000D01*
X145990000Y-49530000D02*
X145990000Y-72450000D01*
X145990000Y-72450000D02*
X151190000Y-72450000D01*
D10*
%TO.C,XA2*%
X100340000Y-93150000D02*
X143520000Y-93150000D01*
X100340000Y-75370000D02*
X143520000Y-75370000D01*
X143520000Y-93150000D02*
X143520000Y-75370000D01*
X100340000Y-93150000D02*
X100340000Y-75370000D01*
X144970000Y-80196000D02*
X143520000Y-80196000D01*
X144970000Y-88324000D02*
X144970000Y-80196000D01*
X143520000Y-88324000D02*
X144970000Y-88324000D01*
X143988380Y-78894095D02*
X144988380Y-78227428D01*
X143988380Y-78227428D02*
X144988380Y-78894095D01*
X144702666Y-77894095D02*
X144702666Y-77417904D01*
X144988380Y-77989333D02*
X143988380Y-77656000D01*
X144988380Y-77322666D01*
X144083619Y-77036952D02*
X144036000Y-76989333D01*
X143988380Y-76894095D01*
X143988380Y-76656000D01*
X144036000Y-76560761D01*
X144083619Y-76513142D01*
X144178857Y-76465523D01*
X144274095Y-76465523D01*
X144416952Y-76513142D01*
X144988380Y-77084571D01*
X144988380Y-76465523D01*
D13*
X143881190Y-84890952D02*
X144285952Y-84890952D01*
X144333571Y-84867142D01*
X144357380Y-84843333D01*
X144381190Y-84795714D01*
X144381190Y-84700476D01*
X144357380Y-84652857D01*
X144333571Y-84629047D01*
X144285952Y-84605238D01*
X143881190Y-84605238D01*
X144357380Y-84390952D02*
X144381190Y-84319523D01*
X144381190Y-84200476D01*
X144357380Y-84152857D01*
X144333571Y-84129047D01*
X144285952Y-84105238D01*
X144238333Y-84105238D01*
X144190714Y-84129047D01*
X144166904Y-84152857D01*
X144143095Y-84200476D01*
X144119285Y-84295714D01*
X144095476Y-84343333D01*
X144071666Y-84367142D01*
X144024047Y-84390952D01*
X143976428Y-84390952D01*
X143928809Y-84367142D01*
X143905000Y-84343333D01*
X143881190Y-84295714D01*
X143881190Y-84176666D01*
X143905000Y-84105238D01*
X144119285Y-83724285D02*
X144143095Y-83652857D01*
X144166904Y-83629047D01*
X144214523Y-83605238D01*
X144285952Y-83605238D01*
X144333571Y-83629047D01*
X144357380Y-83652857D01*
X144381190Y-83700476D01*
X144381190Y-83890952D01*
X143881190Y-83890952D01*
X143881190Y-83724285D01*
X143905000Y-83676666D01*
X143928809Y-83652857D01*
X143976428Y-83629047D01*
X144024047Y-83629047D01*
X144071666Y-83652857D01*
X144095476Y-83676666D01*
X144119285Y-83724285D01*
X144119285Y-83890952D01*
X136431904Y-77636190D02*
X136741428Y-77636190D01*
X136574761Y-77826666D01*
X136646190Y-77826666D01*
X136693809Y-77850476D01*
X136717619Y-77874285D01*
X136741428Y-77921904D01*
X136741428Y-78040952D01*
X136717619Y-78088571D01*
X136693809Y-78112380D01*
X136646190Y-78136190D01*
X136503333Y-78136190D01*
X136455714Y-78112380D01*
X136431904Y-78088571D01*
X136955714Y-78088571D02*
X136979523Y-78112380D01*
X136955714Y-78136190D01*
X136931904Y-78112380D01*
X136955714Y-78088571D01*
X136955714Y-78136190D01*
X137146190Y-77636190D02*
X137455714Y-77636190D01*
X137289047Y-77826666D01*
X137360476Y-77826666D01*
X137408095Y-77850476D01*
X137431904Y-77874285D01*
X137455714Y-77921904D01*
X137455714Y-78040952D01*
X137431904Y-78088571D01*
X137408095Y-78112380D01*
X137360476Y-78136190D01*
X137217619Y-78136190D01*
X137170000Y-78112380D01*
X137146190Y-78088571D01*
X137598571Y-77636190D02*
X137765238Y-78136190D01*
X137931904Y-77636190D01*
%TD*%
M02*
