%TF.GenerationSoftware,KiCad,Pcbnew,(5.1.6)-1*%
%TF.CreationDate,2020-06-16T01:11:06+01:00*%
%TF.ProjectId,peltier_driver_pcb,70656c74-6965-4725-9f64-72697665725f,rev?*%
%TF.SameCoordinates,Original*%
%TF.FileFunction,Soldermask,Bot*%
%TF.FilePolarity,Negative*%
%FSLAX46Y46*%
G04 Gerber Fmt 4.6, Leading zero omitted, Abs format (unit mm)*
G04 Created by KiCad (PCBNEW (5.1.6)-1) date 2020-06-16 01:11:06*
%MOMM*%
%LPD*%
G01*
G04 APERTURE LIST*
%ADD10O,1.800000X1.800000*%
%ADD11R,1.800000X1.800000*%
%ADD12C,2.110000*%
%ADD13C,3.600000*%
%ADD14C,1.500000*%
%ADD15O,1.500000X1.500000*%
%ADD16R,1.900000X1.900000*%
%ADD17C,1.900000*%
G04 APERTURE END LIST*
D10*
%TO.C,U1*%
X120298000Y-66246000D03*
X120298000Y-68786000D03*
X120298000Y-71326000D03*
D11*
X120298000Y-73866000D03*
%TD*%
D10*
%TO.C,J3*%
X148624000Y-84714000D03*
D11*
X151164000Y-84714000D03*
%TD*%
%TO.C,J10*%
X151164000Y-55250000D03*
D10*
X148624000Y-55250000D03*
%TD*%
D11*
%TO.C,J9*%
X109960000Y-58640000D03*
D10*
X112500000Y-58640000D03*
X109960000Y-61180000D03*
X112500000Y-61180000D03*
X109960000Y-63720000D03*
X112500000Y-63720000D03*
X109960000Y-66260000D03*
X112500000Y-66260000D03*
X109960000Y-68800000D03*
X112500000Y-68800000D03*
X109960000Y-71340000D03*
X112500000Y-71340000D03*
X109960000Y-73880000D03*
X112500000Y-73880000D03*
X109960000Y-76420000D03*
X112500000Y-76420000D03*
X109960000Y-78960000D03*
X112500000Y-78960000D03*
X109960000Y-81500000D03*
X112500000Y-81500000D03*
%TD*%
D12*
%TO.C,F1*%
X129466000Y-55736000D03*
X134566000Y-56936000D03*
%TD*%
%TO.C,F6*%
X134947000Y-84114000D03*
X129847000Y-82914000D03*
%TD*%
D13*
%TO.C,J1*%
X137594000Y-56244000D03*
%TD*%
%TO.C,J2*%
X126164000Y-56244000D03*
%TD*%
%TO.C,J4*%
X121164000Y-56244000D03*
%TD*%
%TO.C,J5*%
X142674000Y-56244000D03*
%TD*%
%TO.C,J21*%
X138229000Y-83549000D03*
%TD*%
%TO.C,J22*%
X126799000Y-83549000D03*
%TD*%
%TO.C,J25*%
X143229000Y-83549000D03*
%TD*%
%TO.C,J28*%
X121719000Y-83549000D03*
%TD*%
D11*
%TO.C,J6*%
X162500000Y-58640000D03*
D10*
X165040000Y-58640000D03*
X162500000Y-61180000D03*
X165040000Y-61180000D03*
X162500000Y-63720000D03*
X165040000Y-63720000D03*
X162500000Y-66260000D03*
X165040000Y-66260000D03*
X162500000Y-68800000D03*
X165040000Y-68800000D03*
X162500000Y-71340000D03*
X165040000Y-71340000D03*
X162500000Y-73880000D03*
X165040000Y-73880000D03*
X162500000Y-76420000D03*
X165040000Y-76420000D03*
X162500000Y-78960000D03*
X165040000Y-78960000D03*
X162500000Y-81500000D03*
X165040000Y-81500000D03*
%TD*%
D14*
%TO.C,R10*%
X155966000Y-61346000D03*
D15*
X158506000Y-61346000D03*
%TD*%
D16*
%TO.C,D1*%
X158500000Y-58000000D03*
D17*
X155960000Y-58000000D03*
%TD*%
M02*
