%TF.GenerationSoftware,KiCad,Pcbnew,(5.1.6)-1*%
%TF.CreationDate,2020-06-16T01:11:06+01:00*%
%TF.ProjectId,peltier_driver_pcb,70656c74-6965-4725-9f64-72697665725f,rev?*%
%TF.SameCoordinates,Original*%
%TF.FileFunction,Soldermask,Top*%
%TF.FilePolarity,Negative*%
%FSLAX46Y46*%
G04 Gerber Fmt 4.6, Leading zero omitted, Abs format (unit mm)*
G04 Created by KiCad (PCBNEW (5.1.6)-1) date 2020-06-16 01:11:06*
%MOMM*%
%LPD*%
G01*
G04 APERTURE LIST*
%ADD10O,1.800000X1.800000*%
%ADD11R,1.800000X1.800000*%
%ADD12C,2.110000*%
%ADD13C,3.600000*%
%ADD14C,1.500000*%
%ADD15O,1.500000X1.500000*%
%ADD16R,1.900000X1.900000*%
%ADD17C,1.900000*%
G04 APERTURE END LIST*
D10*
%TO.C,U1*%
X120298000Y-66246000D03*
X120298000Y-68786000D03*
X120298000Y-71326000D03*
D11*
X120298000Y-73866000D03*
%TD*%
%TO.C,U9*%
G36*
G01*
X135634200Y-74567399D02*
X135634200Y-74917399D01*
G75*
G02*
X135459200Y-75092399I-175000J0D01*
G01*
X133959200Y-75092399D01*
G75*
G02*
X133784200Y-74917399I0J175000D01*
G01*
X133784200Y-74567399D01*
G75*
G02*
X133959200Y-74392399I175000J0D01*
G01*
X135459200Y-74392399D01*
G75*
G02*
X135634200Y-74567399I0J-175000D01*
G01*
G37*
G36*
G01*
X135634200Y-73297399D02*
X135634200Y-73647399D01*
G75*
G02*
X135459200Y-73822399I-175000J0D01*
G01*
X133959200Y-73822399D01*
G75*
G02*
X133784200Y-73647399I0J175000D01*
G01*
X133784200Y-73297399D01*
G75*
G02*
X133959200Y-73122399I175000J0D01*
G01*
X135459200Y-73122399D01*
G75*
G02*
X135634200Y-73297399I0J-175000D01*
G01*
G37*
G36*
G01*
X135634200Y-72027399D02*
X135634200Y-72377399D01*
G75*
G02*
X135459200Y-72552399I-175000J0D01*
G01*
X133959200Y-72552399D01*
G75*
G02*
X133784200Y-72377399I0J175000D01*
G01*
X133784200Y-72027399D01*
G75*
G02*
X133959200Y-71852399I175000J0D01*
G01*
X135459200Y-71852399D01*
G75*
G02*
X135634200Y-72027399I0J-175000D01*
G01*
G37*
G36*
G01*
X135634200Y-70757399D02*
X135634200Y-71107399D01*
G75*
G02*
X135459200Y-71282399I-175000J0D01*
G01*
X133959200Y-71282399D01*
G75*
G02*
X133784200Y-71107399I0J175000D01*
G01*
X133784200Y-70757399D01*
G75*
G02*
X133959200Y-70582399I175000J0D01*
G01*
X135459200Y-70582399D01*
G75*
G02*
X135634200Y-70757399I0J-175000D01*
G01*
G37*
G36*
G01*
X130484200Y-70757399D02*
X130484200Y-71107399D01*
G75*
G02*
X130309200Y-71282399I-175000J0D01*
G01*
X128809200Y-71282399D01*
G75*
G02*
X128634200Y-71107399I0J175000D01*
G01*
X128634200Y-70757399D01*
G75*
G02*
X128809200Y-70582399I175000J0D01*
G01*
X130309200Y-70582399D01*
G75*
G02*
X130484200Y-70757399I0J-175000D01*
G01*
G37*
G36*
G01*
X130484200Y-72027399D02*
X130484200Y-72377399D01*
G75*
G02*
X130309200Y-72552399I-175000J0D01*
G01*
X128809200Y-72552399D01*
G75*
G02*
X128634200Y-72377399I0J175000D01*
G01*
X128634200Y-72027399D01*
G75*
G02*
X128809200Y-71852399I175000J0D01*
G01*
X130309200Y-71852399D01*
G75*
G02*
X130484200Y-72027399I0J-175000D01*
G01*
G37*
G36*
G01*
X130484200Y-73297399D02*
X130484200Y-73647399D01*
G75*
G02*
X130309200Y-73822399I-175000J0D01*
G01*
X128809200Y-73822399D01*
G75*
G02*
X128634200Y-73647399I0J175000D01*
G01*
X128634200Y-73297399D01*
G75*
G02*
X128809200Y-73122399I175000J0D01*
G01*
X130309200Y-73122399D01*
G75*
G02*
X130484200Y-73297399I0J-175000D01*
G01*
G37*
G36*
G01*
X130484200Y-74567399D02*
X130484200Y-74917399D01*
G75*
G02*
X130309200Y-75092399I-175000J0D01*
G01*
X128809200Y-75092399D01*
G75*
G02*
X128634200Y-74917399I0J175000D01*
G01*
X128634200Y-74567399D01*
G75*
G02*
X128809200Y-74392399I175000J0D01*
G01*
X130309200Y-74392399D01*
G75*
G02*
X130484200Y-74567399I0J-175000D01*
G01*
G37*
%TD*%
%TO.C,C6*%
G36*
G01*
X127788250Y-72402500D02*
X126825750Y-72402500D01*
G75*
G02*
X126557000Y-72133750I0J268750D01*
G01*
X126557000Y-71596250D01*
G75*
G02*
X126825750Y-71327500I268750J0D01*
G01*
X127788250Y-71327500D01*
G75*
G02*
X128057000Y-71596250I0J-268750D01*
G01*
X128057000Y-72133750D01*
G75*
G02*
X127788250Y-72402500I-268750J0D01*
G01*
G37*
G36*
G01*
X127788250Y-74277500D02*
X126825750Y-74277500D01*
G75*
G02*
X126557000Y-74008750I0J268750D01*
G01*
X126557000Y-73471250D01*
G75*
G02*
X126825750Y-73202500I268750J0D01*
G01*
X127788250Y-73202500D01*
G75*
G02*
X128057000Y-73471250I0J-268750D01*
G01*
X128057000Y-74008750D01*
G75*
G02*
X127788250Y-74277500I-268750J0D01*
G01*
G37*
%TD*%
D10*
%TO.C,J3*%
X148624000Y-84714000D03*
D11*
X151164000Y-84714000D03*
%TD*%
%TO.C,J10*%
X151164000Y-55250000D03*
D10*
X148624000Y-55250000D03*
%TD*%
%TO.C,R3*%
G36*
G01*
X152807250Y-68368500D02*
X151844750Y-68368500D01*
G75*
G02*
X151576000Y-68099750I0J268750D01*
G01*
X151576000Y-67562250D01*
G75*
G02*
X151844750Y-67293500I268750J0D01*
G01*
X152807250Y-67293500D01*
G75*
G02*
X153076000Y-67562250I0J-268750D01*
G01*
X153076000Y-68099750D01*
G75*
G02*
X152807250Y-68368500I-268750J0D01*
G01*
G37*
G36*
G01*
X152807250Y-70243500D02*
X151844750Y-70243500D01*
G75*
G02*
X151576000Y-69974750I0J268750D01*
G01*
X151576000Y-69437250D01*
G75*
G02*
X151844750Y-69168500I268750J0D01*
G01*
X152807250Y-69168500D01*
G75*
G02*
X153076000Y-69437250I0J-268750D01*
G01*
X153076000Y-69974750D01*
G75*
G02*
X152807250Y-70243500I-268750J0D01*
G01*
G37*
%TD*%
%TO.C,R5*%
G36*
G01*
X147724500Y-73997250D02*
X147724500Y-73034750D01*
G75*
G02*
X147993250Y-72766000I268750J0D01*
G01*
X148530750Y-72766000D01*
G75*
G02*
X148799500Y-73034750I0J-268750D01*
G01*
X148799500Y-73997250D01*
G75*
G02*
X148530750Y-74266000I-268750J0D01*
G01*
X147993250Y-74266000D01*
G75*
G02*
X147724500Y-73997250I0J268750D01*
G01*
G37*
G36*
G01*
X149599500Y-73997250D02*
X149599500Y-73034750D01*
G75*
G02*
X149868250Y-72766000I268750J0D01*
G01*
X150405750Y-72766000D01*
G75*
G02*
X150674500Y-73034750I0J-268750D01*
G01*
X150674500Y-73997250D01*
G75*
G02*
X150405750Y-74266000I-268750J0D01*
G01*
X149868250Y-74266000D01*
G75*
G02*
X149599500Y-73997250I0J268750D01*
G01*
G37*
%TD*%
%TO.C,R9*%
G36*
G01*
X154839250Y-69481500D02*
X153876750Y-69481500D01*
G75*
G02*
X153608000Y-69212750I0J268750D01*
G01*
X153608000Y-68675250D01*
G75*
G02*
X153876750Y-68406500I268750J0D01*
G01*
X154839250Y-68406500D01*
G75*
G02*
X155108000Y-68675250I0J-268750D01*
G01*
X155108000Y-69212750D01*
G75*
G02*
X154839250Y-69481500I-268750J0D01*
G01*
G37*
G36*
G01*
X154839250Y-67606500D02*
X153876750Y-67606500D01*
G75*
G02*
X153608000Y-67337750I0J268750D01*
G01*
X153608000Y-66800250D01*
G75*
G02*
X153876750Y-66531500I268750J0D01*
G01*
X154839250Y-66531500D01*
G75*
G02*
X155108000Y-66800250I0J-268750D01*
G01*
X155108000Y-67337750D01*
G75*
G02*
X154839250Y-67606500I-268750J0D01*
G01*
G37*
%TD*%
%TO.C,R4*%
G36*
G01*
X146200500Y-73997250D02*
X146200500Y-73034750D01*
G75*
G02*
X146469250Y-72766000I268750J0D01*
G01*
X147006750Y-72766000D01*
G75*
G02*
X147275500Y-73034750I0J-268750D01*
G01*
X147275500Y-73997250D01*
G75*
G02*
X147006750Y-74266000I-268750J0D01*
G01*
X146469250Y-74266000D01*
G75*
G02*
X146200500Y-73997250I0J268750D01*
G01*
G37*
G36*
G01*
X144325500Y-73997250D02*
X144325500Y-73034750D01*
G75*
G02*
X144594250Y-72766000I268750J0D01*
G01*
X145131750Y-72766000D01*
G75*
G02*
X145400500Y-73034750I0J-268750D01*
G01*
X145400500Y-73997250D01*
G75*
G02*
X145131750Y-74266000I-268750J0D01*
G01*
X144594250Y-74266000D01*
G75*
G02*
X144325500Y-73997250I0J268750D01*
G01*
G37*
%TD*%
%TO.C,R7*%
G36*
G01*
X148448500Y-63382750D02*
X148448500Y-64345250D01*
G75*
G02*
X148179750Y-64614000I-268750J0D01*
G01*
X147642250Y-64614000D01*
G75*
G02*
X147373500Y-64345250I0J268750D01*
G01*
X147373500Y-63382750D01*
G75*
G02*
X147642250Y-63114000I268750J0D01*
G01*
X148179750Y-63114000D01*
G75*
G02*
X148448500Y-63382750I0J-268750D01*
G01*
G37*
G36*
G01*
X150323500Y-63382750D02*
X150323500Y-64345250D01*
G75*
G02*
X150054750Y-64614000I-268750J0D01*
G01*
X149517250Y-64614000D01*
G75*
G02*
X149248500Y-64345250I0J268750D01*
G01*
X149248500Y-63382750D01*
G75*
G02*
X149517250Y-63114000I268750J0D01*
G01*
X150054750Y-63114000D01*
G75*
G02*
X150323500Y-63382750I0J-268750D01*
G01*
G37*
%TD*%
%TO.C,R8*%
G36*
G01*
X149243900Y-62414850D02*
X149243900Y-61452350D01*
G75*
G02*
X149512650Y-61183600I268750J0D01*
G01*
X150050150Y-61183600D01*
G75*
G02*
X150318900Y-61452350I0J-268750D01*
G01*
X150318900Y-62414850D01*
G75*
G02*
X150050150Y-62683600I-268750J0D01*
G01*
X149512650Y-62683600D01*
G75*
G02*
X149243900Y-62414850I0J268750D01*
G01*
G37*
G36*
G01*
X147368900Y-62414850D02*
X147368900Y-61452350D01*
G75*
G02*
X147637650Y-61183600I268750J0D01*
G01*
X148175150Y-61183600D01*
G75*
G02*
X148443900Y-61452350I0J-268750D01*
G01*
X148443900Y-62414850D01*
G75*
G02*
X148175150Y-62683600I-268750J0D01*
G01*
X147637650Y-62683600D01*
G75*
G02*
X147368900Y-62414850I0J268750D01*
G01*
G37*
%TD*%
%TO.C,U3*%
G36*
G01*
X146862200Y-72139200D02*
X146512200Y-72139200D01*
G75*
G02*
X146337200Y-71964200I0J175000D01*
G01*
X146337200Y-70464200D01*
G75*
G02*
X146512200Y-70289200I175000J0D01*
G01*
X146862200Y-70289200D01*
G75*
G02*
X147037200Y-70464200I0J-175000D01*
G01*
X147037200Y-71964200D01*
G75*
G02*
X146862200Y-72139200I-175000J0D01*
G01*
G37*
G36*
G01*
X148132200Y-72139200D02*
X147782200Y-72139200D01*
G75*
G02*
X147607200Y-71964200I0J175000D01*
G01*
X147607200Y-70464200D01*
G75*
G02*
X147782200Y-70289200I175000J0D01*
G01*
X148132200Y-70289200D01*
G75*
G02*
X148307200Y-70464200I0J-175000D01*
G01*
X148307200Y-71964200D01*
G75*
G02*
X148132200Y-72139200I-175000J0D01*
G01*
G37*
G36*
G01*
X149402200Y-72139200D02*
X149052200Y-72139200D01*
G75*
G02*
X148877200Y-71964200I0J175000D01*
G01*
X148877200Y-70464200D01*
G75*
G02*
X149052200Y-70289200I175000J0D01*
G01*
X149402200Y-70289200D01*
G75*
G02*
X149577200Y-70464200I0J-175000D01*
G01*
X149577200Y-71964200D01*
G75*
G02*
X149402200Y-72139200I-175000J0D01*
G01*
G37*
G36*
G01*
X150672200Y-72139200D02*
X150322200Y-72139200D01*
G75*
G02*
X150147200Y-71964200I0J175000D01*
G01*
X150147200Y-70464200D01*
G75*
G02*
X150322200Y-70289200I175000J0D01*
G01*
X150672200Y-70289200D01*
G75*
G02*
X150847200Y-70464200I0J-175000D01*
G01*
X150847200Y-71964200D01*
G75*
G02*
X150672200Y-72139200I-175000J0D01*
G01*
G37*
G36*
G01*
X150672200Y-66989200D02*
X150322200Y-66989200D01*
G75*
G02*
X150147200Y-66814200I0J175000D01*
G01*
X150147200Y-65314200D01*
G75*
G02*
X150322200Y-65139200I175000J0D01*
G01*
X150672200Y-65139200D01*
G75*
G02*
X150847200Y-65314200I0J-175000D01*
G01*
X150847200Y-66814200D01*
G75*
G02*
X150672200Y-66989200I-175000J0D01*
G01*
G37*
G36*
G01*
X149402200Y-66989200D02*
X149052200Y-66989200D01*
G75*
G02*
X148877200Y-66814200I0J175000D01*
G01*
X148877200Y-65314200D01*
G75*
G02*
X149052200Y-65139200I175000J0D01*
G01*
X149402200Y-65139200D01*
G75*
G02*
X149577200Y-65314200I0J-175000D01*
G01*
X149577200Y-66814200D01*
G75*
G02*
X149402200Y-66989200I-175000J0D01*
G01*
G37*
G36*
G01*
X148132200Y-66989200D02*
X147782200Y-66989200D01*
G75*
G02*
X147607200Y-66814200I0J175000D01*
G01*
X147607200Y-65314200D01*
G75*
G02*
X147782200Y-65139200I175000J0D01*
G01*
X148132200Y-65139200D01*
G75*
G02*
X148307200Y-65314200I0J-175000D01*
G01*
X148307200Y-66814200D01*
G75*
G02*
X148132200Y-66989200I-175000J0D01*
G01*
G37*
G36*
G01*
X146862200Y-66989200D02*
X146512200Y-66989200D01*
G75*
G02*
X146337200Y-66814200I0J175000D01*
G01*
X146337200Y-65314200D01*
G75*
G02*
X146512200Y-65139200I175000J0D01*
G01*
X146862200Y-65139200D01*
G75*
G02*
X147037200Y-65314200I0J-175000D01*
G01*
X147037200Y-66814200D01*
G75*
G02*
X146862200Y-66989200I-175000J0D01*
G01*
G37*
%TD*%
%TO.C,R14*%
G36*
G01*
X128584200Y-79442882D02*
X128584200Y-76529918D01*
G75*
G02*
X128852718Y-76261400I268518J0D01*
G01*
X129765682Y-76261400D01*
G75*
G02*
X130034200Y-76529918I0J-268518D01*
G01*
X130034200Y-79442882D01*
G75*
G02*
X129765682Y-79711400I-268518J0D01*
G01*
X128852718Y-79711400D01*
G75*
G02*
X128584200Y-79442882I0J268518D01*
G01*
G37*
G36*
G01*
X134384200Y-79442882D02*
X134384200Y-76529918D01*
G75*
G02*
X134652718Y-76261400I268518J0D01*
G01*
X135565682Y-76261400D01*
G75*
G02*
X135834200Y-76529918I0J-268518D01*
G01*
X135834200Y-79442882D01*
G75*
G02*
X135565682Y-79711400I-268518J0D01*
G01*
X134652718Y-79711400D01*
G75*
G02*
X134384200Y-79442882I0J268518D01*
G01*
G37*
%TD*%
D11*
%TO.C,J9*%
X109960000Y-58640000D03*
D10*
X112500000Y-58640000D03*
X109960000Y-61180000D03*
X112500000Y-61180000D03*
X109960000Y-63720000D03*
X112500000Y-63720000D03*
X109960000Y-66260000D03*
X112500000Y-66260000D03*
X109960000Y-68800000D03*
X112500000Y-68800000D03*
X109960000Y-71340000D03*
X112500000Y-71340000D03*
X109960000Y-73880000D03*
X112500000Y-73880000D03*
X109960000Y-76420000D03*
X112500000Y-76420000D03*
X109960000Y-78960000D03*
X112500000Y-78960000D03*
X109960000Y-81500000D03*
X112500000Y-81500000D03*
%TD*%
%TO.C,R1*%
G36*
G01*
X118009250Y-69227500D02*
X117046750Y-69227500D01*
G75*
G02*
X116778000Y-68958750I0J268750D01*
G01*
X116778000Y-68421250D01*
G75*
G02*
X117046750Y-68152500I268750J0D01*
G01*
X118009250Y-68152500D01*
G75*
G02*
X118278000Y-68421250I0J-268750D01*
G01*
X118278000Y-68958750D01*
G75*
G02*
X118009250Y-69227500I-268750J0D01*
G01*
G37*
G36*
G01*
X118009250Y-71102500D02*
X117046750Y-71102500D01*
G75*
G02*
X116778000Y-70833750I0J268750D01*
G01*
X116778000Y-70296250D01*
G75*
G02*
X117046750Y-70027500I268750J0D01*
G01*
X118009250Y-70027500D01*
G75*
G02*
X118278000Y-70296250I0J-268750D01*
G01*
X118278000Y-70833750D01*
G75*
G02*
X118009250Y-71102500I-268750J0D01*
G01*
G37*
%TD*%
D12*
%TO.C,F1*%
X129466000Y-55736000D03*
X134566000Y-56936000D03*
%TD*%
%TO.C,F6*%
X134947000Y-84114000D03*
X129847000Y-82914000D03*
%TD*%
D13*
%TO.C,J1*%
X137594000Y-56244000D03*
%TD*%
%TO.C,J2*%
X126164000Y-56244000D03*
%TD*%
%TO.C,J4*%
X121164000Y-56244000D03*
%TD*%
%TO.C,J5*%
X142674000Y-56244000D03*
%TD*%
%TO.C,J21*%
X138229000Y-83549000D03*
%TD*%
%TO.C,J22*%
X126799000Y-83549000D03*
%TD*%
%TO.C,J25*%
X143229000Y-83549000D03*
%TD*%
%TO.C,J28*%
X121719000Y-83549000D03*
%TD*%
%TO.C,C1*%
G36*
G01*
X136604750Y-65536300D02*
X137567250Y-65536300D01*
G75*
G02*
X137836000Y-65805050I0J-268750D01*
G01*
X137836000Y-66342550D01*
G75*
G02*
X137567250Y-66611300I-268750J0D01*
G01*
X136604750Y-66611300D01*
G75*
G02*
X136336000Y-66342550I0J268750D01*
G01*
X136336000Y-65805050D01*
G75*
G02*
X136604750Y-65536300I268750J0D01*
G01*
G37*
G36*
G01*
X136604750Y-67411300D02*
X137567250Y-67411300D01*
G75*
G02*
X137836000Y-67680050I0J-268750D01*
G01*
X137836000Y-68217550D01*
G75*
G02*
X137567250Y-68486300I-268750J0D01*
G01*
X136604750Y-68486300D01*
G75*
G02*
X136336000Y-68217550I0J268750D01*
G01*
X136336000Y-67680050D01*
G75*
G02*
X136604750Y-67411300I268750J0D01*
G01*
G37*
%TD*%
%TO.C,R2*%
G36*
G01*
X117046750Y-63991500D02*
X118009250Y-63991500D01*
G75*
G02*
X118278000Y-64260250I0J-268750D01*
G01*
X118278000Y-64797750D01*
G75*
G02*
X118009250Y-65066500I-268750J0D01*
G01*
X117046750Y-65066500D01*
G75*
G02*
X116778000Y-64797750I0J268750D01*
G01*
X116778000Y-64260250D01*
G75*
G02*
X117046750Y-63991500I268750J0D01*
G01*
G37*
G36*
G01*
X117046750Y-65866500D02*
X118009250Y-65866500D01*
G75*
G02*
X118278000Y-66135250I0J-268750D01*
G01*
X118278000Y-66672750D01*
G75*
G02*
X118009250Y-66941500I-268750J0D01*
G01*
X117046750Y-66941500D01*
G75*
G02*
X116778000Y-66672750I0J268750D01*
G01*
X116778000Y-66135250D01*
G75*
G02*
X117046750Y-65866500I268750J0D01*
G01*
G37*
%TD*%
%TO.C,R6*%
G36*
G01*
X135808800Y-60350118D02*
X135808800Y-63263082D01*
G75*
G02*
X135540282Y-63531600I-268518J0D01*
G01*
X134627318Y-63531600D01*
G75*
G02*
X134358800Y-63263082I0J268518D01*
G01*
X134358800Y-60350118D01*
G75*
G02*
X134627318Y-60081600I268518J0D01*
G01*
X135540282Y-60081600D01*
G75*
G02*
X135808800Y-60350118I0J-268518D01*
G01*
G37*
G36*
G01*
X130008800Y-60350118D02*
X130008800Y-63263082D01*
G75*
G02*
X129740282Y-63531600I-268518J0D01*
G01*
X128827318Y-63531600D01*
G75*
G02*
X128558800Y-63263082I0J268518D01*
G01*
X128558800Y-60350118D01*
G75*
G02*
X128827318Y-60081600I268518J0D01*
G01*
X129740282Y-60081600D01*
G75*
G02*
X130008800Y-60350118I0J-268518D01*
G01*
G37*
%TD*%
%TO.C,U4*%
G36*
G01*
X128758800Y-65225601D02*
X128758800Y-64875601D01*
G75*
G02*
X128933800Y-64700601I175000J0D01*
G01*
X130433800Y-64700601D01*
G75*
G02*
X130608800Y-64875601I0J-175000D01*
G01*
X130608800Y-65225601D01*
G75*
G02*
X130433800Y-65400601I-175000J0D01*
G01*
X128933800Y-65400601D01*
G75*
G02*
X128758800Y-65225601I0J175000D01*
G01*
G37*
G36*
G01*
X128758800Y-66495601D02*
X128758800Y-66145601D01*
G75*
G02*
X128933800Y-65970601I175000J0D01*
G01*
X130433800Y-65970601D01*
G75*
G02*
X130608800Y-66145601I0J-175000D01*
G01*
X130608800Y-66495601D01*
G75*
G02*
X130433800Y-66670601I-175000J0D01*
G01*
X128933800Y-66670601D01*
G75*
G02*
X128758800Y-66495601I0J175000D01*
G01*
G37*
G36*
G01*
X128758800Y-67765601D02*
X128758800Y-67415601D01*
G75*
G02*
X128933800Y-67240601I175000J0D01*
G01*
X130433800Y-67240601D01*
G75*
G02*
X130608800Y-67415601I0J-175000D01*
G01*
X130608800Y-67765601D01*
G75*
G02*
X130433800Y-67940601I-175000J0D01*
G01*
X128933800Y-67940601D01*
G75*
G02*
X128758800Y-67765601I0J175000D01*
G01*
G37*
G36*
G01*
X128758800Y-69035601D02*
X128758800Y-68685601D01*
G75*
G02*
X128933800Y-68510601I175000J0D01*
G01*
X130433800Y-68510601D01*
G75*
G02*
X130608800Y-68685601I0J-175000D01*
G01*
X130608800Y-69035601D01*
G75*
G02*
X130433800Y-69210601I-175000J0D01*
G01*
X128933800Y-69210601D01*
G75*
G02*
X128758800Y-69035601I0J175000D01*
G01*
G37*
G36*
G01*
X133908800Y-69035601D02*
X133908800Y-68685601D01*
G75*
G02*
X134083800Y-68510601I175000J0D01*
G01*
X135583800Y-68510601D01*
G75*
G02*
X135758800Y-68685601I0J-175000D01*
G01*
X135758800Y-69035601D01*
G75*
G02*
X135583800Y-69210601I-175000J0D01*
G01*
X134083800Y-69210601D01*
G75*
G02*
X133908800Y-69035601I0J175000D01*
G01*
G37*
G36*
G01*
X133908800Y-67765601D02*
X133908800Y-67415601D01*
G75*
G02*
X134083800Y-67240601I175000J0D01*
G01*
X135583800Y-67240601D01*
G75*
G02*
X135758800Y-67415601I0J-175000D01*
G01*
X135758800Y-67765601D01*
G75*
G02*
X135583800Y-67940601I-175000J0D01*
G01*
X134083800Y-67940601D01*
G75*
G02*
X133908800Y-67765601I0J175000D01*
G01*
G37*
G36*
G01*
X133908800Y-66495601D02*
X133908800Y-66145601D01*
G75*
G02*
X134083800Y-65970601I175000J0D01*
G01*
X135583800Y-65970601D01*
G75*
G02*
X135758800Y-66145601I0J-175000D01*
G01*
X135758800Y-66495601D01*
G75*
G02*
X135583800Y-66670601I-175000J0D01*
G01*
X134083800Y-66670601D01*
G75*
G02*
X133908800Y-66495601I0J175000D01*
G01*
G37*
G36*
G01*
X133908800Y-65225601D02*
X133908800Y-64875601D01*
G75*
G02*
X134083800Y-64700601I175000J0D01*
G01*
X135583800Y-64700601D01*
G75*
G02*
X135758800Y-64875601I0J-175000D01*
G01*
X135758800Y-65225601D01*
G75*
G02*
X135583800Y-65400601I-175000J0D01*
G01*
X134083800Y-65400601D01*
G75*
G02*
X133908800Y-65225601I0J175000D01*
G01*
G37*
%TD*%
D11*
%TO.C,J6*%
X162500000Y-58640000D03*
D10*
X165040000Y-58640000D03*
X162500000Y-61180000D03*
X165040000Y-61180000D03*
X162500000Y-63720000D03*
X165040000Y-63720000D03*
X162500000Y-66260000D03*
X165040000Y-66260000D03*
X162500000Y-68800000D03*
X165040000Y-68800000D03*
X162500000Y-71340000D03*
X165040000Y-71340000D03*
X162500000Y-73880000D03*
X165040000Y-73880000D03*
X162500000Y-76420000D03*
X165040000Y-76420000D03*
X162500000Y-78960000D03*
X165040000Y-78960000D03*
X162500000Y-81500000D03*
X165040000Y-81500000D03*
%TD*%
D14*
%TO.C,R10*%
X155966000Y-61346000D03*
D15*
X158506000Y-61346000D03*
%TD*%
D16*
%TO.C,D1*%
X158500000Y-58000000D03*
D17*
X155960000Y-58000000D03*
%TD*%
M02*
