M48
; DRILL file {KiCad (5.1.6)-1} date 06/16/20 01:11:04
; FORMAT={-:-/ absolute / inch / decimal}
; #@! TF.CreationDate,2020-06-16T01:11:04+01:00
; #@! TF.GenerationSoftware,Kicad,Pcbnew,(5.1.6)-1
; #@! TF.FileFunction,Plated,1,2,PTH
FMAT,2
INCH
T1C0.0157
T2C0.0276
T3C0.0354
T4C0.0394
T5C0.0398
T6C0.0787
%
G90
G05
T1
X4.5463Y-3.0709
X4.5463Y-3.2652
X4.6271Y-2.8233
X4.9473Y-2.8982
X5.0401Y-2.7623
X5.2061Y-2.8423
X5.2081Y-2.6653
X5.2421Y-2.7093
X5.6401Y-2.8953
X5.7121Y-2.6023
X5.7713Y-2.5352
X5.8723Y-2.7402
X5.8741Y-2.6643
X5.9901Y-2.6023
T2
X6.1404Y-2.4152
X6.2404Y-2.4152
T3
X6.1402Y-2.2835
X6.2402Y-2.2835
T4
X5.8513Y-3.3352
X5.9513Y-3.3352
X5.8513Y-2.1752
X5.9513Y-2.1752
X4.3291Y-2.3087
X4.3291Y-2.4087
X4.3291Y-2.5087
X4.3291Y-2.6087
X4.3291Y-2.7087
X4.3291Y-2.8087
X4.3291Y-2.9087
X4.3291Y-3.0087
X4.3291Y-3.1087
X4.3291Y-3.2087
X4.4291Y-2.3087
X4.4291Y-2.4087
X4.4291Y-2.5087
X4.4291Y-2.6087
X4.4291Y-2.7087
X4.4291Y-2.8087
X4.4291Y-2.9087
X4.4291Y-3.0087
X4.4291Y-3.1087
X4.4291Y-3.2087
X6.3976Y-2.3087
X6.3976Y-2.4087
X6.3976Y-2.5087
X6.3976Y-2.6087
X6.3976Y-2.7087
X6.3976Y-2.8087
X6.3976Y-2.9087
X6.3976Y-3.0087
X6.3976Y-3.1087
X6.3976Y-3.2087
X6.4976Y-2.3087
X6.4976Y-2.4087
X6.4976Y-2.5087
X6.4976Y-2.6087
X6.4976Y-2.7087
X6.4976Y-2.8087
X6.4976Y-2.9087
X6.4976Y-3.0087
X6.4976Y-3.1087
X6.4976Y-3.2087
X4.7361Y-2.6081
X4.7361Y-2.7081
X4.7361Y-2.8081
X4.7361Y-2.9081
T5
X5.0971Y-2.1943
X5.2979Y-2.2416
X5.1121Y-3.2643
X5.3129Y-3.3116
T6
X5.6389Y-3.2893
X5.6171Y-2.2143
X4.9921Y-3.2893
X4.7921Y-3.2893
X5.4421Y-3.2893
X4.7702Y-2.2143
X4.9671Y-2.2143
X5.4171Y-2.2143
T0
M30
