%TF.GenerationSoftware,KiCad,Pcbnew,(5.1.6)-1*%
%TF.CreationDate,2020-06-16T01:11:05+01:00*%
%TF.ProjectId,peltier_driver_pcb,70656c74-6965-4725-9f64-72697665725f,rev?*%
%TF.SameCoordinates,Original*%
%TF.FileFunction,Copper,L1,Top*%
%TF.FilePolarity,Positive*%
%FSLAX46Y46*%
G04 Gerber Fmt 4.6, Leading zero omitted, Abs format (unit mm)*
G04 Created by KiCad (PCBNEW (5.1.6)-1) date 2020-06-16 01:11:05*
%MOMM*%
%LPD*%
G01*
G04 APERTURE LIST*
%TA.AperFunction,ComponentPad*%
%ADD10O,1.700000X1.700000*%
%TD*%
%TA.AperFunction,ComponentPad*%
%ADD11R,1.700000X1.700000*%
%TD*%
%TA.AperFunction,ComponentPad*%
%ADD12C,2.010000*%
%TD*%
%TA.AperFunction,ComponentPad*%
%ADD13C,3.500000*%
%TD*%
%TA.AperFunction,ComponentPad*%
%ADD14C,1.400000*%
%TD*%
%TA.AperFunction,ComponentPad*%
%ADD15O,1.400000X1.400000*%
%TD*%
%TA.AperFunction,ComponentPad*%
%ADD16R,1.800000X1.800000*%
%TD*%
%TA.AperFunction,ComponentPad*%
%ADD17C,1.800000*%
%TD*%
%TA.AperFunction,ViaPad*%
%ADD18C,0.800000*%
%TD*%
%TA.AperFunction,Conductor*%
%ADD19C,0.500000*%
%TD*%
%TA.AperFunction,Conductor*%
%ADD20C,0.250000*%
%TD*%
%TA.AperFunction,Conductor*%
%ADD21C,4.000000*%
%TD*%
%TA.AperFunction,Conductor*%
%ADD22C,0.254000*%
%TD*%
G04 APERTURE END LIST*
D10*
%TO.P,U1,4*%
%TO.N,SDA*%
X120298000Y-66246000D03*
%TO.P,U1,3*%
%TO.N,SCL*%
X120298000Y-68786000D03*
%TO.P,U1,2*%
%TO.N,+3V3*%
X120298000Y-71326000D03*
D11*
%TO.P,U1,1*%
%TO.N,GND*%
X120298000Y-73866000D03*
%TD*%
%TO.P,U9,1*%
%TO.N,Net-(J25-Pad1)*%
%TA.AperFunction,SMDPad,CuDef*%
G36*
G01*
X135584200Y-74592399D02*
X135584200Y-74892399D01*
G75*
G02*
X135434200Y-75042399I-150000J0D01*
G01*
X133984200Y-75042399D01*
G75*
G02*
X133834200Y-74892399I0J150000D01*
G01*
X133834200Y-74592399D01*
G75*
G02*
X133984200Y-74442399I150000J0D01*
G01*
X135434200Y-74442399D01*
G75*
G02*
X135584200Y-74592399I0J-150000D01*
G01*
G37*
%TD.AperFunction*%
%TO.P,U9,2*%
%TO.N,GND*%
%TA.AperFunction,SMDPad,CuDef*%
G36*
G01*
X135584200Y-73322399D02*
X135584200Y-73622399D01*
G75*
G02*
X135434200Y-73772399I-150000J0D01*
G01*
X133984200Y-73772399D01*
G75*
G02*
X133834200Y-73622399I0J150000D01*
G01*
X133834200Y-73322399D01*
G75*
G02*
X133984200Y-73172399I150000J0D01*
G01*
X135434200Y-73172399D01*
G75*
G02*
X135584200Y-73322399I0J-150000D01*
G01*
G37*
%TD.AperFunction*%
%TO.P,U9,3*%
%TO.N,+5V*%
%TA.AperFunction,SMDPad,CuDef*%
G36*
G01*
X135584200Y-72052399D02*
X135584200Y-72352399D01*
G75*
G02*
X135434200Y-72502399I-150000J0D01*
G01*
X133984200Y-72502399D01*
G75*
G02*
X133834200Y-72352399I0J150000D01*
G01*
X133834200Y-72052399D01*
G75*
G02*
X133984200Y-71902399I150000J0D01*
G01*
X135434200Y-71902399D01*
G75*
G02*
X135584200Y-72052399I0J-150000D01*
G01*
G37*
%TD.AperFunction*%
%TO.P,U9,4*%
%TO.N,Net-(U9-Pad4)*%
%TA.AperFunction,SMDPad,CuDef*%
G36*
G01*
X135584200Y-70782399D02*
X135584200Y-71082399D01*
G75*
G02*
X135434200Y-71232399I-150000J0D01*
G01*
X133984200Y-71232399D01*
G75*
G02*
X133834200Y-71082399I0J150000D01*
G01*
X133834200Y-70782399D01*
G75*
G02*
X133984200Y-70632399I150000J0D01*
G01*
X135434200Y-70632399D01*
G75*
G02*
X135584200Y-70782399I0J-150000D01*
G01*
G37*
%TD.AperFunction*%
%TO.P,U9,5*%
%TO.N,I_sense_1*%
%TA.AperFunction,SMDPad,CuDef*%
G36*
G01*
X130434200Y-70782399D02*
X130434200Y-71082399D01*
G75*
G02*
X130284200Y-71232399I-150000J0D01*
G01*
X128834200Y-71232399D01*
G75*
G02*
X128684200Y-71082399I0J150000D01*
G01*
X128684200Y-70782399D01*
G75*
G02*
X128834200Y-70632399I150000J0D01*
G01*
X130284200Y-70632399D01*
G75*
G02*
X130434200Y-70782399I0J-150000D01*
G01*
G37*
%TD.AperFunction*%
%TO.P,U9,6*%
%TO.N,+5V*%
%TA.AperFunction,SMDPad,CuDef*%
G36*
G01*
X130434200Y-72052399D02*
X130434200Y-72352399D01*
G75*
G02*
X130284200Y-72502399I-150000J0D01*
G01*
X128834200Y-72502399D01*
G75*
G02*
X128684200Y-72352399I0J150000D01*
G01*
X128684200Y-72052399D01*
G75*
G02*
X128834200Y-71902399I150000J0D01*
G01*
X130284200Y-71902399D01*
G75*
G02*
X130434200Y-72052399I0J-150000D01*
G01*
G37*
%TD.AperFunction*%
%TO.P,U9,7*%
%TO.N,GND*%
%TA.AperFunction,SMDPad,CuDef*%
G36*
G01*
X130434200Y-73322399D02*
X130434200Y-73622399D01*
G75*
G02*
X130284200Y-73772399I-150000J0D01*
G01*
X128834200Y-73772399D01*
G75*
G02*
X128684200Y-73622399I0J150000D01*
G01*
X128684200Y-73322399D01*
G75*
G02*
X128834200Y-73172399I150000J0D01*
G01*
X130284200Y-73172399D01*
G75*
G02*
X130434200Y-73322399I0J-150000D01*
G01*
G37*
%TD.AperFunction*%
%TO.P,U9,8*%
%TO.N,Net-(J28-Pad1)*%
%TA.AperFunction,SMDPad,CuDef*%
G36*
G01*
X130434200Y-74592399D02*
X130434200Y-74892399D01*
G75*
G02*
X130284200Y-75042399I-150000J0D01*
G01*
X128834200Y-75042399D01*
G75*
G02*
X128684200Y-74892399I0J150000D01*
G01*
X128684200Y-74592399D01*
G75*
G02*
X128834200Y-74442399I150000J0D01*
G01*
X130284200Y-74442399D01*
G75*
G02*
X130434200Y-74592399I0J-150000D01*
G01*
G37*
%TD.AperFunction*%
%TD*%
%TO.P,C6,2*%
%TO.N,+5V*%
%TA.AperFunction,SMDPad,CuDef*%
G36*
G01*
X127763250Y-72352500D02*
X126850750Y-72352500D01*
G75*
G02*
X126607000Y-72108750I0J243750D01*
G01*
X126607000Y-71621250D01*
G75*
G02*
X126850750Y-71377500I243750J0D01*
G01*
X127763250Y-71377500D01*
G75*
G02*
X128007000Y-71621250I0J-243750D01*
G01*
X128007000Y-72108750D01*
G75*
G02*
X127763250Y-72352500I-243750J0D01*
G01*
G37*
%TD.AperFunction*%
%TO.P,C6,1*%
%TO.N,GND*%
%TA.AperFunction,SMDPad,CuDef*%
G36*
G01*
X127763250Y-74227500D02*
X126850750Y-74227500D01*
G75*
G02*
X126607000Y-73983750I0J243750D01*
G01*
X126607000Y-73496250D01*
G75*
G02*
X126850750Y-73252500I243750J0D01*
G01*
X127763250Y-73252500D01*
G75*
G02*
X128007000Y-73496250I0J-243750D01*
G01*
X128007000Y-73983750D01*
G75*
G02*
X127763250Y-74227500I-243750J0D01*
G01*
G37*
%TD.AperFunction*%
%TD*%
D10*
%TO.P,J3,2*%
%TO.N,Net-(J3-Pad2)*%
X148624000Y-84714000D03*
D11*
%TO.P,J3,1*%
%TO.N,GND*%
X151164000Y-84714000D03*
%TD*%
%TO.P,J10,1*%
%TO.N,GND*%
X151164000Y-55250000D03*
D10*
%TO.P,J10,2*%
%TO.N,Net-(J10-Pad2)*%
X148624000Y-55250000D03*
%TD*%
%TO.P,R3,2*%
%TO.N,+5V*%
%TA.AperFunction,SMDPad,CuDef*%
G36*
G01*
X152782250Y-68318500D02*
X151869750Y-68318500D01*
G75*
G02*
X151626000Y-68074750I0J243750D01*
G01*
X151626000Y-67587250D01*
G75*
G02*
X151869750Y-67343500I243750J0D01*
G01*
X152782250Y-67343500D01*
G75*
G02*
X153026000Y-67587250I0J-243750D01*
G01*
X153026000Y-68074750D01*
G75*
G02*
X152782250Y-68318500I-243750J0D01*
G01*
G37*
%TD.AperFunction*%
%TO.P,R3,1*%
%TO.N,Net-(J3-Pad2)*%
%TA.AperFunction,SMDPad,CuDef*%
G36*
G01*
X152782250Y-70193500D02*
X151869750Y-70193500D01*
G75*
G02*
X151626000Y-69949750I0J243750D01*
G01*
X151626000Y-69462250D01*
G75*
G02*
X151869750Y-69218500I243750J0D01*
G01*
X152782250Y-69218500D01*
G75*
G02*
X153026000Y-69462250I0J-243750D01*
G01*
X153026000Y-69949750D01*
G75*
G02*
X152782250Y-70193500I-243750J0D01*
G01*
G37*
%TD.AperFunction*%
%TD*%
%TO.P,R5,1*%
%TO.N,Net-(R4-Pad2)*%
%TA.AperFunction,SMDPad,CuDef*%
G36*
G01*
X147774500Y-73972250D02*
X147774500Y-73059750D01*
G75*
G02*
X148018250Y-72816000I243750J0D01*
G01*
X148505750Y-72816000D01*
G75*
G02*
X148749500Y-73059750I0J-243750D01*
G01*
X148749500Y-73972250D01*
G75*
G02*
X148505750Y-74216000I-243750J0D01*
G01*
X148018250Y-74216000D01*
G75*
G02*
X147774500Y-73972250I0J243750D01*
G01*
G37*
%TD.AperFunction*%
%TO.P,R5,2*%
%TO.N,GND*%
%TA.AperFunction,SMDPad,CuDef*%
G36*
G01*
X149649500Y-73972250D02*
X149649500Y-73059750D01*
G75*
G02*
X149893250Y-72816000I243750J0D01*
G01*
X150380750Y-72816000D01*
G75*
G02*
X150624500Y-73059750I0J-243750D01*
G01*
X150624500Y-73972250D01*
G75*
G02*
X150380750Y-74216000I-243750J0D01*
G01*
X149893250Y-74216000D01*
G75*
G02*
X149649500Y-73972250I0J243750D01*
G01*
G37*
%TD.AperFunction*%
%TD*%
%TO.P,R9,1*%
%TO.N,Net-(J10-Pad2)*%
%TA.AperFunction,SMDPad,CuDef*%
G36*
G01*
X154814250Y-69431500D02*
X153901750Y-69431500D01*
G75*
G02*
X153658000Y-69187750I0J243750D01*
G01*
X153658000Y-68700250D01*
G75*
G02*
X153901750Y-68456500I243750J0D01*
G01*
X154814250Y-68456500D01*
G75*
G02*
X155058000Y-68700250I0J-243750D01*
G01*
X155058000Y-69187750D01*
G75*
G02*
X154814250Y-69431500I-243750J0D01*
G01*
G37*
%TD.AperFunction*%
%TO.P,R9,2*%
%TO.N,+5V*%
%TA.AperFunction,SMDPad,CuDef*%
G36*
G01*
X154814250Y-67556500D02*
X153901750Y-67556500D01*
G75*
G02*
X153658000Y-67312750I0J243750D01*
G01*
X153658000Y-66825250D01*
G75*
G02*
X153901750Y-66581500I243750J0D01*
G01*
X154814250Y-66581500D01*
G75*
G02*
X155058000Y-66825250I0J-243750D01*
G01*
X155058000Y-67312750D01*
G75*
G02*
X154814250Y-67556500I-243750J0D01*
G01*
G37*
%TD.AperFunction*%
%TD*%
%TO.P,R4,2*%
%TO.N,Net-(R4-Pad2)*%
%TA.AperFunction,SMDPad,CuDef*%
G36*
G01*
X146250500Y-73972250D02*
X146250500Y-73059750D01*
G75*
G02*
X146494250Y-72816000I243750J0D01*
G01*
X146981750Y-72816000D01*
G75*
G02*
X147225500Y-73059750I0J-243750D01*
G01*
X147225500Y-73972250D01*
G75*
G02*
X146981750Y-74216000I-243750J0D01*
G01*
X146494250Y-74216000D01*
G75*
G02*
X146250500Y-73972250I0J243750D01*
G01*
G37*
%TD.AperFunction*%
%TO.P,R4,1*%
%TO.N,T_sense1*%
%TA.AperFunction,SMDPad,CuDef*%
G36*
G01*
X144375500Y-73972250D02*
X144375500Y-73059750D01*
G75*
G02*
X144619250Y-72816000I243750J0D01*
G01*
X145106750Y-72816000D01*
G75*
G02*
X145350500Y-73059750I0J-243750D01*
G01*
X145350500Y-73972250D01*
G75*
G02*
X145106750Y-74216000I-243750J0D01*
G01*
X144619250Y-74216000D01*
G75*
G02*
X144375500Y-73972250I0J243750D01*
G01*
G37*
%TD.AperFunction*%
%TD*%
%TO.P,R7,2*%
%TO.N,Net-(R7-Pad2)*%
%TA.AperFunction,SMDPad,CuDef*%
G36*
G01*
X148398500Y-63407750D02*
X148398500Y-64320250D01*
G75*
G02*
X148154750Y-64564000I-243750J0D01*
G01*
X147667250Y-64564000D01*
G75*
G02*
X147423500Y-64320250I0J243750D01*
G01*
X147423500Y-63407750D01*
G75*
G02*
X147667250Y-63164000I243750J0D01*
G01*
X148154750Y-63164000D01*
G75*
G02*
X148398500Y-63407750I0J-243750D01*
G01*
G37*
%TD.AperFunction*%
%TO.P,R7,1*%
%TO.N,T_sense2*%
%TA.AperFunction,SMDPad,CuDef*%
G36*
G01*
X150273500Y-63407750D02*
X150273500Y-64320250D01*
G75*
G02*
X150029750Y-64564000I-243750J0D01*
G01*
X149542250Y-64564000D01*
G75*
G02*
X149298500Y-64320250I0J243750D01*
G01*
X149298500Y-63407750D01*
G75*
G02*
X149542250Y-63164000I243750J0D01*
G01*
X150029750Y-63164000D01*
G75*
G02*
X150273500Y-63407750I0J-243750D01*
G01*
G37*
%TD.AperFunction*%
%TD*%
%TO.P,R8,2*%
%TO.N,GND*%
%TA.AperFunction,SMDPad,CuDef*%
G36*
G01*
X149293900Y-62389850D02*
X149293900Y-61477350D01*
G75*
G02*
X149537650Y-61233600I243750J0D01*
G01*
X150025150Y-61233600D01*
G75*
G02*
X150268900Y-61477350I0J-243750D01*
G01*
X150268900Y-62389850D01*
G75*
G02*
X150025150Y-62633600I-243750J0D01*
G01*
X149537650Y-62633600D01*
G75*
G02*
X149293900Y-62389850I0J243750D01*
G01*
G37*
%TD.AperFunction*%
%TO.P,R8,1*%
%TO.N,Net-(R7-Pad2)*%
%TA.AperFunction,SMDPad,CuDef*%
G36*
G01*
X147418900Y-62389850D02*
X147418900Y-61477350D01*
G75*
G02*
X147662650Y-61233600I243750J0D01*
G01*
X148150150Y-61233600D01*
G75*
G02*
X148393900Y-61477350I0J-243750D01*
G01*
X148393900Y-62389850D01*
G75*
G02*
X148150150Y-62633600I-243750J0D01*
G01*
X147662650Y-62633600D01*
G75*
G02*
X147418900Y-62389850I0J243750D01*
G01*
G37*
%TD.AperFunction*%
%TD*%
%TO.P,U3,1*%
%TO.N,T_sense1*%
%TA.AperFunction,SMDPad,CuDef*%
G36*
G01*
X146837200Y-72089200D02*
X146537200Y-72089200D01*
G75*
G02*
X146387200Y-71939200I0J150000D01*
G01*
X146387200Y-70489200D01*
G75*
G02*
X146537200Y-70339200I150000J0D01*
G01*
X146837200Y-70339200D01*
G75*
G02*
X146987200Y-70489200I0J-150000D01*
G01*
X146987200Y-71939200D01*
G75*
G02*
X146837200Y-72089200I-150000J0D01*
G01*
G37*
%TD.AperFunction*%
%TO.P,U3,2*%
%TO.N,Net-(R4-Pad2)*%
%TA.AperFunction,SMDPad,CuDef*%
G36*
G01*
X148107200Y-72089200D02*
X147807200Y-72089200D01*
G75*
G02*
X147657200Y-71939200I0J150000D01*
G01*
X147657200Y-70489200D01*
G75*
G02*
X147807200Y-70339200I150000J0D01*
G01*
X148107200Y-70339200D01*
G75*
G02*
X148257200Y-70489200I0J-150000D01*
G01*
X148257200Y-71939200D01*
G75*
G02*
X148107200Y-72089200I-150000J0D01*
G01*
G37*
%TD.AperFunction*%
%TO.P,U3,3*%
%TO.N,Net-(J3-Pad2)*%
%TA.AperFunction,SMDPad,CuDef*%
G36*
G01*
X149377200Y-72089200D02*
X149077200Y-72089200D01*
G75*
G02*
X148927200Y-71939200I0J150000D01*
G01*
X148927200Y-70489200D01*
G75*
G02*
X149077200Y-70339200I150000J0D01*
G01*
X149377200Y-70339200D01*
G75*
G02*
X149527200Y-70489200I0J-150000D01*
G01*
X149527200Y-71939200D01*
G75*
G02*
X149377200Y-72089200I-150000J0D01*
G01*
G37*
%TD.AperFunction*%
%TO.P,U3,4*%
%TO.N,GND*%
%TA.AperFunction,SMDPad,CuDef*%
G36*
G01*
X150647200Y-72089200D02*
X150347200Y-72089200D01*
G75*
G02*
X150197200Y-71939200I0J150000D01*
G01*
X150197200Y-70489200D01*
G75*
G02*
X150347200Y-70339200I150000J0D01*
G01*
X150647200Y-70339200D01*
G75*
G02*
X150797200Y-70489200I0J-150000D01*
G01*
X150797200Y-71939200D01*
G75*
G02*
X150647200Y-72089200I-150000J0D01*
G01*
G37*
%TD.AperFunction*%
%TO.P,U3,5*%
%TO.N,+5V*%
%TA.AperFunction,SMDPad,CuDef*%
G36*
G01*
X150647200Y-66939200D02*
X150347200Y-66939200D01*
G75*
G02*
X150197200Y-66789200I0J150000D01*
G01*
X150197200Y-65339200D01*
G75*
G02*
X150347200Y-65189200I150000J0D01*
G01*
X150647200Y-65189200D01*
G75*
G02*
X150797200Y-65339200I0J-150000D01*
G01*
X150797200Y-66789200D01*
G75*
G02*
X150647200Y-66939200I-150000J0D01*
G01*
G37*
%TD.AperFunction*%
%TO.P,U3,6*%
%TO.N,T_sense2*%
%TA.AperFunction,SMDPad,CuDef*%
G36*
G01*
X149377200Y-66939200D02*
X149077200Y-66939200D01*
G75*
G02*
X148927200Y-66789200I0J150000D01*
G01*
X148927200Y-65339200D01*
G75*
G02*
X149077200Y-65189200I150000J0D01*
G01*
X149377200Y-65189200D01*
G75*
G02*
X149527200Y-65339200I0J-150000D01*
G01*
X149527200Y-66789200D01*
G75*
G02*
X149377200Y-66939200I-150000J0D01*
G01*
G37*
%TD.AperFunction*%
%TO.P,U3,7*%
%TO.N,Net-(R7-Pad2)*%
%TA.AperFunction,SMDPad,CuDef*%
G36*
G01*
X148107200Y-66939200D02*
X147807200Y-66939200D01*
G75*
G02*
X147657200Y-66789200I0J150000D01*
G01*
X147657200Y-65339200D01*
G75*
G02*
X147807200Y-65189200I150000J0D01*
G01*
X148107200Y-65189200D01*
G75*
G02*
X148257200Y-65339200I0J-150000D01*
G01*
X148257200Y-66789200D01*
G75*
G02*
X148107200Y-66939200I-150000J0D01*
G01*
G37*
%TD.AperFunction*%
%TO.P,U3,8*%
%TO.N,Net-(J10-Pad2)*%
%TA.AperFunction,SMDPad,CuDef*%
G36*
G01*
X146837200Y-66939200D02*
X146537200Y-66939200D01*
G75*
G02*
X146387200Y-66789200I0J150000D01*
G01*
X146387200Y-65339200D01*
G75*
G02*
X146537200Y-65189200I150000J0D01*
G01*
X146837200Y-65189200D01*
G75*
G02*
X146987200Y-65339200I0J-150000D01*
G01*
X146987200Y-66789200D01*
G75*
G02*
X146837200Y-66939200I-150000J0D01*
G01*
G37*
%TD.AperFunction*%
%TD*%
%TO.P,R14,1*%
%TO.N,Net-(J28-Pad1)*%
%TA.AperFunction,SMDPad,CuDef*%
G36*
G01*
X128634200Y-79411401D02*
X128634200Y-76561399D01*
G75*
G02*
X128884199Y-76311400I249999J0D01*
G01*
X129734201Y-76311400D01*
G75*
G02*
X129984200Y-76561399I0J-249999D01*
G01*
X129984200Y-79411401D01*
G75*
G02*
X129734201Y-79661400I-249999J0D01*
G01*
X128884199Y-79661400D01*
G75*
G02*
X128634200Y-79411401I0J249999D01*
G01*
G37*
%TD.AperFunction*%
%TO.P,R14,2*%
%TO.N,Net-(J25-Pad1)*%
%TA.AperFunction,SMDPad,CuDef*%
G36*
G01*
X134434200Y-79411401D02*
X134434200Y-76561399D01*
G75*
G02*
X134684199Y-76311400I249999J0D01*
G01*
X135534201Y-76311400D01*
G75*
G02*
X135784200Y-76561399I0J-249999D01*
G01*
X135784200Y-79411401D01*
G75*
G02*
X135534201Y-79661400I-249999J0D01*
G01*
X134684199Y-79661400D01*
G75*
G02*
X134434200Y-79411401I0J249999D01*
G01*
G37*
%TD.AperFunction*%
%TD*%
D11*
%TO.P,J9,1*%
%TO.N,A0*%
X109960000Y-58640000D03*
D10*
%TO.P,J9,2*%
%TO.N,I_sense_2*%
X112500000Y-58640000D03*
%TO.P,J9,3*%
%TO.N,A1*%
X109960000Y-61180000D03*
%TO.P,J9,4*%
%TO.N,T_sense2*%
X112500000Y-61180000D03*
%TO.P,J9,5*%
%TO.N,A2*%
X109960000Y-63720000D03*
%TO.P,J9,6*%
%TO.N,+3V3*%
X112500000Y-63720000D03*
%TO.P,J9,7*%
%TO.N,A3*%
X109960000Y-66260000D03*
%TO.P,J9,8*%
%TO.N,SDA*%
X112500000Y-66260000D03*
%TO.P,J9,9*%
%TO.N,A4*%
X109960000Y-68800000D03*
%TO.P,J9,10*%
%TO.N,SCL*%
X112500000Y-68800000D03*
%TO.P,J9,11*%
%TO.N,D0*%
X109960000Y-71340000D03*
%TO.P,J9,12*%
%TO.N,I_sense_1*%
X112500000Y-71340000D03*
%TO.P,J9,13*%
%TO.N,D1*%
X109960000Y-73880000D03*
%TO.P,J9,14*%
%TO.N,T_sense1*%
X112500000Y-73880000D03*
%TO.P,J9,15*%
%TO.N,D2*%
X109960000Y-76420000D03*
%TO.P,J9,16*%
%TO.N,D3*%
X112500000Y-76420000D03*
%TO.P,J9,17*%
%TO.N,PWM0*%
X109960000Y-78960000D03*
%TO.P,J9,18*%
%TO.N,+5V*%
X112500000Y-78960000D03*
%TO.P,J9,19*%
%TO.N,PWM1*%
X109960000Y-81500000D03*
%TO.P,J9,20*%
%TO.N,GND*%
X112500000Y-81500000D03*
%TD*%
%TO.P,R1,2*%
%TO.N,SCL*%
%TA.AperFunction,SMDPad,CuDef*%
G36*
G01*
X117984250Y-69177500D02*
X117071750Y-69177500D01*
G75*
G02*
X116828000Y-68933750I0J243750D01*
G01*
X116828000Y-68446250D01*
G75*
G02*
X117071750Y-68202500I243750J0D01*
G01*
X117984250Y-68202500D01*
G75*
G02*
X118228000Y-68446250I0J-243750D01*
G01*
X118228000Y-68933750D01*
G75*
G02*
X117984250Y-69177500I-243750J0D01*
G01*
G37*
%TD.AperFunction*%
%TO.P,R1,1*%
%TO.N,+3V3*%
%TA.AperFunction,SMDPad,CuDef*%
G36*
G01*
X117984250Y-71052500D02*
X117071750Y-71052500D01*
G75*
G02*
X116828000Y-70808750I0J243750D01*
G01*
X116828000Y-70321250D01*
G75*
G02*
X117071750Y-70077500I243750J0D01*
G01*
X117984250Y-70077500D01*
G75*
G02*
X118228000Y-70321250I0J-243750D01*
G01*
X118228000Y-70808750D01*
G75*
G02*
X117984250Y-71052500I-243750J0D01*
G01*
G37*
%TD.AperFunction*%
%TD*%
D12*
%TO.P,F1,1*%
%TO.N,Net-(F1-Pad1)*%
X129466000Y-55736000D03*
%TO.P,F1,2*%
%TO.N,Net-(F1-Pad2)*%
X134566000Y-56936000D03*
%TD*%
%TO.P,F6,2*%
%TO.N,Net-(F6-Pad2)*%
X134947000Y-84114000D03*
%TO.P,F6,1*%
%TO.N,Net-(F6-Pad1)*%
X129847000Y-82914000D03*
%TD*%
D13*
%TO.P,J1,1*%
%TO.N,Net-(F1-Pad2)*%
X137594000Y-56244000D03*
%TD*%
%TO.P,J2,1*%
%TO.N,Net-(F1-Pad1)*%
X126164000Y-56244000D03*
%TD*%
%TO.P,J4,1*%
%TO.N,Net-(J4-Pad1)*%
X121164000Y-56244000D03*
%TD*%
%TO.P,J5,1*%
%TO.N,Net-(J5-Pad1)*%
X142674000Y-56244000D03*
%TD*%
%TO.P,J21,1*%
%TO.N,Net-(F6-Pad2)*%
X138229000Y-83549000D03*
%TD*%
%TO.P,J22,1*%
%TO.N,Net-(F6-Pad1)*%
X126799000Y-83549000D03*
%TD*%
%TO.P,J25,1*%
%TO.N,Net-(J25-Pad1)*%
X143229000Y-83549000D03*
%TD*%
%TO.P,J28,1*%
%TO.N,Net-(J28-Pad1)*%
X121719000Y-83549000D03*
%TD*%
%TO.P,C1,1*%
%TO.N,GND*%
%TA.AperFunction,SMDPad,CuDef*%
G36*
G01*
X136629750Y-65586300D02*
X137542250Y-65586300D01*
G75*
G02*
X137786000Y-65830050I0J-243750D01*
G01*
X137786000Y-66317550D01*
G75*
G02*
X137542250Y-66561300I-243750J0D01*
G01*
X136629750Y-66561300D01*
G75*
G02*
X136386000Y-66317550I0J243750D01*
G01*
X136386000Y-65830050D01*
G75*
G02*
X136629750Y-65586300I243750J0D01*
G01*
G37*
%TD.AperFunction*%
%TO.P,C1,2*%
%TO.N,+5V*%
%TA.AperFunction,SMDPad,CuDef*%
G36*
G01*
X136629750Y-67461300D02*
X137542250Y-67461300D01*
G75*
G02*
X137786000Y-67705050I0J-243750D01*
G01*
X137786000Y-68192550D01*
G75*
G02*
X137542250Y-68436300I-243750J0D01*
G01*
X136629750Y-68436300D01*
G75*
G02*
X136386000Y-68192550I0J243750D01*
G01*
X136386000Y-67705050D01*
G75*
G02*
X136629750Y-67461300I243750J0D01*
G01*
G37*
%TD.AperFunction*%
%TD*%
%TO.P,R2,1*%
%TO.N,+3V3*%
%TA.AperFunction,SMDPad,CuDef*%
G36*
G01*
X117071750Y-64041500D02*
X117984250Y-64041500D01*
G75*
G02*
X118228000Y-64285250I0J-243750D01*
G01*
X118228000Y-64772750D01*
G75*
G02*
X117984250Y-65016500I-243750J0D01*
G01*
X117071750Y-65016500D01*
G75*
G02*
X116828000Y-64772750I0J243750D01*
G01*
X116828000Y-64285250D01*
G75*
G02*
X117071750Y-64041500I243750J0D01*
G01*
G37*
%TD.AperFunction*%
%TO.P,R2,2*%
%TO.N,SDA*%
%TA.AperFunction,SMDPad,CuDef*%
G36*
G01*
X117071750Y-65916500D02*
X117984250Y-65916500D01*
G75*
G02*
X118228000Y-66160250I0J-243750D01*
G01*
X118228000Y-66647750D01*
G75*
G02*
X117984250Y-66891500I-243750J0D01*
G01*
X117071750Y-66891500D01*
G75*
G02*
X116828000Y-66647750I0J243750D01*
G01*
X116828000Y-66160250D01*
G75*
G02*
X117071750Y-65916500I243750J0D01*
G01*
G37*
%TD.AperFunction*%
%TD*%
%TO.P,R6,1*%
%TO.N,Net-(J5-Pad1)*%
%TA.AperFunction,SMDPad,CuDef*%
G36*
G01*
X135758800Y-60381599D02*
X135758800Y-63231601D01*
G75*
G02*
X135508801Y-63481600I-249999J0D01*
G01*
X134658799Y-63481600D01*
G75*
G02*
X134408800Y-63231601I0J249999D01*
G01*
X134408800Y-60381599D01*
G75*
G02*
X134658799Y-60131600I249999J0D01*
G01*
X135508801Y-60131600D01*
G75*
G02*
X135758800Y-60381599I0J-249999D01*
G01*
G37*
%TD.AperFunction*%
%TO.P,R6,2*%
%TO.N,Net-(J4-Pad1)*%
%TA.AperFunction,SMDPad,CuDef*%
G36*
G01*
X129958800Y-60381599D02*
X129958800Y-63231601D01*
G75*
G02*
X129708801Y-63481600I-249999J0D01*
G01*
X128858799Y-63481600D01*
G75*
G02*
X128608800Y-63231601I0J249999D01*
G01*
X128608800Y-60381599D01*
G75*
G02*
X128858799Y-60131600I249999J0D01*
G01*
X129708801Y-60131600D01*
G75*
G02*
X129958800Y-60381599I0J-249999D01*
G01*
G37*
%TD.AperFunction*%
%TD*%
%TO.P,U4,1*%
%TO.N,Net-(J4-Pad1)*%
%TA.AperFunction,SMDPad,CuDef*%
G36*
G01*
X128808800Y-65200601D02*
X128808800Y-64900601D01*
G75*
G02*
X128958800Y-64750601I150000J0D01*
G01*
X130408800Y-64750601D01*
G75*
G02*
X130558800Y-64900601I0J-150000D01*
G01*
X130558800Y-65200601D01*
G75*
G02*
X130408800Y-65350601I-150000J0D01*
G01*
X128958800Y-65350601D01*
G75*
G02*
X128808800Y-65200601I0J150000D01*
G01*
G37*
%TD.AperFunction*%
%TO.P,U4,2*%
%TO.N,GND*%
%TA.AperFunction,SMDPad,CuDef*%
G36*
G01*
X128808800Y-66470601D02*
X128808800Y-66170601D01*
G75*
G02*
X128958800Y-66020601I150000J0D01*
G01*
X130408800Y-66020601D01*
G75*
G02*
X130558800Y-66170601I0J-150000D01*
G01*
X130558800Y-66470601D01*
G75*
G02*
X130408800Y-66620601I-150000J0D01*
G01*
X128958800Y-66620601D01*
G75*
G02*
X128808800Y-66470601I0J150000D01*
G01*
G37*
%TD.AperFunction*%
%TO.P,U4,3*%
%TO.N,+5V*%
%TA.AperFunction,SMDPad,CuDef*%
G36*
G01*
X128808800Y-67740601D02*
X128808800Y-67440601D01*
G75*
G02*
X128958800Y-67290601I150000J0D01*
G01*
X130408800Y-67290601D01*
G75*
G02*
X130558800Y-67440601I0J-150000D01*
G01*
X130558800Y-67740601D01*
G75*
G02*
X130408800Y-67890601I-150000J0D01*
G01*
X128958800Y-67890601D01*
G75*
G02*
X128808800Y-67740601I0J150000D01*
G01*
G37*
%TD.AperFunction*%
%TO.P,U4,4*%
%TO.N,Net-(U4-Pad4)*%
%TA.AperFunction,SMDPad,CuDef*%
G36*
G01*
X128808800Y-69010601D02*
X128808800Y-68710601D01*
G75*
G02*
X128958800Y-68560601I150000J0D01*
G01*
X130408800Y-68560601D01*
G75*
G02*
X130558800Y-68710601I0J-150000D01*
G01*
X130558800Y-69010601D01*
G75*
G02*
X130408800Y-69160601I-150000J0D01*
G01*
X128958800Y-69160601D01*
G75*
G02*
X128808800Y-69010601I0J150000D01*
G01*
G37*
%TD.AperFunction*%
%TO.P,U4,5*%
%TO.N,I_sense_2*%
%TA.AperFunction,SMDPad,CuDef*%
G36*
G01*
X133958800Y-69010601D02*
X133958800Y-68710601D01*
G75*
G02*
X134108800Y-68560601I150000J0D01*
G01*
X135558800Y-68560601D01*
G75*
G02*
X135708800Y-68710601I0J-150000D01*
G01*
X135708800Y-69010601D01*
G75*
G02*
X135558800Y-69160601I-150000J0D01*
G01*
X134108800Y-69160601D01*
G75*
G02*
X133958800Y-69010601I0J150000D01*
G01*
G37*
%TD.AperFunction*%
%TO.P,U4,6*%
%TO.N,+5V*%
%TA.AperFunction,SMDPad,CuDef*%
G36*
G01*
X133958800Y-67740601D02*
X133958800Y-67440601D01*
G75*
G02*
X134108800Y-67290601I150000J0D01*
G01*
X135558800Y-67290601D01*
G75*
G02*
X135708800Y-67440601I0J-150000D01*
G01*
X135708800Y-67740601D01*
G75*
G02*
X135558800Y-67890601I-150000J0D01*
G01*
X134108800Y-67890601D01*
G75*
G02*
X133958800Y-67740601I0J150000D01*
G01*
G37*
%TD.AperFunction*%
%TO.P,U4,7*%
%TO.N,GND*%
%TA.AperFunction,SMDPad,CuDef*%
G36*
G01*
X133958800Y-66470601D02*
X133958800Y-66170601D01*
G75*
G02*
X134108800Y-66020601I150000J0D01*
G01*
X135558800Y-66020601D01*
G75*
G02*
X135708800Y-66170601I0J-150000D01*
G01*
X135708800Y-66470601D01*
G75*
G02*
X135558800Y-66620601I-150000J0D01*
G01*
X134108800Y-66620601D01*
G75*
G02*
X133958800Y-66470601I0J150000D01*
G01*
G37*
%TD.AperFunction*%
%TO.P,U4,8*%
%TO.N,Net-(J5-Pad1)*%
%TA.AperFunction,SMDPad,CuDef*%
G36*
G01*
X133958800Y-65200601D02*
X133958800Y-64900601D01*
G75*
G02*
X134108800Y-64750601I150000J0D01*
G01*
X135558800Y-64750601D01*
G75*
G02*
X135708800Y-64900601I0J-150000D01*
G01*
X135708800Y-65200601D01*
G75*
G02*
X135558800Y-65350601I-150000J0D01*
G01*
X134108800Y-65350601D01*
G75*
G02*
X133958800Y-65200601I0J150000D01*
G01*
G37*
%TD.AperFunction*%
%TD*%
D11*
%TO.P,J6,1*%
%TO.N,Net-(J6-Pad1)*%
X162500000Y-58640000D03*
D10*
%TO.P,J6,2*%
%TO.N,Net-(J6-Pad2)*%
X165040000Y-58640000D03*
%TO.P,J6,3*%
%TO.N,Net-(J6-Pad3)*%
X162500000Y-61180000D03*
%TO.P,J6,4*%
%TO.N,Net-(J6-Pad4)*%
X165040000Y-61180000D03*
%TO.P,J6,5*%
%TO.N,Net-(J6-Pad5)*%
X162500000Y-63720000D03*
%TO.P,J6,6*%
%TO.N,Net-(J6-Pad6)*%
X165040000Y-63720000D03*
%TO.P,J6,7*%
%TO.N,Net-(J6-Pad7)*%
X162500000Y-66260000D03*
%TO.P,J6,8*%
%TO.N,Net-(J6-Pad8)*%
X165040000Y-66260000D03*
%TO.P,J6,9*%
%TO.N,Net-(J6-Pad9)*%
X162500000Y-68800000D03*
%TO.P,J6,10*%
%TO.N,Net-(J6-Pad10)*%
X165040000Y-68800000D03*
%TO.P,J6,11*%
%TO.N,Net-(J6-Pad11)*%
X162500000Y-71340000D03*
%TO.P,J6,12*%
%TO.N,Net-(J6-Pad12)*%
X165040000Y-71340000D03*
%TO.P,J6,13*%
%TO.N,Net-(J6-Pad13)*%
X162500000Y-73880000D03*
%TO.P,J6,14*%
%TO.N,Net-(J6-Pad14)*%
X165040000Y-73880000D03*
%TO.P,J6,15*%
%TO.N,Net-(J6-Pad15)*%
X162500000Y-76420000D03*
%TO.P,J6,16*%
%TO.N,Net-(J6-Pad16)*%
X165040000Y-76420000D03*
%TO.P,J6,17*%
%TO.N,Net-(J6-Pad17)*%
X162500000Y-78960000D03*
%TO.P,J6,18*%
%TO.N,Net-(J6-Pad18)*%
X165040000Y-78960000D03*
%TO.P,J6,19*%
%TO.N,Net-(J6-Pad19)*%
X162500000Y-81500000D03*
%TO.P,J6,20*%
%TO.N,Net-(J6-Pad20)*%
X165040000Y-81500000D03*
%TD*%
D14*
%TO.P,R10,1*%
%TO.N,GND*%
X155966000Y-61346000D03*
D15*
%TO.P,R10,2*%
%TO.N,Net-(D1-Pad1)*%
X158506000Y-61346000D03*
%TD*%
D16*
%TO.P,D1,1*%
%TO.N,Net-(D1-Pad1)*%
X158500000Y-58000000D03*
D17*
%TO.P,D1,2*%
%TO.N,+5V*%
X155960000Y-58000000D03*
%TD*%
D18*
%TO.N,GND*%
X115476000Y-82936000D03*
X115476000Y-78000000D03*
X125662400Y-73614200D03*
%TO.N,+3V3*%
X117528000Y-71712600D03*
%TO.N,+5V*%
X152148200Y-66099200D03*
X145087000Y-66099200D03*
X132234600Y-72195200D03*
X132285400Y-67699400D03*
%TO.N,T_sense2*%
X149201800Y-67674000D03*
%TO.N,T_sense1*%
X143258200Y-73541400D03*
%TO.N,Net-(J10-Pad2)*%
X146592000Y-64394000D03*
%TO.N,I_sense_1*%
X128018200Y-70163200D03*
%TO.N,I_sense_2*%
X133149000Y-68817000D03*
%TO.N,Net-(J3-Pad2)*%
X149157400Y-69601000D03*
%TD*%
D19*
%TO.N,GND*%
X136839199Y-66320601D02*
X137086000Y-66073800D01*
X134833800Y-66320601D02*
X136839199Y-66320601D01*
X127574601Y-73472399D02*
X127307000Y-73740000D01*
X129559200Y-73472399D02*
X127574601Y-73472399D01*
D20*
%TO.N,+3V3*%
X117528000Y-71992000D02*
X117528000Y-71992000D01*
X119911400Y-71712600D02*
X120298000Y-71326000D01*
X117528000Y-71712600D02*
X119911400Y-71712600D01*
X117528000Y-70565000D02*
X117528000Y-71712600D01*
X117431000Y-64626000D02*
X113086000Y-64626000D01*
X117528000Y-64529000D02*
X117431000Y-64626000D01*
X113086000Y-64626000D02*
X112540000Y-64080000D01*
D19*
%TO.N,+5V*%
X136727801Y-67590601D02*
X137086000Y-67948800D01*
X134833800Y-67590601D02*
X136727801Y-67590601D01*
X127644399Y-72202399D02*
X127307000Y-71865000D01*
X129559200Y-72202399D02*
X127644399Y-72202399D01*
X152859400Y-67928000D02*
X152423000Y-67928000D01*
X154358000Y-67069000D02*
X153718400Y-67069000D01*
X152423000Y-67928000D02*
X152326000Y-67831000D01*
X153718400Y-67069000D02*
X152859400Y-67928000D01*
X129792599Y-67699400D02*
X129683800Y-67590601D01*
X132285400Y-67699400D02*
X129792599Y-67699400D01*
X134725001Y-67699400D02*
X134833800Y-67590601D01*
X132285400Y-67699400D02*
X134725001Y-67699400D01*
X132285400Y-72144400D02*
X132234600Y-72195200D01*
X132285400Y-67699400D02*
X132285400Y-72144400D01*
X129566399Y-72195200D02*
X129559200Y-72202399D01*
X132234600Y-72195200D02*
X129566399Y-72195200D01*
X134702001Y-72195200D02*
X134709200Y-72202399D01*
X132234600Y-72195200D02*
X134702001Y-72195200D01*
X141150000Y-66073800D02*
X145061600Y-66073800D01*
X145061600Y-66073800D02*
X145087000Y-66099200D01*
X137086000Y-67948800D02*
X139275000Y-67948800D01*
X139275000Y-67948800D02*
X141150000Y-66073800D01*
X150532200Y-66099200D02*
X150497200Y-66064200D01*
X152148200Y-66099200D02*
X150532200Y-66099200D01*
X151365400Y-67831000D02*
X152326000Y-67831000D01*
X150497200Y-66064200D02*
X150497200Y-66962800D01*
X150497200Y-66962800D02*
X151365400Y-67831000D01*
X112720000Y-79500000D02*
X112540000Y-79320000D01*
X118325800Y-79500000D02*
X112720000Y-79500000D01*
X127307000Y-71865000D02*
X125960800Y-71865000D01*
X125960800Y-71865000D02*
X118325800Y-79500000D01*
D20*
%TO.N,SDA*%
X120298000Y-66246000D02*
X117686000Y-66246000D01*
X112756000Y-66404000D02*
X112540000Y-66620000D01*
X117528000Y-66404000D02*
X112756000Y-66404000D01*
%TO.N,SCL*%
X117624000Y-68786000D02*
X117528000Y-68690000D01*
X120298000Y-68786000D02*
X117624000Y-68786000D01*
X113010000Y-68690000D02*
X112540000Y-69160000D01*
X117528000Y-68690000D02*
X113010000Y-68690000D01*
D21*
%TO.N,Net-(F1-Pad1)*%
X128958000Y-56244000D02*
X129466000Y-55736000D01*
X126164000Y-56244000D02*
X128958000Y-56244000D01*
%TO.N,Net-(F1-Pad2)*%
X136902000Y-56936000D02*
X137594000Y-56244000D01*
X134566000Y-56936000D02*
X136902000Y-56936000D01*
%TO.N,Net-(J4-Pad1)*%
X123852600Y-61806600D02*
X129283800Y-61806600D01*
X121164000Y-56244000D02*
X121164000Y-59118000D01*
X121164000Y-59118000D02*
X123852600Y-61806600D01*
D19*
X129283800Y-64650601D02*
X129683800Y-65050601D01*
X129283800Y-61806600D02*
X129283800Y-64650601D01*
D20*
%TO.N,T_sense2*%
X149430400Y-65861000D02*
X149227200Y-66064200D01*
X149786000Y-63864000D02*
X149430400Y-64219600D01*
X149430400Y-64219600D02*
X149430400Y-65861000D01*
X149227200Y-66064200D02*
X149227200Y-67648600D01*
X149227200Y-67648600D02*
X149201800Y-67674000D01*
%TO.N,T_sense1*%
X144863000Y-73516000D02*
X144863000Y-72343000D01*
X145991800Y-71214200D02*
X146687200Y-71214200D01*
X144863000Y-72343000D02*
X145991800Y-71214200D01*
X144837600Y-73541400D02*
X144863000Y-73516000D01*
X143258200Y-73541400D02*
X144837600Y-73541400D01*
%TO.N,Net-(J10-Pad2)*%
X146687200Y-64489200D02*
X146592000Y-64394000D01*
X146687200Y-66064200D02*
X146687200Y-64489200D01*
X146687200Y-66939200D02*
X146687200Y-66064200D01*
X148206000Y-68458000D02*
X146687200Y-66939200D01*
X150148000Y-68712000D02*
X149894000Y-68458000D01*
X149894000Y-68458000D02*
X148206000Y-68458000D01*
X150202200Y-68766200D02*
X150148000Y-68712000D01*
X154358000Y-68944000D02*
X154180200Y-68766200D01*
X154180200Y-68766200D02*
X150202200Y-68766200D01*
%TO.N,I_sense_1*%
X128787399Y-70932399D02*
X128018200Y-70163200D01*
X129559200Y-70932399D02*
X128787399Y-70932399D01*
%TO.N,I_sense_2*%
X134790199Y-68817000D02*
X134833800Y-68860601D01*
X133149000Y-68817000D02*
X134790199Y-68817000D01*
%TO.N,Net-(R4-Pad2)*%
X147957200Y-73211200D02*
X148262000Y-73516000D01*
X147957200Y-71214200D02*
X147957200Y-73211200D01*
X146738000Y-73516000D02*
X148262000Y-73516000D01*
%TO.N,Net-(R7-Pad2)*%
X147911000Y-66018000D02*
X147957200Y-66064200D01*
X147911000Y-63864000D02*
X147911000Y-66018000D01*
X147911000Y-61938200D02*
X147906400Y-61933600D01*
X147911000Y-63864000D02*
X147911000Y-61938200D01*
D21*
%TO.N,Net-(F6-Pad1)*%
X129827000Y-82857000D02*
X127491000Y-82857000D01*
X127491000Y-82857000D02*
X126799000Y-83549000D01*
%TO.N,Net-(F6-Pad2)*%
X135435000Y-83549000D02*
X134927000Y-84057000D01*
X138229000Y-83549000D02*
X135435000Y-83549000D01*
%TO.N,Net-(J25-Pad1)*%
X143229000Y-83549000D02*
X143229000Y-80675000D01*
X143229000Y-80675000D02*
X140540400Y-77986400D01*
X140540400Y-77986400D02*
X135109200Y-77986400D01*
D19*
X135109200Y-75142399D02*
X134709200Y-74742399D01*
X135109200Y-77986400D02*
X135109200Y-75142399D01*
D21*
%TO.N,Net-(J28-Pad1)*%
X121719000Y-83549000D02*
X121719000Y-81517000D01*
X121719000Y-81517000D02*
X125249600Y-77986400D01*
X125249600Y-77986400D02*
X129309200Y-77986400D01*
D19*
X129309200Y-74992399D02*
X129559200Y-74742399D01*
X129309200Y-77986400D02*
X129309200Y-74992399D01*
D20*
%TO.N,Net-(J3-Pad2)*%
X149227200Y-71214200D02*
X149182800Y-71258600D01*
X149182800Y-84155200D02*
X148624000Y-84714000D01*
X152094000Y-69474000D02*
X152326000Y-69706000D01*
X149386000Y-69474000D02*
X152094000Y-69474000D01*
X149132000Y-69728000D02*
X149386000Y-69474000D01*
X149227200Y-71214200D02*
X149132000Y-71119000D01*
X149132000Y-71119000D02*
X149132000Y-69728000D01*
D21*
%TO.N,Net-(J5-Pad1)*%
X142674000Y-56244000D02*
X142674000Y-58276000D01*
X139143400Y-61806600D02*
X135083800Y-61806600D01*
X142674000Y-58276000D02*
X139143400Y-61806600D01*
D19*
X135083800Y-64800601D02*
X134833800Y-65050601D01*
X135083800Y-61806600D02*
X135083800Y-64800601D01*
D20*
%TO.N,Net-(D1-Pad1)*%
X158500000Y-61340000D02*
X158506000Y-61346000D01*
X158500000Y-58000000D02*
X158500000Y-61340000D01*
%TD*%
D22*
%TO.N,GND*%
G36*
X117026377Y-54246196D02*
G01*
X117197736Y-54601620D01*
X117332823Y-54972370D01*
X117430284Y-55354729D01*
X117489154Y-55744904D01*
X117509000Y-56142174D01*
X117509000Y-58174768D01*
X117509130Y-58180509D01*
X117529565Y-58632093D01*
X117530602Y-58643528D01*
X117591739Y-59091422D01*
X117593804Y-59102717D01*
X117695143Y-59543258D01*
X117698221Y-59554320D01*
X117838935Y-59983909D01*
X117842998Y-59994647D01*
X118021935Y-60409770D01*
X118026952Y-60420098D01*
X118242651Y-60817364D01*
X118248581Y-60827197D01*
X118499279Y-61203359D01*
X118506072Y-61212616D01*
X118789718Y-61564597D01*
X118797319Y-61573202D01*
X119111596Y-61898127D01*
X119115681Y-61902164D01*
X120647808Y-63349173D01*
X120651836Y-63352817D01*
X120975010Y-63632882D01*
X120983515Y-63639638D01*
X121329439Y-63891064D01*
X121338491Y-63897069D01*
X121704634Y-64118016D01*
X121714166Y-64123225D01*
X122097850Y-64312076D01*
X122107791Y-64316452D01*
X122506209Y-64471827D01*
X122516489Y-64475337D01*
X122926727Y-64596099D01*
X122937268Y-64598718D01*
X123356324Y-64683983D01*
X123367051Y-64685692D01*
X123791860Y-64734837D01*
X123802694Y-64735622D01*
X124230149Y-64748287D01*
X124235581Y-64748332D01*
X128201252Y-64696152D01*
X128185871Y-64746856D01*
X128170728Y-64900601D01*
X128170728Y-65200601D01*
X128185871Y-65354346D01*
X128230716Y-65502183D01*
X128303542Y-65638430D01*
X128401549Y-65757852D01*
X128520971Y-65855859D01*
X128657218Y-65928685D01*
X128805055Y-65973530D01*
X128958800Y-65988673D01*
X130408800Y-65988673D01*
X130562545Y-65973530D01*
X130710382Y-65928685D01*
X130846629Y-65855859D01*
X130966051Y-65757852D01*
X131064058Y-65638430D01*
X131136884Y-65502183D01*
X131181729Y-65354346D01*
X131196872Y-65200601D01*
X131196872Y-64900601D01*
X131181729Y-64746856D01*
X131154561Y-64657293D01*
X133371889Y-64628117D01*
X133335871Y-64746856D01*
X133320728Y-64900601D01*
X133320728Y-65200601D01*
X133335871Y-65354346D01*
X133380716Y-65502183D01*
X133453542Y-65638430D01*
X133551549Y-65757852D01*
X133670971Y-65855859D01*
X133807218Y-65928685D01*
X133955055Y-65973530D01*
X134108800Y-65988673D01*
X135558800Y-65988673D01*
X135712545Y-65973530D01*
X135860382Y-65928685D01*
X135996629Y-65855859D01*
X136116051Y-65757852D01*
X136214058Y-65638430D01*
X136286884Y-65502183D01*
X136331729Y-65354346D01*
X136346872Y-65200601D01*
X136346872Y-64900601D01*
X136331729Y-64746856D01*
X136286884Y-64599019D01*
X136281971Y-64589827D01*
X139402064Y-64548773D01*
X139407699Y-64548574D01*
X139850852Y-64523038D01*
X139862068Y-64521890D01*
X140301210Y-64457151D01*
X140312281Y-64455013D01*
X140743950Y-64351581D01*
X140754786Y-64348470D01*
X141175582Y-64207162D01*
X141186101Y-64203102D01*
X141592705Y-64025029D01*
X141602822Y-64020052D01*
X141992031Y-63806620D01*
X142001666Y-63800765D01*
X142370411Y-63553655D01*
X142379489Y-63546969D01*
X142724866Y-63268128D01*
X142733316Y-63260663D01*
X143052600Y-62952290D01*
X143056568Y-62948284D01*
X144805959Y-61101705D01*
X144809994Y-61097238D01*
X145119191Y-60738222D01*
X145126604Y-60728741D01*
X145400429Y-60342070D01*
X145406911Y-60331930D01*
X145642906Y-59921076D01*
X145648399Y-59910368D01*
X145844445Y-59479021D01*
X145848899Y-59467842D01*
X146003236Y-59019875D01*
X146006613Y-59008323D01*
X146117854Y-58547758D01*
X146120122Y-58535939D01*
X146187269Y-58066912D01*
X146188408Y-58054931D01*
X146198184Y-57848816D01*
X154425000Y-57848816D01*
X154425000Y-58151184D01*
X154483989Y-58447743D01*
X154599701Y-58727095D01*
X154767688Y-58978505D01*
X154981495Y-59192312D01*
X155232905Y-59360299D01*
X155512257Y-59476011D01*
X155808816Y-59535000D01*
X156111184Y-59535000D01*
X156407743Y-59476011D01*
X156687095Y-59360299D01*
X156938505Y-59192312D01*
X157004944Y-59125873D01*
X157010498Y-59144180D01*
X157069463Y-59254494D01*
X157148815Y-59351185D01*
X157245506Y-59430537D01*
X157355820Y-59489502D01*
X157475518Y-59525812D01*
X157600000Y-59538072D01*
X157740000Y-59538072D01*
X157740001Y-60252234D01*
X157654987Y-60309038D01*
X157469038Y-60494987D01*
X157322939Y-60713641D01*
X157222304Y-60956595D01*
X157171000Y-61214514D01*
X157171000Y-61477486D01*
X157222304Y-61735405D01*
X157322939Y-61978359D01*
X157469038Y-62197013D01*
X157654987Y-62382962D01*
X157873641Y-62529061D01*
X158116595Y-62629696D01*
X158374514Y-62681000D01*
X158637486Y-62681000D01*
X158895405Y-62629696D01*
X159138359Y-62529061D01*
X159357013Y-62382962D01*
X159542962Y-62197013D01*
X159689061Y-61978359D01*
X159789696Y-61735405D01*
X159841000Y-61477486D01*
X159841000Y-61214514D01*
X159789696Y-60956595D01*
X159689061Y-60713641D01*
X159542962Y-60494987D01*
X159357013Y-60309038D01*
X159260000Y-60244216D01*
X159260000Y-59538072D01*
X159400000Y-59538072D01*
X159524482Y-59525812D01*
X159644180Y-59489502D01*
X159754494Y-59430537D01*
X159851185Y-59351185D01*
X159930537Y-59254494D01*
X159989502Y-59144180D01*
X160025812Y-59024482D01*
X160038072Y-58900000D01*
X160038072Y-57790000D01*
X161011928Y-57790000D01*
X161011928Y-59490000D01*
X161024188Y-59614482D01*
X161060498Y-59734180D01*
X161119463Y-59844494D01*
X161198815Y-59941185D01*
X161295506Y-60020537D01*
X161405820Y-60079502D01*
X161478380Y-60101513D01*
X161346525Y-60233368D01*
X161184010Y-60476589D01*
X161072068Y-60746842D01*
X161015000Y-61033740D01*
X161015000Y-61326260D01*
X161072068Y-61613158D01*
X161184010Y-61883411D01*
X161346525Y-62126632D01*
X161553368Y-62333475D01*
X161727760Y-62450000D01*
X161553368Y-62566525D01*
X161346525Y-62773368D01*
X161184010Y-63016589D01*
X161072068Y-63286842D01*
X161015000Y-63573740D01*
X161015000Y-63866260D01*
X161072068Y-64153158D01*
X161184010Y-64423411D01*
X161346525Y-64666632D01*
X161553368Y-64873475D01*
X161727760Y-64990000D01*
X161553368Y-65106525D01*
X161346525Y-65313368D01*
X161184010Y-65556589D01*
X161072068Y-65826842D01*
X161015000Y-66113740D01*
X161015000Y-66406260D01*
X161072068Y-66693158D01*
X161184010Y-66963411D01*
X161346525Y-67206632D01*
X161553368Y-67413475D01*
X161727760Y-67530000D01*
X161553368Y-67646525D01*
X161346525Y-67853368D01*
X161184010Y-68096589D01*
X161072068Y-68366842D01*
X161015000Y-68653740D01*
X161015000Y-68946260D01*
X161072068Y-69233158D01*
X161184010Y-69503411D01*
X161346525Y-69746632D01*
X161553368Y-69953475D01*
X161727760Y-70070000D01*
X161553368Y-70186525D01*
X161346525Y-70393368D01*
X161184010Y-70636589D01*
X161072068Y-70906842D01*
X161015000Y-71193740D01*
X161015000Y-71486260D01*
X161072068Y-71773158D01*
X161184010Y-72043411D01*
X161346525Y-72286632D01*
X161553368Y-72493475D01*
X161727760Y-72610000D01*
X161553368Y-72726525D01*
X161346525Y-72933368D01*
X161184010Y-73176589D01*
X161072068Y-73446842D01*
X161015000Y-73733740D01*
X161015000Y-74026260D01*
X161072068Y-74313158D01*
X161184010Y-74583411D01*
X161346525Y-74826632D01*
X161553368Y-75033475D01*
X161727760Y-75150000D01*
X161553368Y-75266525D01*
X161346525Y-75473368D01*
X161184010Y-75716589D01*
X161072068Y-75986842D01*
X161015000Y-76273740D01*
X161015000Y-76566260D01*
X161072068Y-76853158D01*
X161184010Y-77123411D01*
X161346525Y-77366632D01*
X161553368Y-77573475D01*
X161727760Y-77690000D01*
X161553368Y-77806525D01*
X161346525Y-78013368D01*
X161184010Y-78256589D01*
X161072068Y-78526842D01*
X161015000Y-78813740D01*
X161015000Y-79106260D01*
X161072068Y-79393158D01*
X161184010Y-79663411D01*
X161346525Y-79906632D01*
X161553368Y-80113475D01*
X161727760Y-80230000D01*
X161553368Y-80346525D01*
X161346525Y-80553368D01*
X161184010Y-80796589D01*
X161072068Y-81066842D01*
X161015000Y-81353740D01*
X161015000Y-81646260D01*
X161072068Y-81933158D01*
X161184010Y-82203411D01*
X161346525Y-82446632D01*
X161553368Y-82653475D01*
X161796589Y-82815990D01*
X162066842Y-82927932D01*
X162353740Y-82985000D01*
X162646260Y-82985000D01*
X162933158Y-82927932D01*
X163203411Y-82815990D01*
X163446632Y-82653475D01*
X163653475Y-82446632D01*
X163770000Y-82272240D01*
X163886525Y-82446632D01*
X164093368Y-82653475D01*
X164336589Y-82815990D01*
X164606842Y-82927932D01*
X164893740Y-82985000D01*
X165186260Y-82985000D01*
X165473158Y-82927932D01*
X165743411Y-82815990D01*
X165986632Y-82653475D01*
X166193475Y-82446632D01*
X166355990Y-82203411D01*
X166467932Y-81933158D01*
X166525000Y-81646260D01*
X166525000Y-81353740D01*
X166467932Y-81066842D01*
X166355990Y-80796589D01*
X166193475Y-80553368D01*
X165986632Y-80346525D01*
X165812240Y-80230000D01*
X165986632Y-80113475D01*
X166193475Y-79906632D01*
X166355990Y-79663411D01*
X166467932Y-79393158D01*
X166525000Y-79106260D01*
X166525000Y-78813740D01*
X166467932Y-78526842D01*
X166355990Y-78256589D01*
X166193475Y-78013368D01*
X165986632Y-77806525D01*
X165812240Y-77690000D01*
X165986632Y-77573475D01*
X166193475Y-77366632D01*
X166355990Y-77123411D01*
X166467932Y-76853158D01*
X166525000Y-76566260D01*
X166525000Y-76273740D01*
X166467932Y-75986842D01*
X166355990Y-75716589D01*
X166193475Y-75473368D01*
X165986632Y-75266525D01*
X165812240Y-75150000D01*
X165986632Y-75033475D01*
X166193475Y-74826632D01*
X166355990Y-74583411D01*
X166467932Y-74313158D01*
X166525000Y-74026260D01*
X166525000Y-73733740D01*
X166467932Y-73446842D01*
X166355990Y-73176589D01*
X166193475Y-72933368D01*
X165986632Y-72726525D01*
X165812240Y-72610000D01*
X165986632Y-72493475D01*
X166193475Y-72286632D01*
X166355990Y-72043411D01*
X166467932Y-71773158D01*
X166525000Y-71486260D01*
X166525000Y-71193740D01*
X166467932Y-70906842D01*
X166355990Y-70636589D01*
X166193475Y-70393368D01*
X165986632Y-70186525D01*
X165812240Y-70070000D01*
X165986632Y-69953475D01*
X166193475Y-69746632D01*
X166355990Y-69503411D01*
X166467932Y-69233158D01*
X166525000Y-68946260D01*
X166525000Y-68653740D01*
X166467932Y-68366842D01*
X166355990Y-68096589D01*
X166193475Y-67853368D01*
X165986632Y-67646525D01*
X165812240Y-67530000D01*
X165986632Y-67413475D01*
X166193475Y-67206632D01*
X166355990Y-66963411D01*
X166467932Y-66693158D01*
X166525000Y-66406260D01*
X166525000Y-66113740D01*
X166467932Y-65826842D01*
X166355990Y-65556589D01*
X166193475Y-65313368D01*
X165986632Y-65106525D01*
X165812240Y-64990000D01*
X165986632Y-64873475D01*
X166193475Y-64666632D01*
X166355990Y-64423411D01*
X166467932Y-64153158D01*
X166525000Y-63866260D01*
X166525000Y-63573740D01*
X166467932Y-63286842D01*
X166355990Y-63016589D01*
X166193475Y-62773368D01*
X165986632Y-62566525D01*
X165812240Y-62450000D01*
X165986632Y-62333475D01*
X166193475Y-62126632D01*
X166355990Y-61883411D01*
X166467932Y-61613158D01*
X166525000Y-61326260D01*
X166525000Y-61033740D01*
X166467932Y-60746842D01*
X166355990Y-60476589D01*
X166193475Y-60233368D01*
X165986632Y-60026525D01*
X165812240Y-59910000D01*
X165986632Y-59793475D01*
X166193475Y-59586632D01*
X166355990Y-59343411D01*
X166467932Y-59073158D01*
X166525000Y-58786260D01*
X166525000Y-58493740D01*
X166467932Y-58206842D01*
X166355990Y-57936589D01*
X166193475Y-57693368D01*
X165986632Y-57486525D01*
X165743411Y-57324010D01*
X165473158Y-57212068D01*
X165186260Y-57155000D01*
X164893740Y-57155000D01*
X164606842Y-57212068D01*
X164336589Y-57324010D01*
X164093368Y-57486525D01*
X163961513Y-57618380D01*
X163939502Y-57545820D01*
X163880537Y-57435506D01*
X163801185Y-57338815D01*
X163704494Y-57259463D01*
X163594180Y-57200498D01*
X163474482Y-57164188D01*
X163350000Y-57151928D01*
X161650000Y-57151928D01*
X161525518Y-57164188D01*
X161405820Y-57200498D01*
X161295506Y-57259463D01*
X161198815Y-57338815D01*
X161119463Y-57435506D01*
X161060498Y-57545820D01*
X161024188Y-57665518D01*
X161011928Y-57790000D01*
X160038072Y-57790000D01*
X160038072Y-57100000D01*
X160025812Y-56975518D01*
X159989502Y-56855820D01*
X159930537Y-56745506D01*
X159851185Y-56648815D01*
X159754494Y-56569463D01*
X159644180Y-56510498D01*
X159524482Y-56474188D01*
X159400000Y-56461928D01*
X157600000Y-56461928D01*
X157475518Y-56474188D01*
X157355820Y-56510498D01*
X157245506Y-56569463D01*
X157148815Y-56648815D01*
X157069463Y-56745506D01*
X157010498Y-56855820D01*
X157004944Y-56874127D01*
X156938505Y-56807688D01*
X156687095Y-56639701D01*
X156407743Y-56523989D01*
X156111184Y-56465000D01*
X155808816Y-56465000D01*
X155512257Y-56523989D01*
X155232905Y-56639701D01*
X154981495Y-56807688D01*
X154767688Y-57021495D01*
X154599701Y-57272905D01*
X154483989Y-57552257D01*
X154425000Y-57848816D01*
X146198184Y-57848816D01*
X146210857Y-57581655D01*
X146211000Y-57575638D01*
X146211000Y-56142305D01*
X146229220Y-55792579D01*
X146283169Y-55449901D01*
X146372433Y-55114694D01*
X146496048Y-54790575D01*
X146652679Y-54481046D01*
X146840613Y-54189489D01*
X146864297Y-54160000D01*
X147613893Y-54160000D01*
X147470525Y-54303368D01*
X147308010Y-54546589D01*
X147196068Y-54816842D01*
X147139000Y-55103740D01*
X147139000Y-55396260D01*
X147196068Y-55683158D01*
X147308010Y-55953411D01*
X147470525Y-56196632D01*
X147677368Y-56403475D01*
X147920589Y-56565990D01*
X148190842Y-56677932D01*
X148477740Y-56735000D01*
X148770260Y-56735000D01*
X149057158Y-56677932D01*
X149327411Y-56565990D01*
X149570632Y-56403475D01*
X149777475Y-56196632D01*
X149939990Y-55953411D01*
X150051932Y-55683158D01*
X150109000Y-55396260D01*
X150109000Y-55103740D01*
X150051932Y-54816842D01*
X149939990Y-54546589D01*
X149777475Y-54303368D01*
X149634107Y-54160000D01*
X162970608Y-54160000D01*
X163768083Y-54231173D01*
X164511891Y-54434656D01*
X165207905Y-54766638D01*
X165834130Y-55216626D01*
X166370777Y-55770403D01*
X166800871Y-56410451D01*
X167110829Y-57116553D01*
X167292065Y-57871457D01*
X167340001Y-58524220D01*
X167340000Y-81470608D01*
X167268827Y-82268083D01*
X167065344Y-83011890D01*
X166733363Y-83707904D01*
X166283374Y-84334130D01*
X165729597Y-84870777D01*
X165089549Y-85300871D01*
X164383447Y-85610829D01*
X163628543Y-85792065D01*
X162975793Y-85840000D01*
X149598107Y-85840000D01*
X149777475Y-85660632D01*
X149939990Y-85417411D01*
X150051932Y-85147158D01*
X150109000Y-84860260D01*
X150109000Y-84567740D01*
X150051932Y-84280842D01*
X149939990Y-84010589D01*
X149927426Y-83991786D01*
X149888346Y-83862954D01*
X149817774Y-83730924D01*
X149722801Y-83615199D01*
X149607076Y-83520226D01*
X149475046Y-83449654D01*
X149346214Y-83410574D01*
X149327411Y-83398010D01*
X149057158Y-83286068D01*
X148770260Y-83229000D01*
X148477740Y-83229000D01*
X148190842Y-83286068D01*
X147920589Y-83398010D01*
X147677368Y-83560525D01*
X147470525Y-83767368D01*
X147308010Y-84010589D01*
X147196068Y-84280842D01*
X147139000Y-84567740D01*
X147139000Y-84860260D01*
X147196068Y-85147158D01*
X147308010Y-85417411D01*
X147470525Y-85660632D01*
X147649893Y-85840000D01*
X147384987Y-85840000D01*
X147377206Y-85829342D01*
X147170556Y-85478809D01*
X146999170Y-85109752D01*
X146864692Y-84725707D01*
X146768413Y-84330368D01*
X146711248Y-83927488D01*
X146693617Y-83517842D01*
X146706433Y-81364623D01*
X146706341Y-81358987D01*
X146689291Y-80915593D01*
X146688359Y-80904361D01*
X146632067Y-80464225D01*
X146630142Y-80453120D01*
X146535050Y-80019708D01*
X146532149Y-80008817D01*
X146399006Y-79585542D01*
X146395150Y-79574952D01*
X146225005Y-79165148D01*
X146220226Y-79154941D01*
X146014420Y-78761835D01*
X146008755Y-78752092D01*
X145768907Y-78378780D01*
X145762400Y-78369577D01*
X145490400Y-78018999D01*
X145483103Y-78010410D01*
X145181094Y-77685328D01*
X145177167Y-77681285D01*
X143950612Y-76473258D01*
X143946586Y-76469462D01*
X143623244Y-76177632D01*
X143614716Y-76170584D01*
X143267203Y-75908002D01*
X143258094Y-75901723D01*
X142889047Y-75670381D01*
X142879426Y-75664919D01*
X142491646Y-75466573D01*
X142481586Y-75461969D01*
X142078015Y-75298125D01*
X142067593Y-75294414D01*
X141651294Y-75166313D01*
X141640588Y-75163523D01*
X141214720Y-75072139D01*
X141203813Y-75070291D01*
X140771608Y-75016317D01*
X140760580Y-75015425D01*
X140325317Y-74999270D01*
X140319785Y-74999186D01*
X136209134Y-75025792D01*
X136222272Y-74892399D01*
X136222272Y-74592399D01*
X136207129Y-74438654D01*
X136162284Y-74290817D01*
X136089458Y-74154570D01*
X135991451Y-74035148D01*
X135872029Y-73937141D01*
X135735782Y-73864315D01*
X135587945Y-73819470D01*
X135434200Y-73804327D01*
X133984200Y-73804327D01*
X133830455Y-73819470D01*
X133682618Y-73864315D01*
X133546371Y-73937141D01*
X133426949Y-74035148D01*
X133328942Y-74154570D01*
X133256116Y-74290817D01*
X133211271Y-74438654D01*
X133196128Y-74592399D01*
X133196128Y-74892399D01*
X133211178Y-75045196D01*
X131053180Y-75059164D01*
X131057129Y-75046144D01*
X131072272Y-74892399D01*
X131072272Y-74592399D01*
X131057129Y-74438654D01*
X131012284Y-74290817D01*
X130939458Y-74154570D01*
X130841451Y-74035148D01*
X130722029Y-73937141D01*
X130585782Y-73864315D01*
X130437945Y-73819470D01*
X130284200Y-73804327D01*
X128834200Y-73804327D01*
X128680455Y-73819470D01*
X128532618Y-73864315D01*
X128396371Y-73937141D01*
X128276949Y-74035148D01*
X128178942Y-74154570D01*
X128106116Y-74290817D01*
X128061271Y-74438654D01*
X128046128Y-74592399D01*
X128046128Y-74892399D01*
X128061271Y-75046144D01*
X128071075Y-75078465D01*
X124727607Y-75100106D01*
X124721675Y-75100283D01*
X124255156Y-75125129D01*
X124243349Y-75126313D01*
X123900398Y-75176980D01*
X126291952Y-72785427D01*
X126360836Y-72841958D01*
X126513291Y-72923447D01*
X126678715Y-72973628D01*
X126850750Y-72990572D01*
X127241568Y-72990572D01*
X127304086Y-73023988D01*
X127470909Y-73074594D01*
X127600922Y-73087399D01*
X127600932Y-73087399D01*
X127644398Y-73091680D01*
X127687864Y-73087399D01*
X128555417Y-73087399D01*
X128680455Y-73125328D01*
X128834200Y-73140471D01*
X130284200Y-73140471D01*
X130437945Y-73125328D01*
X130585782Y-73080483D01*
X130586311Y-73080200D01*
X131696146Y-73080200D01*
X131744344Y-73112405D01*
X131932702Y-73190426D01*
X132132661Y-73230200D01*
X132336539Y-73230200D01*
X132536498Y-73190426D01*
X132724856Y-73112405D01*
X132773054Y-73080200D01*
X133682089Y-73080200D01*
X133682618Y-73080483D01*
X133830455Y-73125328D01*
X133984200Y-73140471D01*
X135434200Y-73140471D01*
X135587945Y-73125328D01*
X135735782Y-73080483D01*
X135872029Y-73007657D01*
X135991451Y-72909650D01*
X136089458Y-72790228D01*
X136162284Y-72653981D01*
X136207129Y-72506144D01*
X136222272Y-72352399D01*
X136222272Y-72052399D01*
X136207129Y-71898654D01*
X136162284Y-71750817D01*
X136089458Y-71614570D01*
X136050746Y-71567399D01*
X136089458Y-71520228D01*
X136162284Y-71383981D01*
X136207129Y-71236144D01*
X136222272Y-71082399D01*
X136222272Y-70782399D01*
X136207129Y-70628654D01*
X136162284Y-70480817D01*
X136089458Y-70344570D01*
X135991451Y-70225148D01*
X135872029Y-70127141D01*
X135735782Y-70054315D01*
X135587945Y-70009470D01*
X135434200Y-69994327D01*
X133984200Y-69994327D01*
X133830455Y-70009470D01*
X133682618Y-70054315D01*
X133546371Y-70127141D01*
X133426949Y-70225148D01*
X133328942Y-70344570D01*
X133256116Y-70480817D01*
X133211271Y-70628654D01*
X133196128Y-70782399D01*
X133196128Y-71082399D01*
X133211271Y-71236144D01*
X133233735Y-71310200D01*
X133170400Y-71310200D01*
X133170400Y-69852000D01*
X133250939Y-69852000D01*
X133450898Y-69812226D01*
X133639256Y-69734205D01*
X133710179Y-69686816D01*
X133807218Y-69738685D01*
X133955055Y-69783530D01*
X134108800Y-69798673D01*
X135558800Y-69798673D01*
X135712545Y-69783530D01*
X135860382Y-69738685D01*
X135996629Y-69665859D01*
X136116051Y-69567852D01*
X136214058Y-69448430D01*
X136286884Y-69312183D01*
X136331729Y-69164346D01*
X136345609Y-69023421D01*
X136457715Y-69057428D01*
X136629750Y-69074372D01*
X137542250Y-69074372D01*
X137714285Y-69057428D01*
X137879709Y-69007247D01*
X138032164Y-68925758D01*
X138144215Y-68833800D01*
X139231531Y-68833800D01*
X139275000Y-68838081D01*
X139318469Y-68833800D01*
X139318477Y-68833800D01*
X139448490Y-68820995D01*
X139615313Y-68770389D01*
X139769059Y-68688211D01*
X139903817Y-68577617D01*
X139931534Y-68543844D01*
X141516579Y-66958800D01*
X144510532Y-66958800D01*
X144596744Y-67016405D01*
X144785102Y-67094426D01*
X144985061Y-67134200D01*
X145188939Y-67134200D01*
X145388898Y-67094426D01*
X145577256Y-67016405D01*
X145746774Y-66903137D01*
X145759133Y-66890778D01*
X145764271Y-66942945D01*
X145809116Y-67090782D01*
X145881942Y-67227029D01*
X145979949Y-67346451D01*
X146099371Y-67444458D01*
X146133781Y-67462850D01*
X146147199Y-67479201D01*
X146176203Y-67503004D01*
X147642200Y-68969002D01*
X147665999Y-68998001D01*
X147739653Y-69058447D01*
X147781724Y-69092974D01*
X147913753Y-69163546D01*
X148057014Y-69207003D01*
X148194706Y-69220565D01*
X148162174Y-69299102D01*
X148122400Y-69499061D01*
X148122400Y-69702625D01*
X148107200Y-69701128D01*
X147807200Y-69701128D01*
X147653455Y-69716271D01*
X147505618Y-69761116D01*
X147369371Y-69833942D01*
X147322200Y-69872654D01*
X147275029Y-69833942D01*
X147138782Y-69761116D01*
X146990945Y-69716271D01*
X146837200Y-69701128D01*
X146537200Y-69701128D01*
X146383455Y-69716271D01*
X146235618Y-69761116D01*
X146099371Y-69833942D01*
X145979949Y-69931949D01*
X145881942Y-70051371D01*
X145809116Y-70187618D01*
X145764271Y-70335455D01*
X145749128Y-70489200D01*
X145749128Y-70493616D01*
X145699553Y-70508654D01*
X145567524Y-70579226D01*
X145451799Y-70674199D01*
X145428001Y-70703197D01*
X144351998Y-71779201D01*
X144323000Y-71802999D01*
X144299202Y-71831997D01*
X144299201Y-71831998D01*
X144228026Y-71918724D01*
X144157454Y-72050754D01*
X144139862Y-72108750D01*
X144113998Y-72194014D01*
X144113881Y-72195200D01*
X144099324Y-72343000D01*
X144100069Y-72350561D01*
X143995708Y-72436208D01*
X143886042Y-72569836D01*
X143828425Y-72677629D01*
X143748456Y-72624195D01*
X143560098Y-72546174D01*
X143360139Y-72506400D01*
X143156261Y-72506400D01*
X142956302Y-72546174D01*
X142767944Y-72624195D01*
X142598426Y-72737463D01*
X142454263Y-72881626D01*
X142340995Y-73051144D01*
X142262974Y-73239502D01*
X142223200Y-73439461D01*
X142223200Y-73643339D01*
X142262974Y-73843298D01*
X142340995Y-74031656D01*
X142454263Y-74201174D01*
X142598426Y-74345337D01*
X142767944Y-74458605D01*
X142956302Y-74536626D01*
X143156261Y-74576400D01*
X143360139Y-74576400D01*
X143560098Y-74536626D01*
X143748456Y-74458605D01*
X143848433Y-74391803D01*
X143886042Y-74462164D01*
X143995708Y-74595792D01*
X144129336Y-74705458D01*
X144281791Y-74786947D01*
X144447215Y-74837128D01*
X144619250Y-74854072D01*
X145106750Y-74854072D01*
X145278785Y-74837128D01*
X145444209Y-74786947D01*
X145596664Y-74705458D01*
X145730292Y-74595792D01*
X145800500Y-74510244D01*
X145870708Y-74595792D01*
X146004336Y-74705458D01*
X146156791Y-74786947D01*
X146322215Y-74837128D01*
X146494250Y-74854072D01*
X146981750Y-74854072D01*
X147153785Y-74837128D01*
X147319209Y-74786947D01*
X147471664Y-74705458D01*
X147500000Y-74682203D01*
X147528336Y-74705458D01*
X147680791Y-74786947D01*
X147846215Y-74837128D01*
X148018250Y-74854072D01*
X148505750Y-74854072D01*
X148677785Y-74837128D01*
X148843209Y-74786947D01*
X148995664Y-74705458D01*
X149129292Y-74595792D01*
X149238958Y-74462164D01*
X149320447Y-74309709D01*
X149370628Y-74144285D01*
X149387572Y-73972250D01*
X149387572Y-73059750D01*
X149370628Y-72887715D01*
X149321958Y-72727272D01*
X149377200Y-72727272D01*
X149530945Y-72712129D01*
X149678782Y-72667284D01*
X149815029Y-72594458D01*
X149934451Y-72496451D01*
X150032458Y-72377029D01*
X150105284Y-72240782D01*
X150150129Y-72092945D01*
X150165272Y-71939200D01*
X150165272Y-70489200D01*
X150150129Y-70335455D01*
X150119354Y-70234000D01*
X151038912Y-70234000D01*
X151055053Y-70287209D01*
X151136542Y-70439664D01*
X151246208Y-70573292D01*
X151379836Y-70682958D01*
X151532291Y-70764447D01*
X151697715Y-70814628D01*
X151869750Y-70831572D01*
X152782250Y-70831572D01*
X152954285Y-70814628D01*
X153119709Y-70764447D01*
X153272164Y-70682958D01*
X153405792Y-70573292D01*
X153515458Y-70439664D01*
X153596947Y-70287209D01*
X153647128Y-70121785D01*
X153656138Y-70030308D01*
X153729715Y-70052628D01*
X153901750Y-70069572D01*
X154814250Y-70069572D01*
X154986285Y-70052628D01*
X155151709Y-70002447D01*
X155304164Y-69920958D01*
X155437792Y-69811292D01*
X155547458Y-69677664D01*
X155628947Y-69525209D01*
X155679128Y-69359785D01*
X155696072Y-69187750D01*
X155696072Y-68700250D01*
X155679128Y-68528215D01*
X155628947Y-68362791D01*
X155547458Y-68210336D01*
X155437792Y-68076708D01*
X155352244Y-68006500D01*
X155437792Y-67936292D01*
X155547458Y-67802664D01*
X155628947Y-67650209D01*
X155679128Y-67484785D01*
X155696072Y-67312750D01*
X155696072Y-66825250D01*
X155679128Y-66653215D01*
X155628947Y-66487791D01*
X155547458Y-66335336D01*
X155437792Y-66201708D01*
X155304164Y-66092042D01*
X155151709Y-66010553D01*
X154986285Y-65960372D01*
X154814250Y-65943428D01*
X153901750Y-65943428D01*
X153729715Y-65960372D01*
X153564291Y-66010553D01*
X153411836Y-66092042D01*
X153278208Y-66201708D01*
X153168542Y-66335336D01*
X153149373Y-66371198D01*
X153183200Y-66201139D01*
X153183200Y-65997261D01*
X153143426Y-65797302D01*
X153065405Y-65608944D01*
X152952137Y-65439426D01*
X152807974Y-65295263D01*
X152638456Y-65181995D01*
X152450098Y-65103974D01*
X152250139Y-65064200D01*
X152046261Y-65064200D01*
X151846302Y-65103974D01*
X151657944Y-65181995D01*
X151609746Y-65214200D01*
X151422960Y-65214200D01*
X151420129Y-65185455D01*
X151375284Y-65037618D01*
X151302458Y-64901371D01*
X151204451Y-64781949D01*
X151085029Y-64683942D01*
X150948782Y-64611116D01*
X150866182Y-64586060D01*
X150894628Y-64492285D01*
X150911572Y-64320250D01*
X150911572Y-63407750D01*
X150894628Y-63235715D01*
X150844447Y-63070291D01*
X150762958Y-62917836D01*
X150653292Y-62784208D01*
X150519664Y-62674542D01*
X150367209Y-62593053D01*
X150201785Y-62542872D01*
X150029750Y-62525928D01*
X149542250Y-62525928D01*
X149370215Y-62542872D01*
X149204791Y-62593053D01*
X149052336Y-62674542D01*
X148946723Y-62761217D01*
X148964847Y-62727309D01*
X149015028Y-62561885D01*
X149031972Y-62389850D01*
X149031972Y-61477350D01*
X149015028Y-61305315D01*
X148964847Y-61139891D01*
X148883358Y-60987436D01*
X148773692Y-60853808D01*
X148640064Y-60744142D01*
X148487609Y-60662653D01*
X148322185Y-60612472D01*
X148150150Y-60595528D01*
X147662650Y-60595528D01*
X147490615Y-60612472D01*
X147325191Y-60662653D01*
X147172736Y-60744142D01*
X147039108Y-60853808D01*
X146929442Y-60987436D01*
X146847953Y-61139891D01*
X146797772Y-61305315D01*
X146780828Y-61477350D01*
X146780828Y-62389850D01*
X146797772Y-62561885D01*
X146847953Y-62727309D01*
X146929442Y-62879764D01*
X146947364Y-62901603D01*
X146934042Y-62917836D01*
X146852553Y-63070291D01*
X146802372Y-63235715D01*
X146788379Y-63377785D01*
X146693939Y-63359000D01*
X146490061Y-63359000D01*
X146290102Y-63398774D01*
X146101744Y-63476795D01*
X145932226Y-63590063D01*
X145788063Y-63734226D01*
X145674795Y-63903744D01*
X145596774Y-64092102D01*
X145557000Y-64292061D01*
X145557000Y-64495939D01*
X145596774Y-64695898D01*
X145674795Y-64884256D01*
X145788063Y-65053774D01*
X145800456Y-65066167D01*
X145764271Y-65185455D01*
X145752856Y-65301345D01*
X145746774Y-65295263D01*
X145577256Y-65181995D01*
X145388898Y-65103974D01*
X145188939Y-65064200D01*
X144985061Y-65064200D01*
X144785102Y-65103974D01*
X144596744Y-65181995D01*
X144586560Y-65188800D01*
X141193465Y-65188800D01*
X141149999Y-65184519D01*
X141106533Y-65188800D01*
X141106523Y-65188800D01*
X140976510Y-65201605D01*
X140809687Y-65252211D01*
X140655941Y-65334389D01*
X140655939Y-65334390D01*
X140655940Y-65334390D01*
X140554953Y-65417268D01*
X140554951Y-65417270D01*
X140521183Y-65444983D01*
X140493470Y-65478751D01*
X138908422Y-67063800D01*
X138144215Y-67063800D01*
X138032164Y-66971842D01*
X137879709Y-66890353D01*
X137714285Y-66840172D01*
X137542250Y-66823228D01*
X137169546Y-66823228D01*
X137068114Y-66769012D01*
X136901291Y-66718406D01*
X136771278Y-66705601D01*
X136771270Y-66705601D01*
X136727801Y-66701320D01*
X136684332Y-66705601D01*
X135837583Y-66705601D01*
X135712545Y-66667672D01*
X135558800Y-66652529D01*
X134108800Y-66652529D01*
X133955055Y-66667672D01*
X133807218Y-66712517D01*
X133670971Y-66785343D01*
X133635565Y-66814400D01*
X132823854Y-66814400D01*
X132775656Y-66782195D01*
X132587298Y-66704174D01*
X132387339Y-66664400D01*
X132183461Y-66664400D01*
X131983502Y-66704174D01*
X131795144Y-66782195D01*
X131746946Y-66814400D01*
X130882035Y-66814400D01*
X130846629Y-66785343D01*
X130710382Y-66712517D01*
X130562545Y-66667672D01*
X130408800Y-66652529D01*
X128958800Y-66652529D01*
X128805055Y-66667672D01*
X128657218Y-66712517D01*
X128520971Y-66785343D01*
X128401549Y-66883350D01*
X128303542Y-67002772D01*
X128230716Y-67139019D01*
X128185871Y-67286856D01*
X128170728Y-67440601D01*
X128170728Y-67740601D01*
X128185871Y-67894346D01*
X128230716Y-68042183D01*
X128303542Y-68178430D01*
X128342254Y-68225601D01*
X128303542Y-68272772D01*
X128230716Y-68409019D01*
X128185871Y-68556856D01*
X128170728Y-68710601D01*
X128170728Y-69010601D01*
X128183553Y-69140814D01*
X128120139Y-69128200D01*
X127916261Y-69128200D01*
X127716302Y-69167974D01*
X127527944Y-69245995D01*
X127358426Y-69359263D01*
X127214263Y-69503426D01*
X127100995Y-69672944D01*
X127022974Y-69861302D01*
X126983200Y-70061261D01*
X126983200Y-70265139D01*
X127022974Y-70465098D01*
X127100995Y-70653456D01*
X127158439Y-70739428D01*
X126850750Y-70739428D01*
X126678715Y-70756372D01*
X126513291Y-70806553D01*
X126360836Y-70888042D01*
X126248785Y-70980000D01*
X126004269Y-70980000D01*
X125960800Y-70975719D01*
X125917331Y-70980000D01*
X125917323Y-70980000D01*
X125787310Y-70992805D01*
X125620486Y-71043411D01*
X125466741Y-71125589D01*
X125365753Y-71208468D01*
X125365751Y-71208470D01*
X125331983Y-71236183D01*
X125304270Y-71269951D01*
X117959222Y-78615000D01*
X113945468Y-78615000D01*
X113927932Y-78526842D01*
X113815990Y-78256589D01*
X113653475Y-78013368D01*
X113446632Y-77806525D01*
X113272240Y-77690000D01*
X113446632Y-77573475D01*
X113653475Y-77366632D01*
X113815990Y-77123411D01*
X113927932Y-76853158D01*
X113985000Y-76566260D01*
X113985000Y-76273740D01*
X113927932Y-75986842D01*
X113815990Y-75716589D01*
X113653475Y-75473368D01*
X113446632Y-75266525D01*
X113272240Y-75150000D01*
X113446632Y-75033475D01*
X113653475Y-74826632D01*
X113815990Y-74583411D01*
X113927932Y-74313158D01*
X113985000Y-74026260D01*
X113985000Y-73733740D01*
X113927932Y-73446842D01*
X113815990Y-73176589D01*
X113653475Y-72933368D01*
X113446632Y-72726525D01*
X113272240Y-72610000D01*
X113446632Y-72493475D01*
X113653475Y-72286632D01*
X113815990Y-72043411D01*
X113927932Y-71773158D01*
X113985000Y-71486260D01*
X113985000Y-71193740D01*
X113927932Y-70906842D01*
X113815990Y-70636589D01*
X113653475Y-70393368D01*
X113446632Y-70186525D01*
X113272240Y-70070000D01*
X113446632Y-69953475D01*
X113653475Y-69746632D01*
X113815990Y-69503411D01*
X113838113Y-69450000D01*
X116360155Y-69450000D01*
X116448208Y-69557292D01*
X116533756Y-69627500D01*
X116448208Y-69697708D01*
X116338542Y-69831336D01*
X116257053Y-69983791D01*
X116206872Y-70149215D01*
X116189928Y-70321250D01*
X116189928Y-70808750D01*
X116206872Y-70980785D01*
X116257053Y-71146209D01*
X116338542Y-71298664D01*
X116448208Y-71432292D01*
X116517215Y-71488925D01*
X116493000Y-71610661D01*
X116493000Y-71814539D01*
X116532774Y-72014498D01*
X116610795Y-72202856D01*
X116724063Y-72372374D01*
X116868226Y-72516537D01*
X117037744Y-72629805D01*
X117226102Y-72707826D01*
X117352574Y-72732983D01*
X117379014Y-72741003D01*
X117406511Y-72743711D01*
X117426061Y-72747600D01*
X117445994Y-72747600D01*
X117490667Y-72752000D01*
X117565333Y-72752000D01*
X117610006Y-72747600D01*
X117629939Y-72747600D01*
X117649489Y-72743711D01*
X117676986Y-72741003D01*
X117703426Y-72732983D01*
X117829898Y-72707826D01*
X118018256Y-72629805D01*
X118187774Y-72516537D01*
X118231711Y-72472600D01*
X119344493Y-72472600D01*
X119351368Y-72479475D01*
X119594589Y-72641990D01*
X119864842Y-72753932D01*
X120151740Y-72811000D01*
X120444260Y-72811000D01*
X120731158Y-72753932D01*
X121001411Y-72641990D01*
X121244632Y-72479475D01*
X121451475Y-72272632D01*
X121613990Y-72029411D01*
X121725932Y-71759158D01*
X121783000Y-71472260D01*
X121783000Y-71179740D01*
X121725932Y-70892842D01*
X121613990Y-70622589D01*
X121451475Y-70379368D01*
X121244632Y-70172525D01*
X121070240Y-70056000D01*
X121244632Y-69939475D01*
X121451475Y-69732632D01*
X121613990Y-69489411D01*
X121725932Y-69219158D01*
X121783000Y-68932260D01*
X121783000Y-68639740D01*
X121725932Y-68352842D01*
X121613990Y-68082589D01*
X121451475Y-67839368D01*
X121244632Y-67632525D01*
X121070240Y-67516000D01*
X121244632Y-67399475D01*
X121451475Y-67192632D01*
X121613990Y-66949411D01*
X121725932Y-66679158D01*
X121783000Y-66392260D01*
X121783000Y-66099740D01*
X121725932Y-65812842D01*
X121613990Y-65542589D01*
X121451475Y-65299368D01*
X121244632Y-65092525D01*
X121001411Y-64930010D01*
X120731158Y-64818068D01*
X120444260Y-64761000D01*
X120151740Y-64761000D01*
X119864842Y-64818068D01*
X119594589Y-64930010D01*
X119351368Y-65092525D01*
X119144525Y-65299368D01*
X119019822Y-65486000D01*
X118546004Y-65486000D01*
X118522244Y-65466500D01*
X118607792Y-65396292D01*
X118717458Y-65262664D01*
X118798947Y-65110209D01*
X118849128Y-64944785D01*
X118866072Y-64772750D01*
X118866072Y-64285250D01*
X118849128Y-64113215D01*
X118798947Y-63947791D01*
X118717458Y-63795336D01*
X118607792Y-63661708D01*
X118474164Y-63552042D01*
X118321709Y-63470553D01*
X118156285Y-63420372D01*
X117984250Y-63403428D01*
X117071750Y-63403428D01*
X116899715Y-63420372D01*
X116734291Y-63470553D01*
X116581836Y-63552042D01*
X116448208Y-63661708D01*
X116338542Y-63795336D01*
X116300771Y-63866000D01*
X113985000Y-63866000D01*
X113985000Y-63573740D01*
X113927932Y-63286842D01*
X113815990Y-63016589D01*
X113653475Y-62773368D01*
X113446632Y-62566525D01*
X113272240Y-62450000D01*
X113446632Y-62333475D01*
X113653475Y-62126632D01*
X113815990Y-61883411D01*
X113927932Y-61613158D01*
X113985000Y-61326260D01*
X113985000Y-61033740D01*
X113927932Y-60746842D01*
X113815990Y-60476589D01*
X113653475Y-60233368D01*
X113446632Y-60026525D01*
X113272240Y-59910000D01*
X113446632Y-59793475D01*
X113653475Y-59586632D01*
X113815990Y-59343411D01*
X113927932Y-59073158D01*
X113985000Y-58786260D01*
X113985000Y-58493740D01*
X113927932Y-58206842D01*
X113815990Y-57936589D01*
X113653475Y-57693368D01*
X113446632Y-57486525D01*
X113203411Y-57324010D01*
X112933158Y-57212068D01*
X112646260Y-57155000D01*
X112353740Y-57155000D01*
X112066842Y-57212068D01*
X111796589Y-57324010D01*
X111553368Y-57486525D01*
X111421513Y-57618380D01*
X111399502Y-57545820D01*
X111340537Y-57435506D01*
X111261185Y-57338815D01*
X111164494Y-57259463D01*
X111054180Y-57200498D01*
X110934482Y-57164188D01*
X110810000Y-57151928D01*
X109110000Y-57151928D01*
X108985518Y-57164188D01*
X108865820Y-57200498D01*
X108755506Y-57259463D01*
X108658815Y-57338815D01*
X108579463Y-57435506D01*
X108520498Y-57545820D01*
X108484188Y-57665518D01*
X108471928Y-57790000D01*
X108471928Y-59490000D01*
X108484188Y-59614482D01*
X108520498Y-59734180D01*
X108579463Y-59844494D01*
X108658815Y-59941185D01*
X108755506Y-60020537D01*
X108865820Y-60079502D01*
X108938380Y-60101513D01*
X108806525Y-60233368D01*
X108644010Y-60476589D01*
X108532068Y-60746842D01*
X108475000Y-61033740D01*
X108475000Y-61326260D01*
X108532068Y-61613158D01*
X108644010Y-61883411D01*
X108806525Y-62126632D01*
X109013368Y-62333475D01*
X109187760Y-62450000D01*
X109013368Y-62566525D01*
X108806525Y-62773368D01*
X108644010Y-63016589D01*
X108532068Y-63286842D01*
X108475000Y-63573740D01*
X108475000Y-63866260D01*
X108532068Y-64153158D01*
X108644010Y-64423411D01*
X108806525Y-64666632D01*
X109013368Y-64873475D01*
X109187760Y-64990000D01*
X109013368Y-65106525D01*
X108806525Y-65313368D01*
X108644010Y-65556589D01*
X108532068Y-65826842D01*
X108475000Y-66113740D01*
X108475000Y-66406260D01*
X108532068Y-66693158D01*
X108644010Y-66963411D01*
X108806525Y-67206632D01*
X109013368Y-67413475D01*
X109187760Y-67530000D01*
X109013368Y-67646525D01*
X108806525Y-67853368D01*
X108644010Y-68096589D01*
X108532068Y-68366842D01*
X108475000Y-68653740D01*
X108475000Y-68946260D01*
X108532068Y-69233158D01*
X108644010Y-69503411D01*
X108806525Y-69746632D01*
X109013368Y-69953475D01*
X109187760Y-70070000D01*
X109013368Y-70186525D01*
X108806525Y-70393368D01*
X108644010Y-70636589D01*
X108532068Y-70906842D01*
X108475000Y-71193740D01*
X108475000Y-71486260D01*
X108532068Y-71773158D01*
X108644010Y-72043411D01*
X108806525Y-72286632D01*
X109013368Y-72493475D01*
X109187760Y-72610000D01*
X109013368Y-72726525D01*
X108806525Y-72933368D01*
X108644010Y-73176589D01*
X108532068Y-73446842D01*
X108475000Y-73733740D01*
X108475000Y-74026260D01*
X108532068Y-74313158D01*
X108644010Y-74583411D01*
X108806525Y-74826632D01*
X109013368Y-75033475D01*
X109187760Y-75150000D01*
X109013368Y-75266525D01*
X108806525Y-75473368D01*
X108644010Y-75716589D01*
X108532068Y-75986842D01*
X108475000Y-76273740D01*
X108475000Y-76566260D01*
X108532068Y-76853158D01*
X108644010Y-77123411D01*
X108806525Y-77366632D01*
X109013368Y-77573475D01*
X109187760Y-77690000D01*
X109013368Y-77806525D01*
X108806525Y-78013368D01*
X108644010Y-78256589D01*
X108532068Y-78526842D01*
X108475000Y-78813740D01*
X108475000Y-79106260D01*
X108532068Y-79393158D01*
X108644010Y-79663411D01*
X108806525Y-79906632D01*
X109013368Y-80113475D01*
X109187760Y-80230000D01*
X109013368Y-80346525D01*
X108806525Y-80553368D01*
X108644010Y-80796589D01*
X108532068Y-81066842D01*
X108475000Y-81353740D01*
X108475000Y-81646260D01*
X108532068Y-81933158D01*
X108644010Y-82203411D01*
X108806525Y-82446632D01*
X109013368Y-82653475D01*
X109256589Y-82815990D01*
X109526842Y-82927932D01*
X109813740Y-82985000D01*
X110106260Y-82985000D01*
X110393158Y-82927932D01*
X110663411Y-82815990D01*
X110906632Y-82653475D01*
X111113475Y-82446632D01*
X111275990Y-82203411D01*
X111387932Y-81933158D01*
X111445000Y-81646260D01*
X111445000Y-81353740D01*
X111387932Y-81066842D01*
X111275990Y-80796589D01*
X111113475Y-80553368D01*
X110906632Y-80346525D01*
X110732240Y-80230000D01*
X110906632Y-80113475D01*
X111113475Y-79906632D01*
X111230000Y-79732240D01*
X111346525Y-79906632D01*
X111553368Y-80113475D01*
X111796589Y-80275990D01*
X112066842Y-80387932D01*
X112353740Y-80445000D01*
X112646260Y-80445000D01*
X112933158Y-80387932D01*
X112940237Y-80385000D01*
X117650666Y-80385000D01*
X117511150Y-80706068D01*
X117507057Y-80716786D01*
X117365167Y-81145591D01*
X117362059Y-81156634D01*
X117259444Y-81596494D01*
X117257345Y-81607773D01*
X117194842Y-82055098D01*
X117193769Y-82066520D01*
X117171889Y-82517661D01*
X117171741Y-82523397D01*
X117166112Y-84240331D01*
X117144062Y-84633135D01*
X117081269Y-85018128D01*
X116978252Y-85394346D01*
X116836151Y-85757618D01*
X116793422Y-85840000D01*
X112029392Y-85840000D01*
X111231917Y-85768827D01*
X110488110Y-85565344D01*
X109792096Y-85233363D01*
X109165870Y-84783374D01*
X108629223Y-84229597D01*
X108199129Y-83589549D01*
X107889171Y-82883447D01*
X107707935Y-82128543D01*
X107660000Y-81475793D01*
X107660000Y-58529392D01*
X107731173Y-57731917D01*
X107934656Y-56988109D01*
X108266638Y-56292095D01*
X108716626Y-55665870D01*
X109270403Y-55129223D01*
X109910451Y-54699129D01*
X110616553Y-54389171D01*
X111371457Y-54207935D01*
X112024207Y-54160000D01*
X116973639Y-54160000D01*
X117026377Y-54246196D01*
G37*
X117026377Y-54246196D02*
X117197736Y-54601620D01*
X117332823Y-54972370D01*
X117430284Y-55354729D01*
X117489154Y-55744904D01*
X117509000Y-56142174D01*
X117509000Y-58174768D01*
X117509130Y-58180509D01*
X117529565Y-58632093D01*
X117530602Y-58643528D01*
X117591739Y-59091422D01*
X117593804Y-59102717D01*
X117695143Y-59543258D01*
X117698221Y-59554320D01*
X117838935Y-59983909D01*
X117842998Y-59994647D01*
X118021935Y-60409770D01*
X118026952Y-60420098D01*
X118242651Y-60817364D01*
X118248581Y-60827197D01*
X118499279Y-61203359D01*
X118506072Y-61212616D01*
X118789718Y-61564597D01*
X118797319Y-61573202D01*
X119111596Y-61898127D01*
X119115681Y-61902164D01*
X120647808Y-63349173D01*
X120651836Y-63352817D01*
X120975010Y-63632882D01*
X120983515Y-63639638D01*
X121329439Y-63891064D01*
X121338491Y-63897069D01*
X121704634Y-64118016D01*
X121714166Y-64123225D01*
X122097850Y-64312076D01*
X122107791Y-64316452D01*
X122506209Y-64471827D01*
X122516489Y-64475337D01*
X122926727Y-64596099D01*
X122937268Y-64598718D01*
X123356324Y-64683983D01*
X123367051Y-64685692D01*
X123791860Y-64734837D01*
X123802694Y-64735622D01*
X124230149Y-64748287D01*
X124235581Y-64748332D01*
X128201252Y-64696152D01*
X128185871Y-64746856D01*
X128170728Y-64900601D01*
X128170728Y-65200601D01*
X128185871Y-65354346D01*
X128230716Y-65502183D01*
X128303542Y-65638430D01*
X128401549Y-65757852D01*
X128520971Y-65855859D01*
X128657218Y-65928685D01*
X128805055Y-65973530D01*
X128958800Y-65988673D01*
X130408800Y-65988673D01*
X130562545Y-65973530D01*
X130710382Y-65928685D01*
X130846629Y-65855859D01*
X130966051Y-65757852D01*
X131064058Y-65638430D01*
X131136884Y-65502183D01*
X131181729Y-65354346D01*
X131196872Y-65200601D01*
X131196872Y-64900601D01*
X131181729Y-64746856D01*
X131154561Y-64657293D01*
X133371889Y-64628117D01*
X133335871Y-64746856D01*
X133320728Y-64900601D01*
X133320728Y-65200601D01*
X133335871Y-65354346D01*
X133380716Y-65502183D01*
X133453542Y-65638430D01*
X133551549Y-65757852D01*
X133670971Y-65855859D01*
X133807218Y-65928685D01*
X133955055Y-65973530D01*
X134108800Y-65988673D01*
X135558800Y-65988673D01*
X135712545Y-65973530D01*
X135860382Y-65928685D01*
X135996629Y-65855859D01*
X136116051Y-65757852D01*
X136214058Y-65638430D01*
X136286884Y-65502183D01*
X136331729Y-65354346D01*
X136346872Y-65200601D01*
X136346872Y-64900601D01*
X136331729Y-64746856D01*
X136286884Y-64599019D01*
X136281971Y-64589827D01*
X139402064Y-64548773D01*
X139407699Y-64548574D01*
X139850852Y-64523038D01*
X139862068Y-64521890D01*
X140301210Y-64457151D01*
X140312281Y-64455013D01*
X140743950Y-64351581D01*
X140754786Y-64348470D01*
X141175582Y-64207162D01*
X141186101Y-64203102D01*
X141592705Y-64025029D01*
X141602822Y-64020052D01*
X141992031Y-63806620D01*
X142001666Y-63800765D01*
X142370411Y-63553655D01*
X142379489Y-63546969D01*
X142724866Y-63268128D01*
X142733316Y-63260663D01*
X143052600Y-62952290D01*
X143056568Y-62948284D01*
X144805959Y-61101705D01*
X144809994Y-61097238D01*
X145119191Y-60738222D01*
X145126604Y-60728741D01*
X145400429Y-60342070D01*
X145406911Y-60331930D01*
X145642906Y-59921076D01*
X145648399Y-59910368D01*
X145844445Y-59479021D01*
X145848899Y-59467842D01*
X146003236Y-59019875D01*
X146006613Y-59008323D01*
X146117854Y-58547758D01*
X146120122Y-58535939D01*
X146187269Y-58066912D01*
X146188408Y-58054931D01*
X146198184Y-57848816D01*
X154425000Y-57848816D01*
X154425000Y-58151184D01*
X154483989Y-58447743D01*
X154599701Y-58727095D01*
X154767688Y-58978505D01*
X154981495Y-59192312D01*
X155232905Y-59360299D01*
X155512257Y-59476011D01*
X155808816Y-59535000D01*
X156111184Y-59535000D01*
X156407743Y-59476011D01*
X156687095Y-59360299D01*
X156938505Y-59192312D01*
X157004944Y-59125873D01*
X157010498Y-59144180D01*
X157069463Y-59254494D01*
X157148815Y-59351185D01*
X157245506Y-59430537D01*
X157355820Y-59489502D01*
X157475518Y-59525812D01*
X157600000Y-59538072D01*
X157740000Y-59538072D01*
X157740001Y-60252234D01*
X157654987Y-60309038D01*
X157469038Y-60494987D01*
X157322939Y-60713641D01*
X157222304Y-60956595D01*
X157171000Y-61214514D01*
X157171000Y-61477486D01*
X157222304Y-61735405D01*
X157322939Y-61978359D01*
X157469038Y-62197013D01*
X157654987Y-62382962D01*
X157873641Y-62529061D01*
X158116595Y-62629696D01*
X158374514Y-62681000D01*
X158637486Y-62681000D01*
X158895405Y-62629696D01*
X159138359Y-62529061D01*
X159357013Y-62382962D01*
X159542962Y-62197013D01*
X159689061Y-61978359D01*
X159789696Y-61735405D01*
X159841000Y-61477486D01*
X159841000Y-61214514D01*
X159789696Y-60956595D01*
X159689061Y-60713641D01*
X159542962Y-60494987D01*
X159357013Y-60309038D01*
X159260000Y-60244216D01*
X159260000Y-59538072D01*
X159400000Y-59538072D01*
X159524482Y-59525812D01*
X159644180Y-59489502D01*
X159754494Y-59430537D01*
X159851185Y-59351185D01*
X159930537Y-59254494D01*
X159989502Y-59144180D01*
X160025812Y-59024482D01*
X160038072Y-58900000D01*
X160038072Y-57790000D01*
X161011928Y-57790000D01*
X161011928Y-59490000D01*
X161024188Y-59614482D01*
X161060498Y-59734180D01*
X161119463Y-59844494D01*
X161198815Y-59941185D01*
X161295506Y-60020537D01*
X161405820Y-60079502D01*
X161478380Y-60101513D01*
X161346525Y-60233368D01*
X161184010Y-60476589D01*
X161072068Y-60746842D01*
X161015000Y-61033740D01*
X161015000Y-61326260D01*
X161072068Y-61613158D01*
X161184010Y-61883411D01*
X161346525Y-62126632D01*
X161553368Y-62333475D01*
X161727760Y-62450000D01*
X161553368Y-62566525D01*
X161346525Y-62773368D01*
X161184010Y-63016589D01*
X161072068Y-63286842D01*
X161015000Y-63573740D01*
X161015000Y-63866260D01*
X161072068Y-64153158D01*
X161184010Y-64423411D01*
X161346525Y-64666632D01*
X161553368Y-64873475D01*
X161727760Y-64990000D01*
X161553368Y-65106525D01*
X161346525Y-65313368D01*
X161184010Y-65556589D01*
X161072068Y-65826842D01*
X161015000Y-66113740D01*
X161015000Y-66406260D01*
X161072068Y-66693158D01*
X161184010Y-66963411D01*
X161346525Y-67206632D01*
X161553368Y-67413475D01*
X161727760Y-67530000D01*
X161553368Y-67646525D01*
X161346525Y-67853368D01*
X161184010Y-68096589D01*
X161072068Y-68366842D01*
X161015000Y-68653740D01*
X161015000Y-68946260D01*
X161072068Y-69233158D01*
X161184010Y-69503411D01*
X161346525Y-69746632D01*
X161553368Y-69953475D01*
X161727760Y-70070000D01*
X161553368Y-70186525D01*
X161346525Y-70393368D01*
X161184010Y-70636589D01*
X161072068Y-70906842D01*
X161015000Y-71193740D01*
X161015000Y-71486260D01*
X161072068Y-71773158D01*
X161184010Y-72043411D01*
X161346525Y-72286632D01*
X161553368Y-72493475D01*
X161727760Y-72610000D01*
X161553368Y-72726525D01*
X161346525Y-72933368D01*
X161184010Y-73176589D01*
X161072068Y-73446842D01*
X161015000Y-73733740D01*
X161015000Y-74026260D01*
X161072068Y-74313158D01*
X161184010Y-74583411D01*
X161346525Y-74826632D01*
X161553368Y-75033475D01*
X161727760Y-75150000D01*
X161553368Y-75266525D01*
X161346525Y-75473368D01*
X161184010Y-75716589D01*
X161072068Y-75986842D01*
X161015000Y-76273740D01*
X161015000Y-76566260D01*
X161072068Y-76853158D01*
X161184010Y-77123411D01*
X161346525Y-77366632D01*
X161553368Y-77573475D01*
X161727760Y-77690000D01*
X161553368Y-77806525D01*
X161346525Y-78013368D01*
X161184010Y-78256589D01*
X161072068Y-78526842D01*
X161015000Y-78813740D01*
X161015000Y-79106260D01*
X161072068Y-79393158D01*
X161184010Y-79663411D01*
X161346525Y-79906632D01*
X161553368Y-80113475D01*
X161727760Y-80230000D01*
X161553368Y-80346525D01*
X161346525Y-80553368D01*
X161184010Y-80796589D01*
X161072068Y-81066842D01*
X161015000Y-81353740D01*
X161015000Y-81646260D01*
X161072068Y-81933158D01*
X161184010Y-82203411D01*
X161346525Y-82446632D01*
X161553368Y-82653475D01*
X161796589Y-82815990D01*
X162066842Y-82927932D01*
X162353740Y-82985000D01*
X162646260Y-82985000D01*
X162933158Y-82927932D01*
X163203411Y-82815990D01*
X163446632Y-82653475D01*
X163653475Y-82446632D01*
X163770000Y-82272240D01*
X163886525Y-82446632D01*
X164093368Y-82653475D01*
X164336589Y-82815990D01*
X164606842Y-82927932D01*
X164893740Y-82985000D01*
X165186260Y-82985000D01*
X165473158Y-82927932D01*
X165743411Y-82815990D01*
X165986632Y-82653475D01*
X166193475Y-82446632D01*
X166355990Y-82203411D01*
X166467932Y-81933158D01*
X166525000Y-81646260D01*
X166525000Y-81353740D01*
X166467932Y-81066842D01*
X166355990Y-80796589D01*
X166193475Y-80553368D01*
X165986632Y-80346525D01*
X165812240Y-80230000D01*
X165986632Y-80113475D01*
X166193475Y-79906632D01*
X166355990Y-79663411D01*
X166467932Y-79393158D01*
X166525000Y-79106260D01*
X166525000Y-78813740D01*
X166467932Y-78526842D01*
X166355990Y-78256589D01*
X166193475Y-78013368D01*
X165986632Y-77806525D01*
X165812240Y-77690000D01*
X165986632Y-77573475D01*
X166193475Y-77366632D01*
X166355990Y-77123411D01*
X166467932Y-76853158D01*
X166525000Y-76566260D01*
X166525000Y-76273740D01*
X166467932Y-75986842D01*
X166355990Y-75716589D01*
X166193475Y-75473368D01*
X165986632Y-75266525D01*
X165812240Y-75150000D01*
X165986632Y-75033475D01*
X166193475Y-74826632D01*
X166355990Y-74583411D01*
X166467932Y-74313158D01*
X166525000Y-74026260D01*
X166525000Y-73733740D01*
X166467932Y-73446842D01*
X166355990Y-73176589D01*
X166193475Y-72933368D01*
X165986632Y-72726525D01*
X165812240Y-72610000D01*
X165986632Y-72493475D01*
X166193475Y-72286632D01*
X166355990Y-72043411D01*
X166467932Y-71773158D01*
X166525000Y-71486260D01*
X166525000Y-71193740D01*
X166467932Y-70906842D01*
X166355990Y-70636589D01*
X166193475Y-70393368D01*
X165986632Y-70186525D01*
X165812240Y-70070000D01*
X165986632Y-69953475D01*
X166193475Y-69746632D01*
X166355990Y-69503411D01*
X166467932Y-69233158D01*
X166525000Y-68946260D01*
X166525000Y-68653740D01*
X166467932Y-68366842D01*
X166355990Y-68096589D01*
X166193475Y-67853368D01*
X165986632Y-67646525D01*
X165812240Y-67530000D01*
X165986632Y-67413475D01*
X166193475Y-67206632D01*
X166355990Y-66963411D01*
X166467932Y-66693158D01*
X166525000Y-66406260D01*
X166525000Y-66113740D01*
X166467932Y-65826842D01*
X166355990Y-65556589D01*
X166193475Y-65313368D01*
X165986632Y-65106525D01*
X165812240Y-64990000D01*
X165986632Y-64873475D01*
X166193475Y-64666632D01*
X166355990Y-64423411D01*
X166467932Y-64153158D01*
X166525000Y-63866260D01*
X166525000Y-63573740D01*
X166467932Y-63286842D01*
X166355990Y-63016589D01*
X166193475Y-62773368D01*
X165986632Y-62566525D01*
X165812240Y-62450000D01*
X165986632Y-62333475D01*
X166193475Y-62126632D01*
X166355990Y-61883411D01*
X166467932Y-61613158D01*
X166525000Y-61326260D01*
X166525000Y-61033740D01*
X166467932Y-60746842D01*
X166355990Y-60476589D01*
X166193475Y-60233368D01*
X165986632Y-60026525D01*
X165812240Y-59910000D01*
X165986632Y-59793475D01*
X166193475Y-59586632D01*
X166355990Y-59343411D01*
X166467932Y-59073158D01*
X166525000Y-58786260D01*
X166525000Y-58493740D01*
X166467932Y-58206842D01*
X166355990Y-57936589D01*
X166193475Y-57693368D01*
X165986632Y-57486525D01*
X165743411Y-57324010D01*
X165473158Y-57212068D01*
X165186260Y-57155000D01*
X164893740Y-57155000D01*
X164606842Y-57212068D01*
X164336589Y-57324010D01*
X164093368Y-57486525D01*
X163961513Y-57618380D01*
X163939502Y-57545820D01*
X163880537Y-57435506D01*
X163801185Y-57338815D01*
X163704494Y-57259463D01*
X163594180Y-57200498D01*
X163474482Y-57164188D01*
X163350000Y-57151928D01*
X161650000Y-57151928D01*
X161525518Y-57164188D01*
X161405820Y-57200498D01*
X161295506Y-57259463D01*
X161198815Y-57338815D01*
X161119463Y-57435506D01*
X161060498Y-57545820D01*
X161024188Y-57665518D01*
X161011928Y-57790000D01*
X160038072Y-57790000D01*
X160038072Y-57100000D01*
X160025812Y-56975518D01*
X159989502Y-56855820D01*
X159930537Y-56745506D01*
X159851185Y-56648815D01*
X159754494Y-56569463D01*
X159644180Y-56510498D01*
X159524482Y-56474188D01*
X159400000Y-56461928D01*
X157600000Y-56461928D01*
X157475518Y-56474188D01*
X157355820Y-56510498D01*
X157245506Y-56569463D01*
X157148815Y-56648815D01*
X157069463Y-56745506D01*
X157010498Y-56855820D01*
X157004944Y-56874127D01*
X156938505Y-56807688D01*
X156687095Y-56639701D01*
X156407743Y-56523989D01*
X156111184Y-56465000D01*
X155808816Y-56465000D01*
X155512257Y-56523989D01*
X155232905Y-56639701D01*
X154981495Y-56807688D01*
X154767688Y-57021495D01*
X154599701Y-57272905D01*
X154483989Y-57552257D01*
X154425000Y-57848816D01*
X146198184Y-57848816D01*
X146210857Y-57581655D01*
X146211000Y-57575638D01*
X146211000Y-56142305D01*
X146229220Y-55792579D01*
X146283169Y-55449901D01*
X146372433Y-55114694D01*
X146496048Y-54790575D01*
X146652679Y-54481046D01*
X146840613Y-54189489D01*
X146864297Y-54160000D01*
X147613893Y-54160000D01*
X147470525Y-54303368D01*
X147308010Y-54546589D01*
X147196068Y-54816842D01*
X147139000Y-55103740D01*
X147139000Y-55396260D01*
X147196068Y-55683158D01*
X147308010Y-55953411D01*
X147470525Y-56196632D01*
X147677368Y-56403475D01*
X147920589Y-56565990D01*
X148190842Y-56677932D01*
X148477740Y-56735000D01*
X148770260Y-56735000D01*
X149057158Y-56677932D01*
X149327411Y-56565990D01*
X149570632Y-56403475D01*
X149777475Y-56196632D01*
X149939990Y-55953411D01*
X150051932Y-55683158D01*
X150109000Y-55396260D01*
X150109000Y-55103740D01*
X150051932Y-54816842D01*
X149939990Y-54546589D01*
X149777475Y-54303368D01*
X149634107Y-54160000D01*
X162970608Y-54160000D01*
X163768083Y-54231173D01*
X164511891Y-54434656D01*
X165207905Y-54766638D01*
X165834130Y-55216626D01*
X166370777Y-55770403D01*
X166800871Y-56410451D01*
X167110829Y-57116553D01*
X167292065Y-57871457D01*
X167340001Y-58524220D01*
X167340000Y-81470608D01*
X167268827Y-82268083D01*
X167065344Y-83011890D01*
X166733363Y-83707904D01*
X166283374Y-84334130D01*
X165729597Y-84870777D01*
X165089549Y-85300871D01*
X164383447Y-85610829D01*
X163628543Y-85792065D01*
X162975793Y-85840000D01*
X149598107Y-85840000D01*
X149777475Y-85660632D01*
X149939990Y-85417411D01*
X150051932Y-85147158D01*
X150109000Y-84860260D01*
X150109000Y-84567740D01*
X150051932Y-84280842D01*
X149939990Y-84010589D01*
X149927426Y-83991786D01*
X149888346Y-83862954D01*
X149817774Y-83730924D01*
X149722801Y-83615199D01*
X149607076Y-83520226D01*
X149475046Y-83449654D01*
X149346214Y-83410574D01*
X149327411Y-83398010D01*
X149057158Y-83286068D01*
X148770260Y-83229000D01*
X148477740Y-83229000D01*
X148190842Y-83286068D01*
X147920589Y-83398010D01*
X147677368Y-83560525D01*
X147470525Y-83767368D01*
X147308010Y-84010589D01*
X147196068Y-84280842D01*
X147139000Y-84567740D01*
X147139000Y-84860260D01*
X147196068Y-85147158D01*
X147308010Y-85417411D01*
X147470525Y-85660632D01*
X147649893Y-85840000D01*
X147384987Y-85840000D01*
X147377206Y-85829342D01*
X147170556Y-85478809D01*
X146999170Y-85109752D01*
X146864692Y-84725707D01*
X146768413Y-84330368D01*
X146711248Y-83927488D01*
X146693617Y-83517842D01*
X146706433Y-81364623D01*
X146706341Y-81358987D01*
X146689291Y-80915593D01*
X146688359Y-80904361D01*
X146632067Y-80464225D01*
X146630142Y-80453120D01*
X146535050Y-80019708D01*
X146532149Y-80008817D01*
X146399006Y-79585542D01*
X146395150Y-79574952D01*
X146225005Y-79165148D01*
X146220226Y-79154941D01*
X146014420Y-78761835D01*
X146008755Y-78752092D01*
X145768907Y-78378780D01*
X145762400Y-78369577D01*
X145490400Y-78018999D01*
X145483103Y-78010410D01*
X145181094Y-77685328D01*
X145177167Y-77681285D01*
X143950612Y-76473258D01*
X143946586Y-76469462D01*
X143623244Y-76177632D01*
X143614716Y-76170584D01*
X143267203Y-75908002D01*
X143258094Y-75901723D01*
X142889047Y-75670381D01*
X142879426Y-75664919D01*
X142491646Y-75466573D01*
X142481586Y-75461969D01*
X142078015Y-75298125D01*
X142067593Y-75294414D01*
X141651294Y-75166313D01*
X141640588Y-75163523D01*
X141214720Y-75072139D01*
X141203813Y-75070291D01*
X140771608Y-75016317D01*
X140760580Y-75015425D01*
X140325317Y-74999270D01*
X140319785Y-74999186D01*
X136209134Y-75025792D01*
X136222272Y-74892399D01*
X136222272Y-74592399D01*
X136207129Y-74438654D01*
X136162284Y-74290817D01*
X136089458Y-74154570D01*
X135991451Y-74035148D01*
X135872029Y-73937141D01*
X135735782Y-73864315D01*
X135587945Y-73819470D01*
X135434200Y-73804327D01*
X133984200Y-73804327D01*
X133830455Y-73819470D01*
X133682618Y-73864315D01*
X133546371Y-73937141D01*
X133426949Y-74035148D01*
X133328942Y-74154570D01*
X133256116Y-74290817D01*
X133211271Y-74438654D01*
X133196128Y-74592399D01*
X133196128Y-74892399D01*
X133211178Y-75045196D01*
X131053180Y-75059164D01*
X131057129Y-75046144D01*
X131072272Y-74892399D01*
X131072272Y-74592399D01*
X131057129Y-74438654D01*
X131012284Y-74290817D01*
X130939458Y-74154570D01*
X130841451Y-74035148D01*
X130722029Y-73937141D01*
X130585782Y-73864315D01*
X130437945Y-73819470D01*
X130284200Y-73804327D01*
X128834200Y-73804327D01*
X128680455Y-73819470D01*
X128532618Y-73864315D01*
X128396371Y-73937141D01*
X128276949Y-74035148D01*
X128178942Y-74154570D01*
X128106116Y-74290817D01*
X128061271Y-74438654D01*
X128046128Y-74592399D01*
X128046128Y-74892399D01*
X128061271Y-75046144D01*
X128071075Y-75078465D01*
X124727607Y-75100106D01*
X124721675Y-75100283D01*
X124255156Y-75125129D01*
X124243349Y-75126313D01*
X123900398Y-75176980D01*
X126291952Y-72785427D01*
X126360836Y-72841958D01*
X126513291Y-72923447D01*
X126678715Y-72973628D01*
X126850750Y-72990572D01*
X127241568Y-72990572D01*
X127304086Y-73023988D01*
X127470909Y-73074594D01*
X127600922Y-73087399D01*
X127600932Y-73087399D01*
X127644398Y-73091680D01*
X127687864Y-73087399D01*
X128555417Y-73087399D01*
X128680455Y-73125328D01*
X128834200Y-73140471D01*
X130284200Y-73140471D01*
X130437945Y-73125328D01*
X130585782Y-73080483D01*
X130586311Y-73080200D01*
X131696146Y-73080200D01*
X131744344Y-73112405D01*
X131932702Y-73190426D01*
X132132661Y-73230200D01*
X132336539Y-73230200D01*
X132536498Y-73190426D01*
X132724856Y-73112405D01*
X132773054Y-73080200D01*
X133682089Y-73080200D01*
X133682618Y-73080483D01*
X133830455Y-73125328D01*
X133984200Y-73140471D01*
X135434200Y-73140471D01*
X135587945Y-73125328D01*
X135735782Y-73080483D01*
X135872029Y-73007657D01*
X135991451Y-72909650D01*
X136089458Y-72790228D01*
X136162284Y-72653981D01*
X136207129Y-72506144D01*
X136222272Y-72352399D01*
X136222272Y-72052399D01*
X136207129Y-71898654D01*
X136162284Y-71750817D01*
X136089458Y-71614570D01*
X136050746Y-71567399D01*
X136089458Y-71520228D01*
X136162284Y-71383981D01*
X136207129Y-71236144D01*
X136222272Y-71082399D01*
X136222272Y-70782399D01*
X136207129Y-70628654D01*
X136162284Y-70480817D01*
X136089458Y-70344570D01*
X135991451Y-70225148D01*
X135872029Y-70127141D01*
X135735782Y-70054315D01*
X135587945Y-70009470D01*
X135434200Y-69994327D01*
X133984200Y-69994327D01*
X133830455Y-70009470D01*
X133682618Y-70054315D01*
X133546371Y-70127141D01*
X133426949Y-70225148D01*
X133328942Y-70344570D01*
X133256116Y-70480817D01*
X133211271Y-70628654D01*
X133196128Y-70782399D01*
X133196128Y-71082399D01*
X133211271Y-71236144D01*
X133233735Y-71310200D01*
X133170400Y-71310200D01*
X133170400Y-69852000D01*
X133250939Y-69852000D01*
X133450898Y-69812226D01*
X133639256Y-69734205D01*
X133710179Y-69686816D01*
X133807218Y-69738685D01*
X133955055Y-69783530D01*
X134108800Y-69798673D01*
X135558800Y-69798673D01*
X135712545Y-69783530D01*
X135860382Y-69738685D01*
X135996629Y-69665859D01*
X136116051Y-69567852D01*
X136214058Y-69448430D01*
X136286884Y-69312183D01*
X136331729Y-69164346D01*
X136345609Y-69023421D01*
X136457715Y-69057428D01*
X136629750Y-69074372D01*
X137542250Y-69074372D01*
X137714285Y-69057428D01*
X137879709Y-69007247D01*
X138032164Y-68925758D01*
X138144215Y-68833800D01*
X139231531Y-68833800D01*
X139275000Y-68838081D01*
X139318469Y-68833800D01*
X139318477Y-68833800D01*
X139448490Y-68820995D01*
X139615313Y-68770389D01*
X139769059Y-68688211D01*
X139903817Y-68577617D01*
X139931534Y-68543844D01*
X141516579Y-66958800D01*
X144510532Y-66958800D01*
X144596744Y-67016405D01*
X144785102Y-67094426D01*
X144985061Y-67134200D01*
X145188939Y-67134200D01*
X145388898Y-67094426D01*
X145577256Y-67016405D01*
X145746774Y-66903137D01*
X145759133Y-66890778D01*
X145764271Y-66942945D01*
X145809116Y-67090782D01*
X145881942Y-67227029D01*
X145979949Y-67346451D01*
X146099371Y-67444458D01*
X146133781Y-67462850D01*
X146147199Y-67479201D01*
X146176203Y-67503004D01*
X147642200Y-68969002D01*
X147665999Y-68998001D01*
X147739653Y-69058447D01*
X147781724Y-69092974D01*
X147913753Y-69163546D01*
X148057014Y-69207003D01*
X148194706Y-69220565D01*
X148162174Y-69299102D01*
X148122400Y-69499061D01*
X148122400Y-69702625D01*
X148107200Y-69701128D01*
X147807200Y-69701128D01*
X147653455Y-69716271D01*
X147505618Y-69761116D01*
X147369371Y-69833942D01*
X147322200Y-69872654D01*
X147275029Y-69833942D01*
X147138782Y-69761116D01*
X146990945Y-69716271D01*
X146837200Y-69701128D01*
X146537200Y-69701128D01*
X146383455Y-69716271D01*
X146235618Y-69761116D01*
X146099371Y-69833942D01*
X145979949Y-69931949D01*
X145881942Y-70051371D01*
X145809116Y-70187618D01*
X145764271Y-70335455D01*
X145749128Y-70489200D01*
X145749128Y-70493616D01*
X145699553Y-70508654D01*
X145567524Y-70579226D01*
X145451799Y-70674199D01*
X145428001Y-70703197D01*
X144351998Y-71779201D01*
X144323000Y-71802999D01*
X144299202Y-71831997D01*
X144299201Y-71831998D01*
X144228026Y-71918724D01*
X144157454Y-72050754D01*
X144139862Y-72108750D01*
X144113998Y-72194014D01*
X144113881Y-72195200D01*
X144099324Y-72343000D01*
X144100069Y-72350561D01*
X143995708Y-72436208D01*
X143886042Y-72569836D01*
X143828425Y-72677629D01*
X143748456Y-72624195D01*
X143560098Y-72546174D01*
X143360139Y-72506400D01*
X143156261Y-72506400D01*
X142956302Y-72546174D01*
X142767944Y-72624195D01*
X142598426Y-72737463D01*
X142454263Y-72881626D01*
X142340995Y-73051144D01*
X142262974Y-73239502D01*
X142223200Y-73439461D01*
X142223200Y-73643339D01*
X142262974Y-73843298D01*
X142340995Y-74031656D01*
X142454263Y-74201174D01*
X142598426Y-74345337D01*
X142767944Y-74458605D01*
X142956302Y-74536626D01*
X143156261Y-74576400D01*
X143360139Y-74576400D01*
X143560098Y-74536626D01*
X143748456Y-74458605D01*
X143848433Y-74391803D01*
X143886042Y-74462164D01*
X143995708Y-74595792D01*
X144129336Y-74705458D01*
X144281791Y-74786947D01*
X144447215Y-74837128D01*
X144619250Y-74854072D01*
X145106750Y-74854072D01*
X145278785Y-74837128D01*
X145444209Y-74786947D01*
X145596664Y-74705458D01*
X145730292Y-74595792D01*
X145800500Y-74510244D01*
X145870708Y-74595792D01*
X146004336Y-74705458D01*
X146156791Y-74786947D01*
X146322215Y-74837128D01*
X146494250Y-74854072D01*
X146981750Y-74854072D01*
X147153785Y-74837128D01*
X147319209Y-74786947D01*
X147471664Y-74705458D01*
X147500000Y-74682203D01*
X147528336Y-74705458D01*
X147680791Y-74786947D01*
X147846215Y-74837128D01*
X148018250Y-74854072D01*
X148505750Y-74854072D01*
X148677785Y-74837128D01*
X148843209Y-74786947D01*
X148995664Y-74705458D01*
X149129292Y-74595792D01*
X149238958Y-74462164D01*
X149320447Y-74309709D01*
X149370628Y-74144285D01*
X149387572Y-73972250D01*
X149387572Y-73059750D01*
X149370628Y-72887715D01*
X149321958Y-72727272D01*
X149377200Y-72727272D01*
X149530945Y-72712129D01*
X149678782Y-72667284D01*
X149815029Y-72594458D01*
X149934451Y-72496451D01*
X150032458Y-72377029D01*
X150105284Y-72240782D01*
X150150129Y-72092945D01*
X150165272Y-71939200D01*
X150165272Y-70489200D01*
X150150129Y-70335455D01*
X150119354Y-70234000D01*
X151038912Y-70234000D01*
X151055053Y-70287209D01*
X151136542Y-70439664D01*
X151246208Y-70573292D01*
X151379836Y-70682958D01*
X151532291Y-70764447D01*
X151697715Y-70814628D01*
X151869750Y-70831572D01*
X152782250Y-70831572D01*
X152954285Y-70814628D01*
X153119709Y-70764447D01*
X153272164Y-70682958D01*
X153405792Y-70573292D01*
X153515458Y-70439664D01*
X153596947Y-70287209D01*
X153647128Y-70121785D01*
X153656138Y-70030308D01*
X153729715Y-70052628D01*
X153901750Y-70069572D01*
X154814250Y-70069572D01*
X154986285Y-70052628D01*
X155151709Y-70002447D01*
X155304164Y-69920958D01*
X155437792Y-69811292D01*
X155547458Y-69677664D01*
X155628947Y-69525209D01*
X155679128Y-69359785D01*
X155696072Y-69187750D01*
X155696072Y-68700250D01*
X155679128Y-68528215D01*
X155628947Y-68362791D01*
X155547458Y-68210336D01*
X155437792Y-68076708D01*
X155352244Y-68006500D01*
X155437792Y-67936292D01*
X155547458Y-67802664D01*
X155628947Y-67650209D01*
X155679128Y-67484785D01*
X155696072Y-67312750D01*
X155696072Y-66825250D01*
X155679128Y-66653215D01*
X155628947Y-66487791D01*
X155547458Y-66335336D01*
X155437792Y-66201708D01*
X155304164Y-66092042D01*
X155151709Y-66010553D01*
X154986285Y-65960372D01*
X154814250Y-65943428D01*
X153901750Y-65943428D01*
X153729715Y-65960372D01*
X153564291Y-66010553D01*
X153411836Y-66092042D01*
X153278208Y-66201708D01*
X153168542Y-66335336D01*
X153149373Y-66371198D01*
X153183200Y-66201139D01*
X153183200Y-65997261D01*
X153143426Y-65797302D01*
X153065405Y-65608944D01*
X152952137Y-65439426D01*
X152807974Y-65295263D01*
X152638456Y-65181995D01*
X152450098Y-65103974D01*
X152250139Y-65064200D01*
X152046261Y-65064200D01*
X151846302Y-65103974D01*
X151657944Y-65181995D01*
X151609746Y-65214200D01*
X151422960Y-65214200D01*
X151420129Y-65185455D01*
X151375284Y-65037618D01*
X151302458Y-64901371D01*
X151204451Y-64781949D01*
X151085029Y-64683942D01*
X150948782Y-64611116D01*
X150866182Y-64586060D01*
X150894628Y-64492285D01*
X150911572Y-64320250D01*
X150911572Y-63407750D01*
X150894628Y-63235715D01*
X150844447Y-63070291D01*
X150762958Y-62917836D01*
X150653292Y-62784208D01*
X150519664Y-62674542D01*
X150367209Y-62593053D01*
X150201785Y-62542872D01*
X150029750Y-62525928D01*
X149542250Y-62525928D01*
X149370215Y-62542872D01*
X149204791Y-62593053D01*
X149052336Y-62674542D01*
X148946723Y-62761217D01*
X148964847Y-62727309D01*
X149015028Y-62561885D01*
X149031972Y-62389850D01*
X149031972Y-61477350D01*
X149015028Y-61305315D01*
X148964847Y-61139891D01*
X148883358Y-60987436D01*
X148773692Y-60853808D01*
X148640064Y-60744142D01*
X148487609Y-60662653D01*
X148322185Y-60612472D01*
X148150150Y-60595528D01*
X147662650Y-60595528D01*
X147490615Y-60612472D01*
X147325191Y-60662653D01*
X147172736Y-60744142D01*
X147039108Y-60853808D01*
X146929442Y-60987436D01*
X146847953Y-61139891D01*
X146797772Y-61305315D01*
X146780828Y-61477350D01*
X146780828Y-62389850D01*
X146797772Y-62561885D01*
X146847953Y-62727309D01*
X146929442Y-62879764D01*
X146947364Y-62901603D01*
X146934042Y-62917836D01*
X146852553Y-63070291D01*
X146802372Y-63235715D01*
X146788379Y-63377785D01*
X146693939Y-63359000D01*
X146490061Y-63359000D01*
X146290102Y-63398774D01*
X146101744Y-63476795D01*
X145932226Y-63590063D01*
X145788063Y-63734226D01*
X145674795Y-63903744D01*
X145596774Y-64092102D01*
X145557000Y-64292061D01*
X145557000Y-64495939D01*
X145596774Y-64695898D01*
X145674795Y-64884256D01*
X145788063Y-65053774D01*
X145800456Y-65066167D01*
X145764271Y-65185455D01*
X145752856Y-65301345D01*
X145746774Y-65295263D01*
X145577256Y-65181995D01*
X145388898Y-65103974D01*
X145188939Y-65064200D01*
X144985061Y-65064200D01*
X144785102Y-65103974D01*
X144596744Y-65181995D01*
X144586560Y-65188800D01*
X141193465Y-65188800D01*
X141149999Y-65184519D01*
X141106533Y-65188800D01*
X141106523Y-65188800D01*
X140976510Y-65201605D01*
X140809687Y-65252211D01*
X140655941Y-65334389D01*
X140655939Y-65334390D01*
X140655940Y-65334390D01*
X140554953Y-65417268D01*
X140554951Y-65417270D01*
X140521183Y-65444983D01*
X140493470Y-65478751D01*
X138908422Y-67063800D01*
X138144215Y-67063800D01*
X138032164Y-66971842D01*
X137879709Y-66890353D01*
X137714285Y-66840172D01*
X137542250Y-66823228D01*
X137169546Y-66823228D01*
X137068114Y-66769012D01*
X136901291Y-66718406D01*
X136771278Y-66705601D01*
X136771270Y-66705601D01*
X136727801Y-66701320D01*
X136684332Y-66705601D01*
X135837583Y-66705601D01*
X135712545Y-66667672D01*
X135558800Y-66652529D01*
X134108800Y-66652529D01*
X133955055Y-66667672D01*
X133807218Y-66712517D01*
X133670971Y-66785343D01*
X133635565Y-66814400D01*
X132823854Y-66814400D01*
X132775656Y-66782195D01*
X132587298Y-66704174D01*
X132387339Y-66664400D01*
X132183461Y-66664400D01*
X131983502Y-66704174D01*
X131795144Y-66782195D01*
X131746946Y-66814400D01*
X130882035Y-66814400D01*
X130846629Y-66785343D01*
X130710382Y-66712517D01*
X130562545Y-66667672D01*
X130408800Y-66652529D01*
X128958800Y-66652529D01*
X128805055Y-66667672D01*
X128657218Y-66712517D01*
X128520971Y-66785343D01*
X128401549Y-66883350D01*
X128303542Y-67002772D01*
X128230716Y-67139019D01*
X128185871Y-67286856D01*
X128170728Y-67440601D01*
X128170728Y-67740601D01*
X128185871Y-67894346D01*
X128230716Y-68042183D01*
X128303542Y-68178430D01*
X128342254Y-68225601D01*
X128303542Y-68272772D01*
X128230716Y-68409019D01*
X128185871Y-68556856D01*
X128170728Y-68710601D01*
X128170728Y-69010601D01*
X128183553Y-69140814D01*
X128120139Y-69128200D01*
X127916261Y-69128200D01*
X127716302Y-69167974D01*
X127527944Y-69245995D01*
X127358426Y-69359263D01*
X127214263Y-69503426D01*
X127100995Y-69672944D01*
X127022974Y-69861302D01*
X126983200Y-70061261D01*
X126983200Y-70265139D01*
X127022974Y-70465098D01*
X127100995Y-70653456D01*
X127158439Y-70739428D01*
X126850750Y-70739428D01*
X126678715Y-70756372D01*
X126513291Y-70806553D01*
X126360836Y-70888042D01*
X126248785Y-70980000D01*
X126004269Y-70980000D01*
X125960800Y-70975719D01*
X125917331Y-70980000D01*
X125917323Y-70980000D01*
X125787310Y-70992805D01*
X125620486Y-71043411D01*
X125466741Y-71125589D01*
X125365753Y-71208468D01*
X125365751Y-71208470D01*
X125331983Y-71236183D01*
X125304270Y-71269951D01*
X117959222Y-78615000D01*
X113945468Y-78615000D01*
X113927932Y-78526842D01*
X113815990Y-78256589D01*
X113653475Y-78013368D01*
X113446632Y-77806525D01*
X113272240Y-77690000D01*
X113446632Y-77573475D01*
X113653475Y-77366632D01*
X113815990Y-77123411D01*
X113927932Y-76853158D01*
X113985000Y-76566260D01*
X113985000Y-76273740D01*
X113927932Y-75986842D01*
X113815990Y-75716589D01*
X113653475Y-75473368D01*
X113446632Y-75266525D01*
X113272240Y-75150000D01*
X113446632Y-75033475D01*
X113653475Y-74826632D01*
X113815990Y-74583411D01*
X113927932Y-74313158D01*
X113985000Y-74026260D01*
X113985000Y-73733740D01*
X113927932Y-73446842D01*
X113815990Y-73176589D01*
X113653475Y-72933368D01*
X113446632Y-72726525D01*
X113272240Y-72610000D01*
X113446632Y-72493475D01*
X113653475Y-72286632D01*
X113815990Y-72043411D01*
X113927932Y-71773158D01*
X113985000Y-71486260D01*
X113985000Y-71193740D01*
X113927932Y-70906842D01*
X113815990Y-70636589D01*
X113653475Y-70393368D01*
X113446632Y-70186525D01*
X113272240Y-70070000D01*
X113446632Y-69953475D01*
X113653475Y-69746632D01*
X113815990Y-69503411D01*
X113838113Y-69450000D01*
X116360155Y-69450000D01*
X116448208Y-69557292D01*
X116533756Y-69627500D01*
X116448208Y-69697708D01*
X116338542Y-69831336D01*
X116257053Y-69983791D01*
X116206872Y-70149215D01*
X116189928Y-70321250D01*
X116189928Y-70808750D01*
X116206872Y-70980785D01*
X116257053Y-71146209D01*
X116338542Y-71298664D01*
X116448208Y-71432292D01*
X116517215Y-71488925D01*
X116493000Y-71610661D01*
X116493000Y-71814539D01*
X116532774Y-72014498D01*
X116610795Y-72202856D01*
X116724063Y-72372374D01*
X116868226Y-72516537D01*
X117037744Y-72629805D01*
X117226102Y-72707826D01*
X117352574Y-72732983D01*
X117379014Y-72741003D01*
X117406511Y-72743711D01*
X117426061Y-72747600D01*
X117445994Y-72747600D01*
X117490667Y-72752000D01*
X117565333Y-72752000D01*
X117610006Y-72747600D01*
X117629939Y-72747600D01*
X117649489Y-72743711D01*
X117676986Y-72741003D01*
X117703426Y-72732983D01*
X117829898Y-72707826D01*
X118018256Y-72629805D01*
X118187774Y-72516537D01*
X118231711Y-72472600D01*
X119344493Y-72472600D01*
X119351368Y-72479475D01*
X119594589Y-72641990D01*
X119864842Y-72753932D01*
X120151740Y-72811000D01*
X120444260Y-72811000D01*
X120731158Y-72753932D01*
X121001411Y-72641990D01*
X121244632Y-72479475D01*
X121451475Y-72272632D01*
X121613990Y-72029411D01*
X121725932Y-71759158D01*
X121783000Y-71472260D01*
X121783000Y-71179740D01*
X121725932Y-70892842D01*
X121613990Y-70622589D01*
X121451475Y-70379368D01*
X121244632Y-70172525D01*
X121070240Y-70056000D01*
X121244632Y-69939475D01*
X121451475Y-69732632D01*
X121613990Y-69489411D01*
X121725932Y-69219158D01*
X121783000Y-68932260D01*
X121783000Y-68639740D01*
X121725932Y-68352842D01*
X121613990Y-68082589D01*
X121451475Y-67839368D01*
X121244632Y-67632525D01*
X121070240Y-67516000D01*
X121244632Y-67399475D01*
X121451475Y-67192632D01*
X121613990Y-66949411D01*
X121725932Y-66679158D01*
X121783000Y-66392260D01*
X121783000Y-66099740D01*
X121725932Y-65812842D01*
X121613990Y-65542589D01*
X121451475Y-65299368D01*
X121244632Y-65092525D01*
X121001411Y-64930010D01*
X120731158Y-64818068D01*
X120444260Y-64761000D01*
X120151740Y-64761000D01*
X119864842Y-64818068D01*
X119594589Y-64930010D01*
X119351368Y-65092525D01*
X119144525Y-65299368D01*
X119019822Y-65486000D01*
X118546004Y-65486000D01*
X118522244Y-65466500D01*
X118607792Y-65396292D01*
X118717458Y-65262664D01*
X118798947Y-65110209D01*
X118849128Y-64944785D01*
X118866072Y-64772750D01*
X118866072Y-64285250D01*
X118849128Y-64113215D01*
X118798947Y-63947791D01*
X118717458Y-63795336D01*
X118607792Y-63661708D01*
X118474164Y-63552042D01*
X118321709Y-63470553D01*
X118156285Y-63420372D01*
X117984250Y-63403428D01*
X117071750Y-63403428D01*
X116899715Y-63420372D01*
X116734291Y-63470553D01*
X116581836Y-63552042D01*
X116448208Y-63661708D01*
X116338542Y-63795336D01*
X116300771Y-63866000D01*
X113985000Y-63866000D01*
X113985000Y-63573740D01*
X113927932Y-63286842D01*
X113815990Y-63016589D01*
X113653475Y-62773368D01*
X113446632Y-62566525D01*
X113272240Y-62450000D01*
X113446632Y-62333475D01*
X113653475Y-62126632D01*
X113815990Y-61883411D01*
X113927932Y-61613158D01*
X113985000Y-61326260D01*
X113985000Y-61033740D01*
X113927932Y-60746842D01*
X113815990Y-60476589D01*
X113653475Y-60233368D01*
X113446632Y-60026525D01*
X113272240Y-59910000D01*
X113446632Y-59793475D01*
X113653475Y-59586632D01*
X113815990Y-59343411D01*
X113927932Y-59073158D01*
X113985000Y-58786260D01*
X113985000Y-58493740D01*
X113927932Y-58206842D01*
X113815990Y-57936589D01*
X113653475Y-57693368D01*
X113446632Y-57486525D01*
X113203411Y-57324010D01*
X112933158Y-57212068D01*
X112646260Y-57155000D01*
X112353740Y-57155000D01*
X112066842Y-57212068D01*
X111796589Y-57324010D01*
X111553368Y-57486525D01*
X111421513Y-57618380D01*
X111399502Y-57545820D01*
X111340537Y-57435506D01*
X111261185Y-57338815D01*
X111164494Y-57259463D01*
X111054180Y-57200498D01*
X110934482Y-57164188D01*
X110810000Y-57151928D01*
X109110000Y-57151928D01*
X108985518Y-57164188D01*
X108865820Y-57200498D01*
X108755506Y-57259463D01*
X108658815Y-57338815D01*
X108579463Y-57435506D01*
X108520498Y-57545820D01*
X108484188Y-57665518D01*
X108471928Y-57790000D01*
X108471928Y-59490000D01*
X108484188Y-59614482D01*
X108520498Y-59734180D01*
X108579463Y-59844494D01*
X108658815Y-59941185D01*
X108755506Y-60020537D01*
X108865820Y-60079502D01*
X108938380Y-60101513D01*
X108806525Y-60233368D01*
X108644010Y-60476589D01*
X108532068Y-60746842D01*
X108475000Y-61033740D01*
X108475000Y-61326260D01*
X108532068Y-61613158D01*
X108644010Y-61883411D01*
X108806525Y-62126632D01*
X109013368Y-62333475D01*
X109187760Y-62450000D01*
X109013368Y-62566525D01*
X108806525Y-62773368D01*
X108644010Y-63016589D01*
X108532068Y-63286842D01*
X108475000Y-63573740D01*
X108475000Y-63866260D01*
X108532068Y-64153158D01*
X108644010Y-64423411D01*
X108806525Y-64666632D01*
X109013368Y-64873475D01*
X109187760Y-64990000D01*
X109013368Y-65106525D01*
X108806525Y-65313368D01*
X108644010Y-65556589D01*
X108532068Y-65826842D01*
X108475000Y-66113740D01*
X108475000Y-66406260D01*
X108532068Y-66693158D01*
X108644010Y-66963411D01*
X108806525Y-67206632D01*
X109013368Y-67413475D01*
X109187760Y-67530000D01*
X109013368Y-67646525D01*
X108806525Y-67853368D01*
X108644010Y-68096589D01*
X108532068Y-68366842D01*
X108475000Y-68653740D01*
X108475000Y-68946260D01*
X108532068Y-69233158D01*
X108644010Y-69503411D01*
X108806525Y-69746632D01*
X109013368Y-69953475D01*
X109187760Y-70070000D01*
X109013368Y-70186525D01*
X108806525Y-70393368D01*
X108644010Y-70636589D01*
X108532068Y-70906842D01*
X108475000Y-71193740D01*
X108475000Y-71486260D01*
X108532068Y-71773158D01*
X108644010Y-72043411D01*
X108806525Y-72286632D01*
X109013368Y-72493475D01*
X109187760Y-72610000D01*
X109013368Y-72726525D01*
X108806525Y-72933368D01*
X108644010Y-73176589D01*
X108532068Y-73446842D01*
X108475000Y-73733740D01*
X108475000Y-74026260D01*
X108532068Y-74313158D01*
X108644010Y-74583411D01*
X108806525Y-74826632D01*
X109013368Y-75033475D01*
X109187760Y-75150000D01*
X109013368Y-75266525D01*
X108806525Y-75473368D01*
X108644010Y-75716589D01*
X108532068Y-75986842D01*
X108475000Y-76273740D01*
X108475000Y-76566260D01*
X108532068Y-76853158D01*
X108644010Y-77123411D01*
X108806525Y-77366632D01*
X109013368Y-77573475D01*
X109187760Y-77690000D01*
X109013368Y-77806525D01*
X108806525Y-78013368D01*
X108644010Y-78256589D01*
X108532068Y-78526842D01*
X108475000Y-78813740D01*
X108475000Y-79106260D01*
X108532068Y-79393158D01*
X108644010Y-79663411D01*
X108806525Y-79906632D01*
X109013368Y-80113475D01*
X109187760Y-80230000D01*
X109013368Y-80346525D01*
X108806525Y-80553368D01*
X108644010Y-80796589D01*
X108532068Y-81066842D01*
X108475000Y-81353740D01*
X108475000Y-81646260D01*
X108532068Y-81933158D01*
X108644010Y-82203411D01*
X108806525Y-82446632D01*
X109013368Y-82653475D01*
X109256589Y-82815990D01*
X109526842Y-82927932D01*
X109813740Y-82985000D01*
X110106260Y-82985000D01*
X110393158Y-82927932D01*
X110663411Y-82815990D01*
X110906632Y-82653475D01*
X111113475Y-82446632D01*
X111275990Y-82203411D01*
X111387932Y-81933158D01*
X111445000Y-81646260D01*
X111445000Y-81353740D01*
X111387932Y-81066842D01*
X111275990Y-80796589D01*
X111113475Y-80553368D01*
X110906632Y-80346525D01*
X110732240Y-80230000D01*
X110906632Y-80113475D01*
X111113475Y-79906632D01*
X111230000Y-79732240D01*
X111346525Y-79906632D01*
X111553368Y-80113475D01*
X111796589Y-80275990D01*
X112066842Y-80387932D01*
X112353740Y-80445000D01*
X112646260Y-80445000D01*
X112933158Y-80387932D01*
X112940237Y-80385000D01*
X117650666Y-80385000D01*
X117511150Y-80706068D01*
X117507057Y-80716786D01*
X117365167Y-81145591D01*
X117362059Y-81156634D01*
X117259444Y-81596494D01*
X117257345Y-81607773D01*
X117194842Y-82055098D01*
X117193769Y-82066520D01*
X117171889Y-82517661D01*
X117171741Y-82523397D01*
X117166112Y-84240331D01*
X117144062Y-84633135D01*
X117081269Y-85018128D01*
X116978252Y-85394346D01*
X116836151Y-85757618D01*
X116793422Y-85840000D01*
X112029392Y-85840000D01*
X111231917Y-85768827D01*
X110488110Y-85565344D01*
X109792096Y-85233363D01*
X109165870Y-84783374D01*
X108629223Y-84229597D01*
X108199129Y-83589549D01*
X107889171Y-82883447D01*
X107707935Y-82128543D01*
X107660000Y-81475793D01*
X107660000Y-58529392D01*
X107731173Y-57731917D01*
X107934656Y-56988109D01*
X108266638Y-56292095D01*
X108716626Y-55665870D01*
X109270403Y-55129223D01*
X109910451Y-54699129D01*
X110616553Y-54389171D01*
X111371457Y-54207935D01*
X112024207Y-54160000D01*
X116973639Y-54160000D01*
X117026377Y-54246196D01*
%TD*%
M02*
