%TF.GenerationSoftware,KiCad,Pcbnew,(5.1.6)-1*%
%TF.CreationDate,2020-06-17T13:40:15+01:00*%
%TF.ProjectId,peltier_driver_pcb,70656c74-6965-4725-9f64-72697665725f,rev?*%
%TF.SameCoordinates,Original*%
%TF.FileFunction,Legend,Top*%
%TF.FilePolarity,Positive*%
%FSLAX46Y46*%
G04 Gerber Fmt 4.6, Leading zero omitted, Abs format (unit mm)*
G04 Created by KiCad (PCBNEW (5.1.6)-1) date 2020-06-17 13:40:15*
%MOMM*%
%LPD*%
G01*
G04 APERTURE LIST*
%ADD10C,0.100000*%
%ADD11C,0.125000*%
%ADD12C,0.600000*%
%ADD13C,0.120000*%
%ADD14C,0.150000*%
G04 APERTURE END LIST*
D10*
X114659047Y-81250000D02*
X114611428Y-81226190D01*
X114540000Y-81226190D01*
X114468571Y-81250000D01*
X114420952Y-81297619D01*
X114397142Y-81345238D01*
X114373333Y-81440476D01*
X114373333Y-81511904D01*
X114397142Y-81607142D01*
X114420952Y-81654761D01*
X114468571Y-81702380D01*
X114540000Y-81726190D01*
X114587619Y-81726190D01*
X114659047Y-81702380D01*
X114682857Y-81678571D01*
X114682857Y-81511904D01*
X114587619Y-81511904D01*
X114897142Y-81726190D02*
X114897142Y-81226190D01*
X115182857Y-81726190D01*
X115182857Y-81226190D01*
X115420952Y-81726190D02*
X115420952Y-81226190D01*
X115540000Y-81226190D01*
X115611428Y-81250000D01*
X115659047Y-81297619D01*
X115682857Y-81345238D01*
X115706666Y-81440476D01*
X115706666Y-81511904D01*
X115682857Y-81607142D01*
X115659047Y-81654761D01*
X115611428Y-81702380D01*
X115540000Y-81726190D01*
X115420952Y-81726190D01*
X107050952Y-71566190D02*
X107050952Y-71066190D01*
X107170000Y-71066190D01*
X107241428Y-71090000D01*
X107289047Y-71137619D01*
X107312857Y-71185238D01*
X107336666Y-71280476D01*
X107336666Y-71351904D01*
X107312857Y-71447142D01*
X107289047Y-71494761D01*
X107241428Y-71542380D01*
X107170000Y-71566190D01*
X107050952Y-71566190D01*
X107646190Y-71066190D02*
X107693809Y-71066190D01*
X107741428Y-71090000D01*
X107765238Y-71113809D01*
X107789047Y-71161428D01*
X107812857Y-71256666D01*
X107812857Y-71375714D01*
X107789047Y-71470952D01*
X107765238Y-71518571D01*
X107741428Y-71542380D01*
X107693809Y-71566190D01*
X107646190Y-71566190D01*
X107598571Y-71542380D01*
X107574761Y-71518571D01*
X107550952Y-71470952D01*
X107527142Y-71375714D01*
X107527142Y-71256666D01*
X107550952Y-71161428D01*
X107574761Y-71113809D01*
X107598571Y-71090000D01*
X107646190Y-71066190D01*
X107050952Y-74106190D02*
X107050952Y-73606190D01*
X107170000Y-73606190D01*
X107241428Y-73630000D01*
X107289047Y-73677619D01*
X107312857Y-73725238D01*
X107336666Y-73820476D01*
X107336666Y-73891904D01*
X107312857Y-73987142D01*
X107289047Y-74034761D01*
X107241428Y-74082380D01*
X107170000Y-74106190D01*
X107050952Y-74106190D01*
X107812857Y-74106190D02*
X107527142Y-74106190D01*
X107670000Y-74106190D02*
X107670000Y-73606190D01*
X107622380Y-73677619D01*
X107574761Y-73725238D01*
X107527142Y-73749047D01*
X107050952Y-76646190D02*
X107050952Y-76146190D01*
X107170000Y-76146190D01*
X107241428Y-76170000D01*
X107289047Y-76217619D01*
X107312857Y-76265238D01*
X107336666Y-76360476D01*
X107336666Y-76431904D01*
X107312857Y-76527142D01*
X107289047Y-76574761D01*
X107241428Y-76622380D01*
X107170000Y-76646190D01*
X107050952Y-76646190D01*
X107527142Y-76193809D02*
X107550952Y-76170000D01*
X107598571Y-76146190D01*
X107717619Y-76146190D01*
X107765238Y-76170000D01*
X107789047Y-76193809D01*
X107812857Y-76241428D01*
X107812857Y-76289047D01*
X107789047Y-76360476D01*
X107503333Y-76646190D01*
X107812857Y-76646190D01*
X106479523Y-79186190D02*
X106479523Y-78686190D01*
X106670000Y-78686190D01*
X106717619Y-78710000D01*
X106741428Y-78733809D01*
X106765238Y-78781428D01*
X106765238Y-78852857D01*
X106741428Y-78900476D01*
X106717619Y-78924285D01*
X106670000Y-78948095D01*
X106479523Y-78948095D01*
X106931904Y-78686190D02*
X107050952Y-79186190D01*
X107146190Y-78829047D01*
X107241428Y-79186190D01*
X107360476Y-78686190D01*
X107550952Y-79186190D02*
X107550952Y-78686190D01*
X107717619Y-79043333D01*
X107884285Y-78686190D01*
X107884285Y-79186190D01*
X108217619Y-78686190D02*
X108265238Y-78686190D01*
X108312857Y-78710000D01*
X108336666Y-78733809D01*
X108360476Y-78781428D01*
X108384285Y-78876666D01*
X108384285Y-78995714D01*
X108360476Y-79090952D01*
X108336666Y-79138571D01*
X108312857Y-79162380D01*
X108265238Y-79186190D01*
X108217619Y-79186190D01*
X108170000Y-79162380D01*
X108146190Y-79138571D01*
X108122380Y-79090952D01*
X108098571Y-78995714D01*
X108098571Y-78876666D01*
X108122380Y-78781428D01*
X108146190Y-78733809D01*
X108170000Y-78710000D01*
X108217619Y-78686190D01*
X106479523Y-81726190D02*
X106479523Y-81226190D01*
X106670000Y-81226190D01*
X106717619Y-81250000D01*
X106741428Y-81273809D01*
X106765238Y-81321428D01*
X106765238Y-81392857D01*
X106741428Y-81440476D01*
X106717619Y-81464285D01*
X106670000Y-81488095D01*
X106479523Y-81488095D01*
X106931904Y-81226190D02*
X107050952Y-81726190D01*
X107146190Y-81369047D01*
X107241428Y-81726190D01*
X107360476Y-81226190D01*
X107550952Y-81726190D02*
X107550952Y-81226190D01*
X107717619Y-81583333D01*
X107884285Y-81226190D01*
X107884285Y-81726190D01*
X108384285Y-81726190D02*
X108098571Y-81726190D01*
X108241428Y-81726190D02*
X108241428Y-81226190D01*
X108193809Y-81297619D01*
X108146190Y-81345238D01*
X108098571Y-81369047D01*
X107062857Y-61263333D02*
X107300952Y-61263333D01*
X107015238Y-61406190D02*
X107181904Y-60906190D01*
X107348571Y-61406190D01*
X107777142Y-61406190D02*
X107491428Y-61406190D01*
X107634285Y-61406190D02*
X107634285Y-60906190D01*
X107586666Y-60977619D01*
X107539047Y-61025238D01*
X107491428Y-61049047D01*
X107062857Y-58723333D02*
X107300952Y-58723333D01*
X107015238Y-58866190D02*
X107181904Y-58366190D01*
X107348571Y-58866190D01*
X107610476Y-58366190D02*
X107658095Y-58366190D01*
X107705714Y-58390000D01*
X107729523Y-58413809D01*
X107753333Y-58461428D01*
X107777142Y-58556666D01*
X107777142Y-58675714D01*
X107753333Y-58770952D01*
X107729523Y-58818571D01*
X107705714Y-58842380D01*
X107658095Y-58866190D01*
X107610476Y-58866190D01*
X107562857Y-58842380D01*
X107539047Y-58818571D01*
X107515238Y-58770952D01*
X107491428Y-58675714D01*
X107491428Y-58556666D01*
X107515238Y-58461428D01*
X107539047Y-58413809D01*
X107562857Y-58390000D01*
X107610476Y-58366190D01*
X114944761Y-78686190D02*
X114706666Y-78686190D01*
X114682857Y-78924285D01*
X114706666Y-78900476D01*
X114754285Y-78876666D01*
X114873333Y-78876666D01*
X114920952Y-78900476D01*
X114944761Y-78924285D01*
X114968571Y-78971904D01*
X114968571Y-79090952D01*
X114944761Y-79138571D01*
X114920952Y-79162380D01*
X114873333Y-79186190D01*
X114754285Y-79186190D01*
X114706666Y-79162380D01*
X114682857Y-79138571D01*
X115111428Y-78686190D02*
X115278095Y-79186190D01*
X115444761Y-78686190D01*
X114468571Y-73606190D02*
X114754285Y-73606190D01*
X114611428Y-74106190D02*
X114611428Y-73606190D01*
X114801904Y-74153809D02*
X115182857Y-74153809D01*
X115563809Y-74106190D02*
X115278095Y-74106190D01*
X115420952Y-74106190D02*
X115420952Y-73606190D01*
X115373333Y-73677619D01*
X115325714Y-73725238D01*
X115278095Y-73749047D01*
X114611428Y-71566190D02*
X114611428Y-71066190D01*
X114730476Y-71613809D02*
X115111428Y-71613809D01*
X115492380Y-71566190D02*
X115206666Y-71566190D01*
X115349523Y-71566190D02*
X115349523Y-71066190D01*
X115301904Y-71137619D01*
X115254285Y-71185238D01*
X115206666Y-71209047D01*
X114444761Y-69002380D02*
X114516190Y-69026190D01*
X114635238Y-69026190D01*
X114682857Y-69002380D01*
X114706666Y-68978571D01*
X114730476Y-68930952D01*
X114730476Y-68883333D01*
X114706666Y-68835714D01*
X114682857Y-68811904D01*
X114635238Y-68788095D01*
X114540000Y-68764285D01*
X114492380Y-68740476D01*
X114468571Y-68716666D01*
X114444761Y-68669047D01*
X114444761Y-68621428D01*
X114468571Y-68573809D01*
X114492380Y-68550000D01*
X114540000Y-68526190D01*
X114659047Y-68526190D01*
X114730476Y-68550000D01*
X115230476Y-68978571D02*
X115206666Y-69002380D01*
X115135238Y-69026190D01*
X115087619Y-69026190D01*
X115016190Y-69002380D01*
X114968571Y-68954761D01*
X114944761Y-68907142D01*
X114920952Y-68811904D01*
X114920952Y-68740476D01*
X114944761Y-68645238D01*
X114968571Y-68597619D01*
X115016190Y-68550000D01*
X115087619Y-68526190D01*
X115135238Y-68526190D01*
X115206666Y-68550000D01*
X115230476Y-68573809D01*
X115682857Y-69026190D02*
X115444761Y-69026190D01*
X115444761Y-68526190D01*
X114432857Y-66462380D02*
X114504285Y-66486190D01*
X114623333Y-66486190D01*
X114670952Y-66462380D01*
X114694761Y-66438571D01*
X114718571Y-66390952D01*
X114718571Y-66343333D01*
X114694761Y-66295714D01*
X114670952Y-66271904D01*
X114623333Y-66248095D01*
X114528095Y-66224285D01*
X114480476Y-66200476D01*
X114456666Y-66176666D01*
X114432857Y-66129047D01*
X114432857Y-66081428D01*
X114456666Y-66033809D01*
X114480476Y-66010000D01*
X114528095Y-65986190D01*
X114647142Y-65986190D01*
X114718571Y-66010000D01*
X114932857Y-66486190D02*
X114932857Y-65986190D01*
X115051904Y-65986190D01*
X115123333Y-66010000D01*
X115170952Y-66057619D01*
X115194761Y-66105238D01*
X115218571Y-66200476D01*
X115218571Y-66271904D01*
X115194761Y-66367142D01*
X115170952Y-66414761D01*
X115123333Y-66462380D01*
X115051904Y-66486190D01*
X114932857Y-66486190D01*
X115409047Y-66343333D02*
X115647142Y-66343333D01*
X115361428Y-66486190D02*
X115528095Y-65986190D01*
X115694761Y-66486190D01*
X114420952Y-63446190D02*
X114730476Y-63446190D01*
X114563809Y-63636666D01*
X114635238Y-63636666D01*
X114682857Y-63660476D01*
X114706666Y-63684285D01*
X114730476Y-63731904D01*
X114730476Y-63850952D01*
X114706666Y-63898571D01*
X114682857Y-63922380D01*
X114635238Y-63946190D01*
X114492380Y-63946190D01*
X114444761Y-63922380D01*
X114420952Y-63898571D01*
X114873333Y-63446190D02*
X115040000Y-63946190D01*
X115206666Y-63446190D01*
X115325714Y-63446190D02*
X115635238Y-63446190D01*
X115468571Y-63636666D01*
X115540000Y-63636666D01*
X115587619Y-63660476D01*
X115611428Y-63684285D01*
X115635238Y-63731904D01*
X115635238Y-63850952D01*
X115611428Y-63898571D01*
X115587619Y-63922380D01*
X115540000Y-63946190D01*
X115397142Y-63946190D01*
X115349523Y-63922380D01*
X115325714Y-63898571D01*
X114468571Y-60906190D02*
X114754285Y-60906190D01*
X114611428Y-61406190D02*
X114611428Y-60906190D01*
X114801904Y-61453809D02*
X115182857Y-61453809D01*
X115278095Y-60953809D02*
X115301904Y-60930000D01*
X115349523Y-60906190D01*
X115468571Y-60906190D01*
X115516190Y-60930000D01*
X115540000Y-60953809D01*
X115563809Y-61001428D01*
X115563809Y-61049047D01*
X115540000Y-61120476D01*
X115254285Y-61406190D01*
X115563809Y-61406190D01*
X114611428Y-58866190D02*
X114611428Y-58366190D01*
X114730476Y-58913809D02*
X115111428Y-58913809D01*
X115206666Y-58413809D02*
X115230476Y-58390000D01*
X115278095Y-58366190D01*
X115397142Y-58366190D01*
X115444761Y-58390000D01*
X115468571Y-58413809D01*
X115492380Y-58461428D01*
X115492380Y-58509047D01*
X115468571Y-58580476D01*
X115182857Y-58866190D01*
X115492380Y-58866190D01*
X157612857Y-81726190D02*
X157612857Y-81226190D01*
X157731904Y-81226190D01*
X157803333Y-81250000D01*
X157850952Y-81297619D01*
X157874761Y-81345238D01*
X157898571Y-81440476D01*
X157898571Y-81511904D01*
X157874761Y-81607142D01*
X157850952Y-81654761D01*
X157803333Y-81702380D01*
X157731904Y-81726190D01*
X157612857Y-81726190D01*
X158374761Y-81726190D02*
X158089047Y-81726190D01*
X158231904Y-81726190D02*
X158231904Y-81226190D01*
X158184285Y-81297619D01*
X158136666Y-81345238D01*
X158089047Y-81369047D01*
X158541428Y-81226190D02*
X158850952Y-81226190D01*
X158684285Y-81416666D01*
X158755714Y-81416666D01*
X158803333Y-81440476D01*
X158827142Y-81464285D01*
X158850952Y-81511904D01*
X158850952Y-81630952D01*
X158827142Y-81678571D01*
X158803333Y-81702380D01*
X158755714Y-81726190D01*
X158612857Y-81726190D01*
X158565238Y-81702380D01*
X158541428Y-81678571D01*
X157612857Y-79186190D02*
X157612857Y-78686190D01*
X157731904Y-78686190D01*
X157803333Y-78710000D01*
X157850952Y-78757619D01*
X157874761Y-78805238D01*
X157898571Y-78900476D01*
X157898571Y-78971904D01*
X157874761Y-79067142D01*
X157850952Y-79114761D01*
X157803333Y-79162380D01*
X157731904Y-79186190D01*
X157612857Y-79186190D01*
X158374761Y-79186190D02*
X158089047Y-79186190D01*
X158231904Y-79186190D02*
X158231904Y-78686190D01*
X158184285Y-78757619D01*
X158136666Y-78805238D01*
X158089047Y-78829047D01*
X158565238Y-78733809D02*
X158589047Y-78710000D01*
X158636666Y-78686190D01*
X158755714Y-78686190D01*
X158803333Y-78710000D01*
X158827142Y-78733809D01*
X158850952Y-78781428D01*
X158850952Y-78829047D01*
X158827142Y-78900476D01*
X158541428Y-79186190D01*
X158850952Y-79186190D01*
X157279523Y-76646190D02*
X157279523Y-76146190D01*
X157470000Y-76146190D01*
X157517619Y-76170000D01*
X157541428Y-76193809D01*
X157565238Y-76241428D01*
X157565238Y-76312857D01*
X157541428Y-76360476D01*
X157517619Y-76384285D01*
X157470000Y-76408095D01*
X157279523Y-76408095D01*
X157731904Y-76146190D02*
X157850952Y-76646190D01*
X157946190Y-76289047D01*
X158041428Y-76646190D01*
X158160476Y-76146190D01*
X158350952Y-76646190D02*
X158350952Y-76146190D01*
X158517619Y-76503333D01*
X158684285Y-76146190D01*
X158684285Y-76646190D01*
X159160476Y-76146190D02*
X158922380Y-76146190D01*
X158898571Y-76384285D01*
X158922380Y-76360476D01*
X158970000Y-76336666D01*
X159089047Y-76336666D01*
X159136666Y-76360476D01*
X159160476Y-76384285D01*
X159184285Y-76431904D01*
X159184285Y-76550952D01*
X159160476Y-76598571D01*
X159136666Y-76622380D01*
X159089047Y-76646190D01*
X158970000Y-76646190D01*
X158922380Y-76622380D01*
X158898571Y-76598571D01*
X157279523Y-74106190D02*
X157279523Y-73606190D01*
X157470000Y-73606190D01*
X157517619Y-73630000D01*
X157541428Y-73653809D01*
X157565238Y-73701428D01*
X157565238Y-73772857D01*
X157541428Y-73820476D01*
X157517619Y-73844285D01*
X157470000Y-73868095D01*
X157279523Y-73868095D01*
X157731904Y-73606190D02*
X157850952Y-74106190D01*
X157946190Y-73749047D01*
X158041428Y-74106190D01*
X158160476Y-73606190D01*
X158350952Y-74106190D02*
X158350952Y-73606190D01*
X158517619Y-73963333D01*
X158684285Y-73606190D01*
X158684285Y-74106190D01*
X159136666Y-73772857D02*
X159136666Y-74106190D01*
X159017619Y-73582380D02*
X158898571Y-73939523D01*
X159208095Y-73939523D01*
X157279523Y-71566190D02*
X157279523Y-71066190D01*
X157470000Y-71066190D01*
X157517619Y-71090000D01*
X157541428Y-71113809D01*
X157565238Y-71161428D01*
X157565238Y-71232857D01*
X157541428Y-71280476D01*
X157517619Y-71304285D01*
X157470000Y-71328095D01*
X157279523Y-71328095D01*
X157731904Y-71066190D02*
X157850952Y-71566190D01*
X157946190Y-71209047D01*
X158041428Y-71566190D01*
X158160476Y-71066190D01*
X158350952Y-71566190D02*
X158350952Y-71066190D01*
X158517619Y-71423333D01*
X158684285Y-71066190D01*
X158684285Y-71566190D01*
X158874761Y-71066190D02*
X159184285Y-71066190D01*
X159017619Y-71256666D01*
X159089047Y-71256666D01*
X159136666Y-71280476D01*
X159160476Y-71304285D01*
X159184285Y-71351904D01*
X159184285Y-71470952D01*
X159160476Y-71518571D01*
X159136666Y-71542380D01*
X159089047Y-71566190D01*
X158946190Y-71566190D01*
X158898571Y-71542380D01*
X158874761Y-71518571D01*
X157850952Y-69026190D02*
X157850952Y-68526190D01*
X157970000Y-68526190D01*
X158041428Y-68550000D01*
X158089047Y-68597619D01*
X158112857Y-68645238D01*
X158136666Y-68740476D01*
X158136666Y-68811904D01*
X158112857Y-68907142D01*
X158089047Y-68954761D01*
X158041428Y-69002380D01*
X157970000Y-69026190D01*
X157850952Y-69026190D01*
X158422380Y-68740476D02*
X158374761Y-68716666D01*
X158350952Y-68692857D01*
X158327142Y-68645238D01*
X158327142Y-68621428D01*
X158350952Y-68573809D01*
X158374761Y-68550000D01*
X158422380Y-68526190D01*
X158517619Y-68526190D01*
X158565238Y-68550000D01*
X158589047Y-68573809D01*
X158612857Y-68621428D01*
X158612857Y-68645238D01*
X158589047Y-68692857D01*
X158565238Y-68716666D01*
X158517619Y-68740476D01*
X158422380Y-68740476D01*
X158374761Y-68764285D01*
X158350952Y-68788095D01*
X158327142Y-68835714D01*
X158327142Y-68930952D01*
X158350952Y-68978571D01*
X158374761Y-69002380D01*
X158422380Y-69026190D01*
X158517619Y-69026190D01*
X158565238Y-69002380D01*
X158589047Y-68978571D01*
X158612857Y-68930952D01*
X158612857Y-68835714D01*
X158589047Y-68788095D01*
X158565238Y-68764285D01*
X158517619Y-68740476D01*
X157850952Y-66486190D02*
X157850952Y-65986190D01*
X157970000Y-65986190D01*
X158041428Y-66010000D01*
X158089047Y-66057619D01*
X158112857Y-66105238D01*
X158136666Y-66200476D01*
X158136666Y-66271904D01*
X158112857Y-66367142D01*
X158089047Y-66414761D01*
X158041428Y-66462380D01*
X157970000Y-66486190D01*
X157850952Y-66486190D01*
X158303333Y-65986190D02*
X158636666Y-65986190D01*
X158422380Y-66486190D01*
X157850952Y-61406190D02*
X157850952Y-60906190D01*
X157970000Y-60906190D01*
X158041428Y-60930000D01*
X158089047Y-60977619D01*
X158112857Y-61025238D01*
X158136666Y-61120476D01*
X158136666Y-61191904D01*
X158112857Y-61287142D01*
X158089047Y-61334761D01*
X158041428Y-61382380D01*
X157970000Y-61406190D01*
X157850952Y-61406190D01*
X158565238Y-61072857D02*
X158565238Y-61406190D01*
X158446190Y-60882380D02*
X158327142Y-61239523D01*
X158636666Y-61239523D01*
X157279523Y-63946190D02*
X157279523Y-63446190D01*
X157470000Y-63446190D01*
X157517619Y-63470000D01*
X157541428Y-63493809D01*
X157565238Y-63541428D01*
X157565238Y-63612857D01*
X157541428Y-63660476D01*
X157517619Y-63684285D01*
X157470000Y-63708095D01*
X157279523Y-63708095D01*
X157731904Y-63446190D02*
X157850952Y-63946190D01*
X157946190Y-63589047D01*
X158041428Y-63946190D01*
X158160476Y-63446190D01*
X158350952Y-63946190D02*
X158350952Y-63446190D01*
X158517619Y-63803333D01*
X158684285Y-63446190D01*
X158684285Y-63946190D01*
X158898571Y-63493809D02*
X158922380Y-63470000D01*
X158970000Y-63446190D01*
X159089047Y-63446190D01*
X159136666Y-63470000D01*
X159160476Y-63493809D01*
X159184285Y-63541428D01*
X159184285Y-63589047D01*
X159160476Y-63660476D01*
X158874761Y-63946190D01*
X159184285Y-63946190D01*
X152359333Y-55611904D02*
X152359333Y-54811904D01*
X152664095Y-54811904D01*
X152740285Y-54850000D01*
X152778380Y-54888095D01*
X152816476Y-54964285D01*
X152816476Y-55078571D01*
X152778380Y-55154761D01*
X152740285Y-55192857D01*
X152664095Y-55230952D01*
X152359333Y-55230952D01*
X153083142Y-54811904D02*
X153273619Y-55611904D01*
X153426000Y-55040476D01*
X153578380Y-55611904D01*
X153768857Y-54811904D01*
X154530761Y-55611904D02*
X154264095Y-55230952D01*
X154073619Y-55611904D02*
X154073619Y-54811904D01*
X154378380Y-54811904D01*
X154454571Y-54850000D01*
X154492666Y-54888095D01*
X154530761Y-54964285D01*
X154530761Y-55078571D01*
X154492666Y-55154761D01*
X154454571Y-55192857D01*
X154378380Y-55230952D01*
X154073619Y-55230952D01*
D11*
X147019857Y-61685190D02*
X147329380Y-61685190D01*
X147162714Y-61875666D01*
X147234142Y-61875666D01*
X147281761Y-61899476D01*
X147305571Y-61923285D01*
X147329380Y-61970904D01*
X147329380Y-62089952D01*
X147305571Y-62137571D01*
X147281761Y-62161380D01*
X147234142Y-62185190D01*
X147091285Y-62185190D01*
X147043666Y-62161380D01*
X147019857Y-62137571D01*
X147638904Y-61685190D02*
X147686523Y-61685190D01*
X147734142Y-61709000D01*
X147757952Y-61732809D01*
X147781761Y-61780428D01*
X147805571Y-61875666D01*
X147805571Y-61994714D01*
X147781761Y-62089952D01*
X147757952Y-62137571D01*
X147734142Y-62161380D01*
X147686523Y-62185190D01*
X147638904Y-62185190D01*
X147591285Y-62161380D01*
X147567476Y-62137571D01*
X147543666Y-62089952D01*
X147519857Y-61994714D01*
X147519857Y-61875666D01*
X147543666Y-61780428D01*
X147567476Y-61732809D01*
X147591285Y-61709000D01*
X147638904Y-61685190D01*
X148019857Y-62185190D02*
X148019857Y-61685190D01*
X148067476Y-61994714D02*
X148210333Y-62185190D01*
X148210333Y-61851857D02*
X148019857Y-62042333D01*
X146892857Y-63590190D02*
X147202380Y-63590190D01*
X147035714Y-63780666D01*
X147107142Y-63780666D01*
X147154761Y-63804476D01*
X147178571Y-63828285D01*
X147202380Y-63875904D01*
X147202380Y-63994952D01*
X147178571Y-64042571D01*
X147154761Y-64066380D01*
X147107142Y-64090190D01*
X146964285Y-64090190D01*
X146916666Y-64066380D01*
X146892857Y-64042571D01*
X147511904Y-63590190D02*
X147559523Y-63590190D01*
X147607142Y-63614000D01*
X147630952Y-63637809D01*
X147654761Y-63685428D01*
X147678571Y-63780666D01*
X147678571Y-63899714D01*
X147654761Y-63994952D01*
X147630952Y-64042571D01*
X147607142Y-64066380D01*
X147559523Y-64090190D01*
X147511904Y-64090190D01*
X147464285Y-64066380D01*
X147440476Y-64042571D01*
X147416666Y-63994952D01*
X147392857Y-63899714D01*
X147392857Y-63780666D01*
X147416666Y-63685428D01*
X147440476Y-63637809D01*
X147464285Y-63614000D01*
X147511904Y-63590190D01*
X147892857Y-64090190D02*
X147892857Y-63590190D01*
X147940476Y-63899714D02*
X148083333Y-64090190D01*
X148083333Y-63756857D02*
X147892857Y-63947333D01*
X147908857Y-70575190D02*
X148218380Y-70575190D01*
X148051714Y-70765666D01*
X148123142Y-70765666D01*
X148170761Y-70789476D01*
X148194571Y-70813285D01*
X148218380Y-70860904D01*
X148218380Y-70979952D01*
X148194571Y-71027571D01*
X148170761Y-71051380D01*
X148123142Y-71075190D01*
X147980285Y-71075190D01*
X147932666Y-71051380D01*
X147908857Y-71027571D01*
X148527904Y-70575190D02*
X148575523Y-70575190D01*
X148623142Y-70599000D01*
X148646952Y-70622809D01*
X148670761Y-70670428D01*
X148694571Y-70765666D01*
X148694571Y-70884714D01*
X148670761Y-70979952D01*
X148646952Y-71027571D01*
X148623142Y-71051380D01*
X148575523Y-71075190D01*
X148527904Y-71075190D01*
X148480285Y-71051380D01*
X148456476Y-71027571D01*
X148432666Y-70979952D01*
X148408857Y-70884714D01*
X148408857Y-70765666D01*
X148432666Y-70670428D01*
X148456476Y-70622809D01*
X148480285Y-70599000D01*
X148527904Y-70575190D01*
X148908857Y-71075190D02*
X148908857Y-70575190D01*
X148956476Y-70884714D02*
X149099333Y-71075190D01*
X149099333Y-70741857D02*
X148908857Y-70932333D01*
X149940857Y-69940190D02*
X150250380Y-69940190D01*
X150083714Y-70130666D01*
X150155142Y-70130666D01*
X150202761Y-70154476D01*
X150226571Y-70178285D01*
X150250380Y-70225904D01*
X150250380Y-70344952D01*
X150226571Y-70392571D01*
X150202761Y-70416380D01*
X150155142Y-70440190D01*
X150012285Y-70440190D01*
X149964666Y-70416380D01*
X149940857Y-70392571D01*
X150559904Y-69940190D02*
X150607523Y-69940190D01*
X150655142Y-69964000D01*
X150678952Y-69987809D01*
X150702761Y-70035428D01*
X150726571Y-70130666D01*
X150726571Y-70249714D01*
X150702761Y-70344952D01*
X150678952Y-70392571D01*
X150655142Y-70416380D01*
X150607523Y-70440190D01*
X150559904Y-70440190D01*
X150512285Y-70416380D01*
X150488476Y-70392571D01*
X150464666Y-70344952D01*
X150440857Y-70249714D01*
X150440857Y-70130666D01*
X150464666Y-70035428D01*
X150488476Y-69987809D01*
X150512285Y-69964000D01*
X150559904Y-69940190D01*
X150940857Y-70440190D02*
X150940857Y-69940190D01*
X150988476Y-70249714D02*
X151131333Y-70440190D01*
X151131333Y-70106857D02*
X150940857Y-70297333D01*
X144860857Y-74766190D02*
X145170380Y-74766190D01*
X145003714Y-74956666D01*
X145075142Y-74956666D01*
X145122761Y-74980476D01*
X145146571Y-75004285D01*
X145170380Y-75051904D01*
X145170380Y-75170952D01*
X145146571Y-75218571D01*
X145122761Y-75242380D01*
X145075142Y-75266190D01*
X144932285Y-75266190D01*
X144884666Y-75242380D01*
X144860857Y-75218571D01*
X145479904Y-74766190D02*
X145527523Y-74766190D01*
X145575142Y-74790000D01*
X145598952Y-74813809D01*
X145622761Y-74861428D01*
X145646571Y-74956666D01*
X145646571Y-75075714D01*
X145622761Y-75170952D01*
X145598952Y-75218571D01*
X145575142Y-75242380D01*
X145527523Y-75266190D01*
X145479904Y-75266190D01*
X145432285Y-75242380D01*
X145408476Y-75218571D01*
X145384666Y-75170952D01*
X145360857Y-75075714D01*
X145360857Y-74956666D01*
X145384666Y-74861428D01*
X145408476Y-74813809D01*
X145432285Y-74790000D01*
X145479904Y-74766190D01*
X145860857Y-75266190D02*
X145860857Y-74766190D01*
X145908476Y-75075714D02*
X146051333Y-75266190D01*
X146051333Y-74932857D02*
X145860857Y-75123333D01*
X141431857Y-74766190D02*
X141741380Y-74766190D01*
X141574714Y-74956666D01*
X141646142Y-74956666D01*
X141693761Y-74980476D01*
X141717571Y-75004285D01*
X141741380Y-75051904D01*
X141741380Y-75170952D01*
X141717571Y-75218571D01*
X141693761Y-75242380D01*
X141646142Y-75266190D01*
X141503285Y-75266190D01*
X141455666Y-75242380D01*
X141431857Y-75218571D01*
X142050904Y-74766190D02*
X142098523Y-74766190D01*
X142146142Y-74790000D01*
X142169952Y-74813809D01*
X142193761Y-74861428D01*
X142217571Y-74956666D01*
X142217571Y-75075714D01*
X142193761Y-75170952D01*
X142169952Y-75218571D01*
X142146142Y-75242380D01*
X142098523Y-75266190D01*
X142050904Y-75266190D01*
X142003285Y-75242380D01*
X141979476Y-75218571D01*
X141955666Y-75170952D01*
X141931857Y-75075714D01*
X141931857Y-74956666D01*
X141955666Y-74861428D01*
X141979476Y-74813809D01*
X142003285Y-74790000D01*
X142050904Y-74766190D01*
X142431857Y-75266190D02*
X142431857Y-74766190D01*
X142479476Y-75075714D02*
X142622333Y-75266190D01*
X142622333Y-74932857D02*
X142431857Y-75123333D01*
X126231571Y-74639190D02*
X126279190Y-74639190D01*
X126326809Y-74663000D01*
X126350619Y-74686809D01*
X126374428Y-74734428D01*
X126398238Y-74829666D01*
X126398238Y-74948714D01*
X126374428Y-75043952D01*
X126350619Y-75091571D01*
X126326809Y-75115380D01*
X126279190Y-75139190D01*
X126231571Y-75139190D01*
X126183952Y-75115380D01*
X126160142Y-75091571D01*
X126136333Y-75043952D01*
X126112523Y-74948714D01*
X126112523Y-74829666D01*
X126136333Y-74734428D01*
X126160142Y-74686809D01*
X126183952Y-74663000D01*
X126231571Y-74639190D01*
X126612523Y-75091571D02*
X126636333Y-75115380D01*
X126612523Y-75139190D01*
X126588714Y-75115380D01*
X126612523Y-75091571D01*
X126612523Y-75139190D01*
X127112523Y-75139190D02*
X126826809Y-75139190D01*
X126969666Y-75139190D02*
X126969666Y-74639190D01*
X126922047Y-74710619D01*
X126874428Y-74758238D01*
X126826809Y-74782047D01*
X127541095Y-74805857D02*
X127541095Y-75139190D01*
X127326809Y-74805857D02*
X127326809Y-75067761D01*
X127350619Y-75115380D01*
X127398238Y-75139190D01*
X127469666Y-75139190D01*
X127517285Y-75115380D01*
X127541095Y-75091571D01*
X127945857Y-74877285D02*
X127779190Y-74877285D01*
X127779190Y-75139190D02*
X127779190Y-74639190D01*
X128017285Y-74639190D01*
X136645571Y-68797190D02*
X136693190Y-68797190D01*
X136740809Y-68821000D01*
X136764619Y-68844809D01*
X136788428Y-68892428D01*
X136812238Y-68987666D01*
X136812238Y-69106714D01*
X136788428Y-69201952D01*
X136764619Y-69249571D01*
X136740809Y-69273380D01*
X136693190Y-69297190D01*
X136645571Y-69297190D01*
X136597952Y-69273380D01*
X136574142Y-69249571D01*
X136550333Y-69201952D01*
X136526523Y-69106714D01*
X136526523Y-68987666D01*
X136550333Y-68892428D01*
X136574142Y-68844809D01*
X136597952Y-68821000D01*
X136645571Y-68797190D01*
X137026523Y-69249571D02*
X137050333Y-69273380D01*
X137026523Y-69297190D01*
X137002714Y-69273380D01*
X137026523Y-69249571D01*
X137026523Y-69297190D01*
X137526523Y-69297190D02*
X137240809Y-69297190D01*
X137383666Y-69297190D02*
X137383666Y-68797190D01*
X137336047Y-68868619D01*
X137288428Y-68916238D01*
X137240809Y-68940047D01*
X137955095Y-68963857D02*
X137955095Y-69297190D01*
X137740809Y-68963857D02*
X137740809Y-69225761D01*
X137764619Y-69273380D01*
X137812238Y-69297190D01*
X137883666Y-69297190D01*
X137931285Y-69273380D01*
X137955095Y-69249571D01*
X138359857Y-69035285D02*
X138193190Y-69035285D01*
X138193190Y-69297190D02*
X138193190Y-68797190D01*
X138431285Y-68797190D01*
X117063714Y-63375857D02*
X117063714Y-63709190D01*
X116944666Y-63185380D02*
X116825619Y-63542523D01*
X117135142Y-63542523D01*
X117325619Y-63661571D02*
X117349428Y-63685380D01*
X117325619Y-63709190D01*
X117301809Y-63685380D01*
X117325619Y-63661571D01*
X117325619Y-63709190D01*
X117516095Y-63209190D02*
X117849428Y-63209190D01*
X117635142Y-63709190D01*
X118039904Y-63709190D02*
X118039904Y-63209190D01*
X118087523Y-63518714D02*
X118230380Y-63709190D01*
X118230380Y-63375857D02*
X118039904Y-63566333D01*
X117317714Y-67566857D02*
X117317714Y-67900190D01*
X117198666Y-67376380D02*
X117079619Y-67733523D01*
X117389142Y-67733523D01*
X117579619Y-67852571D02*
X117603428Y-67876380D01*
X117579619Y-67900190D01*
X117555809Y-67876380D01*
X117579619Y-67852571D01*
X117579619Y-67900190D01*
X117770095Y-67400190D02*
X118103428Y-67400190D01*
X117889142Y-67900190D01*
X118293904Y-67900190D02*
X118293904Y-67400190D01*
X118341523Y-67709714D02*
X118484380Y-67900190D01*
X118484380Y-67566857D02*
X118293904Y-67757333D01*
D10*
X126800285Y-65859904D02*
X126800285Y-65059904D01*
X126990761Y-65936095D02*
X127600285Y-65936095D01*
X127752666Y-65136095D02*
X127790761Y-65098000D01*
X127866952Y-65059904D01*
X128057428Y-65059904D01*
X128133619Y-65098000D01*
X128171714Y-65136095D01*
X128209809Y-65212285D01*
X128209809Y-65288476D01*
X128171714Y-65402761D01*
X127714571Y-65859904D01*
X128209809Y-65859904D01*
X136198285Y-73225904D02*
X136198285Y-72425904D01*
X136388761Y-73302095D02*
X136998285Y-73302095D01*
X137607809Y-73225904D02*
X137150666Y-73225904D01*
X137379238Y-73225904D02*
X137379238Y-72425904D01*
X137303047Y-72540190D01*
X137226857Y-72616380D01*
X137150666Y-72654476D01*
D12*
X121961619Y-61612571D02*
X123866380Y-61612571D01*
X139995619Y-61612571D02*
X141900380Y-61612571D01*
X140948000Y-62564952D02*
X140948000Y-60660190D01*
X121707619Y-56278571D02*
X123612380Y-56278571D01*
X122660000Y-57230952D02*
X122660000Y-55326190D01*
X139995619Y-56278571D02*
X141900380Y-56278571D01*
X122469619Y-83456571D02*
X124374380Y-83456571D01*
X140249619Y-78122571D02*
X142154380Y-78122571D01*
X122215619Y-77868571D02*
X124120380Y-77868571D01*
X123168000Y-78820952D02*
X123168000Y-76916190D01*
X140503619Y-83710571D02*
X142408380Y-83710571D01*
X141456000Y-84662952D02*
X141456000Y-82758190D01*
D10*
X145423714Y-81989904D02*
X145880857Y-81989904D01*
X145652285Y-82789904D02*
X145652285Y-81989904D01*
X145957047Y-82866095D02*
X146566571Y-82866095D01*
X147176095Y-82789904D02*
X146718952Y-82789904D01*
X146947523Y-82789904D02*
X146947523Y-81989904D01*
X146871333Y-82104190D01*
X146795142Y-82180380D01*
X146718952Y-82218476D01*
X145677714Y-57097904D02*
X146134857Y-57097904D01*
X145906285Y-57897904D02*
X145906285Y-57097904D01*
X146211047Y-57974095D02*
X146820571Y-57974095D01*
X146972952Y-57174095D02*
X147011047Y-57136000D01*
X147087238Y-57097904D01*
X147277714Y-57097904D01*
X147353904Y-57136000D01*
X147392000Y-57174095D01*
X147430095Y-57250285D01*
X147430095Y-57326476D01*
X147392000Y-57440761D01*
X146934857Y-57897904D01*
X147430095Y-57897904D01*
D13*
%TO.C,J9*%
X108630000Y-82830000D02*
X113830000Y-82830000D01*
X108630000Y-59910000D02*
X108630000Y-82830000D01*
X113830000Y-57310000D02*
X113830000Y-82830000D01*
X108630000Y-59910000D02*
X111230000Y-59910000D01*
X111230000Y-59910000D02*
X111230000Y-57310000D01*
X111230000Y-57310000D02*
X113830000Y-57310000D01*
X108630000Y-58640000D02*
X108630000Y-57310000D01*
X108630000Y-57310000D02*
X109960000Y-57310000D01*
%TO.C,U1*%
X123778000Y-64064000D02*
X123778000Y-65080000D01*
X123778000Y-64064000D02*
X122762000Y-64064000D01*
X123778000Y-74994000D02*
X123778000Y-76010000D01*
X123778000Y-76010000D02*
X123778000Y-74994000D01*
X123778000Y-76010000D02*
X122762000Y-76010000D01*
X118798000Y-64064000D02*
X119814000Y-64064000D01*
X118798000Y-65080000D02*
X118798000Y-64064000D01*
X118798000Y-76056000D02*
X119814000Y-76056000D01*
X118798000Y-76056000D02*
X118798000Y-75040000D01*
%TO.C,U9*%
X132134200Y-70277399D02*
X130184200Y-70277399D01*
X132134200Y-70277399D02*
X134084200Y-70277399D01*
X132134200Y-75397399D02*
X130184200Y-75397399D01*
X132134200Y-75397399D02*
X135584200Y-75397399D01*
%TO.C,C6*%
X126597000Y-73061078D02*
X126597000Y-72543922D01*
X128017000Y-73061078D02*
X128017000Y-72543922D01*
%TO.C,J3*%
X143484000Y-83384000D02*
X143484000Y-86044000D01*
X146084000Y-83384000D02*
X143484000Y-83384000D01*
X146084000Y-86044000D02*
X143484000Y-86044000D01*
X146084000Y-83384000D02*
X146084000Y-86044000D01*
X147354000Y-83384000D02*
X148684000Y-83384000D01*
X148684000Y-83384000D02*
X148684000Y-84714000D01*
%TO.C,J10*%
X148684000Y-53920000D02*
X148684000Y-55250000D01*
X147354000Y-53920000D02*
X148684000Y-53920000D01*
X146084000Y-53920000D02*
X146084000Y-56580000D01*
X146084000Y-56580000D02*
X143484000Y-56580000D01*
X146084000Y-53920000D02*
X143484000Y-53920000D01*
X143484000Y-53920000D02*
X143484000Y-56580000D01*
%TO.C,R3*%
X147806000Y-69027078D02*
X147806000Y-68509922D01*
X149226000Y-69027078D02*
X149226000Y-68509922D01*
%TO.C,R5*%
X145130922Y-74226000D02*
X145648078Y-74226000D01*
X145130922Y-72806000D02*
X145648078Y-72806000D01*
%TO.C,R9*%
X151258000Y-68265078D02*
X151258000Y-67747922D01*
X149838000Y-68265078D02*
X149838000Y-67747922D01*
%TO.C,R4*%
X141731922Y-72806000D02*
X142249078Y-72806000D01*
X141731922Y-74226000D02*
X142249078Y-74226000D01*
%TO.C,R7*%
X145297078Y-64574000D02*
X144779922Y-64574000D01*
X145297078Y-63154000D02*
X144779922Y-63154000D01*
%TO.C,R8*%
X144775322Y-61223600D02*
X145292478Y-61223600D01*
X144775322Y-62643600D02*
X145292478Y-62643600D01*
%TO.C,U3*%
X142222200Y-68639200D02*
X142222200Y-72089200D01*
X142222200Y-68639200D02*
X142222200Y-66689200D01*
X147342200Y-68639200D02*
X147342200Y-70589200D01*
X147342200Y-68639200D02*
X147342200Y-66689200D01*
%TO.C,R14*%
X130157136Y-76276400D02*
X134261264Y-76276400D01*
X130157136Y-79696400D02*
X134261264Y-79696400D01*
%TO.C,R1*%
X118238000Y-69886078D02*
X118238000Y-69368922D01*
X116818000Y-69886078D02*
X116818000Y-69368922D01*
%TO.C,F1*%
X128366000Y-54736000D02*
X128587000Y-54736000D01*
X130345000Y-54736000D02*
X135666000Y-54736000D01*
X128366000Y-57936000D02*
X133688000Y-57936000D01*
X135445000Y-57936000D02*
X135666000Y-57936000D01*
X128366000Y-54736000D02*
X128366000Y-54986000D01*
X128366000Y-56486000D02*
X128366000Y-57936000D01*
X135666000Y-54736000D02*
X135666000Y-56187000D01*
X135666000Y-57686000D02*
X135666000Y-57936000D01*
%TO.C,F6*%
X136047000Y-84864000D02*
X136047000Y-85114000D01*
X136047000Y-81914000D02*
X136047000Y-83365000D01*
X128747000Y-83664000D02*
X128747000Y-85114000D01*
X128747000Y-81914000D02*
X128747000Y-82164000D01*
X135826000Y-85114000D02*
X136047000Y-85114000D01*
X128747000Y-85114000D02*
X134069000Y-85114000D01*
X130726000Y-81914000D02*
X136047000Y-81914000D01*
X128747000Y-81914000D02*
X128968000Y-81914000D01*
%TO.C,J1*%
X138845000Y-56244000D02*
G75*
G03*
X138845000Y-56244000I-1251000J0D01*
G01*
%TO.C,J2*%
X127415000Y-56244000D02*
G75*
G03*
X127415000Y-56244000I-1251000J0D01*
G01*
%TO.C,J4*%
X127721000Y-61688000D02*
G75*
G03*
X127721000Y-61688000I-1251000J0D01*
G01*
%TO.C,J5*%
X139151000Y-61688000D02*
G75*
G03*
X139151000Y-61688000I-1251000J0D01*
G01*
%TO.C,J21*%
X139480000Y-83549000D02*
G75*
G03*
X139480000Y-83549000I-1251000J0D01*
G01*
%TO.C,J22*%
X128050000Y-83549000D02*
G75*
G03*
X128050000Y-83549000I-1251000J0D01*
G01*
%TO.C,J25*%
X139151000Y-77944000D02*
G75*
G03*
X139151000Y-77944000I-1251000J0D01*
G01*
%TO.C,J28*%
X127721000Y-77944000D02*
G75*
G03*
X127721000Y-77944000I-1251000J0D01*
G01*
%TO.C,C1*%
X137796000Y-66752722D02*
X137796000Y-67269878D01*
X136376000Y-66752722D02*
X136376000Y-67269878D01*
%TO.C,R2*%
X118238000Y-65207922D02*
X118238000Y-65725078D01*
X116818000Y-65207922D02*
X116818000Y-65725078D01*
%TO.C,R6*%
X134235864Y-63516600D02*
X130131736Y-63516600D01*
X134235864Y-60096600D02*
X130131736Y-60096600D01*
%TO.C,U4*%
X132258800Y-69515601D02*
X134208800Y-69515601D01*
X132258800Y-69515601D02*
X130308800Y-69515601D01*
X132258800Y-64395601D02*
X134208800Y-64395601D01*
X132258800Y-64395601D02*
X128808800Y-64395601D01*
%TO.C,J6*%
X159430000Y-57310000D02*
X160760000Y-57310000D01*
X159430000Y-58640000D02*
X159430000Y-57310000D01*
X162030000Y-57310000D02*
X164630000Y-57310000D01*
X162030000Y-59910000D02*
X162030000Y-57310000D01*
X159430000Y-59910000D02*
X162030000Y-59910000D01*
X164630000Y-57310000D02*
X164630000Y-82830000D01*
X159430000Y-59910000D02*
X159430000Y-82830000D01*
X159430000Y-82830000D02*
X164630000Y-82830000D01*
%TO.C,R10*%
X153076000Y-61346000D02*
G75*
G03*
X153076000Y-61346000I-920000J0D01*
G01*
X153076000Y-61346000D02*
X153696000Y-61346000D01*
%TO.C,D1*%
X154980000Y-59236000D02*
X154980000Y-59080000D01*
X154980000Y-56920000D02*
X154980000Y-56764000D01*
X151747665Y-59078608D02*
G75*
G03*
X154980000Y-59235516I1672335J1078608D01*
G01*
X151747665Y-56921392D02*
G75*
G02*
X154980000Y-56764484I1672335J-1078608D01*
G01*
X152378870Y-59079837D02*
G75*
G03*
X154460961Y-59080000I1041130J1079837D01*
G01*
X152378870Y-56920163D02*
G75*
G02*
X154460961Y-56920000I1041130J-1079837D01*
G01*
%TO.C,U1*%
D14*
X121948000Y-74399333D02*
X121914666Y-74466000D01*
X121914666Y-74566000D01*
X121948000Y-74666000D01*
X122014666Y-74732666D01*
X122081333Y-74766000D01*
X122214666Y-74799333D01*
X122314666Y-74799333D01*
X122448000Y-74766000D01*
X122514666Y-74732666D01*
X122581333Y-74666000D01*
X122614666Y-74566000D01*
X122614666Y-74499333D01*
X122581333Y-74399333D01*
X122548000Y-74366000D01*
X122314666Y-74366000D01*
X122314666Y-74499333D01*
X122614666Y-74066000D02*
X121914666Y-74066000D01*
X122614666Y-73666000D01*
X121914666Y-73666000D01*
X122614666Y-73332666D02*
X121914666Y-73332666D01*
X121914666Y-73166000D01*
X121948000Y-73066000D01*
X122014666Y-72999333D01*
X122081333Y-72966000D01*
X122214666Y-72932666D01*
X122314666Y-72932666D01*
X122448000Y-72966000D01*
X122514666Y-72999333D01*
X122581333Y-73066000D01*
X122614666Y-73166000D01*
X122614666Y-73332666D01*
X121914666Y-72159333D02*
X122614666Y-71926000D01*
X121914666Y-71692666D01*
X122581333Y-71159333D02*
X122614666Y-71226000D01*
X122614666Y-71359333D01*
X122581333Y-71426000D01*
X122548000Y-71459333D01*
X122481333Y-71492666D01*
X122281333Y-71492666D01*
X122214666Y-71459333D01*
X122181333Y-71426000D01*
X122148000Y-71359333D01*
X122148000Y-71226000D01*
X122181333Y-71159333D01*
X122581333Y-70559333D02*
X122614666Y-70626000D01*
X122614666Y-70759333D01*
X122581333Y-70826000D01*
X122548000Y-70859333D01*
X122481333Y-70892666D01*
X122281333Y-70892666D01*
X122214666Y-70859333D01*
X122181333Y-70826000D01*
X122148000Y-70759333D01*
X122148000Y-70626000D01*
X122181333Y-70559333D01*
X122581333Y-69619333D02*
X122614666Y-69519333D01*
X122614666Y-69352666D01*
X122581333Y-69286000D01*
X122548000Y-69252666D01*
X122481333Y-69219333D01*
X122414666Y-69219333D01*
X122348000Y-69252666D01*
X122314666Y-69286000D01*
X122281333Y-69352666D01*
X122248000Y-69486000D01*
X122214666Y-69552666D01*
X122181333Y-69586000D01*
X122114666Y-69619333D01*
X122048000Y-69619333D01*
X121981333Y-69586000D01*
X121948000Y-69552666D01*
X121914666Y-69486000D01*
X121914666Y-69319333D01*
X121948000Y-69219333D01*
X122548000Y-68519333D02*
X122581333Y-68552666D01*
X122614666Y-68652666D01*
X122614666Y-68719333D01*
X122581333Y-68819333D01*
X122514666Y-68886000D01*
X122448000Y-68919333D01*
X122314666Y-68952666D01*
X122214666Y-68952666D01*
X122081333Y-68919333D01*
X122014666Y-68886000D01*
X121948000Y-68819333D01*
X121914666Y-68719333D01*
X121914666Y-68652666D01*
X121948000Y-68552666D01*
X121981333Y-68519333D01*
X122614666Y-67886000D02*
X122614666Y-68219333D01*
X121914666Y-68219333D01*
X122581333Y-67096000D02*
X122614666Y-66996000D01*
X122614666Y-66829333D01*
X122581333Y-66762666D01*
X122548000Y-66729333D01*
X122481333Y-66696000D01*
X122414666Y-66696000D01*
X122348000Y-66729333D01*
X122314666Y-66762666D01*
X122281333Y-66829333D01*
X122248000Y-66962666D01*
X122214666Y-67029333D01*
X122181333Y-67062666D01*
X122114666Y-67096000D01*
X122048000Y-67096000D01*
X121981333Y-67062666D01*
X121948000Y-67029333D01*
X121914666Y-66962666D01*
X121914666Y-66796000D01*
X121948000Y-66696000D01*
X122614666Y-66396000D02*
X121914666Y-66396000D01*
X121914666Y-66229333D01*
X121948000Y-66129333D01*
X122014666Y-66062666D01*
X122081333Y-66029333D01*
X122214666Y-65996000D01*
X122314666Y-65996000D01*
X122448000Y-66029333D01*
X122514666Y-66062666D01*
X122581333Y-66129333D01*
X122614666Y-66229333D01*
X122614666Y-66396000D01*
X122414666Y-65729333D02*
X122414666Y-65396000D01*
X122614666Y-65796000D02*
X121914666Y-65562666D01*
X122614666Y-65329333D01*
%TO.C,U9*%
X131482295Y-72409779D02*
X131482295Y-73219303D01*
X131529914Y-73314541D01*
X131577533Y-73362160D01*
X131672771Y-73409779D01*
X131863247Y-73409779D01*
X131958485Y-73362160D01*
X132006104Y-73314541D01*
X132053723Y-73219303D01*
X132053723Y-72409779D01*
X132577533Y-73409779D02*
X132768009Y-73409779D01*
X132863247Y-73362160D01*
X132910866Y-73314541D01*
X133006104Y-73171684D01*
X133053723Y-72981208D01*
X133053723Y-72600256D01*
X133006104Y-72505018D01*
X132958485Y-72457399D01*
X132863247Y-72409779D01*
X132672771Y-72409779D01*
X132577533Y-72457399D01*
X132529914Y-72505018D01*
X132482295Y-72600256D01*
X132482295Y-72838351D01*
X132529914Y-72933589D01*
X132577533Y-72981208D01*
X132672771Y-73028827D01*
X132863247Y-73028827D01*
X132958485Y-72981208D01*
X133006104Y-72933589D01*
X133053723Y-72838351D01*
%TO.C,U3*%
X143690095Y-68142380D02*
X143690095Y-68951904D01*
X143737714Y-69047142D01*
X143785333Y-69094761D01*
X143880571Y-69142380D01*
X144071047Y-69142380D01*
X144166285Y-69094761D01*
X144213904Y-69047142D01*
X144261523Y-68951904D01*
X144261523Y-68142380D01*
X144642476Y-68142380D02*
X145261523Y-68142380D01*
X144928190Y-68523333D01*
X145071047Y-68523333D01*
X145166285Y-68570952D01*
X145213904Y-68618571D01*
X145261523Y-68713809D01*
X145261523Y-68951904D01*
X145213904Y-69047142D01*
X145166285Y-69094761D01*
X145071047Y-69142380D01*
X144785333Y-69142380D01*
X144690095Y-69094761D01*
X144642476Y-69047142D01*
%TO.C,U4*%
X131421895Y-66338980D02*
X131421895Y-67148504D01*
X131469514Y-67243742D01*
X131517133Y-67291361D01*
X131612371Y-67338980D01*
X131802847Y-67338980D01*
X131898085Y-67291361D01*
X131945704Y-67243742D01*
X131993323Y-67148504D01*
X131993323Y-66338980D01*
X132898085Y-66672314D02*
X132898085Y-67338980D01*
X132659990Y-66291361D02*
X132421895Y-67005647D01*
X133040942Y-67005647D01*
%TD*%
M02*
