M48
; DRILL file {KiCad (5.1.6)-1} date 06/17/20 13:40:13
; FORMAT={-:-/ absolute / inch / decimal}
; #@! TF.CreationDate,2020-06-17T13:40:13+01:00
; #@! TF.GenerationSoftware,Kicad,Pcbnew,(5.1.6)-1
; #@! TF.FileFunction,Plated,1,2,PTH
FMAT,2
INCH
T1C0.0157
T2C0.0276
T3C0.0354
T4C0.0394
T5C0.0398
T6C0.0787
%
G90
G05
T1
X4.5074Y-2.8625
X4.5496Y-2.9554
X4.5644Y-2.7775
X4.7438Y-2.9812
X4.8603Y-2.5785
X4.8604Y-2.6245
X4.9626Y-2.7623
X5.0104Y-2.6646
X5.0401Y-2.7623
X5.0419Y-2.6321
X5.2094Y-2.6155
X5.2094Y-2.8955
X5.2421Y-2.7093
X5.4901Y-2.8953
X5.5621Y-2.6023
X5.7241Y-2.6643
X5.7494Y-2.3835
X5.8194Y-2.8955
X5.8401Y-2.6023
T2
X5.9904Y-2.4152
X6.0904Y-2.4152
T3
X5.9902Y-2.2835
X6.0902Y-2.2835
T4
X5.7013Y-2.1752
X5.8013Y-2.1752
X4.3291Y-2.3087
X4.3291Y-2.4087
X4.3291Y-2.5087
X4.3291Y-2.6087
X4.3291Y-2.7087
X4.3291Y-2.8087
X4.3291Y-2.9087
X4.3291Y-3.0087
X4.3291Y-3.1087
X4.3291Y-3.2087
X4.4291Y-2.3087
X4.4291Y-2.4087
X4.4291Y-2.5087
X4.4291Y-2.6087
X4.4291Y-2.7087
X4.4291Y-2.8087
X4.4291Y-2.9087
X4.4291Y-3.0087
X4.4291Y-3.1087
X4.4291Y-3.2087
X6.3291Y-2.3087
X6.3291Y-2.4087
X6.3291Y-2.5087
X6.3291Y-2.6087
X6.3291Y-2.7087
X6.3291Y-2.8087
X6.3291Y-2.9087
X6.3291Y-3.0087
X6.3291Y-3.1087
X6.3291Y-3.2087
X6.4291Y-2.3087
X6.4291Y-2.4087
X6.4291Y-2.5087
X6.4291Y-2.6087
X6.4291Y-2.7087
X6.4291Y-2.8087
X6.4291Y-2.9087
X6.4291Y-3.0087
X6.4291Y-3.1087
X6.4291Y-3.2087
X5.7013Y-3.3352
X5.8013Y-3.3352
X4.7361Y-2.6081
X4.7361Y-2.7081
X4.7361Y-2.8081
X4.7361Y-2.9081
T5
X5.1121Y-3.2643
X5.3129Y-3.3116
X5.0971Y-2.1943
X5.2979Y-2.2416
T6
X4.9791Y-3.0687
X5.4171Y-2.2143
X5.4291Y-2.4287
X4.9671Y-2.2143
X4.9921Y-3.2893
X4.9791Y-2.4287
X5.4421Y-3.2893
X5.4291Y-3.0687
T0
M30
