%TF.GenerationSoftware,KiCad,Pcbnew,(5.1.6)-1*%
%TF.CreationDate,2020-06-16T18:43:17+01:00*%
%TF.ProjectId,peltier_driver_pcb,70656c74-6965-4725-9f64-72697665725f,rev?*%
%TF.SameCoordinates,Original*%
%TF.FileFunction,Legend,Top*%
%TF.FilePolarity,Positive*%
%FSLAX46Y46*%
G04 Gerber Fmt 4.6, Leading zero omitted, Abs format (unit mm)*
G04 Created by KiCad (PCBNEW (5.1.6)-1) date 2020-06-16 18:43:17*
%MOMM*%
%LPD*%
G01*
G04 APERTURE LIST*
%ADD10C,0.100000*%
%ADD11C,0.150000*%
%ADD12C,0.125000*%
%ADD13C,0.600000*%
%ADD14C,0.120000*%
G04 APERTURE END LIST*
D10*
X108037952Y-82418380D02*
X107637952Y-82418380D01*
X107637952Y-82266000D01*
X107657000Y-82227904D01*
X107676047Y-82208857D01*
X107714142Y-82189809D01*
X107771285Y-82189809D01*
X107809380Y-82208857D01*
X107828428Y-82227904D01*
X107847476Y-82266000D01*
X107847476Y-82418380D01*
X107637952Y-82056476D02*
X108037952Y-81961238D01*
X107752238Y-81885047D01*
X108037952Y-81808857D01*
X107637952Y-81713619D01*
X108037952Y-81561238D02*
X107637952Y-81561238D01*
X107923666Y-81427904D01*
X107637952Y-81294571D01*
X108037952Y-81294571D01*
X108037952Y-80894571D02*
X108037952Y-81123142D01*
X108037952Y-81008857D02*
X107637952Y-81008857D01*
X107695095Y-81046952D01*
X107733190Y-81085047D01*
X107752238Y-81123142D01*
D11*
X107287142Y-71777428D02*
X107287142Y-71177428D01*
X107430000Y-71177428D01*
X107515714Y-71206000D01*
X107572857Y-71263142D01*
X107601428Y-71320285D01*
X107630000Y-71434571D01*
X107630000Y-71520285D01*
X107601428Y-71634571D01*
X107572857Y-71691714D01*
X107515714Y-71748857D01*
X107430000Y-71777428D01*
X107287142Y-71777428D01*
X108001428Y-71177428D02*
X108058571Y-71177428D01*
X108115714Y-71206000D01*
X108144285Y-71234571D01*
X108172857Y-71291714D01*
X108201428Y-71406000D01*
X108201428Y-71548857D01*
X108172857Y-71663142D01*
X108144285Y-71720285D01*
X108115714Y-71748857D01*
X108058571Y-71777428D01*
X108001428Y-71777428D01*
X107944285Y-71748857D01*
X107915714Y-71720285D01*
X107887142Y-71663142D01*
X107858571Y-71548857D01*
X107858571Y-71406000D01*
X107887142Y-71291714D01*
X107915714Y-71234571D01*
X107944285Y-71206000D01*
X108001428Y-71177428D01*
X107287142Y-74317428D02*
X107287142Y-73717428D01*
X107430000Y-73717428D01*
X107515714Y-73746000D01*
X107572857Y-73803142D01*
X107601428Y-73860285D01*
X107630000Y-73974571D01*
X107630000Y-74060285D01*
X107601428Y-74174571D01*
X107572857Y-74231714D01*
X107515714Y-74288857D01*
X107430000Y-74317428D01*
X107287142Y-74317428D01*
X108201428Y-74317428D02*
X107858571Y-74317428D01*
X108030000Y-74317428D02*
X108030000Y-73717428D01*
X107972857Y-73803142D01*
X107915714Y-73860285D01*
X107858571Y-73888857D01*
X107287142Y-76857428D02*
X107287142Y-76257428D01*
X107430000Y-76257428D01*
X107515714Y-76286000D01*
X107572857Y-76343142D01*
X107601428Y-76400285D01*
X107630000Y-76514571D01*
X107630000Y-76600285D01*
X107601428Y-76714571D01*
X107572857Y-76771714D01*
X107515714Y-76828857D01*
X107430000Y-76857428D01*
X107287142Y-76857428D01*
X107858571Y-76314571D02*
X107887142Y-76286000D01*
X107944285Y-76257428D01*
X108087142Y-76257428D01*
X108144285Y-76286000D01*
X108172857Y-76314571D01*
X108201428Y-76371714D01*
X108201428Y-76428857D01*
X108172857Y-76514571D01*
X107830000Y-76857428D01*
X108201428Y-76857428D01*
X114145142Y-76857428D02*
X114145142Y-76257428D01*
X114288000Y-76257428D01*
X114373714Y-76286000D01*
X114430857Y-76343142D01*
X114459428Y-76400285D01*
X114488000Y-76514571D01*
X114488000Y-76600285D01*
X114459428Y-76714571D01*
X114430857Y-76771714D01*
X114373714Y-76828857D01*
X114288000Y-76857428D01*
X114145142Y-76857428D01*
X114688000Y-76257428D02*
X115059428Y-76257428D01*
X114859428Y-76486000D01*
X114945142Y-76486000D01*
X115002285Y-76514571D01*
X115030857Y-76543142D01*
X115059428Y-76600285D01*
X115059428Y-76743142D01*
X115030857Y-76800285D01*
X115002285Y-76828857D01*
X114945142Y-76857428D01*
X114773714Y-76857428D01*
X114716571Y-76828857D01*
X114688000Y-76800285D01*
X107301428Y-58906000D02*
X107587142Y-58906000D01*
X107244285Y-59077428D02*
X107444285Y-58477428D01*
X107644285Y-59077428D01*
X107958571Y-58477428D02*
X108015714Y-58477428D01*
X108072857Y-58506000D01*
X108101428Y-58534571D01*
X108130000Y-58591714D01*
X108158571Y-58706000D01*
X108158571Y-58848857D01*
X108130000Y-58963142D01*
X108101428Y-59020285D01*
X108072857Y-59048857D01*
X108015714Y-59077428D01*
X107958571Y-59077428D01*
X107901428Y-59048857D01*
X107872857Y-59020285D01*
X107844285Y-58963142D01*
X107815714Y-58848857D01*
X107815714Y-58706000D01*
X107844285Y-58591714D01*
X107872857Y-58534571D01*
X107901428Y-58506000D01*
X107958571Y-58477428D01*
X107301428Y-61446000D02*
X107587142Y-61446000D01*
X107244285Y-61617428D02*
X107444285Y-61017428D01*
X107644285Y-61617428D01*
X108158571Y-61617428D02*
X107815714Y-61617428D01*
X107987142Y-61617428D02*
X107987142Y-61017428D01*
X107930000Y-61103142D01*
X107872857Y-61160285D01*
X107815714Y-61188857D01*
X107301428Y-63986000D02*
X107587142Y-63986000D01*
X107244285Y-64157428D02*
X107444285Y-63557428D01*
X107644285Y-64157428D01*
X107815714Y-63614571D02*
X107844285Y-63586000D01*
X107901428Y-63557428D01*
X108044285Y-63557428D01*
X108101428Y-63586000D01*
X108130000Y-63614571D01*
X108158571Y-63671714D01*
X108158571Y-63728857D01*
X108130000Y-63814571D01*
X107787142Y-64157428D01*
X108158571Y-64157428D01*
X107301428Y-66526000D02*
X107587142Y-66526000D01*
X107244285Y-66697428D02*
X107444285Y-66097428D01*
X107644285Y-66697428D01*
X107787142Y-66097428D02*
X108158571Y-66097428D01*
X107958571Y-66326000D01*
X108044285Y-66326000D01*
X108101428Y-66354571D01*
X108130000Y-66383142D01*
X108158571Y-66440285D01*
X108158571Y-66583142D01*
X108130000Y-66640285D01*
X108101428Y-66668857D01*
X108044285Y-66697428D01*
X107872857Y-66697428D01*
X107815714Y-66668857D01*
X107787142Y-66640285D01*
D10*
X108037952Y-80132380D02*
X107637952Y-80132380D01*
X107637952Y-79980000D01*
X107657000Y-79941904D01*
X107676047Y-79922857D01*
X107714142Y-79903809D01*
X107771285Y-79903809D01*
X107809380Y-79922857D01*
X107828428Y-79941904D01*
X107847476Y-79980000D01*
X107847476Y-80132380D01*
X107637952Y-79770476D02*
X108037952Y-79675238D01*
X107752238Y-79599047D01*
X108037952Y-79522857D01*
X107637952Y-79427619D01*
X108037952Y-79275238D02*
X107637952Y-79275238D01*
X107923666Y-79141904D01*
X107637952Y-79008571D01*
X108037952Y-79008571D01*
X107637952Y-78741904D02*
X107637952Y-78703809D01*
X107657000Y-78665714D01*
X107676047Y-78646666D01*
X107714142Y-78627619D01*
X107790333Y-78608571D01*
X107885571Y-78608571D01*
X107961761Y-78627619D01*
X107999857Y-78646666D01*
X108018904Y-78665714D01*
X108037952Y-78703809D01*
X108037952Y-78741904D01*
X108018904Y-78780000D01*
X107999857Y-78799047D01*
X107961761Y-78818095D01*
X107885571Y-78837142D01*
X107790333Y-78837142D01*
X107714142Y-78818095D01*
X107676047Y-78799047D01*
X107657000Y-78780000D01*
X107637952Y-78741904D01*
D11*
X114511857Y-81366000D02*
X114454714Y-81337428D01*
X114369000Y-81337428D01*
X114283285Y-81366000D01*
X114226142Y-81423142D01*
X114197571Y-81480285D01*
X114169000Y-81594571D01*
X114169000Y-81680285D01*
X114197571Y-81794571D01*
X114226142Y-81851714D01*
X114283285Y-81908857D01*
X114369000Y-81937428D01*
X114426142Y-81937428D01*
X114511857Y-81908857D01*
X114540428Y-81880285D01*
X114540428Y-81680285D01*
X114426142Y-81680285D01*
X114797571Y-81937428D02*
X114797571Y-81337428D01*
X115140428Y-81937428D01*
X115140428Y-81337428D01*
X115426142Y-81937428D02*
X115426142Y-81337428D01*
X115569000Y-81337428D01*
X115654714Y-81366000D01*
X115711857Y-81423142D01*
X115740428Y-81480285D01*
X115769000Y-81594571D01*
X115769000Y-81680285D01*
X115740428Y-81794571D01*
X115711857Y-81851714D01*
X115654714Y-81908857D01*
X115569000Y-81937428D01*
X115426142Y-81937428D01*
X114473714Y-78797428D02*
X114188000Y-78797428D01*
X114159428Y-79083142D01*
X114188000Y-79054571D01*
X114245142Y-79026000D01*
X114388000Y-79026000D01*
X114445142Y-79054571D01*
X114473714Y-79083142D01*
X114502285Y-79140285D01*
X114502285Y-79283142D01*
X114473714Y-79340285D01*
X114445142Y-79368857D01*
X114388000Y-79397428D01*
X114245142Y-79397428D01*
X114188000Y-79368857D01*
X114159428Y-79340285D01*
X114673714Y-78797428D02*
X114873714Y-79397428D01*
X115073714Y-78797428D01*
X107301428Y-69066000D02*
X107587142Y-69066000D01*
X107244285Y-69237428D02*
X107444285Y-68637428D01*
X107644285Y-69237428D01*
X108101428Y-68837428D02*
X108101428Y-69237428D01*
X107958571Y-68608857D02*
X107815714Y-69037428D01*
X108187142Y-69037428D01*
X114156285Y-73717428D02*
X114499142Y-73717428D01*
X114327714Y-74317428D02*
X114327714Y-73717428D01*
X114556285Y-74374571D02*
X115013428Y-74374571D01*
X115470571Y-74317428D02*
X115127714Y-74317428D01*
X115299142Y-74317428D02*
X115299142Y-73717428D01*
X115242000Y-73803142D01*
X115184857Y-73860285D01*
X115127714Y-73888857D01*
X114073714Y-71777428D02*
X114073714Y-71177428D01*
X114216571Y-71834571D02*
X114673714Y-71834571D01*
X114788000Y-71234571D02*
X114816571Y-71206000D01*
X114873714Y-71177428D01*
X115016571Y-71177428D01*
X115073714Y-71206000D01*
X115102285Y-71234571D01*
X115130857Y-71291714D01*
X115130857Y-71348857D01*
X115102285Y-71434571D01*
X114759428Y-71777428D01*
X115130857Y-71777428D01*
X114127714Y-69208857D02*
X114213428Y-69237428D01*
X114356285Y-69237428D01*
X114413428Y-69208857D01*
X114442000Y-69180285D01*
X114470571Y-69123142D01*
X114470571Y-69066000D01*
X114442000Y-69008857D01*
X114413428Y-68980285D01*
X114356285Y-68951714D01*
X114242000Y-68923142D01*
X114184857Y-68894571D01*
X114156285Y-68866000D01*
X114127714Y-68808857D01*
X114127714Y-68751714D01*
X114156285Y-68694571D01*
X114184857Y-68666000D01*
X114242000Y-68637428D01*
X114384857Y-68637428D01*
X114470571Y-68666000D01*
X115070571Y-69180285D02*
X115042000Y-69208857D01*
X114956285Y-69237428D01*
X114899142Y-69237428D01*
X114813428Y-69208857D01*
X114756285Y-69151714D01*
X114727714Y-69094571D01*
X114699142Y-68980285D01*
X114699142Y-68894571D01*
X114727714Y-68780285D01*
X114756285Y-68723142D01*
X114813428Y-68666000D01*
X114899142Y-68637428D01*
X114956285Y-68637428D01*
X115042000Y-68666000D01*
X115070571Y-68694571D01*
X115613428Y-69237428D02*
X115327714Y-69237428D01*
X115327714Y-68637428D01*
X114113428Y-66668857D02*
X114199142Y-66697428D01*
X114342000Y-66697428D01*
X114399142Y-66668857D01*
X114427714Y-66640285D01*
X114456285Y-66583142D01*
X114456285Y-66526000D01*
X114427714Y-66468857D01*
X114399142Y-66440285D01*
X114342000Y-66411714D01*
X114227714Y-66383142D01*
X114170571Y-66354571D01*
X114142000Y-66326000D01*
X114113428Y-66268857D01*
X114113428Y-66211714D01*
X114142000Y-66154571D01*
X114170571Y-66126000D01*
X114227714Y-66097428D01*
X114370571Y-66097428D01*
X114456285Y-66126000D01*
X114713428Y-66697428D02*
X114713428Y-66097428D01*
X114856285Y-66097428D01*
X114942000Y-66126000D01*
X114999142Y-66183142D01*
X115027714Y-66240285D01*
X115056285Y-66354571D01*
X115056285Y-66440285D01*
X115027714Y-66554571D01*
X114999142Y-66611714D01*
X114942000Y-66668857D01*
X114856285Y-66697428D01*
X114713428Y-66697428D01*
X115284857Y-66526000D02*
X115570571Y-66526000D01*
X115227714Y-66697428D02*
X115427714Y-66097428D01*
X115627714Y-66697428D01*
X114099142Y-63684428D02*
X114470571Y-63684428D01*
X114270571Y-63913000D01*
X114356285Y-63913000D01*
X114413428Y-63941571D01*
X114442000Y-63970142D01*
X114470571Y-64027285D01*
X114470571Y-64170142D01*
X114442000Y-64227285D01*
X114413428Y-64255857D01*
X114356285Y-64284428D01*
X114184857Y-64284428D01*
X114127714Y-64255857D01*
X114099142Y-64227285D01*
X114642000Y-63684428D02*
X114842000Y-64284428D01*
X115042000Y-63684428D01*
X115184857Y-63684428D02*
X115556285Y-63684428D01*
X115356285Y-63913000D01*
X115442000Y-63913000D01*
X115499142Y-63941571D01*
X115527714Y-63970142D01*
X115556285Y-64027285D01*
X115556285Y-64170142D01*
X115527714Y-64227285D01*
X115499142Y-64255857D01*
X115442000Y-64284428D01*
X115270571Y-64284428D01*
X115213428Y-64255857D01*
X115184857Y-64227285D01*
X114156285Y-61017428D02*
X114499142Y-61017428D01*
X114327714Y-61617428D02*
X114327714Y-61017428D01*
X114556285Y-61674571D02*
X115013428Y-61674571D01*
X115127714Y-61074571D02*
X115156285Y-61046000D01*
X115213428Y-61017428D01*
X115356285Y-61017428D01*
X115413428Y-61046000D01*
X115442000Y-61074571D01*
X115470571Y-61131714D01*
X115470571Y-61188857D01*
X115442000Y-61274571D01*
X115099142Y-61617428D01*
X115470571Y-61617428D01*
D10*
X152359333Y-55611904D02*
X152359333Y-54811904D01*
X152664095Y-54811904D01*
X152740285Y-54850000D01*
X152778380Y-54888095D01*
X152816476Y-54964285D01*
X152816476Y-55078571D01*
X152778380Y-55154761D01*
X152740285Y-55192857D01*
X152664095Y-55230952D01*
X152359333Y-55230952D01*
X153083142Y-54811904D02*
X153273619Y-55611904D01*
X153426000Y-55040476D01*
X153578380Y-55611904D01*
X153768857Y-54811904D01*
X154530761Y-55611904D02*
X154264095Y-55230952D01*
X154073619Y-55611904D02*
X154073619Y-54811904D01*
X154378380Y-54811904D01*
X154454571Y-54850000D01*
X154492666Y-54888095D01*
X154530761Y-54964285D01*
X154530761Y-55078571D01*
X154492666Y-55154761D01*
X154454571Y-55192857D01*
X154378380Y-55230952D01*
X154073619Y-55230952D01*
D11*
X114073714Y-59077428D02*
X114073714Y-58477428D01*
X114216571Y-59134571D02*
X114673714Y-59134571D01*
X114788000Y-58534571D02*
X114816571Y-58506000D01*
X114873714Y-58477428D01*
X115016571Y-58477428D01*
X115073714Y-58506000D01*
X115102285Y-58534571D01*
X115130857Y-58591714D01*
X115130857Y-58648857D01*
X115102285Y-58734571D01*
X114759428Y-59077428D01*
X115130857Y-59077428D01*
D12*
X147019857Y-61685190D02*
X147329380Y-61685190D01*
X147162714Y-61875666D01*
X147234142Y-61875666D01*
X147281761Y-61899476D01*
X147305571Y-61923285D01*
X147329380Y-61970904D01*
X147329380Y-62089952D01*
X147305571Y-62137571D01*
X147281761Y-62161380D01*
X147234142Y-62185190D01*
X147091285Y-62185190D01*
X147043666Y-62161380D01*
X147019857Y-62137571D01*
X147638904Y-61685190D02*
X147686523Y-61685190D01*
X147734142Y-61709000D01*
X147757952Y-61732809D01*
X147781761Y-61780428D01*
X147805571Y-61875666D01*
X147805571Y-61994714D01*
X147781761Y-62089952D01*
X147757952Y-62137571D01*
X147734142Y-62161380D01*
X147686523Y-62185190D01*
X147638904Y-62185190D01*
X147591285Y-62161380D01*
X147567476Y-62137571D01*
X147543666Y-62089952D01*
X147519857Y-61994714D01*
X147519857Y-61875666D01*
X147543666Y-61780428D01*
X147567476Y-61732809D01*
X147591285Y-61709000D01*
X147638904Y-61685190D01*
X148019857Y-62185190D02*
X148019857Y-61685190D01*
X148067476Y-61994714D02*
X148210333Y-62185190D01*
X148210333Y-61851857D02*
X148019857Y-62042333D01*
X146892857Y-63590190D02*
X147202380Y-63590190D01*
X147035714Y-63780666D01*
X147107142Y-63780666D01*
X147154761Y-63804476D01*
X147178571Y-63828285D01*
X147202380Y-63875904D01*
X147202380Y-63994952D01*
X147178571Y-64042571D01*
X147154761Y-64066380D01*
X147107142Y-64090190D01*
X146964285Y-64090190D01*
X146916666Y-64066380D01*
X146892857Y-64042571D01*
X147511904Y-63590190D02*
X147559523Y-63590190D01*
X147607142Y-63614000D01*
X147630952Y-63637809D01*
X147654761Y-63685428D01*
X147678571Y-63780666D01*
X147678571Y-63899714D01*
X147654761Y-63994952D01*
X147630952Y-64042571D01*
X147607142Y-64066380D01*
X147559523Y-64090190D01*
X147511904Y-64090190D01*
X147464285Y-64066380D01*
X147440476Y-64042571D01*
X147416666Y-63994952D01*
X147392857Y-63899714D01*
X147392857Y-63780666D01*
X147416666Y-63685428D01*
X147440476Y-63637809D01*
X147464285Y-63614000D01*
X147511904Y-63590190D01*
X147892857Y-64090190D02*
X147892857Y-63590190D01*
X147940476Y-63899714D02*
X148083333Y-64090190D01*
X148083333Y-63756857D02*
X147892857Y-63947333D01*
X147908857Y-70575190D02*
X148218380Y-70575190D01*
X148051714Y-70765666D01*
X148123142Y-70765666D01*
X148170761Y-70789476D01*
X148194571Y-70813285D01*
X148218380Y-70860904D01*
X148218380Y-70979952D01*
X148194571Y-71027571D01*
X148170761Y-71051380D01*
X148123142Y-71075190D01*
X147980285Y-71075190D01*
X147932666Y-71051380D01*
X147908857Y-71027571D01*
X148527904Y-70575190D02*
X148575523Y-70575190D01*
X148623142Y-70599000D01*
X148646952Y-70622809D01*
X148670761Y-70670428D01*
X148694571Y-70765666D01*
X148694571Y-70884714D01*
X148670761Y-70979952D01*
X148646952Y-71027571D01*
X148623142Y-71051380D01*
X148575523Y-71075190D01*
X148527904Y-71075190D01*
X148480285Y-71051380D01*
X148456476Y-71027571D01*
X148432666Y-70979952D01*
X148408857Y-70884714D01*
X148408857Y-70765666D01*
X148432666Y-70670428D01*
X148456476Y-70622809D01*
X148480285Y-70599000D01*
X148527904Y-70575190D01*
X148908857Y-71075190D02*
X148908857Y-70575190D01*
X148956476Y-70884714D02*
X149099333Y-71075190D01*
X149099333Y-70741857D02*
X148908857Y-70932333D01*
X149940857Y-69940190D02*
X150250380Y-69940190D01*
X150083714Y-70130666D01*
X150155142Y-70130666D01*
X150202761Y-70154476D01*
X150226571Y-70178285D01*
X150250380Y-70225904D01*
X150250380Y-70344952D01*
X150226571Y-70392571D01*
X150202761Y-70416380D01*
X150155142Y-70440190D01*
X150012285Y-70440190D01*
X149964666Y-70416380D01*
X149940857Y-70392571D01*
X150559904Y-69940190D02*
X150607523Y-69940190D01*
X150655142Y-69964000D01*
X150678952Y-69987809D01*
X150702761Y-70035428D01*
X150726571Y-70130666D01*
X150726571Y-70249714D01*
X150702761Y-70344952D01*
X150678952Y-70392571D01*
X150655142Y-70416380D01*
X150607523Y-70440190D01*
X150559904Y-70440190D01*
X150512285Y-70416380D01*
X150488476Y-70392571D01*
X150464666Y-70344952D01*
X150440857Y-70249714D01*
X150440857Y-70130666D01*
X150464666Y-70035428D01*
X150488476Y-69987809D01*
X150512285Y-69964000D01*
X150559904Y-69940190D01*
X150940857Y-70440190D02*
X150940857Y-69940190D01*
X150988476Y-70249714D02*
X151131333Y-70440190D01*
X151131333Y-70106857D02*
X150940857Y-70297333D01*
X144860857Y-74766190D02*
X145170380Y-74766190D01*
X145003714Y-74956666D01*
X145075142Y-74956666D01*
X145122761Y-74980476D01*
X145146571Y-75004285D01*
X145170380Y-75051904D01*
X145170380Y-75170952D01*
X145146571Y-75218571D01*
X145122761Y-75242380D01*
X145075142Y-75266190D01*
X144932285Y-75266190D01*
X144884666Y-75242380D01*
X144860857Y-75218571D01*
X145479904Y-74766190D02*
X145527523Y-74766190D01*
X145575142Y-74790000D01*
X145598952Y-74813809D01*
X145622761Y-74861428D01*
X145646571Y-74956666D01*
X145646571Y-75075714D01*
X145622761Y-75170952D01*
X145598952Y-75218571D01*
X145575142Y-75242380D01*
X145527523Y-75266190D01*
X145479904Y-75266190D01*
X145432285Y-75242380D01*
X145408476Y-75218571D01*
X145384666Y-75170952D01*
X145360857Y-75075714D01*
X145360857Y-74956666D01*
X145384666Y-74861428D01*
X145408476Y-74813809D01*
X145432285Y-74790000D01*
X145479904Y-74766190D01*
X145860857Y-75266190D02*
X145860857Y-74766190D01*
X145908476Y-75075714D02*
X146051333Y-75266190D01*
X146051333Y-74932857D02*
X145860857Y-75123333D01*
X141431857Y-74766190D02*
X141741380Y-74766190D01*
X141574714Y-74956666D01*
X141646142Y-74956666D01*
X141693761Y-74980476D01*
X141717571Y-75004285D01*
X141741380Y-75051904D01*
X141741380Y-75170952D01*
X141717571Y-75218571D01*
X141693761Y-75242380D01*
X141646142Y-75266190D01*
X141503285Y-75266190D01*
X141455666Y-75242380D01*
X141431857Y-75218571D01*
X142050904Y-74766190D02*
X142098523Y-74766190D01*
X142146142Y-74790000D01*
X142169952Y-74813809D01*
X142193761Y-74861428D01*
X142217571Y-74956666D01*
X142217571Y-75075714D01*
X142193761Y-75170952D01*
X142169952Y-75218571D01*
X142146142Y-75242380D01*
X142098523Y-75266190D01*
X142050904Y-75266190D01*
X142003285Y-75242380D01*
X141979476Y-75218571D01*
X141955666Y-75170952D01*
X141931857Y-75075714D01*
X141931857Y-74956666D01*
X141955666Y-74861428D01*
X141979476Y-74813809D01*
X142003285Y-74790000D01*
X142050904Y-74766190D01*
X142431857Y-75266190D02*
X142431857Y-74766190D01*
X142479476Y-75075714D02*
X142622333Y-75266190D01*
X142622333Y-74932857D02*
X142431857Y-75123333D01*
X126231571Y-74639190D02*
X126279190Y-74639190D01*
X126326809Y-74663000D01*
X126350619Y-74686809D01*
X126374428Y-74734428D01*
X126398238Y-74829666D01*
X126398238Y-74948714D01*
X126374428Y-75043952D01*
X126350619Y-75091571D01*
X126326809Y-75115380D01*
X126279190Y-75139190D01*
X126231571Y-75139190D01*
X126183952Y-75115380D01*
X126160142Y-75091571D01*
X126136333Y-75043952D01*
X126112523Y-74948714D01*
X126112523Y-74829666D01*
X126136333Y-74734428D01*
X126160142Y-74686809D01*
X126183952Y-74663000D01*
X126231571Y-74639190D01*
X126612523Y-75091571D02*
X126636333Y-75115380D01*
X126612523Y-75139190D01*
X126588714Y-75115380D01*
X126612523Y-75091571D01*
X126612523Y-75139190D01*
X127112523Y-75139190D02*
X126826809Y-75139190D01*
X126969666Y-75139190D02*
X126969666Y-74639190D01*
X126922047Y-74710619D01*
X126874428Y-74758238D01*
X126826809Y-74782047D01*
X127541095Y-74805857D02*
X127541095Y-75139190D01*
X127326809Y-74805857D02*
X127326809Y-75067761D01*
X127350619Y-75115380D01*
X127398238Y-75139190D01*
X127469666Y-75139190D01*
X127517285Y-75115380D01*
X127541095Y-75091571D01*
X127945857Y-74877285D02*
X127779190Y-74877285D01*
X127779190Y-75139190D02*
X127779190Y-74639190D01*
X128017285Y-74639190D01*
X136645571Y-68797190D02*
X136693190Y-68797190D01*
X136740809Y-68821000D01*
X136764619Y-68844809D01*
X136788428Y-68892428D01*
X136812238Y-68987666D01*
X136812238Y-69106714D01*
X136788428Y-69201952D01*
X136764619Y-69249571D01*
X136740809Y-69273380D01*
X136693190Y-69297190D01*
X136645571Y-69297190D01*
X136597952Y-69273380D01*
X136574142Y-69249571D01*
X136550333Y-69201952D01*
X136526523Y-69106714D01*
X136526523Y-68987666D01*
X136550333Y-68892428D01*
X136574142Y-68844809D01*
X136597952Y-68821000D01*
X136645571Y-68797190D01*
X137026523Y-69249571D02*
X137050333Y-69273380D01*
X137026523Y-69297190D01*
X137002714Y-69273380D01*
X137026523Y-69249571D01*
X137026523Y-69297190D01*
X137526523Y-69297190D02*
X137240809Y-69297190D01*
X137383666Y-69297190D02*
X137383666Y-68797190D01*
X137336047Y-68868619D01*
X137288428Y-68916238D01*
X137240809Y-68940047D01*
X137955095Y-68963857D02*
X137955095Y-69297190D01*
X137740809Y-68963857D02*
X137740809Y-69225761D01*
X137764619Y-69273380D01*
X137812238Y-69297190D01*
X137883666Y-69297190D01*
X137931285Y-69273380D01*
X137955095Y-69249571D01*
X138359857Y-69035285D02*
X138193190Y-69035285D01*
X138193190Y-69297190D02*
X138193190Y-68797190D01*
X138431285Y-68797190D01*
X117063714Y-63375857D02*
X117063714Y-63709190D01*
X116944666Y-63185380D02*
X116825619Y-63542523D01*
X117135142Y-63542523D01*
X117325619Y-63661571D02*
X117349428Y-63685380D01*
X117325619Y-63709190D01*
X117301809Y-63685380D01*
X117325619Y-63661571D01*
X117325619Y-63709190D01*
X117516095Y-63209190D02*
X117849428Y-63209190D01*
X117635142Y-63709190D01*
X118039904Y-63709190D02*
X118039904Y-63209190D01*
X118087523Y-63518714D02*
X118230380Y-63709190D01*
X118230380Y-63375857D02*
X118039904Y-63566333D01*
X117317714Y-67566857D02*
X117317714Y-67900190D01*
X117198666Y-67376380D02*
X117079619Y-67733523D01*
X117389142Y-67733523D01*
X117579619Y-67852571D02*
X117603428Y-67876380D01*
X117579619Y-67900190D01*
X117555809Y-67876380D01*
X117579619Y-67852571D01*
X117579619Y-67900190D01*
X117770095Y-67400190D02*
X118103428Y-67400190D01*
X117889142Y-67900190D01*
X118293904Y-67900190D02*
X118293904Y-67400190D01*
X118341523Y-67709714D02*
X118484380Y-67900190D01*
X118484380Y-67566857D02*
X118293904Y-67757333D01*
D10*
X126800285Y-65859904D02*
X126800285Y-65059904D01*
X126990761Y-65936095D02*
X127600285Y-65936095D01*
X127752666Y-65136095D02*
X127790761Y-65098000D01*
X127866952Y-65059904D01*
X128057428Y-65059904D01*
X128133619Y-65098000D01*
X128171714Y-65136095D01*
X128209809Y-65212285D01*
X128209809Y-65288476D01*
X128171714Y-65402761D01*
X127714571Y-65859904D01*
X128209809Y-65859904D01*
X136198285Y-73225904D02*
X136198285Y-72425904D01*
X136388761Y-73302095D02*
X136998285Y-73302095D01*
X137607809Y-73225904D02*
X137150666Y-73225904D01*
X137379238Y-73225904D02*
X137379238Y-72425904D01*
X137303047Y-72540190D01*
X137226857Y-72616380D01*
X137150666Y-72654476D01*
D13*
X121961619Y-61612571D02*
X123866380Y-61612571D01*
X139995619Y-61612571D02*
X141900380Y-61612571D01*
X140948000Y-62564952D02*
X140948000Y-60660190D01*
X121707619Y-56278571D02*
X123612380Y-56278571D01*
X122660000Y-57230952D02*
X122660000Y-55326190D01*
X139995619Y-56278571D02*
X141900380Y-56278571D01*
X122469619Y-83456571D02*
X124374380Y-83456571D01*
X140249619Y-78122571D02*
X142154380Y-78122571D01*
X122215619Y-77868571D02*
X124120380Y-77868571D01*
X123168000Y-78820952D02*
X123168000Y-76916190D01*
X140503619Y-83710571D02*
X142408380Y-83710571D01*
X141456000Y-84662952D02*
X141456000Y-82758190D01*
D10*
X143214190Y-81989904D02*
X143671333Y-81989904D01*
X143442761Y-82789904D02*
X143442761Y-81989904D01*
X143938000Y-82485142D02*
X144547523Y-82485142D01*
X144890380Y-82751809D02*
X144966571Y-82789904D01*
X145118952Y-82789904D01*
X145195142Y-82751809D01*
X145233238Y-82675619D01*
X145233238Y-82637523D01*
X145195142Y-82561333D01*
X145118952Y-82523238D01*
X145004666Y-82523238D01*
X144928476Y-82485142D01*
X144890380Y-82408952D01*
X144890380Y-82370857D01*
X144928476Y-82294666D01*
X145004666Y-82256571D01*
X145118952Y-82256571D01*
X145195142Y-82294666D01*
X145880857Y-82751809D02*
X145804666Y-82789904D01*
X145652285Y-82789904D01*
X145576095Y-82751809D01*
X145538000Y-82675619D01*
X145538000Y-82370857D01*
X145576095Y-82294666D01*
X145652285Y-82256571D01*
X145804666Y-82256571D01*
X145880857Y-82294666D01*
X145918952Y-82370857D01*
X145918952Y-82447047D01*
X145538000Y-82523238D01*
X146261809Y-82256571D02*
X146261809Y-82789904D01*
X146261809Y-82332761D02*
X146299904Y-82294666D01*
X146376095Y-82256571D01*
X146490380Y-82256571D01*
X146566571Y-82294666D01*
X146604666Y-82370857D01*
X146604666Y-82789904D01*
X146947523Y-82751809D02*
X147023714Y-82789904D01*
X147176095Y-82789904D01*
X147252285Y-82751809D01*
X147290380Y-82675619D01*
X147290380Y-82637523D01*
X147252285Y-82561333D01*
X147176095Y-82523238D01*
X147061809Y-82523238D01*
X146985619Y-82485142D01*
X146947523Y-82408952D01*
X146947523Y-82370857D01*
X146985619Y-82294666D01*
X147061809Y-82256571D01*
X147176095Y-82256571D01*
X147252285Y-82294666D01*
X147938000Y-82751809D02*
X147861809Y-82789904D01*
X147709428Y-82789904D01*
X147633238Y-82751809D01*
X147595142Y-82675619D01*
X147595142Y-82370857D01*
X147633238Y-82294666D01*
X147709428Y-82256571D01*
X147861809Y-82256571D01*
X147938000Y-82294666D01*
X147976095Y-82370857D01*
X147976095Y-82447047D01*
X147595142Y-82523238D01*
X149195142Y-82370857D02*
X149309428Y-82408952D01*
X149347523Y-82447047D01*
X149385619Y-82523238D01*
X149385619Y-82637523D01*
X149347523Y-82713714D01*
X149309428Y-82751809D01*
X149233238Y-82789904D01*
X148928476Y-82789904D01*
X148928476Y-81989904D01*
X149195142Y-81989904D01*
X149271333Y-82028000D01*
X149309428Y-82066095D01*
X149347523Y-82142285D01*
X149347523Y-82218476D01*
X149309428Y-82294666D01*
X149271333Y-82332761D01*
X149195142Y-82370857D01*
X148928476Y-82370857D01*
X143525333Y-57097904D02*
X143982476Y-57097904D01*
X143753904Y-57897904D02*
X143753904Y-57097904D01*
X144249142Y-57593142D02*
X144858666Y-57593142D01*
X145201523Y-57859809D02*
X145277714Y-57897904D01*
X145430095Y-57897904D01*
X145506285Y-57859809D01*
X145544380Y-57783619D01*
X145544380Y-57745523D01*
X145506285Y-57669333D01*
X145430095Y-57631238D01*
X145315809Y-57631238D01*
X145239619Y-57593142D01*
X145201523Y-57516952D01*
X145201523Y-57478857D01*
X145239619Y-57402666D01*
X145315809Y-57364571D01*
X145430095Y-57364571D01*
X145506285Y-57402666D01*
X146192000Y-57859809D02*
X146115809Y-57897904D01*
X145963428Y-57897904D01*
X145887238Y-57859809D01*
X145849142Y-57783619D01*
X145849142Y-57478857D01*
X145887238Y-57402666D01*
X145963428Y-57364571D01*
X146115809Y-57364571D01*
X146192000Y-57402666D01*
X146230095Y-57478857D01*
X146230095Y-57555047D01*
X145849142Y-57631238D01*
X146572952Y-57364571D02*
X146572952Y-57897904D01*
X146572952Y-57440761D02*
X146611047Y-57402666D01*
X146687238Y-57364571D01*
X146801523Y-57364571D01*
X146877714Y-57402666D01*
X146915809Y-57478857D01*
X146915809Y-57897904D01*
X147258666Y-57859809D02*
X147334857Y-57897904D01*
X147487238Y-57897904D01*
X147563428Y-57859809D01*
X147601523Y-57783619D01*
X147601523Y-57745523D01*
X147563428Y-57669333D01*
X147487238Y-57631238D01*
X147372952Y-57631238D01*
X147296761Y-57593142D01*
X147258666Y-57516952D01*
X147258666Y-57478857D01*
X147296761Y-57402666D01*
X147372952Y-57364571D01*
X147487238Y-57364571D01*
X147563428Y-57402666D01*
X148249142Y-57859809D02*
X148172952Y-57897904D01*
X148020571Y-57897904D01*
X147944380Y-57859809D01*
X147906285Y-57783619D01*
X147906285Y-57478857D01*
X147944380Y-57402666D01*
X148020571Y-57364571D01*
X148172952Y-57364571D01*
X148249142Y-57402666D01*
X148287238Y-57478857D01*
X148287238Y-57555047D01*
X147906285Y-57631238D01*
X149201523Y-57669333D02*
X149582476Y-57669333D01*
X149125333Y-57897904D02*
X149392000Y-57097904D01*
X149658666Y-57897904D01*
D14*
%TO.C,U1*%
X118798000Y-76056000D02*
X118798000Y-75040000D01*
X118798000Y-76056000D02*
X119814000Y-76056000D01*
X118798000Y-65080000D02*
X118798000Y-64064000D01*
X118798000Y-64064000D02*
X119814000Y-64064000D01*
X123778000Y-76010000D02*
X122762000Y-76010000D01*
X123778000Y-76010000D02*
X123778000Y-74994000D01*
X123778000Y-74994000D02*
X123778000Y-76010000D01*
X123778000Y-64064000D02*
X122762000Y-64064000D01*
X123778000Y-64064000D02*
X123778000Y-65080000D01*
%TO.C,U9*%
X132134200Y-75397399D02*
X135584200Y-75397399D01*
X132134200Y-75397399D02*
X130184200Y-75397399D01*
X132134200Y-70277399D02*
X134084200Y-70277399D01*
X132134200Y-70277399D02*
X130184200Y-70277399D01*
%TO.C,C6*%
X128017000Y-73061078D02*
X128017000Y-72543922D01*
X126597000Y-73061078D02*
X126597000Y-72543922D01*
%TO.C,J3*%
X148684000Y-83384000D02*
X148684000Y-84714000D01*
X147354000Y-83384000D02*
X148684000Y-83384000D01*
X146084000Y-83384000D02*
X146084000Y-86044000D01*
X146084000Y-86044000D02*
X143484000Y-86044000D01*
X146084000Y-83384000D02*
X143484000Y-83384000D01*
X143484000Y-83384000D02*
X143484000Y-86044000D01*
%TO.C,J10*%
X143484000Y-53920000D02*
X143484000Y-56580000D01*
X146084000Y-53920000D02*
X143484000Y-53920000D01*
X146084000Y-56580000D02*
X143484000Y-56580000D01*
X146084000Y-53920000D02*
X146084000Y-56580000D01*
X147354000Y-53920000D02*
X148684000Y-53920000D01*
X148684000Y-53920000D02*
X148684000Y-55250000D01*
%TO.C,R3*%
X149226000Y-69027078D02*
X149226000Y-68509922D01*
X147806000Y-69027078D02*
X147806000Y-68509922D01*
%TO.C,R5*%
X145130922Y-72806000D02*
X145648078Y-72806000D01*
X145130922Y-74226000D02*
X145648078Y-74226000D01*
%TO.C,R9*%
X149838000Y-68265078D02*
X149838000Y-67747922D01*
X151258000Y-68265078D02*
X151258000Y-67747922D01*
%TO.C,R4*%
X141731922Y-74226000D02*
X142249078Y-74226000D01*
X141731922Y-72806000D02*
X142249078Y-72806000D01*
%TO.C,R7*%
X145297078Y-63154000D02*
X144779922Y-63154000D01*
X145297078Y-64574000D02*
X144779922Y-64574000D01*
%TO.C,R8*%
X144775322Y-62643600D02*
X145292478Y-62643600D01*
X144775322Y-61223600D02*
X145292478Y-61223600D01*
%TO.C,U3*%
X147342200Y-68639200D02*
X147342200Y-66689200D01*
X147342200Y-68639200D02*
X147342200Y-70589200D01*
X142222200Y-68639200D02*
X142222200Y-66689200D01*
X142222200Y-68639200D02*
X142222200Y-72089200D01*
%TO.C,R14*%
X130157136Y-79696400D02*
X134261264Y-79696400D01*
X130157136Y-76276400D02*
X134261264Y-76276400D01*
%TO.C,J9*%
X108630000Y-57310000D02*
X109960000Y-57310000D01*
X108630000Y-58640000D02*
X108630000Y-57310000D01*
X111230000Y-57310000D02*
X113830000Y-57310000D01*
X111230000Y-59910000D02*
X111230000Y-57310000D01*
X108630000Y-59910000D02*
X111230000Y-59910000D01*
X113830000Y-57310000D02*
X113830000Y-82830000D01*
X108630000Y-59910000D02*
X108630000Y-82830000D01*
X108630000Y-82830000D02*
X113830000Y-82830000D01*
%TO.C,R1*%
X116818000Y-69886078D02*
X116818000Y-69368922D01*
X118238000Y-69886078D02*
X118238000Y-69368922D01*
%TO.C,F1*%
X135666000Y-57686000D02*
X135666000Y-57936000D01*
X135666000Y-54736000D02*
X135666000Y-56187000D01*
X128366000Y-56486000D02*
X128366000Y-57936000D01*
X128366000Y-54736000D02*
X128366000Y-54986000D01*
X135445000Y-57936000D02*
X135666000Y-57936000D01*
X128366000Y-57936000D02*
X133688000Y-57936000D01*
X130345000Y-54736000D02*
X135666000Y-54736000D01*
X128366000Y-54736000D02*
X128587000Y-54736000D01*
%TO.C,F6*%
X128747000Y-81914000D02*
X128968000Y-81914000D01*
X130726000Y-81914000D02*
X136047000Y-81914000D01*
X128747000Y-85114000D02*
X134069000Y-85114000D01*
X135826000Y-85114000D02*
X136047000Y-85114000D01*
X128747000Y-81914000D02*
X128747000Y-82164000D01*
X128747000Y-83664000D02*
X128747000Y-85114000D01*
X136047000Y-81914000D02*
X136047000Y-83365000D01*
X136047000Y-84864000D02*
X136047000Y-85114000D01*
%TO.C,J1*%
X138845000Y-56244000D02*
G75*
G03*
X138845000Y-56244000I-1251000J0D01*
G01*
%TO.C,J2*%
X127415000Y-56244000D02*
G75*
G03*
X127415000Y-56244000I-1251000J0D01*
G01*
%TO.C,J4*%
X127721000Y-61688000D02*
G75*
G03*
X127721000Y-61688000I-1251000J0D01*
G01*
%TO.C,J5*%
X139151000Y-61688000D02*
G75*
G03*
X139151000Y-61688000I-1251000J0D01*
G01*
%TO.C,J21*%
X139480000Y-83549000D02*
G75*
G03*
X139480000Y-83549000I-1251000J0D01*
G01*
%TO.C,J22*%
X128050000Y-83549000D02*
G75*
G03*
X128050000Y-83549000I-1251000J0D01*
G01*
%TO.C,J25*%
X139151000Y-77944000D02*
G75*
G03*
X139151000Y-77944000I-1251000J0D01*
G01*
%TO.C,J28*%
X127721000Y-77944000D02*
G75*
G03*
X127721000Y-77944000I-1251000J0D01*
G01*
%TO.C,C1*%
X136376000Y-66752722D02*
X136376000Y-67269878D01*
X137796000Y-66752722D02*
X137796000Y-67269878D01*
%TO.C,R2*%
X116818000Y-65207922D02*
X116818000Y-65725078D01*
X118238000Y-65207922D02*
X118238000Y-65725078D01*
%TO.C,R6*%
X134235864Y-60096600D02*
X130131736Y-60096600D01*
X134235864Y-63516600D02*
X130131736Y-63516600D01*
%TO.C,U4*%
X132258800Y-64395601D02*
X128808800Y-64395601D01*
X132258800Y-64395601D02*
X134208800Y-64395601D01*
X132258800Y-69515601D02*
X130308800Y-69515601D01*
X132258800Y-69515601D02*
X134208800Y-69515601D01*
%TO.C,J6*%
X159430000Y-82830000D02*
X164630000Y-82830000D01*
X159430000Y-59910000D02*
X159430000Y-82830000D01*
X164630000Y-57310000D02*
X164630000Y-82830000D01*
X159430000Y-59910000D02*
X162030000Y-59910000D01*
X162030000Y-59910000D02*
X162030000Y-57310000D01*
X162030000Y-57310000D02*
X164630000Y-57310000D01*
X159430000Y-58640000D02*
X159430000Y-57310000D01*
X159430000Y-57310000D02*
X160760000Y-57310000D01*
%TO.C,R10*%
X153076000Y-61346000D02*
X153696000Y-61346000D01*
X153076000Y-61346000D02*
G75*
G03*
X153076000Y-61346000I-920000J0D01*
G01*
%TO.C,D1*%
X154980000Y-56920000D02*
X154980000Y-56764000D01*
X154980000Y-59236000D02*
X154980000Y-59080000D01*
X151747665Y-59078608D02*
G75*
G03*
X154980000Y-59235516I1672335J1078608D01*
G01*
X151747665Y-56921392D02*
G75*
G02*
X154980000Y-56764484I1672335J-1078608D01*
G01*
X152378870Y-59079837D02*
G75*
G03*
X154460961Y-59080000I1041130J1079837D01*
G01*
X152378870Y-56920163D02*
G75*
G02*
X154460961Y-56920000I1041130J-1079837D01*
G01*
%TO.C,U1*%
D11*
X121948000Y-74399333D02*
X121914666Y-74466000D01*
X121914666Y-74566000D01*
X121948000Y-74666000D01*
X122014666Y-74732666D01*
X122081333Y-74766000D01*
X122214666Y-74799333D01*
X122314666Y-74799333D01*
X122448000Y-74766000D01*
X122514666Y-74732666D01*
X122581333Y-74666000D01*
X122614666Y-74566000D01*
X122614666Y-74499333D01*
X122581333Y-74399333D01*
X122548000Y-74366000D01*
X122314666Y-74366000D01*
X122314666Y-74499333D01*
X122614666Y-74066000D02*
X121914666Y-74066000D01*
X122614666Y-73666000D01*
X121914666Y-73666000D01*
X122614666Y-73332666D02*
X121914666Y-73332666D01*
X121914666Y-73166000D01*
X121948000Y-73066000D01*
X122014666Y-72999333D01*
X122081333Y-72966000D01*
X122214666Y-72932666D01*
X122314666Y-72932666D01*
X122448000Y-72966000D01*
X122514666Y-72999333D01*
X122581333Y-73066000D01*
X122614666Y-73166000D01*
X122614666Y-73332666D01*
X121914666Y-72159333D02*
X122614666Y-71926000D01*
X121914666Y-71692666D01*
X122581333Y-71159333D02*
X122614666Y-71226000D01*
X122614666Y-71359333D01*
X122581333Y-71426000D01*
X122548000Y-71459333D01*
X122481333Y-71492666D01*
X122281333Y-71492666D01*
X122214666Y-71459333D01*
X122181333Y-71426000D01*
X122148000Y-71359333D01*
X122148000Y-71226000D01*
X122181333Y-71159333D01*
X122581333Y-70559333D02*
X122614666Y-70626000D01*
X122614666Y-70759333D01*
X122581333Y-70826000D01*
X122548000Y-70859333D01*
X122481333Y-70892666D01*
X122281333Y-70892666D01*
X122214666Y-70859333D01*
X122181333Y-70826000D01*
X122148000Y-70759333D01*
X122148000Y-70626000D01*
X122181333Y-70559333D01*
X122581333Y-69619333D02*
X122614666Y-69519333D01*
X122614666Y-69352666D01*
X122581333Y-69286000D01*
X122548000Y-69252666D01*
X122481333Y-69219333D01*
X122414666Y-69219333D01*
X122348000Y-69252666D01*
X122314666Y-69286000D01*
X122281333Y-69352666D01*
X122248000Y-69486000D01*
X122214666Y-69552666D01*
X122181333Y-69586000D01*
X122114666Y-69619333D01*
X122048000Y-69619333D01*
X121981333Y-69586000D01*
X121948000Y-69552666D01*
X121914666Y-69486000D01*
X121914666Y-69319333D01*
X121948000Y-69219333D01*
X122548000Y-68519333D02*
X122581333Y-68552666D01*
X122614666Y-68652666D01*
X122614666Y-68719333D01*
X122581333Y-68819333D01*
X122514666Y-68886000D01*
X122448000Y-68919333D01*
X122314666Y-68952666D01*
X122214666Y-68952666D01*
X122081333Y-68919333D01*
X122014666Y-68886000D01*
X121948000Y-68819333D01*
X121914666Y-68719333D01*
X121914666Y-68652666D01*
X121948000Y-68552666D01*
X121981333Y-68519333D01*
X122614666Y-67886000D02*
X122614666Y-68219333D01*
X121914666Y-68219333D01*
X122581333Y-67096000D02*
X122614666Y-66996000D01*
X122614666Y-66829333D01*
X122581333Y-66762666D01*
X122548000Y-66729333D01*
X122481333Y-66696000D01*
X122414666Y-66696000D01*
X122348000Y-66729333D01*
X122314666Y-66762666D01*
X122281333Y-66829333D01*
X122248000Y-66962666D01*
X122214666Y-67029333D01*
X122181333Y-67062666D01*
X122114666Y-67096000D01*
X122048000Y-67096000D01*
X121981333Y-67062666D01*
X121948000Y-67029333D01*
X121914666Y-66962666D01*
X121914666Y-66796000D01*
X121948000Y-66696000D01*
X122614666Y-66396000D02*
X121914666Y-66396000D01*
X121914666Y-66229333D01*
X121948000Y-66129333D01*
X122014666Y-66062666D01*
X122081333Y-66029333D01*
X122214666Y-65996000D01*
X122314666Y-65996000D01*
X122448000Y-66029333D01*
X122514666Y-66062666D01*
X122581333Y-66129333D01*
X122614666Y-66229333D01*
X122614666Y-66396000D01*
X122414666Y-65729333D02*
X122414666Y-65396000D01*
X122614666Y-65796000D02*
X121914666Y-65562666D01*
X122614666Y-65329333D01*
%TO.C,U9*%
X131482295Y-72409779D02*
X131482295Y-73219303D01*
X131529914Y-73314541D01*
X131577533Y-73362160D01*
X131672771Y-73409779D01*
X131863247Y-73409779D01*
X131958485Y-73362160D01*
X132006104Y-73314541D01*
X132053723Y-73219303D01*
X132053723Y-72409779D01*
X132577533Y-73409779D02*
X132768009Y-73409779D01*
X132863247Y-73362160D01*
X132910866Y-73314541D01*
X133006104Y-73171684D01*
X133053723Y-72981208D01*
X133053723Y-72600256D01*
X133006104Y-72505018D01*
X132958485Y-72457399D01*
X132863247Y-72409779D01*
X132672771Y-72409779D01*
X132577533Y-72457399D01*
X132529914Y-72505018D01*
X132482295Y-72600256D01*
X132482295Y-72838351D01*
X132529914Y-72933589D01*
X132577533Y-72981208D01*
X132672771Y-73028827D01*
X132863247Y-73028827D01*
X132958485Y-72981208D01*
X133006104Y-72933589D01*
X133053723Y-72838351D01*
%TO.C,U3*%
X143690095Y-68142380D02*
X143690095Y-68951904D01*
X143737714Y-69047142D01*
X143785333Y-69094761D01*
X143880571Y-69142380D01*
X144071047Y-69142380D01*
X144166285Y-69094761D01*
X144213904Y-69047142D01*
X144261523Y-68951904D01*
X144261523Y-68142380D01*
X144642476Y-68142380D02*
X145261523Y-68142380D01*
X144928190Y-68523333D01*
X145071047Y-68523333D01*
X145166285Y-68570952D01*
X145213904Y-68618571D01*
X145261523Y-68713809D01*
X145261523Y-68951904D01*
X145213904Y-69047142D01*
X145166285Y-69094761D01*
X145071047Y-69142380D01*
X144785333Y-69142380D01*
X144690095Y-69094761D01*
X144642476Y-69047142D01*
%TO.C,U4*%
X131421895Y-66338980D02*
X131421895Y-67148504D01*
X131469514Y-67243742D01*
X131517133Y-67291361D01*
X131612371Y-67338980D01*
X131802847Y-67338980D01*
X131898085Y-67291361D01*
X131945704Y-67243742D01*
X131993323Y-67148504D01*
X131993323Y-66338980D01*
X132898085Y-66672314D02*
X132898085Y-67338980D01*
X132659990Y-66291361D02*
X132421895Y-67005647D01*
X133040942Y-67005647D01*
%TO.C,J6*%
X161696666Y-55762380D02*
X161696666Y-56476666D01*
X161649047Y-56619523D01*
X161553809Y-56714761D01*
X161410952Y-56762380D01*
X161315714Y-56762380D01*
X162601428Y-55762380D02*
X162410952Y-55762380D01*
X162315714Y-55810000D01*
X162268095Y-55857619D01*
X162172857Y-56000476D01*
X162125238Y-56190952D01*
X162125238Y-56571904D01*
X162172857Y-56667142D01*
X162220476Y-56714761D01*
X162315714Y-56762380D01*
X162506190Y-56762380D01*
X162601428Y-56714761D01*
X162649047Y-56667142D01*
X162696666Y-56571904D01*
X162696666Y-56333809D01*
X162649047Y-56238571D01*
X162601428Y-56190952D01*
X162506190Y-56143333D01*
X162315714Y-56143333D01*
X162220476Y-56190952D01*
X162172857Y-56238571D01*
X162125238Y-56333809D01*
%TD*%
M02*
