%TF.GenerationSoftware,KiCad,Pcbnew,(5.1.6)-1*%
%TF.CreationDate,2020-06-17T13:40:15+01:00*%
%TF.ProjectId,peltier_driver_pcb,70656c74-6965-4725-9f64-72697665725f,rev?*%
%TF.SameCoordinates,Original*%
%TF.FileFunction,Soldermask,Top*%
%TF.FilePolarity,Negative*%
%FSLAX46Y46*%
G04 Gerber Fmt 4.6, Leading zero omitted, Abs format (unit mm)*
G04 Created by KiCad (PCBNEW (5.1.6)-1) date 2020-06-17 13:40:15*
%MOMM*%
%LPD*%
G01*
G04 APERTURE LIST*
%ADD10R,1.800000X1.800000*%
%ADD11O,1.800000X1.800000*%
%ADD12C,2.110000*%
%ADD13C,3.600000*%
%ADD14C,1.500000*%
%ADD15O,1.500000X1.500000*%
%ADD16R,1.900000X1.900000*%
%ADD17C,1.900000*%
G04 APERTURE END LIST*
D10*
%TO.C,J9*%
X109960000Y-58640000D03*
D11*
X112500000Y-58640000D03*
X109960000Y-61180000D03*
X112500000Y-61180000D03*
X109960000Y-63720000D03*
X112500000Y-63720000D03*
X109960000Y-66260000D03*
X112500000Y-66260000D03*
X109960000Y-68800000D03*
X112500000Y-68800000D03*
X109960000Y-71340000D03*
X112500000Y-71340000D03*
X109960000Y-73880000D03*
X112500000Y-73880000D03*
X109960000Y-76420000D03*
X112500000Y-76420000D03*
X109960000Y-78960000D03*
X112500000Y-78960000D03*
X109960000Y-81500000D03*
X112500000Y-81500000D03*
%TD*%
%TO.C,U1*%
X120298000Y-66246000D03*
X120298000Y-68786000D03*
X120298000Y-71326000D03*
D10*
X120298000Y-73866000D03*
%TD*%
%TO.C,U9*%
G36*
G01*
X135634200Y-74567399D02*
X135634200Y-74917399D01*
G75*
G02*
X135459200Y-75092399I-175000J0D01*
G01*
X133959200Y-75092399D01*
G75*
G02*
X133784200Y-74917399I0J175000D01*
G01*
X133784200Y-74567399D01*
G75*
G02*
X133959200Y-74392399I175000J0D01*
G01*
X135459200Y-74392399D01*
G75*
G02*
X135634200Y-74567399I0J-175000D01*
G01*
G37*
G36*
G01*
X135634200Y-73297399D02*
X135634200Y-73647399D01*
G75*
G02*
X135459200Y-73822399I-175000J0D01*
G01*
X133959200Y-73822399D01*
G75*
G02*
X133784200Y-73647399I0J175000D01*
G01*
X133784200Y-73297399D01*
G75*
G02*
X133959200Y-73122399I175000J0D01*
G01*
X135459200Y-73122399D01*
G75*
G02*
X135634200Y-73297399I0J-175000D01*
G01*
G37*
G36*
G01*
X135634200Y-72027399D02*
X135634200Y-72377399D01*
G75*
G02*
X135459200Y-72552399I-175000J0D01*
G01*
X133959200Y-72552399D01*
G75*
G02*
X133784200Y-72377399I0J175000D01*
G01*
X133784200Y-72027399D01*
G75*
G02*
X133959200Y-71852399I175000J0D01*
G01*
X135459200Y-71852399D01*
G75*
G02*
X135634200Y-72027399I0J-175000D01*
G01*
G37*
G36*
G01*
X135634200Y-70757399D02*
X135634200Y-71107399D01*
G75*
G02*
X135459200Y-71282399I-175000J0D01*
G01*
X133959200Y-71282399D01*
G75*
G02*
X133784200Y-71107399I0J175000D01*
G01*
X133784200Y-70757399D01*
G75*
G02*
X133959200Y-70582399I175000J0D01*
G01*
X135459200Y-70582399D01*
G75*
G02*
X135634200Y-70757399I0J-175000D01*
G01*
G37*
G36*
G01*
X130484200Y-70757399D02*
X130484200Y-71107399D01*
G75*
G02*
X130309200Y-71282399I-175000J0D01*
G01*
X128809200Y-71282399D01*
G75*
G02*
X128634200Y-71107399I0J175000D01*
G01*
X128634200Y-70757399D01*
G75*
G02*
X128809200Y-70582399I175000J0D01*
G01*
X130309200Y-70582399D01*
G75*
G02*
X130484200Y-70757399I0J-175000D01*
G01*
G37*
G36*
G01*
X130484200Y-72027399D02*
X130484200Y-72377399D01*
G75*
G02*
X130309200Y-72552399I-175000J0D01*
G01*
X128809200Y-72552399D01*
G75*
G02*
X128634200Y-72377399I0J175000D01*
G01*
X128634200Y-72027399D01*
G75*
G02*
X128809200Y-71852399I175000J0D01*
G01*
X130309200Y-71852399D01*
G75*
G02*
X130484200Y-72027399I0J-175000D01*
G01*
G37*
G36*
G01*
X130484200Y-73297399D02*
X130484200Y-73647399D01*
G75*
G02*
X130309200Y-73822399I-175000J0D01*
G01*
X128809200Y-73822399D01*
G75*
G02*
X128634200Y-73647399I0J175000D01*
G01*
X128634200Y-73297399D01*
G75*
G02*
X128809200Y-73122399I175000J0D01*
G01*
X130309200Y-73122399D01*
G75*
G02*
X130484200Y-73297399I0J-175000D01*
G01*
G37*
G36*
G01*
X130484200Y-74567399D02*
X130484200Y-74917399D01*
G75*
G02*
X130309200Y-75092399I-175000J0D01*
G01*
X128809200Y-75092399D01*
G75*
G02*
X128634200Y-74917399I0J175000D01*
G01*
X128634200Y-74567399D01*
G75*
G02*
X128809200Y-74392399I175000J0D01*
G01*
X130309200Y-74392399D01*
G75*
G02*
X130484200Y-74567399I0J-175000D01*
G01*
G37*
%TD*%
%TO.C,C6*%
G36*
G01*
X127788250Y-72402500D02*
X126825750Y-72402500D01*
G75*
G02*
X126557000Y-72133750I0J268750D01*
G01*
X126557000Y-71596250D01*
G75*
G02*
X126825750Y-71327500I268750J0D01*
G01*
X127788250Y-71327500D01*
G75*
G02*
X128057000Y-71596250I0J-268750D01*
G01*
X128057000Y-72133750D01*
G75*
G02*
X127788250Y-72402500I-268750J0D01*
G01*
G37*
G36*
G01*
X127788250Y-74277500D02*
X126825750Y-74277500D01*
G75*
G02*
X126557000Y-74008750I0J268750D01*
G01*
X126557000Y-73471250D01*
G75*
G02*
X126825750Y-73202500I268750J0D01*
G01*
X127788250Y-73202500D01*
G75*
G02*
X128057000Y-73471250I0J-268750D01*
G01*
X128057000Y-74008750D01*
G75*
G02*
X127788250Y-74277500I-268750J0D01*
G01*
G37*
%TD*%
D11*
%TO.C,J3*%
X144814000Y-84714000D03*
D10*
X147354000Y-84714000D03*
%TD*%
%TO.C,J10*%
X147354000Y-55250000D03*
D11*
X144814000Y-55250000D03*
%TD*%
%TO.C,R3*%
G36*
G01*
X148997250Y-68368500D02*
X148034750Y-68368500D01*
G75*
G02*
X147766000Y-68099750I0J268750D01*
G01*
X147766000Y-67562250D01*
G75*
G02*
X148034750Y-67293500I268750J0D01*
G01*
X148997250Y-67293500D01*
G75*
G02*
X149266000Y-67562250I0J-268750D01*
G01*
X149266000Y-68099750D01*
G75*
G02*
X148997250Y-68368500I-268750J0D01*
G01*
G37*
G36*
G01*
X148997250Y-70243500D02*
X148034750Y-70243500D01*
G75*
G02*
X147766000Y-69974750I0J268750D01*
G01*
X147766000Y-69437250D01*
G75*
G02*
X148034750Y-69168500I268750J0D01*
G01*
X148997250Y-69168500D01*
G75*
G02*
X149266000Y-69437250I0J-268750D01*
G01*
X149266000Y-69974750D01*
G75*
G02*
X148997250Y-70243500I-268750J0D01*
G01*
G37*
%TD*%
%TO.C,R5*%
G36*
G01*
X143914500Y-73997250D02*
X143914500Y-73034750D01*
G75*
G02*
X144183250Y-72766000I268750J0D01*
G01*
X144720750Y-72766000D01*
G75*
G02*
X144989500Y-73034750I0J-268750D01*
G01*
X144989500Y-73997250D01*
G75*
G02*
X144720750Y-74266000I-268750J0D01*
G01*
X144183250Y-74266000D01*
G75*
G02*
X143914500Y-73997250I0J268750D01*
G01*
G37*
G36*
G01*
X145789500Y-73997250D02*
X145789500Y-73034750D01*
G75*
G02*
X146058250Y-72766000I268750J0D01*
G01*
X146595750Y-72766000D01*
G75*
G02*
X146864500Y-73034750I0J-268750D01*
G01*
X146864500Y-73997250D01*
G75*
G02*
X146595750Y-74266000I-268750J0D01*
G01*
X146058250Y-74266000D01*
G75*
G02*
X145789500Y-73997250I0J268750D01*
G01*
G37*
%TD*%
%TO.C,R9*%
G36*
G01*
X151029250Y-69481500D02*
X150066750Y-69481500D01*
G75*
G02*
X149798000Y-69212750I0J268750D01*
G01*
X149798000Y-68675250D01*
G75*
G02*
X150066750Y-68406500I268750J0D01*
G01*
X151029250Y-68406500D01*
G75*
G02*
X151298000Y-68675250I0J-268750D01*
G01*
X151298000Y-69212750D01*
G75*
G02*
X151029250Y-69481500I-268750J0D01*
G01*
G37*
G36*
G01*
X151029250Y-67606500D02*
X150066750Y-67606500D01*
G75*
G02*
X149798000Y-67337750I0J268750D01*
G01*
X149798000Y-66800250D01*
G75*
G02*
X150066750Y-66531500I268750J0D01*
G01*
X151029250Y-66531500D01*
G75*
G02*
X151298000Y-66800250I0J-268750D01*
G01*
X151298000Y-67337750D01*
G75*
G02*
X151029250Y-67606500I-268750J0D01*
G01*
G37*
%TD*%
%TO.C,R4*%
G36*
G01*
X142390500Y-73997250D02*
X142390500Y-73034750D01*
G75*
G02*
X142659250Y-72766000I268750J0D01*
G01*
X143196750Y-72766000D01*
G75*
G02*
X143465500Y-73034750I0J-268750D01*
G01*
X143465500Y-73997250D01*
G75*
G02*
X143196750Y-74266000I-268750J0D01*
G01*
X142659250Y-74266000D01*
G75*
G02*
X142390500Y-73997250I0J268750D01*
G01*
G37*
G36*
G01*
X140515500Y-73997250D02*
X140515500Y-73034750D01*
G75*
G02*
X140784250Y-72766000I268750J0D01*
G01*
X141321750Y-72766000D01*
G75*
G02*
X141590500Y-73034750I0J-268750D01*
G01*
X141590500Y-73997250D01*
G75*
G02*
X141321750Y-74266000I-268750J0D01*
G01*
X140784250Y-74266000D01*
G75*
G02*
X140515500Y-73997250I0J268750D01*
G01*
G37*
%TD*%
%TO.C,R7*%
G36*
G01*
X144638500Y-63382750D02*
X144638500Y-64345250D01*
G75*
G02*
X144369750Y-64614000I-268750J0D01*
G01*
X143832250Y-64614000D01*
G75*
G02*
X143563500Y-64345250I0J268750D01*
G01*
X143563500Y-63382750D01*
G75*
G02*
X143832250Y-63114000I268750J0D01*
G01*
X144369750Y-63114000D01*
G75*
G02*
X144638500Y-63382750I0J-268750D01*
G01*
G37*
G36*
G01*
X146513500Y-63382750D02*
X146513500Y-64345250D01*
G75*
G02*
X146244750Y-64614000I-268750J0D01*
G01*
X145707250Y-64614000D01*
G75*
G02*
X145438500Y-64345250I0J268750D01*
G01*
X145438500Y-63382750D01*
G75*
G02*
X145707250Y-63114000I268750J0D01*
G01*
X146244750Y-63114000D01*
G75*
G02*
X146513500Y-63382750I0J-268750D01*
G01*
G37*
%TD*%
%TO.C,R8*%
G36*
G01*
X145433900Y-62414850D02*
X145433900Y-61452350D01*
G75*
G02*
X145702650Y-61183600I268750J0D01*
G01*
X146240150Y-61183600D01*
G75*
G02*
X146508900Y-61452350I0J-268750D01*
G01*
X146508900Y-62414850D01*
G75*
G02*
X146240150Y-62683600I-268750J0D01*
G01*
X145702650Y-62683600D01*
G75*
G02*
X145433900Y-62414850I0J268750D01*
G01*
G37*
G36*
G01*
X143558900Y-62414850D02*
X143558900Y-61452350D01*
G75*
G02*
X143827650Y-61183600I268750J0D01*
G01*
X144365150Y-61183600D01*
G75*
G02*
X144633900Y-61452350I0J-268750D01*
G01*
X144633900Y-62414850D01*
G75*
G02*
X144365150Y-62683600I-268750J0D01*
G01*
X143827650Y-62683600D01*
G75*
G02*
X143558900Y-62414850I0J268750D01*
G01*
G37*
%TD*%
%TO.C,U3*%
G36*
G01*
X143052200Y-72139200D02*
X142702200Y-72139200D01*
G75*
G02*
X142527200Y-71964200I0J175000D01*
G01*
X142527200Y-70464200D01*
G75*
G02*
X142702200Y-70289200I175000J0D01*
G01*
X143052200Y-70289200D01*
G75*
G02*
X143227200Y-70464200I0J-175000D01*
G01*
X143227200Y-71964200D01*
G75*
G02*
X143052200Y-72139200I-175000J0D01*
G01*
G37*
G36*
G01*
X144322200Y-72139200D02*
X143972200Y-72139200D01*
G75*
G02*
X143797200Y-71964200I0J175000D01*
G01*
X143797200Y-70464200D01*
G75*
G02*
X143972200Y-70289200I175000J0D01*
G01*
X144322200Y-70289200D01*
G75*
G02*
X144497200Y-70464200I0J-175000D01*
G01*
X144497200Y-71964200D01*
G75*
G02*
X144322200Y-72139200I-175000J0D01*
G01*
G37*
G36*
G01*
X145592200Y-72139200D02*
X145242200Y-72139200D01*
G75*
G02*
X145067200Y-71964200I0J175000D01*
G01*
X145067200Y-70464200D01*
G75*
G02*
X145242200Y-70289200I175000J0D01*
G01*
X145592200Y-70289200D01*
G75*
G02*
X145767200Y-70464200I0J-175000D01*
G01*
X145767200Y-71964200D01*
G75*
G02*
X145592200Y-72139200I-175000J0D01*
G01*
G37*
G36*
G01*
X146862200Y-72139200D02*
X146512200Y-72139200D01*
G75*
G02*
X146337200Y-71964200I0J175000D01*
G01*
X146337200Y-70464200D01*
G75*
G02*
X146512200Y-70289200I175000J0D01*
G01*
X146862200Y-70289200D01*
G75*
G02*
X147037200Y-70464200I0J-175000D01*
G01*
X147037200Y-71964200D01*
G75*
G02*
X146862200Y-72139200I-175000J0D01*
G01*
G37*
G36*
G01*
X146862200Y-66989200D02*
X146512200Y-66989200D01*
G75*
G02*
X146337200Y-66814200I0J175000D01*
G01*
X146337200Y-65314200D01*
G75*
G02*
X146512200Y-65139200I175000J0D01*
G01*
X146862200Y-65139200D01*
G75*
G02*
X147037200Y-65314200I0J-175000D01*
G01*
X147037200Y-66814200D01*
G75*
G02*
X146862200Y-66989200I-175000J0D01*
G01*
G37*
G36*
G01*
X145592200Y-66989200D02*
X145242200Y-66989200D01*
G75*
G02*
X145067200Y-66814200I0J175000D01*
G01*
X145067200Y-65314200D01*
G75*
G02*
X145242200Y-65139200I175000J0D01*
G01*
X145592200Y-65139200D01*
G75*
G02*
X145767200Y-65314200I0J-175000D01*
G01*
X145767200Y-66814200D01*
G75*
G02*
X145592200Y-66989200I-175000J0D01*
G01*
G37*
G36*
G01*
X144322200Y-66989200D02*
X143972200Y-66989200D01*
G75*
G02*
X143797200Y-66814200I0J175000D01*
G01*
X143797200Y-65314200D01*
G75*
G02*
X143972200Y-65139200I175000J0D01*
G01*
X144322200Y-65139200D01*
G75*
G02*
X144497200Y-65314200I0J-175000D01*
G01*
X144497200Y-66814200D01*
G75*
G02*
X144322200Y-66989200I-175000J0D01*
G01*
G37*
G36*
G01*
X143052200Y-66989200D02*
X142702200Y-66989200D01*
G75*
G02*
X142527200Y-66814200I0J175000D01*
G01*
X142527200Y-65314200D01*
G75*
G02*
X142702200Y-65139200I175000J0D01*
G01*
X143052200Y-65139200D01*
G75*
G02*
X143227200Y-65314200I0J-175000D01*
G01*
X143227200Y-66814200D01*
G75*
G02*
X143052200Y-66989200I-175000J0D01*
G01*
G37*
%TD*%
%TO.C,R14*%
G36*
G01*
X128584200Y-79442882D02*
X128584200Y-76529918D01*
G75*
G02*
X128852718Y-76261400I268518J0D01*
G01*
X129765682Y-76261400D01*
G75*
G02*
X130034200Y-76529918I0J-268518D01*
G01*
X130034200Y-79442882D01*
G75*
G02*
X129765682Y-79711400I-268518J0D01*
G01*
X128852718Y-79711400D01*
G75*
G02*
X128584200Y-79442882I0J268518D01*
G01*
G37*
G36*
G01*
X134384200Y-79442882D02*
X134384200Y-76529918D01*
G75*
G02*
X134652718Y-76261400I268518J0D01*
G01*
X135565682Y-76261400D01*
G75*
G02*
X135834200Y-76529918I0J-268518D01*
G01*
X135834200Y-79442882D01*
G75*
G02*
X135565682Y-79711400I-268518J0D01*
G01*
X134652718Y-79711400D01*
G75*
G02*
X134384200Y-79442882I0J268518D01*
G01*
G37*
%TD*%
%TO.C,R1*%
G36*
G01*
X118009250Y-69227500D02*
X117046750Y-69227500D01*
G75*
G02*
X116778000Y-68958750I0J268750D01*
G01*
X116778000Y-68421250D01*
G75*
G02*
X117046750Y-68152500I268750J0D01*
G01*
X118009250Y-68152500D01*
G75*
G02*
X118278000Y-68421250I0J-268750D01*
G01*
X118278000Y-68958750D01*
G75*
G02*
X118009250Y-69227500I-268750J0D01*
G01*
G37*
G36*
G01*
X118009250Y-71102500D02*
X117046750Y-71102500D01*
G75*
G02*
X116778000Y-70833750I0J268750D01*
G01*
X116778000Y-70296250D01*
G75*
G02*
X117046750Y-70027500I268750J0D01*
G01*
X118009250Y-70027500D01*
G75*
G02*
X118278000Y-70296250I0J-268750D01*
G01*
X118278000Y-70833750D01*
G75*
G02*
X118009250Y-71102500I-268750J0D01*
G01*
G37*
%TD*%
D12*
%TO.C,F1*%
X129466000Y-55736000D03*
X134566000Y-56936000D03*
%TD*%
%TO.C,F6*%
X134947000Y-84114000D03*
X129847000Y-82914000D03*
%TD*%
D13*
%TO.C,J1*%
X137594000Y-56244000D03*
%TD*%
%TO.C,J2*%
X126164000Y-56244000D03*
%TD*%
%TO.C,J4*%
X126470000Y-61688000D03*
%TD*%
%TO.C,J5*%
X137900000Y-61688000D03*
%TD*%
%TO.C,J21*%
X138229000Y-83549000D03*
%TD*%
%TO.C,J22*%
X126799000Y-83549000D03*
%TD*%
%TO.C,J25*%
X137900000Y-77944000D03*
%TD*%
%TO.C,J28*%
X126470000Y-77944000D03*
%TD*%
%TO.C,C1*%
G36*
G01*
X136604750Y-65536300D02*
X137567250Y-65536300D01*
G75*
G02*
X137836000Y-65805050I0J-268750D01*
G01*
X137836000Y-66342550D01*
G75*
G02*
X137567250Y-66611300I-268750J0D01*
G01*
X136604750Y-66611300D01*
G75*
G02*
X136336000Y-66342550I0J268750D01*
G01*
X136336000Y-65805050D01*
G75*
G02*
X136604750Y-65536300I268750J0D01*
G01*
G37*
G36*
G01*
X136604750Y-67411300D02*
X137567250Y-67411300D01*
G75*
G02*
X137836000Y-67680050I0J-268750D01*
G01*
X137836000Y-68217550D01*
G75*
G02*
X137567250Y-68486300I-268750J0D01*
G01*
X136604750Y-68486300D01*
G75*
G02*
X136336000Y-68217550I0J268750D01*
G01*
X136336000Y-67680050D01*
G75*
G02*
X136604750Y-67411300I268750J0D01*
G01*
G37*
%TD*%
%TO.C,R2*%
G36*
G01*
X117046750Y-63991500D02*
X118009250Y-63991500D01*
G75*
G02*
X118278000Y-64260250I0J-268750D01*
G01*
X118278000Y-64797750D01*
G75*
G02*
X118009250Y-65066500I-268750J0D01*
G01*
X117046750Y-65066500D01*
G75*
G02*
X116778000Y-64797750I0J268750D01*
G01*
X116778000Y-64260250D01*
G75*
G02*
X117046750Y-63991500I268750J0D01*
G01*
G37*
G36*
G01*
X117046750Y-65866500D02*
X118009250Y-65866500D01*
G75*
G02*
X118278000Y-66135250I0J-268750D01*
G01*
X118278000Y-66672750D01*
G75*
G02*
X118009250Y-66941500I-268750J0D01*
G01*
X117046750Y-66941500D01*
G75*
G02*
X116778000Y-66672750I0J268750D01*
G01*
X116778000Y-66135250D01*
G75*
G02*
X117046750Y-65866500I268750J0D01*
G01*
G37*
%TD*%
%TO.C,R6*%
G36*
G01*
X135808800Y-60350118D02*
X135808800Y-63263082D01*
G75*
G02*
X135540282Y-63531600I-268518J0D01*
G01*
X134627318Y-63531600D01*
G75*
G02*
X134358800Y-63263082I0J268518D01*
G01*
X134358800Y-60350118D01*
G75*
G02*
X134627318Y-60081600I268518J0D01*
G01*
X135540282Y-60081600D01*
G75*
G02*
X135808800Y-60350118I0J-268518D01*
G01*
G37*
G36*
G01*
X130008800Y-60350118D02*
X130008800Y-63263082D01*
G75*
G02*
X129740282Y-63531600I-268518J0D01*
G01*
X128827318Y-63531600D01*
G75*
G02*
X128558800Y-63263082I0J268518D01*
G01*
X128558800Y-60350118D01*
G75*
G02*
X128827318Y-60081600I268518J0D01*
G01*
X129740282Y-60081600D01*
G75*
G02*
X130008800Y-60350118I0J-268518D01*
G01*
G37*
%TD*%
%TO.C,U4*%
G36*
G01*
X128758800Y-65225601D02*
X128758800Y-64875601D01*
G75*
G02*
X128933800Y-64700601I175000J0D01*
G01*
X130433800Y-64700601D01*
G75*
G02*
X130608800Y-64875601I0J-175000D01*
G01*
X130608800Y-65225601D01*
G75*
G02*
X130433800Y-65400601I-175000J0D01*
G01*
X128933800Y-65400601D01*
G75*
G02*
X128758800Y-65225601I0J175000D01*
G01*
G37*
G36*
G01*
X128758800Y-66495601D02*
X128758800Y-66145601D01*
G75*
G02*
X128933800Y-65970601I175000J0D01*
G01*
X130433800Y-65970601D01*
G75*
G02*
X130608800Y-66145601I0J-175000D01*
G01*
X130608800Y-66495601D01*
G75*
G02*
X130433800Y-66670601I-175000J0D01*
G01*
X128933800Y-66670601D01*
G75*
G02*
X128758800Y-66495601I0J175000D01*
G01*
G37*
G36*
G01*
X128758800Y-67765601D02*
X128758800Y-67415601D01*
G75*
G02*
X128933800Y-67240601I175000J0D01*
G01*
X130433800Y-67240601D01*
G75*
G02*
X130608800Y-67415601I0J-175000D01*
G01*
X130608800Y-67765601D01*
G75*
G02*
X130433800Y-67940601I-175000J0D01*
G01*
X128933800Y-67940601D01*
G75*
G02*
X128758800Y-67765601I0J175000D01*
G01*
G37*
G36*
G01*
X128758800Y-69035601D02*
X128758800Y-68685601D01*
G75*
G02*
X128933800Y-68510601I175000J0D01*
G01*
X130433800Y-68510601D01*
G75*
G02*
X130608800Y-68685601I0J-175000D01*
G01*
X130608800Y-69035601D01*
G75*
G02*
X130433800Y-69210601I-175000J0D01*
G01*
X128933800Y-69210601D01*
G75*
G02*
X128758800Y-69035601I0J175000D01*
G01*
G37*
G36*
G01*
X133908800Y-69035601D02*
X133908800Y-68685601D01*
G75*
G02*
X134083800Y-68510601I175000J0D01*
G01*
X135583800Y-68510601D01*
G75*
G02*
X135758800Y-68685601I0J-175000D01*
G01*
X135758800Y-69035601D01*
G75*
G02*
X135583800Y-69210601I-175000J0D01*
G01*
X134083800Y-69210601D01*
G75*
G02*
X133908800Y-69035601I0J175000D01*
G01*
G37*
G36*
G01*
X133908800Y-67765601D02*
X133908800Y-67415601D01*
G75*
G02*
X134083800Y-67240601I175000J0D01*
G01*
X135583800Y-67240601D01*
G75*
G02*
X135758800Y-67415601I0J-175000D01*
G01*
X135758800Y-67765601D01*
G75*
G02*
X135583800Y-67940601I-175000J0D01*
G01*
X134083800Y-67940601D01*
G75*
G02*
X133908800Y-67765601I0J175000D01*
G01*
G37*
G36*
G01*
X133908800Y-66495601D02*
X133908800Y-66145601D01*
G75*
G02*
X134083800Y-65970601I175000J0D01*
G01*
X135583800Y-65970601D01*
G75*
G02*
X135758800Y-66145601I0J-175000D01*
G01*
X135758800Y-66495601D01*
G75*
G02*
X135583800Y-66670601I-175000J0D01*
G01*
X134083800Y-66670601D01*
G75*
G02*
X133908800Y-66495601I0J175000D01*
G01*
G37*
G36*
G01*
X133908800Y-65225601D02*
X133908800Y-64875601D01*
G75*
G02*
X134083800Y-64700601I175000J0D01*
G01*
X135583800Y-64700601D01*
G75*
G02*
X135758800Y-64875601I0J-175000D01*
G01*
X135758800Y-65225601D01*
G75*
G02*
X135583800Y-65400601I-175000J0D01*
G01*
X134083800Y-65400601D01*
G75*
G02*
X133908800Y-65225601I0J175000D01*
G01*
G37*
%TD*%
D10*
%TO.C,J6*%
X160760000Y-58640000D03*
D11*
X163300000Y-58640000D03*
X160760000Y-61180000D03*
X163300000Y-61180000D03*
X160760000Y-63720000D03*
X163300000Y-63720000D03*
X160760000Y-66260000D03*
X163300000Y-66260000D03*
X160760000Y-68800000D03*
X163300000Y-68800000D03*
X160760000Y-71340000D03*
X163300000Y-71340000D03*
X160760000Y-73880000D03*
X163300000Y-73880000D03*
X160760000Y-76420000D03*
X163300000Y-76420000D03*
X160760000Y-78960000D03*
X163300000Y-78960000D03*
X160760000Y-81500000D03*
X163300000Y-81500000D03*
%TD*%
D14*
%TO.C,R10*%
X152156000Y-61346000D03*
D15*
X154696000Y-61346000D03*
%TD*%
D16*
%TO.C,D1*%
X154690000Y-58000000D03*
D17*
X152150000Y-58000000D03*
%TD*%
M02*
