%TF.GenerationSoftware,KiCad,Pcbnew,(5.1.6)-1*%
%TF.CreationDate,2020-06-17T13:40:15+01:00*%
%TF.ProjectId,peltier_driver_pcb,70656c74-6965-4725-9f64-72697665725f,rev?*%
%TF.SameCoordinates,Original*%
%TF.FileFunction,Paste,Top*%
%TF.FilePolarity,Positive*%
%FSLAX46Y46*%
G04 Gerber Fmt 4.6, Leading zero omitted, Abs format (unit mm)*
G04 Created by KiCad (PCBNEW (5.1.6)-1) date 2020-06-17 13:40:15*
%MOMM*%
%LPD*%
G01*
G04 APERTURE LIST*
G04 APERTURE END LIST*
%TO.C,U9*%
G36*
G01*
X135584200Y-74592399D02*
X135584200Y-74892399D01*
G75*
G02*
X135434200Y-75042399I-150000J0D01*
G01*
X133984200Y-75042399D01*
G75*
G02*
X133834200Y-74892399I0J150000D01*
G01*
X133834200Y-74592399D01*
G75*
G02*
X133984200Y-74442399I150000J0D01*
G01*
X135434200Y-74442399D01*
G75*
G02*
X135584200Y-74592399I0J-150000D01*
G01*
G37*
G36*
G01*
X135584200Y-73322399D02*
X135584200Y-73622399D01*
G75*
G02*
X135434200Y-73772399I-150000J0D01*
G01*
X133984200Y-73772399D01*
G75*
G02*
X133834200Y-73622399I0J150000D01*
G01*
X133834200Y-73322399D01*
G75*
G02*
X133984200Y-73172399I150000J0D01*
G01*
X135434200Y-73172399D01*
G75*
G02*
X135584200Y-73322399I0J-150000D01*
G01*
G37*
G36*
G01*
X135584200Y-72052399D02*
X135584200Y-72352399D01*
G75*
G02*
X135434200Y-72502399I-150000J0D01*
G01*
X133984200Y-72502399D01*
G75*
G02*
X133834200Y-72352399I0J150000D01*
G01*
X133834200Y-72052399D01*
G75*
G02*
X133984200Y-71902399I150000J0D01*
G01*
X135434200Y-71902399D01*
G75*
G02*
X135584200Y-72052399I0J-150000D01*
G01*
G37*
G36*
G01*
X135584200Y-70782399D02*
X135584200Y-71082399D01*
G75*
G02*
X135434200Y-71232399I-150000J0D01*
G01*
X133984200Y-71232399D01*
G75*
G02*
X133834200Y-71082399I0J150000D01*
G01*
X133834200Y-70782399D01*
G75*
G02*
X133984200Y-70632399I150000J0D01*
G01*
X135434200Y-70632399D01*
G75*
G02*
X135584200Y-70782399I0J-150000D01*
G01*
G37*
G36*
G01*
X130434200Y-70782399D02*
X130434200Y-71082399D01*
G75*
G02*
X130284200Y-71232399I-150000J0D01*
G01*
X128834200Y-71232399D01*
G75*
G02*
X128684200Y-71082399I0J150000D01*
G01*
X128684200Y-70782399D01*
G75*
G02*
X128834200Y-70632399I150000J0D01*
G01*
X130284200Y-70632399D01*
G75*
G02*
X130434200Y-70782399I0J-150000D01*
G01*
G37*
G36*
G01*
X130434200Y-72052399D02*
X130434200Y-72352399D01*
G75*
G02*
X130284200Y-72502399I-150000J0D01*
G01*
X128834200Y-72502399D01*
G75*
G02*
X128684200Y-72352399I0J150000D01*
G01*
X128684200Y-72052399D01*
G75*
G02*
X128834200Y-71902399I150000J0D01*
G01*
X130284200Y-71902399D01*
G75*
G02*
X130434200Y-72052399I0J-150000D01*
G01*
G37*
G36*
G01*
X130434200Y-73322399D02*
X130434200Y-73622399D01*
G75*
G02*
X130284200Y-73772399I-150000J0D01*
G01*
X128834200Y-73772399D01*
G75*
G02*
X128684200Y-73622399I0J150000D01*
G01*
X128684200Y-73322399D01*
G75*
G02*
X128834200Y-73172399I150000J0D01*
G01*
X130284200Y-73172399D01*
G75*
G02*
X130434200Y-73322399I0J-150000D01*
G01*
G37*
G36*
G01*
X130434200Y-74592399D02*
X130434200Y-74892399D01*
G75*
G02*
X130284200Y-75042399I-150000J0D01*
G01*
X128834200Y-75042399D01*
G75*
G02*
X128684200Y-74892399I0J150000D01*
G01*
X128684200Y-74592399D01*
G75*
G02*
X128834200Y-74442399I150000J0D01*
G01*
X130284200Y-74442399D01*
G75*
G02*
X130434200Y-74592399I0J-150000D01*
G01*
G37*
%TD*%
%TO.C,C6*%
G36*
G01*
X127763250Y-72352500D02*
X126850750Y-72352500D01*
G75*
G02*
X126607000Y-72108750I0J243750D01*
G01*
X126607000Y-71621250D01*
G75*
G02*
X126850750Y-71377500I243750J0D01*
G01*
X127763250Y-71377500D01*
G75*
G02*
X128007000Y-71621250I0J-243750D01*
G01*
X128007000Y-72108750D01*
G75*
G02*
X127763250Y-72352500I-243750J0D01*
G01*
G37*
G36*
G01*
X127763250Y-74227500D02*
X126850750Y-74227500D01*
G75*
G02*
X126607000Y-73983750I0J243750D01*
G01*
X126607000Y-73496250D01*
G75*
G02*
X126850750Y-73252500I243750J0D01*
G01*
X127763250Y-73252500D01*
G75*
G02*
X128007000Y-73496250I0J-243750D01*
G01*
X128007000Y-73983750D01*
G75*
G02*
X127763250Y-74227500I-243750J0D01*
G01*
G37*
%TD*%
%TO.C,R3*%
G36*
G01*
X148972250Y-68318500D02*
X148059750Y-68318500D01*
G75*
G02*
X147816000Y-68074750I0J243750D01*
G01*
X147816000Y-67587250D01*
G75*
G02*
X148059750Y-67343500I243750J0D01*
G01*
X148972250Y-67343500D01*
G75*
G02*
X149216000Y-67587250I0J-243750D01*
G01*
X149216000Y-68074750D01*
G75*
G02*
X148972250Y-68318500I-243750J0D01*
G01*
G37*
G36*
G01*
X148972250Y-70193500D02*
X148059750Y-70193500D01*
G75*
G02*
X147816000Y-69949750I0J243750D01*
G01*
X147816000Y-69462250D01*
G75*
G02*
X148059750Y-69218500I243750J0D01*
G01*
X148972250Y-69218500D01*
G75*
G02*
X149216000Y-69462250I0J-243750D01*
G01*
X149216000Y-69949750D01*
G75*
G02*
X148972250Y-70193500I-243750J0D01*
G01*
G37*
%TD*%
%TO.C,R5*%
G36*
G01*
X143964500Y-73972250D02*
X143964500Y-73059750D01*
G75*
G02*
X144208250Y-72816000I243750J0D01*
G01*
X144695750Y-72816000D01*
G75*
G02*
X144939500Y-73059750I0J-243750D01*
G01*
X144939500Y-73972250D01*
G75*
G02*
X144695750Y-74216000I-243750J0D01*
G01*
X144208250Y-74216000D01*
G75*
G02*
X143964500Y-73972250I0J243750D01*
G01*
G37*
G36*
G01*
X145839500Y-73972250D02*
X145839500Y-73059750D01*
G75*
G02*
X146083250Y-72816000I243750J0D01*
G01*
X146570750Y-72816000D01*
G75*
G02*
X146814500Y-73059750I0J-243750D01*
G01*
X146814500Y-73972250D01*
G75*
G02*
X146570750Y-74216000I-243750J0D01*
G01*
X146083250Y-74216000D01*
G75*
G02*
X145839500Y-73972250I0J243750D01*
G01*
G37*
%TD*%
%TO.C,R9*%
G36*
G01*
X151004250Y-69431500D02*
X150091750Y-69431500D01*
G75*
G02*
X149848000Y-69187750I0J243750D01*
G01*
X149848000Y-68700250D01*
G75*
G02*
X150091750Y-68456500I243750J0D01*
G01*
X151004250Y-68456500D01*
G75*
G02*
X151248000Y-68700250I0J-243750D01*
G01*
X151248000Y-69187750D01*
G75*
G02*
X151004250Y-69431500I-243750J0D01*
G01*
G37*
G36*
G01*
X151004250Y-67556500D02*
X150091750Y-67556500D01*
G75*
G02*
X149848000Y-67312750I0J243750D01*
G01*
X149848000Y-66825250D01*
G75*
G02*
X150091750Y-66581500I243750J0D01*
G01*
X151004250Y-66581500D01*
G75*
G02*
X151248000Y-66825250I0J-243750D01*
G01*
X151248000Y-67312750D01*
G75*
G02*
X151004250Y-67556500I-243750J0D01*
G01*
G37*
%TD*%
%TO.C,R4*%
G36*
G01*
X142440500Y-73972250D02*
X142440500Y-73059750D01*
G75*
G02*
X142684250Y-72816000I243750J0D01*
G01*
X143171750Y-72816000D01*
G75*
G02*
X143415500Y-73059750I0J-243750D01*
G01*
X143415500Y-73972250D01*
G75*
G02*
X143171750Y-74216000I-243750J0D01*
G01*
X142684250Y-74216000D01*
G75*
G02*
X142440500Y-73972250I0J243750D01*
G01*
G37*
G36*
G01*
X140565500Y-73972250D02*
X140565500Y-73059750D01*
G75*
G02*
X140809250Y-72816000I243750J0D01*
G01*
X141296750Y-72816000D01*
G75*
G02*
X141540500Y-73059750I0J-243750D01*
G01*
X141540500Y-73972250D01*
G75*
G02*
X141296750Y-74216000I-243750J0D01*
G01*
X140809250Y-74216000D01*
G75*
G02*
X140565500Y-73972250I0J243750D01*
G01*
G37*
%TD*%
%TO.C,R7*%
G36*
G01*
X144588500Y-63407750D02*
X144588500Y-64320250D01*
G75*
G02*
X144344750Y-64564000I-243750J0D01*
G01*
X143857250Y-64564000D01*
G75*
G02*
X143613500Y-64320250I0J243750D01*
G01*
X143613500Y-63407750D01*
G75*
G02*
X143857250Y-63164000I243750J0D01*
G01*
X144344750Y-63164000D01*
G75*
G02*
X144588500Y-63407750I0J-243750D01*
G01*
G37*
G36*
G01*
X146463500Y-63407750D02*
X146463500Y-64320250D01*
G75*
G02*
X146219750Y-64564000I-243750J0D01*
G01*
X145732250Y-64564000D01*
G75*
G02*
X145488500Y-64320250I0J243750D01*
G01*
X145488500Y-63407750D01*
G75*
G02*
X145732250Y-63164000I243750J0D01*
G01*
X146219750Y-63164000D01*
G75*
G02*
X146463500Y-63407750I0J-243750D01*
G01*
G37*
%TD*%
%TO.C,R8*%
G36*
G01*
X145483900Y-62389850D02*
X145483900Y-61477350D01*
G75*
G02*
X145727650Y-61233600I243750J0D01*
G01*
X146215150Y-61233600D01*
G75*
G02*
X146458900Y-61477350I0J-243750D01*
G01*
X146458900Y-62389850D01*
G75*
G02*
X146215150Y-62633600I-243750J0D01*
G01*
X145727650Y-62633600D01*
G75*
G02*
X145483900Y-62389850I0J243750D01*
G01*
G37*
G36*
G01*
X143608900Y-62389850D02*
X143608900Y-61477350D01*
G75*
G02*
X143852650Y-61233600I243750J0D01*
G01*
X144340150Y-61233600D01*
G75*
G02*
X144583900Y-61477350I0J-243750D01*
G01*
X144583900Y-62389850D01*
G75*
G02*
X144340150Y-62633600I-243750J0D01*
G01*
X143852650Y-62633600D01*
G75*
G02*
X143608900Y-62389850I0J243750D01*
G01*
G37*
%TD*%
%TO.C,U3*%
G36*
G01*
X143027200Y-72089200D02*
X142727200Y-72089200D01*
G75*
G02*
X142577200Y-71939200I0J150000D01*
G01*
X142577200Y-70489200D01*
G75*
G02*
X142727200Y-70339200I150000J0D01*
G01*
X143027200Y-70339200D01*
G75*
G02*
X143177200Y-70489200I0J-150000D01*
G01*
X143177200Y-71939200D01*
G75*
G02*
X143027200Y-72089200I-150000J0D01*
G01*
G37*
G36*
G01*
X144297200Y-72089200D02*
X143997200Y-72089200D01*
G75*
G02*
X143847200Y-71939200I0J150000D01*
G01*
X143847200Y-70489200D01*
G75*
G02*
X143997200Y-70339200I150000J0D01*
G01*
X144297200Y-70339200D01*
G75*
G02*
X144447200Y-70489200I0J-150000D01*
G01*
X144447200Y-71939200D01*
G75*
G02*
X144297200Y-72089200I-150000J0D01*
G01*
G37*
G36*
G01*
X145567200Y-72089200D02*
X145267200Y-72089200D01*
G75*
G02*
X145117200Y-71939200I0J150000D01*
G01*
X145117200Y-70489200D01*
G75*
G02*
X145267200Y-70339200I150000J0D01*
G01*
X145567200Y-70339200D01*
G75*
G02*
X145717200Y-70489200I0J-150000D01*
G01*
X145717200Y-71939200D01*
G75*
G02*
X145567200Y-72089200I-150000J0D01*
G01*
G37*
G36*
G01*
X146837200Y-72089200D02*
X146537200Y-72089200D01*
G75*
G02*
X146387200Y-71939200I0J150000D01*
G01*
X146387200Y-70489200D01*
G75*
G02*
X146537200Y-70339200I150000J0D01*
G01*
X146837200Y-70339200D01*
G75*
G02*
X146987200Y-70489200I0J-150000D01*
G01*
X146987200Y-71939200D01*
G75*
G02*
X146837200Y-72089200I-150000J0D01*
G01*
G37*
G36*
G01*
X146837200Y-66939200D02*
X146537200Y-66939200D01*
G75*
G02*
X146387200Y-66789200I0J150000D01*
G01*
X146387200Y-65339200D01*
G75*
G02*
X146537200Y-65189200I150000J0D01*
G01*
X146837200Y-65189200D01*
G75*
G02*
X146987200Y-65339200I0J-150000D01*
G01*
X146987200Y-66789200D01*
G75*
G02*
X146837200Y-66939200I-150000J0D01*
G01*
G37*
G36*
G01*
X145567200Y-66939200D02*
X145267200Y-66939200D01*
G75*
G02*
X145117200Y-66789200I0J150000D01*
G01*
X145117200Y-65339200D01*
G75*
G02*
X145267200Y-65189200I150000J0D01*
G01*
X145567200Y-65189200D01*
G75*
G02*
X145717200Y-65339200I0J-150000D01*
G01*
X145717200Y-66789200D01*
G75*
G02*
X145567200Y-66939200I-150000J0D01*
G01*
G37*
G36*
G01*
X144297200Y-66939200D02*
X143997200Y-66939200D01*
G75*
G02*
X143847200Y-66789200I0J150000D01*
G01*
X143847200Y-65339200D01*
G75*
G02*
X143997200Y-65189200I150000J0D01*
G01*
X144297200Y-65189200D01*
G75*
G02*
X144447200Y-65339200I0J-150000D01*
G01*
X144447200Y-66789200D01*
G75*
G02*
X144297200Y-66939200I-150000J0D01*
G01*
G37*
G36*
G01*
X143027200Y-66939200D02*
X142727200Y-66939200D01*
G75*
G02*
X142577200Y-66789200I0J150000D01*
G01*
X142577200Y-65339200D01*
G75*
G02*
X142727200Y-65189200I150000J0D01*
G01*
X143027200Y-65189200D01*
G75*
G02*
X143177200Y-65339200I0J-150000D01*
G01*
X143177200Y-66789200D01*
G75*
G02*
X143027200Y-66939200I-150000J0D01*
G01*
G37*
%TD*%
%TO.C,R14*%
G36*
G01*
X128634200Y-79411401D02*
X128634200Y-76561399D01*
G75*
G02*
X128884199Y-76311400I249999J0D01*
G01*
X129734201Y-76311400D01*
G75*
G02*
X129984200Y-76561399I0J-249999D01*
G01*
X129984200Y-79411401D01*
G75*
G02*
X129734201Y-79661400I-249999J0D01*
G01*
X128884199Y-79661400D01*
G75*
G02*
X128634200Y-79411401I0J249999D01*
G01*
G37*
G36*
G01*
X134434200Y-79411401D02*
X134434200Y-76561399D01*
G75*
G02*
X134684199Y-76311400I249999J0D01*
G01*
X135534201Y-76311400D01*
G75*
G02*
X135784200Y-76561399I0J-249999D01*
G01*
X135784200Y-79411401D01*
G75*
G02*
X135534201Y-79661400I-249999J0D01*
G01*
X134684199Y-79661400D01*
G75*
G02*
X134434200Y-79411401I0J249999D01*
G01*
G37*
%TD*%
%TO.C,R1*%
G36*
G01*
X117984250Y-69177500D02*
X117071750Y-69177500D01*
G75*
G02*
X116828000Y-68933750I0J243750D01*
G01*
X116828000Y-68446250D01*
G75*
G02*
X117071750Y-68202500I243750J0D01*
G01*
X117984250Y-68202500D01*
G75*
G02*
X118228000Y-68446250I0J-243750D01*
G01*
X118228000Y-68933750D01*
G75*
G02*
X117984250Y-69177500I-243750J0D01*
G01*
G37*
G36*
G01*
X117984250Y-71052500D02*
X117071750Y-71052500D01*
G75*
G02*
X116828000Y-70808750I0J243750D01*
G01*
X116828000Y-70321250D01*
G75*
G02*
X117071750Y-70077500I243750J0D01*
G01*
X117984250Y-70077500D01*
G75*
G02*
X118228000Y-70321250I0J-243750D01*
G01*
X118228000Y-70808750D01*
G75*
G02*
X117984250Y-71052500I-243750J0D01*
G01*
G37*
%TD*%
%TO.C,C1*%
G36*
G01*
X136629750Y-65586300D02*
X137542250Y-65586300D01*
G75*
G02*
X137786000Y-65830050I0J-243750D01*
G01*
X137786000Y-66317550D01*
G75*
G02*
X137542250Y-66561300I-243750J0D01*
G01*
X136629750Y-66561300D01*
G75*
G02*
X136386000Y-66317550I0J243750D01*
G01*
X136386000Y-65830050D01*
G75*
G02*
X136629750Y-65586300I243750J0D01*
G01*
G37*
G36*
G01*
X136629750Y-67461300D02*
X137542250Y-67461300D01*
G75*
G02*
X137786000Y-67705050I0J-243750D01*
G01*
X137786000Y-68192550D01*
G75*
G02*
X137542250Y-68436300I-243750J0D01*
G01*
X136629750Y-68436300D01*
G75*
G02*
X136386000Y-68192550I0J243750D01*
G01*
X136386000Y-67705050D01*
G75*
G02*
X136629750Y-67461300I243750J0D01*
G01*
G37*
%TD*%
%TO.C,R2*%
G36*
G01*
X117071750Y-64041500D02*
X117984250Y-64041500D01*
G75*
G02*
X118228000Y-64285250I0J-243750D01*
G01*
X118228000Y-64772750D01*
G75*
G02*
X117984250Y-65016500I-243750J0D01*
G01*
X117071750Y-65016500D01*
G75*
G02*
X116828000Y-64772750I0J243750D01*
G01*
X116828000Y-64285250D01*
G75*
G02*
X117071750Y-64041500I243750J0D01*
G01*
G37*
G36*
G01*
X117071750Y-65916500D02*
X117984250Y-65916500D01*
G75*
G02*
X118228000Y-66160250I0J-243750D01*
G01*
X118228000Y-66647750D01*
G75*
G02*
X117984250Y-66891500I-243750J0D01*
G01*
X117071750Y-66891500D01*
G75*
G02*
X116828000Y-66647750I0J243750D01*
G01*
X116828000Y-66160250D01*
G75*
G02*
X117071750Y-65916500I243750J0D01*
G01*
G37*
%TD*%
%TO.C,R6*%
G36*
G01*
X135758800Y-60381599D02*
X135758800Y-63231601D01*
G75*
G02*
X135508801Y-63481600I-249999J0D01*
G01*
X134658799Y-63481600D01*
G75*
G02*
X134408800Y-63231601I0J249999D01*
G01*
X134408800Y-60381599D01*
G75*
G02*
X134658799Y-60131600I249999J0D01*
G01*
X135508801Y-60131600D01*
G75*
G02*
X135758800Y-60381599I0J-249999D01*
G01*
G37*
G36*
G01*
X129958800Y-60381599D02*
X129958800Y-63231601D01*
G75*
G02*
X129708801Y-63481600I-249999J0D01*
G01*
X128858799Y-63481600D01*
G75*
G02*
X128608800Y-63231601I0J249999D01*
G01*
X128608800Y-60381599D01*
G75*
G02*
X128858799Y-60131600I249999J0D01*
G01*
X129708801Y-60131600D01*
G75*
G02*
X129958800Y-60381599I0J-249999D01*
G01*
G37*
%TD*%
%TO.C,U4*%
G36*
G01*
X128808800Y-65200601D02*
X128808800Y-64900601D01*
G75*
G02*
X128958800Y-64750601I150000J0D01*
G01*
X130408800Y-64750601D01*
G75*
G02*
X130558800Y-64900601I0J-150000D01*
G01*
X130558800Y-65200601D01*
G75*
G02*
X130408800Y-65350601I-150000J0D01*
G01*
X128958800Y-65350601D01*
G75*
G02*
X128808800Y-65200601I0J150000D01*
G01*
G37*
G36*
G01*
X128808800Y-66470601D02*
X128808800Y-66170601D01*
G75*
G02*
X128958800Y-66020601I150000J0D01*
G01*
X130408800Y-66020601D01*
G75*
G02*
X130558800Y-66170601I0J-150000D01*
G01*
X130558800Y-66470601D01*
G75*
G02*
X130408800Y-66620601I-150000J0D01*
G01*
X128958800Y-66620601D01*
G75*
G02*
X128808800Y-66470601I0J150000D01*
G01*
G37*
G36*
G01*
X128808800Y-67740601D02*
X128808800Y-67440601D01*
G75*
G02*
X128958800Y-67290601I150000J0D01*
G01*
X130408800Y-67290601D01*
G75*
G02*
X130558800Y-67440601I0J-150000D01*
G01*
X130558800Y-67740601D01*
G75*
G02*
X130408800Y-67890601I-150000J0D01*
G01*
X128958800Y-67890601D01*
G75*
G02*
X128808800Y-67740601I0J150000D01*
G01*
G37*
G36*
G01*
X128808800Y-69010601D02*
X128808800Y-68710601D01*
G75*
G02*
X128958800Y-68560601I150000J0D01*
G01*
X130408800Y-68560601D01*
G75*
G02*
X130558800Y-68710601I0J-150000D01*
G01*
X130558800Y-69010601D01*
G75*
G02*
X130408800Y-69160601I-150000J0D01*
G01*
X128958800Y-69160601D01*
G75*
G02*
X128808800Y-69010601I0J150000D01*
G01*
G37*
G36*
G01*
X133958800Y-69010601D02*
X133958800Y-68710601D01*
G75*
G02*
X134108800Y-68560601I150000J0D01*
G01*
X135558800Y-68560601D01*
G75*
G02*
X135708800Y-68710601I0J-150000D01*
G01*
X135708800Y-69010601D01*
G75*
G02*
X135558800Y-69160601I-150000J0D01*
G01*
X134108800Y-69160601D01*
G75*
G02*
X133958800Y-69010601I0J150000D01*
G01*
G37*
G36*
G01*
X133958800Y-67740601D02*
X133958800Y-67440601D01*
G75*
G02*
X134108800Y-67290601I150000J0D01*
G01*
X135558800Y-67290601D01*
G75*
G02*
X135708800Y-67440601I0J-150000D01*
G01*
X135708800Y-67740601D01*
G75*
G02*
X135558800Y-67890601I-150000J0D01*
G01*
X134108800Y-67890601D01*
G75*
G02*
X133958800Y-67740601I0J150000D01*
G01*
G37*
G36*
G01*
X133958800Y-66470601D02*
X133958800Y-66170601D01*
G75*
G02*
X134108800Y-66020601I150000J0D01*
G01*
X135558800Y-66020601D01*
G75*
G02*
X135708800Y-66170601I0J-150000D01*
G01*
X135708800Y-66470601D01*
G75*
G02*
X135558800Y-66620601I-150000J0D01*
G01*
X134108800Y-66620601D01*
G75*
G02*
X133958800Y-66470601I0J150000D01*
G01*
G37*
G36*
G01*
X133958800Y-65200601D02*
X133958800Y-64900601D01*
G75*
G02*
X134108800Y-64750601I150000J0D01*
G01*
X135558800Y-64750601D01*
G75*
G02*
X135708800Y-64900601I0J-150000D01*
G01*
X135708800Y-65200601D01*
G75*
G02*
X135558800Y-65350601I-150000J0D01*
G01*
X134108800Y-65350601D01*
G75*
G02*
X133958800Y-65200601I0J150000D01*
G01*
G37*
%TD*%
M02*
